<?xml version="1.0" encoding="UTF-8" standalone="no"?>
<!DOCTYPE svg PUBLIC "-//W3C//DTD SVG 1.1//EN"
 "http://www.w3.org/Graphics/SVG/1.1/DTD/svg11.dtd">
<!-- Generated by graphviz version 10.0.1 (0)
 -->
<!-- Title: RenderGraph Pages: 1 -->
<svg width="4911pt" height="471pt"
 viewBox="0.00 0.00 4911.25 471.00" xmlns="http://www.w3.org/2000/svg" xmlns:xlink="http://www.w3.org/1999/xlink">
<g id="graph0" class="graph" transform="scale(1 1) rotate(0) translate(4 467)">
<title>RenderGraph</title>
<polygon fill="#0d1117" stroke="none" points="-4,4 -4,-467 4907.25,-467 4907.25,4 -4,4"/>
<g id="clust1" class="cluster">
<title>cluster_Core2d</title>
<path fill="#343a42" stroke="#343a42" d="M47,-8C47,-8 2606.25,-8 2606.25,-8 2612.25,-8 2618.25,-14 2618.25,-20 2618.25,-20 2618.25,-170 2618.25,-170 2618.25,-176 2612.25,-182 2606.25,-182 2606.25,-182 47,-182 47,-182 41,-182 35,-176 35,-170 35,-170 35,-20 35,-20 35,-14 41,-8 47,-8"/>
<text text-anchor="middle" x="1326.62" y="-164.7" font-family="Times,serif" font-size="14.00" fill="white">Core2d</text>
</g>
<g id="clust2" class="cluster">
<title>cluster_Core2d_SubGraphUi</title>
<path fill="#6f90ad" stroke="#6f90ad" d="M66.12,-16C66.12,-16 140.62,-16 140.62,-16 146.62,-16 152.62,-22 152.62,-28 152.62,-28 152.62,-87 152.62,-87 152.62,-93 146.62,-99 140.62,-99 140.62,-99 66.12,-99 66.12,-99 60.12,-99 54.12,-93 54.12,-87 54.12,-87 54.12,-28 54.12,-28 54.12,-22 60.12,-16 66.12,-16"/>
<text text-anchor="middle" x="103.38" y="-81.7" font-family="Times,serif" font-size="14.00">SubGraphUi</text>
</g>
<g id="clust3" class="cluster">
<title>cluster_Core3d</title>
<path fill="#343a42" stroke="#343a42" d="M20,-190C20,-190 4883.25,-190 4883.25,-190 4889.25,-190 4895.25,-196 4895.25,-202 4895.25,-202 4895.25,-401 4895.25,-401 4895.25,-407 4889.25,-413 4883.25,-413 4883.25,-413 20,-413 20,-413 14,-413 8,-407 8,-401 8,-401 8,-202 8,-202 8,-196 14,-190 20,-190"/>
<text text-anchor="middle" x="2451.62" y="-395.7" font-family="Times,serif" font-size="14.00" fill="white">Core3d</text>
</g>
<g id="clust4" class="cluster">
<title>cluster_Core3d_SubGraphUi</title>
<path fill="#6f90ad" stroke="#6f90ad" d="M66.12,-223C66.12,-223 140.62,-223 140.62,-223 146.62,-223 152.62,-229 152.62,-235 152.62,-235 152.62,-294 152.62,-294 152.62,-300 146.62,-306 140.62,-306 140.62,-306 66.12,-306 66.12,-306 60.12,-306 54.12,-300 54.12,-294 54.12,-294 54.12,-235 54.12,-235 54.12,-229 60.12,-223 66.12,-223"/>
<text text-anchor="middle" x="103.38" y="-288.7" font-family="Times,serif" font-size="14.00">SubGraphUi</text>
</g>
<!-- _Core2d_SubGraphUi__Core2d_SubGraphUiUiPass -->
<g id="node1" class="node">
<title>_Core2d_SubGraphUi__Core2d_SubGraphUiUiPass</title>
<text text-anchor="start" x="82" y="-44.7" font-family="Helvetica,sans-Serif" font-size="14.00" fill="white">UiPass</text>
<text text-anchor="start" x="75.62" y="-34.5" font-family="Helvetica,sans-Serif" font-size="10.00" fill="red">UiPassNode</text>
<path fill="none" stroke="white" d="M81.46,-28C81.46,-28 125.29,-28 125.29,-28 130.96,-28 136.62,-33.67 136.62,-39.33 136.62,-39.33 136.62,-50.67 136.62,-50.67 136.62,-56.33 130.96,-62 125.29,-62 125.29,-62 81.46,-62 81.46,-62 75.79,-62 70.12,-56.33 70.12,-50.67 70.12,-50.67 70.12,-39.33 70.12,-39.33 70.12,-33.67 75.79,-28 81.46,-28"/>
</g>
<!-- _Core2d__Core2dConstrastAdaptiveSharpening -->
<g id="node2" class="node">
<title>_Core2d__Core2dConstrastAdaptiveSharpening</title>
<text text-anchor="start" x="1466.5" y="-127.7" font-family="Helvetica,sans-Serif" font-size="14.00" fill="white">ConstrastAdaptiveSharpening</text>
<text text-anchor="start" x="1534" y="-117.5" font-family="Helvetica,sans-Serif" font-size="10.00" fill="red">CASNode</text>
<path fill="none" stroke="white" d="M1472.33,-111C1472.33,-111 1639.92,-111 1639.92,-111 1645.58,-111 1651.25,-116.67 1651.25,-122.33 1651.25,-122.33 1651.25,-133.67 1651.25,-133.67 1651.25,-139.33 1645.58,-145 1639.92,-145 1639.92,-145 1472.33,-145 1472.33,-145 1466.67,-145 1461,-139.33 1461,-133.67 1461,-133.67 1461,-122.33 1461,-122.33 1461,-116.67 1466.67,-111 1472.33,-111"/>
</g>
<!-- _Core2d__Core2dEndMainPassPostProcessing -->
<g id="node5" class="node">
<title>_Core2d__Core2dEndMainPassPostProcessing</title>
<text text-anchor="start" x="1788.25" y="-87.7" font-family="Helvetica,sans-Serif" font-size="14.00" fill="white">EndMainPassPostProcessing</text>
<text text-anchor="start" x="1851.25" y="-77.5" font-family="Helvetica,sans-Serif" font-size="10.00" fill="red">EmptyNode</text>
<path fill="none" stroke="white" d="M1794.08,-71C1794.08,-71 1960.17,-71 1960.17,-71 1965.83,-71 1971.5,-76.67 1971.5,-82.33 1971.5,-82.33 1971.5,-93.67 1971.5,-93.67 1971.5,-99.33 1965.83,-105 1960.17,-105 1960.17,-105 1794.08,-105 1794.08,-105 1788.42,-105 1782.75,-99.33 1782.75,-93.67 1782.75,-93.67 1782.75,-82.33 1782.75,-82.33 1782.75,-76.67 1788.42,-71 1794.08,-71"/>
</g>
<!-- _Core2d__Core2dConstrastAdaptiveSharpening&#45;&gt;_Core2d__Core2dEndMainPassPostProcessing -->
<g id="edge6" class="edge">
<title>_Core2d__Core2dConstrastAdaptiveSharpening:e&#45;&gt;_Core2d__Core2dEndMainPassPostProcessing:w</title>
<path fill="none" stroke="white" d="M1649.12,-128C1708.19,-128 1720.66,-92.84 1773.91,-88.45"/>
<polygon fill="white" stroke="white" points="1773.76,-91.96 1783.61,-88.06 1773.48,-84.96 1773.76,-91.96"/>
</g>
<!-- _Core2d__Core2dMainPass -->
<g id="node3" class="node">
<title>_Core2d__Core2dMainPass</title>
<text text-anchor="start" x="355.75" y="-112.7" font-family="Helvetica,sans-Serif" font-size="14.00" fill="white">MainPass</text>
<text text-anchor="start" x="347.12" y="-102.5" font-family="Helvetica,sans-Serif" font-size="10.00" fill="red">MainPass2dNode</text>
<path fill="none" stroke="white" d="M352.96,-96C352.96,-96 418.54,-96 418.54,-96 424.21,-96 429.88,-101.67 429.88,-107.33 429.88,-107.33 429.88,-118.67 429.88,-118.67 429.88,-124.33 424.21,-130 418.54,-130 418.54,-130 352.96,-130 352.96,-130 347.29,-130 341.62,-124.33 341.62,-118.67 341.62,-118.67 341.62,-107.33 341.62,-107.33 341.62,-101.67 347.29,-96 352.96,-96"/>
</g>
<!-- _Core2d__Core2dUiPass -->
<g id="node6" class="node">
<title>_Core2d__Core2dUiPass</title>
<text text-anchor="start" x="2186.88" y="-47.7" font-family="Helvetica,sans-Serif" font-size="14.00" fill="white">UiPass</text>
<text text-anchor="start" x="2157.25" y="-37.5" font-family="Helvetica,sans-Serif" font-size="10.00" fill="red">RunGraphOnViewNode</text>
<path fill="none" stroke="white" d="M2163.08,-31C2163.08,-31 2253.42,-31 2253.42,-31 2259.08,-31 2264.75,-36.67 2264.75,-42.33 2264.75,-42.33 2264.75,-53.67 2264.75,-53.67 2264.75,-59.33 2259.08,-65 2253.42,-65 2253.42,-65 2163.08,-65 2163.08,-65 2157.42,-65 2151.75,-59.33 2151.75,-53.67 2151.75,-53.67 2151.75,-42.33 2151.75,-42.33 2151.75,-36.67 2157.42,-31 2163.08,-31"/>
</g>
<!-- _Core2d__Core2dMainPass&#45;&gt;_Core2d__Core2dUiPass -->
<g id="edge7" class="edge">
<title>_Core2d__Core2dMainPass:e&#45;&gt;_Core2d__Core2dUiPass:w</title>
<path fill="none" stroke="white" d="M427.75,-113C498.63,-113 510.86,-79.81 580.75,-68 760.97,-37.56 808.73,-48 991.5,-48 991.5,-48 991.5,-48 1557.12,-48 1818.32,-48 1886.39,-48 2142.11,-48"/>
<polygon fill="white" stroke="white" points="2141.74,-51.5 2151.74,-48 2141.74,-44.5 2141.74,-51.5"/>
</g>
<!-- _Core2d__Core2dBloom -->
<g id="node7" class="node">
<title>_Core2d__Core2dBloom</title>
<text text-anchor="start" x="682" y="-97.7" font-family="Helvetica,sans-Serif" font-size="14.00" fill="white">Bloom</text>
<text text-anchor="start" x="631.75" y="-87.5" font-family="Helvetica,sans-Serif" font-size="10.00" fill="red">ViewNodeRunner&lt;BloomNode&gt;</text>
<path fill="none" stroke="white" d="M637.58,-81C637.58,-81 765.42,-81 765.42,-81 771.08,-81 776.75,-86.67 776.75,-92.33 776.75,-92.33 776.75,-103.67 776.75,-103.67 776.75,-109.33 771.08,-115 765.42,-115 765.42,-115 637.58,-115 637.58,-115 631.92,-115 626.25,-109.33 626.25,-103.67 626.25,-103.67 626.25,-92.33 626.25,-92.33 626.25,-86.67 631.92,-81 637.58,-81"/>
</g>
<!-- _Core2d__Core2dMainPass&#45;&gt;_Core2d__Core2dBloom -->
<g id="edge9" class="edge">
<title>_Core2d__Core2dMainPass:e&#45;&gt;_Core2d__Core2dBloom:w</title>
<path fill="none" stroke="white" d="M427.75,-113C513.38,-113 537.03,-99.26 617.33,-98.08"/>
<polygon fill="white" stroke="white" points="617.01,-101.58 626.99,-98.01 616.96,-94.58 617.01,-101.58"/>
</g>
<!-- _Core2d__Core2dTonemapping -->
<g id="node9" class="node">
<title>_Core2d__Core2dTonemapping</title>
<text text-anchor="start" x="951.62" y="-107.7" font-family="Helvetica,sans-Serif" font-size="14.00" fill="white">Tonemapping</text>
<text text-anchor="start" x="907.75" y="-97.5" font-family="Helvetica,sans-Serif" font-size="10.00" fill="red">ViewNodeRunner&lt;TonemappingNode&gt;</text>
<path fill="none" stroke="white" d="M913.58,-91C913.58,-91 1071.42,-91 1071.42,-91 1077.08,-91 1082.75,-96.67 1082.75,-102.33 1082.75,-102.33 1082.75,-113.67 1082.75,-113.67 1082.75,-119.33 1077.08,-125 1071.42,-125 1071.42,-125 913.58,-125 913.58,-125 907.92,-125 902.25,-119.33 902.25,-113.67 902.25,-113.67 902.25,-102.33 902.25,-102.33 902.25,-96.67 907.92,-91 913.58,-91"/>
</g>
<!-- _Core2d__Core2dMainPass&#45;&gt;_Core2d__Core2dTonemapping -->
<g id="edge11" class="edge">
<title>_Core2d__Core2dMainPass:e&#45;&gt;_Core2d__Core2dTonemapping:w</title>
<path fill="none" stroke="white" d="M427.75,-113C496.08,-113 512.51,-124.66 580.75,-128 687.96,-133.24 715.68,-140.77 822.25,-128 855.52,-124.01 864.93,-111.26 893.17,-108.52"/>
<polygon fill="white" stroke="white" points="893.16,-112.03 902.99,-108.07 892.84,-105.03 893.16,-112.03"/>
</g>
<!-- _Core2d__Core2dMsaaWriteback -->
<g id="node4" class="node">
<title>_Core2d__Core2dMsaaWriteback</title>
<text text-anchor="start" x="56.5" y="-127.7" font-family="Helvetica,sans-Serif" font-size="14.00" fill="white">MsaaWriteback</text>
<text text-anchor="start" x="58" y="-117.5" font-family="Helvetica,sans-Serif" font-size="10.00" fill="red">MsaaWritebackNode</text>
<path fill="none" stroke="white" d="M62.33,-111C62.33,-111 144.42,-111 144.42,-111 150.08,-111 155.75,-116.67 155.75,-122.33 155.75,-122.33 155.75,-133.67 155.75,-133.67 155.75,-139.33 150.08,-145 144.42,-145 144.42,-145 62.33,-145 62.33,-145 56.67,-145 51,-139.33 51,-133.67 51,-133.67 51,-122.33 51,-122.33 51,-116.67 56.67,-111 62.33,-111"/>
</g>
<!-- _Core2d__Core2dMsaaWriteback&#45;&gt;_Core2d__Core2dMainPass -->
<g id="edge3" class="edge">
<title>_Core2d__Core2dMsaaWriteback:e&#45;&gt;_Core2d__Core2dMainPass:w</title>
<path fill="none" stroke="white" d="M153.38,-128C234.44,-128 256.89,-114.32 332.69,-113.09"/>
<polygon fill="white" stroke="white" points="332.26,-116.59 342.24,-113.01 332.21,-109.59 332.26,-116.59"/>
</g>
<!-- _Core2d__Core2dEndMainPassPostProcessing&#45;&gt;_Core2d__Core2dUiPass -->
<g id="edge8" class="edge">
<title>_Core2d__Core2dEndMainPassPostProcessing:e&#45;&gt;_Core2d__Core2dUiPass:w</title>
<path fill="none" stroke="white" d="M1969.12,-88C2048.94,-88 2067.8,-51.66 2141.9,-48.26"/>
<polygon fill="white" stroke="white" points="2141.82,-51.76 2151.74,-48.03 2141.66,-44.76 2141.82,-51.76"/>
</g>
<!-- _Core2d__Core2dUpscaling -->
<g id="node10" class="node">
<title>_Core2d__Core2dUpscaling</title>
<text text-anchor="start" x="2489.5" y="-67.7" font-family="Helvetica,sans-Serif" font-size="14.00" fill="white">Upscaling</text>
<text text-anchor="start" x="2441.5" y="-57.5" font-family="Helvetica,sans-Serif" font-size="10.00" fill="red">ViewNodeRunner&lt;UpscalingNode&gt;</text>
<path fill="none" stroke="white" d="M2447.33,-51C2447.33,-51 2590.92,-51 2590.92,-51 2596.58,-51 2602.25,-56.67 2602.25,-62.33 2602.25,-62.33 2602.25,-73.67 2602.25,-73.67 2602.25,-79.33 2596.58,-85 2590.92,-85 2590.92,-85 2447.33,-85 2447.33,-85 2441.67,-85 2436,-79.33 2436,-73.67 2436,-73.67 2436,-62.33 2436,-62.33 2436,-56.67 2441.67,-51 2447.33,-51"/>
</g>
<!-- _Core2d__Core2dEndMainPassPostProcessing&#45;&gt;_Core2d__Core2dUpscaling -->
<g id="edge13" class="edge">
<title>_Core2d__Core2dEndMainPassPostProcessing:e&#45;&gt;_Core2d__Core2dUpscaling:w</title>
<path fill="none" stroke="white" d="M1969.12,-88C2125.8,-88 2165.08,-86.92 2321.5,-78 2369.38,-75.27 2383.88,-69.07 2426.62,-68.12"/>
<polygon fill="white" stroke="white" points="2426.65,-71.62 2436.61,-68.02 2426.57,-64.62 2426.65,-71.62"/>
</g>
<!-- _Core2d__Core2dUiPass&#45;&gt;_Core2d__Core2dUpscaling -->
<g id="edge14" class="edge">
<title>_Core2d__Core2dUiPass:e&#45;&gt;_Core2d__Core2dUpscaling:w</title>
<path fill="none" stroke="white" d="M2263.25,-48C2337.51,-48 2357.87,-66.02 2426.65,-67.85"/>
<polygon fill="white" stroke="white" points="2426.57,-71.35 2436.61,-67.98 2426.66,-64.35 2426.57,-71.35"/>
</g>
<!-- _Core2d__Core2dBloom&#45;&gt;_Core2d__Core2dTonemapping -->
<g id="edge12" class="edge">
<title>_Core2d__Core2dBloom:e&#45;&gt;_Core2d__Core2dTonemapping:w</title>
<path fill="none" stroke="white" d="M774.5,-98C828.49,-98 844.42,-106.68 893.2,-107.87"/>
<polygon fill="white" stroke="white" points="892.95,-111.36 902.99,-107.98 893.03,-104.36 892.95,-111.36"/>
</g>
<!-- _Core2d__Core2dFxaa -->
<g id="node8" class="node">
<title>_Core2d__Core2dFxaa</title>
<text text-anchor="start" x="1256.88" y="-107.7" font-family="Helvetica,sans-Serif" font-size="14.00" fill="white">Fxaa</text>
<text text-anchor="start" x="1205.12" y="-97.5" font-family="Helvetica,sans-Serif" font-size="10.00" fill="red">ViewNodeRunner&lt;FxaaNode&gt;</text>
<path fill="none" stroke="white" d="M1210.96,-91C1210.96,-91 1332.79,-91 1332.79,-91 1338.46,-91 1344.12,-96.67 1344.12,-102.33 1344.12,-102.33 1344.12,-113.67 1344.12,-113.67 1344.12,-119.33 1338.46,-125 1332.79,-125 1332.79,-125 1210.96,-125 1210.96,-125 1205.29,-125 1199.62,-119.33 1199.62,-113.67 1199.62,-113.67 1199.62,-102.33 1199.62,-102.33 1199.62,-96.67 1205.29,-91 1210.96,-91"/>
</g>
<!-- _Core2d__Core2dFxaa&#45;&gt;_Core2d__Core2dConstrastAdaptiveSharpening -->
<g id="edge2" class="edge">
<title>_Core2d__Core2dFxaa:e&#45;&gt;_Core2d__Core2dConstrastAdaptiveSharpening:w</title>
<path fill="none" stroke="white" d="M1341.88,-108C1392.44,-108 1406.49,-125.14 1451.63,-127.69"/>
<polygon fill="white" stroke="white" points="1451.52,-131.18 1461.61,-127.96 1451.71,-124.19 1451.52,-131.18"/>
</g>
<!-- _Core2d__Core2dFxaa&#45;&gt;_Core2d__Core2dEndMainPassPostProcessing -->
<g id="edge5" class="edge">
<title>_Core2d__Core2dFxaa:e&#45;&gt;_Core2d__Core2dEndMainPassPostProcessing:w</title>
<path fill="none" stroke="white" d="M1341.88,-108C1391.46,-108 1403.5,-100.97 1453,-98 1596.53,-89.39 1635.42,-88.07 1773.67,-88"/>
<polygon fill="white" stroke="white" points="1773.61,-91.5 1783.61,-88 1773.61,-84.5 1773.61,-91.5"/>
</g>
<!-- _Core2d__Core2dTonemapping&#45;&gt;_Core2d__Core2dConstrastAdaptiveSharpening -->
<g id="edge1" class="edge">
<title>_Core2d__Core2dTonemapping:e&#45;&gt;_Core2d__Core2dConstrastAdaptiveSharpening:w</title>
<path fill="none" stroke="white" d="M1080.5,-108C1119.41,-108 1124.43,-131.23 1162.75,-138 1258.27,-154.88 1284.18,-143.87 1381,-138 1413.54,-136.03 1424.03,-129.69 1451.63,-128.28"/>
<polygon fill="white" stroke="white" points="1451.7,-131.78 1461.61,-128.04 1451.53,-124.78 1451.7,-131.78"/>
</g>
<!-- _Core2d__Core2dTonemapping&#45;&gt;_Core2d__Core2dEndMainPassPostProcessing -->
<g id="edge4" class="edge">
<title>_Core2d__Core2dTonemapping:e&#45;&gt;_Core2d__Core2dEndMainPassPostProcessing:w</title>
<path fill="none" stroke="white" d="M1080.5,-108C1119.41,-108 1124.43,-84.77 1162.75,-78 1207.92,-70.02 1656.01,-83.91 1659.25,-84 1711.16,-85.38 1726.92,-87.64 1773.62,-87.96"/>
<polygon fill="white" stroke="white" points="1773.6,-91.46 1783.61,-87.99 1773.62,-84.46 1773.6,-91.46"/>
</g>
<!-- _Core2d__Core2dTonemapping&#45;&gt;_Core2d__Core2dFxaa -->
<g id="edge10" class="edge">
<title>_Core2d__Core2dTonemapping:e&#45;&gt;_Core2d__Core2dFxaa:w</title>
<path fill="none" stroke="white" d="M1080.5,-108C1130.44,-108 1145.71,-108 1190.5,-108"/>
<polygon fill="white" stroke="white" points="1190.36,-111.5 1200.36,-108 1190.36,-104.5 1190.36,-111.5"/>
</g>
<!-- _Core3d_SubGraphUi__Core3d_SubGraphUiUiPass -->
<g id="node11" class="node">
<title>_Core3d_SubGraphUi__Core3d_SubGraphUiUiPass</title>
<text text-anchor="start" x="82" y="-251.7" font-family="Helvetica,sans-Serif" font-size="14.00" fill="white">UiPass</text>
<text text-anchor="start" x="75.62" y="-241.5" font-family="Helvetica,sans-Serif" font-size="10.00" fill="red">UiPassNode</text>
<path fill="none" stroke="white" d="M81.46,-235C81.46,-235 125.29,-235 125.29,-235 130.96,-235 136.62,-240.67 136.62,-246.33 136.62,-246.33 136.62,-257.67 136.62,-257.67 136.62,-263.33 130.96,-269 125.29,-269 125.29,-269 81.46,-269 81.46,-269 75.79,-269 70.12,-263.33 70.12,-257.67 70.12,-257.67 70.12,-246.33 70.12,-246.33 70.12,-240.67 75.79,-235 81.46,-235"/>
</g>
<!-- _Core3d__Core3dContrastAdaptiveSharpening -->
<g id="node12" class="node">
<title>_Core3d__Core3dContrastAdaptiveSharpening</title>
<text text-anchor="start" x="3969.25" y="-298.7" font-family="Helvetica,sans-Serif" font-size="14.00" fill="white">ContrastAdaptiveSharpening</text>
<text text-anchor="start" x="4033.38" y="-288.5" font-family="Helvetica,sans-Serif" font-size="10.00" fill="red">CASNode</text>
<path fill="none" stroke="white" d="M3975.08,-282C3975.08,-282 4135.92,-282 4135.92,-282 4141.58,-282 4147.25,-287.67 4147.25,-293.33 4147.25,-293.33 4147.25,-304.67 4147.25,-304.67 4147.25,-310.33 4141.58,-316 4135.92,-316 4135.92,-316 3975.08,-316 3975.08,-316 3969.42,-316 3963.75,-310.33 3963.75,-304.67 3963.75,-304.67 3963.75,-293.33 3963.75,-293.33 3963.75,-287.67 3969.42,-282 3975.08,-282"/>
</g>
<!-- _Core3d__Core3dEndMainPassPostProcessing -->
<g id="node16" class="node">
<title>_Core3d__Core3dEndMainPassPostProcessing</title>
<text text-anchor="start" x="4240.75" y="-258.7" font-family="Helvetica,sans-Serif" font-size="14.00" fill="white">EndMainPassPostProcessing</text>
<text text-anchor="start" x="4303.75" y="-248.5" font-family="Helvetica,sans-Serif" font-size="10.00" fill="red">EmptyNode</text>
<path fill="none" stroke="white" d="M4246.58,-242C4246.58,-242 4412.67,-242 4412.67,-242 4418.33,-242 4424,-247.67 4424,-253.33 4424,-253.33 4424,-264.67 4424,-264.67 4424,-270.33 4418.33,-276 4412.67,-276 4412.67,-276 4246.58,-276 4246.58,-276 4240.92,-276 4235.25,-270.33 4235.25,-264.67 4235.25,-264.67 4235.25,-253.33 4235.25,-253.33 4235.25,-247.67 4240.92,-242 4246.58,-242"/>
</g>
<!-- _Core3d__Core3dContrastAdaptiveSharpening&#45;&gt;_Core3d__Core3dEndMainPassPostProcessing -->
<g id="edge20" class="edge">
<title>_Core3d__Core3dContrastAdaptiveSharpening:e&#45;&gt;_Core3d__Core3dEndMainPassPostProcessing:w</title>
<path fill="none" stroke="white" d="M4145.5,-299C4186.13,-299 4192.14,-265.86 4226.55,-259.91"/>
<polygon fill="white" stroke="white" points="4226.44,-263.43 4236.12,-259.12 4225.86,-256.45 4226.44,-263.43"/>
</g>
<!-- _Core3d__Core3dMsaaWriteback -->
<g id="node13" class="node">
<title>_Core3d__Core3dMsaaWriteback</title>
<text text-anchor="start" x="1225" y="-218.7" font-family="Helvetica,sans-Serif" font-size="14.00" fill="white">MsaaWriteback</text>
<text text-anchor="start" x="1226.5" y="-208.5" font-family="Helvetica,sans-Serif" font-size="10.00" fill="red">MsaaWritebackNode</text>
<path fill="none" stroke="white" d="M1230.83,-202C1230.83,-202 1312.92,-202 1312.92,-202 1318.58,-202 1324.25,-207.67 1324.25,-213.33 1324.25,-213.33 1324.25,-224.67 1324.25,-224.67 1324.25,-230.33 1318.58,-236 1312.92,-236 1312.92,-236 1230.83,-236 1230.83,-236 1225.17,-236 1219.5,-230.33 1219.5,-224.67 1219.5,-224.67 1219.5,-213.33 1219.5,-213.33 1219.5,-207.67 1225.17,-202 1230.83,-202"/>
</g>
<!-- _Core3d__Core3dStartMainPass -->
<g id="node18" class="node">
<title>_Core3d__Core3dStartMainPass</title>
<text text-anchor="start" x="1511.88" y="-283.7" font-family="Helvetica,sans-Serif" font-size="14.00" fill="white">StartMainPass</text>
<text text-anchor="start" x="1530.25" y="-273.5" font-family="Helvetica,sans-Serif" font-size="10.00" fill="red">EmptyNode</text>
<path fill="none" stroke="white" d="M1517.71,-267C1517.71,-267 1594.54,-267 1594.54,-267 1600.21,-267 1605.88,-272.67 1605.88,-278.33 1605.88,-278.33 1605.88,-289.67 1605.88,-289.67 1605.88,-295.33 1600.21,-301 1594.54,-301 1594.54,-301 1517.71,-301 1517.71,-301 1512.04,-301 1506.38,-295.33 1506.38,-289.67 1506.38,-289.67 1506.38,-278.33 1506.38,-278.33 1506.38,-272.67 1512.04,-267 1517.71,-267"/>
</g>
<!-- _Core3d__Core3dMsaaWriteback&#45;&gt;_Core3d__Core3dStartMainPass -->
<g id="edge23" class="edge">
<title>_Core3d__Core3dMsaaWriteback:e&#45;&gt;_Core3d__Core3dStartMainPass:w</title>
<path fill="none" stroke="white" d="M1321.88,-219C1405.61,-219 1419.32,-278.29 1496.76,-283.62"/>
<polygon fill="white" stroke="white" points="1496.5,-287.11 1506.61,-283.95 1496.74,-280.12 1496.5,-287.11"/>
</g>
<!-- _Core3d__Core3dShadowPass -->
<g id="node14" class="node">
<title>_Core3d__Core3dShadowPass</title>
<text text-anchor="start" x="1232.5" y="-278.7" font-family="Helvetica,sans-Serif" font-size="14.00" fill="white">ShadowPass</text>
<text text-anchor="start" x="1231.38" y="-268.5" font-family="Helvetica,sans-Serif" font-size="10.00" fill="red">ShadowPassNode</text>
<path fill="none" stroke="white" d="M1237.21,-262C1237.21,-262 1306.54,-262 1306.54,-262 1312.21,-262 1317.88,-267.67 1317.88,-273.33 1317.88,-273.33 1317.88,-284.67 1317.88,-284.67 1317.88,-290.33 1312.21,-296 1306.54,-296 1306.54,-296 1237.21,-296 1237.21,-296 1231.54,-296 1225.88,-290.33 1225.88,-284.67 1225.88,-284.67 1225.88,-273.33 1225.88,-273.33 1225.88,-267.67 1231.54,-262 1237.21,-262"/>
</g>
<!-- _Core3d__Core3dShadowPass&#45;&gt;_Core3d__Core3dStartMainPass -->
<g id="edge24" class="edge">
<title>_Core3d__Core3dShadowPass:e&#45;&gt;_Core3d__Core3dStartMainPass:w</title>
<path fill="none" stroke="white" d="M1315.88,-279C1397.51,-279 1420.61,-283.56 1496.98,-283.97"/>
<polygon fill="white" stroke="white" points="1496.6,-287.47 1506.61,-284 1496.62,-280.47 1496.6,-287.47"/>
</g>
<!-- _Core3d__Core3dEndMainPass -->
<g id="node15" class="node">
<title>_Core3d__Core3dEndMainPass</title>
<text text-anchor="start" x="3046.75" y="-258.7" font-family="Helvetica,sans-Serif" font-size="14.00" fill="white">EndMainPass</text>
<text text-anchor="start" x="3062.88" y="-248.5" font-family="Helvetica,sans-Serif" font-size="10.00" fill="red">EmptyNode</text>
<path fill="none" stroke="white" d="M3052.58,-242C3052.58,-242 3124.92,-242 3124.92,-242 3130.58,-242 3136.25,-247.67 3136.25,-253.33 3136.25,-253.33 3136.25,-264.67 3136.25,-264.67 3136.25,-270.33 3130.58,-276 3124.92,-276 3124.92,-276 3052.58,-276 3052.58,-276 3046.92,-276 3041.25,-270.33 3041.25,-264.67 3041.25,-264.67 3041.25,-253.33 3041.25,-253.33 3041.25,-247.67 3046.92,-242 3052.58,-242"/>
</g>
<!-- _Core3d__Core3dUiPass -->
<g id="node19" class="node">
<title>_Core3d__Core3dUiPass</title>
<text text-anchor="start" x="4547.12" y="-218.7" font-family="Helvetica,sans-Serif" font-size="14.00" fill="white">UiPass</text>
<text text-anchor="start" x="4517.5" y="-208.5" font-family="Helvetica,sans-Serif" font-size="10.00" fill="red">RunGraphOnViewNode</text>
<path fill="none" stroke="white" d="M4523.33,-202C4523.33,-202 4613.67,-202 4613.67,-202 4619.33,-202 4625,-207.67 4625,-213.33 4625,-213.33 4625,-224.67 4625,-224.67 4625,-230.33 4619.33,-236 4613.67,-236 4613.67,-236 4523.33,-236 4523.33,-236 4517.67,-236 4512,-230.33 4512,-224.67 4512,-224.67 4512,-213.33 4512,-213.33 4512,-207.67 4517.67,-202 4523.33,-202"/>
</g>
<!-- _Core3d__Core3dEndMainPass&#45;&gt;_Core3d__Core3dUiPass -->
<g id="edge26" class="edge">
<title>_Core3d__Core3dEndMainPass:e&#45;&gt;_Core3d__Core3dUiPass:w</title>
<path fill="none" stroke="white" d="M3134.75,-259C3173.35,-259 3178.36,-236.34 3216.25,-229 3362.82,-200.62 3402.71,-219 3552,-219 3552,-219 3552,-219 4056.5,-219 4255.74,-219 4308.4,-219 4502.06,-219"/>
<polygon fill="white" stroke="white" points="4501.99,-222.5 4511.99,-219 4501.99,-215.5 4501.99,-222.5"/>
</g>
<!-- _Core3d__Core3dBloom -->
<g id="node20" class="node">
<title>_Core3d__Core3dBloom</title>
<text text-anchor="start" x="3280" y="-258.7" font-family="Helvetica,sans-Serif" font-size="14.00" fill="white">Bloom</text>
<text text-anchor="start" x="3229.75" y="-248.5" font-family="Helvetica,sans-Serif" font-size="10.00" fill="red">ViewNodeRunner&lt;BloomNode&gt;</text>
<path fill="none" stroke="white" d="M3235.58,-242C3235.58,-242 3363.42,-242 3363.42,-242 3369.08,-242 3374.75,-247.67 3374.75,-253.33 3374.75,-253.33 3374.75,-264.67 3374.75,-264.67 3374.75,-270.33 3369.08,-276 3363.42,-276 3363.42,-276 3235.58,-276 3235.58,-276 3229.92,-276 3224.25,-270.33 3224.25,-264.67 3224.25,-264.67 3224.25,-253.33 3224.25,-253.33 3224.25,-247.67 3229.92,-242 3235.58,-242"/>
</g>
<!-- _Core3d__Core3dEndMainPass&#45;&gt;_Core3d__Core3dBloom -->
<g id="edge28" class="edge">
<title>_Core3d__Core3dEndMainPass:e&#45;&gt;_Core3d__Core3dBloom:w</title>
<path fill="none" stroke="white" d="M3134.75,-259C3171.55,-259 3183.44,-259 3215.37,-259"/>
<polygon fill="white" stroke="white" points="3214.99,-262.5 3224.99,-259 3214.99,-255.5 3214.99,-262.5"/>
</g>
<!-- _Core3d__Core3dTonemapping -->
<g id="node28" class="node">
<title>_Core3d__Core3dTonemapping</title>
<text text-anchor="start" x="3512.12" y="-278.7" font-family="Helvetica,sans-Serif" font-size="14.00" fill="white">Tonemapping</text>
<text text-anchor="start" x="3468.25" y="-268.5" font-family="Helvetica,sans-Serif" font-size="10.00" fill="red">ViewNodeRunner&lt;TonemappingNode&gt;</text>
<path fill="none" stroke="white" d="M3474.08,-262C3474.08,-262 3631.92,-262 3631.92,-262 3637.58,-262 3643.25,-267.67 3643.25,-273.33 3643.25,-273.33 3643.25,-284.67 3643.25,-284.67 3643.25,-290.33 3637.58,-296 3631.92,-296 3631.92,-296 3474.08,-296 3474.08,-296 3468.42,-296 3462.75,-290.33 3462.75,-284.67 3462.75,-284.67 3462.75,-273.33 3462.75,-273.33 3462.75,-267.67 3468.42,-262 3474.08,-262"/>
</g>
<!-- _Core3d__Core3dEndMainPass&#45;&gt;_Core3d__Core3dTonemapping -->
<g id="edge36" class="edge">
<title>_Core3d__Core3dEndMainPass:e&#45;&gt;_Core3d__Core3dTonemapping:w</title>
<path fill="none" stroke="white" d="M3134.75,-259C3173.35,-259 3178.25,-282.23 3216.25,-289 3289.1,-301.98 3308.89,-293.47 3382.75,-289 3415.49,-287.02 3425.94,-280.63 3453.85,-279.26"/>
<polygon fill="white" stroke="white" points="3453.57,-282.77 3463.49,-279.04 3453.41,-275.77 3453.57,-282.77"/>
</g>
<!-- _Core3d__Core3dEndMainPassPostProcessing&#45;&gt;_Core3d__Core3dUiPass -->
<g id="edge27" class="edge">
<title>_Core3d__Core3dEndMainPassPostProcessing:e&#45;&gt;_Core3d__Core3dUiPass:w</title>
<path fill="none" stroke="white" d="M4421.62,-259C4462.16,-259 4468.12,-225.86 4502.45,-219.91"/>
<polygon fill="white" stroke="white" points="4502.31,-223.43 4511.99,-219.12 4501.74,-216.46 4502.31,-223.43"/>
</g>
<!-- _Core3d__Core3dUpscaling -->
<g id="node29" class="node">
<title>_Core3d__Core3dUpscaling</title>
<text text-anchor="start" x="4766.5" y="-238.7" font-family="Helvetica,sans-Serif" font-size="14.00" fill="white">Upscaling</text>
<text text-anchor="start" x="4718.5" y="-228.5" font-family="Helvetica,sans-Serif" font-size="10.00" fill="red">ViewNodeRunner&lt;UpscalingNode&gt;</text>
<path fill="none" stroke="white" d="M4724.33,-222C4724.33,-222 4867.92,-222 4867.92,-222 4873.58,-222 4879.25,-227.67 4879.25,-233.33 4879.25,-233.33 4879.25,-244.67 4879.25,-244.67 4879.25,-250.33 4873.58,-256 4867.92,-256 4867.92,-256 4724.33,-256 4724.33,-256 4718.67,-256 4713,-250.33 4713,-244.67 4713,-244.67 4713,-233.33 4713,-233.33 4713,-227.67 4718.67,-222 4724.33,-222"/>
</g>
<!-- _Core3d__Core3dEndMainPassPostProcessing&#45;&gt;_Core3d__Core3dUpscaling -->
<g id="edge38" class="edge">
<title>_Core3d__Core3dEndMainPassPostProcessing:e&#45;&gt;_Core3d__Core3dUpscaling:w</title>
<path fill="none" stroke="white" d="M4421.62,-259C4515.67,-259 4539.28,-256.91 4633,-249 4665.49,-246.26 4676.02,-240.52 4703.63,-239.25"/>
<polygon fill="white" stroke="white" points="4703.69,-242.75 4713.61,-239.03 4703.54,-235.75 4703.69,-242.75"/>
</g>
<!-- _Core3d__Core3dEndPrepasses -->
<g id="node17" class="node">
<title>_Core3d__Core3dEndPrepasses</title>
<text text-anchor="start" x="948.62" y="-338.7" font-family="Helvetica,sans-Serif" font-size="14.00" fill="white">EndPrepasses</text>
<text text-anchor="start" x="966.62" y="-328.5" font-family="Helvetica,sans-Serif" font-size="10.00" fill="red">EmptyNode</text>
<path fill="none" stroke="white" d="M954.46,-322C954.46,-322 1030.54,-322 1030.54,-322 1036.21,-322 1041.88,-327.67 1041.88,-333.33 1041.88,-333.33 1041.88,-344.67 1041.88,-344.67 1041.88,-350.33 1036.21,-356 1030.54,-356 1030.54,-356 954.46,-356 954.46,-356 948.79,-356 943.12,-350.33 943.12,-344.67 943.12,-344.67 943.12,-333.33 943.12,-333.33 943.12,-327.67 948.79,-322 954.46,-322"/>
</g>
<!-- _Core3d__Core3dEndPrepasses&#45;&gt;_Core3d__Core3dStartMainPass -->
<g id="edge22" class="edge">
<title>_Core3d__Core3dEndPrepasses:e&#45;&gt;_Core3d__Core3dStartMainPass:w</title>
<path fill="none" stroke="white" d="M1039.5,-339C1049.02,-339 1371.57,-310.34 1381,-309 1434,-301.48 1448.56,-286.33 1496.62,-284.24"/>
<polygon fill="white" stroke="white" points="1496.69,-287.74 1506.61,-284.03 1496.54,-280.74 1496.69,-287.74"/>
</g>
<!-- _Core3d__Core3dScreenSpaceAmbientOcclusion -->
<g id="node31" class="node">
<title>_Core3d__Core3dScreenSpaceAmbientOcclusion</title>
<text text-anchor="start" x="1176.25" y="-358.7" font-family="Helvetica,sans-Serif" font-size="14.00" fill="white">ScreenSpaceAmbientOcclusion</text>
<text text-anchor="start" x="1204.75" y="-348.5" font-family="Helvetica,sans-Serif" font-size="10.00" fill="red">ViewNodeRunner&lt;SsaoNode&gt;</text>
<path fill="none" stroke="white" d="M1182.08,-342C1182.08,-342 1361.67,-342 1361.67,-342 1367.33,-342 1373,-347.67 1373,-353.33 1373,-353.33 1373,-364.67 1373,-364.67 1373,-370.33 1367.33,-376 1361.67,-376 1361.67,-376 1182.08,-376 1182.08,-376 1176.42,-376 1170.75,-370.33 1170.75,-364.67 1170.75,-364.67 1170.75,-353.33 1170.75,-353.33 1170.75,-347.67 1176.42,-342 1182.08,-342"/>
</g>
<!-- _Core3d__Core3dEndPrepasses&#45;&gt;_Core3d__Core3dScreenSpaceAmbientOcclusion -->
<g id="edge41" class="edge">
<title>_Core3d__Core3dEndPrepasses:e&#45;&gt;_Core3d__Core3dScreenSpaceAmbientOcclusion:w</title>
<path fill="none" stroke="white" d="M1039.5,-339C1095.46,-339 1110.94,-356.43 1161.52,-358.75"/>
<polygon fill="white" stroke="white" points="1161.29,-362.24 1171.36,-358.97 1161.44,-355.24 1161.29,-362.24"/>
</g>
<!-- _Core3d__Core3dMainOpaquePass -->
<g id="node21" class="node">
<title>_Core3d__Core3dMainOpaquePass</title>
<text text-anchor="start" x="2153.88" y="-258.7" font-family="Helvetica,sans-Serif" font-size="14.00" fill="white">MainOpaquePass</text>
<text text-anchor="start" x="2108.5" y="-248.5" font-family="Helvetica,sans-Serif" font-size="10.00" fill="red">ViewNodeRunner&lt;MainOpaquePass3dNode&gt;</text>
<path fill="none" stroke="white" d="M2114.33,-242C2114.33,-242 2302.17,-242 2302.17,-242 2307.83,-242 2313.5,-247.67 2313.5,-253.33 2313.5,-253.33 2313.5,-264.67 2313.5,-264.67 2313.5,-270.33 2307.83,-276 2302.17,-276 2302.17,-276 2114.33,-276 2114.33,-276 2108.67,-276 2103,-270.33 2103,-264.67 2103,-264.67 2103,-253.33 2103,-253.33 2103,-247.67 2108.67,-242 2114.33,-242"/>
</g>
<!-- _Core3d__Core3dStartMainPass&#45;&gt;_Core3d__Core3dMainOpaquePass -->
<g id="edge29" class="edge">
<title>_Core3d__Core3dStartMainPass:e&#45;&gt;_Core3d__Core3dMainOpaquePass:w</title>
<path fill="none" stroke="white" d="M1604.12,-284C1661.71,-284 1673.94,-264.58 1731.25,-259 1892.81,-243.26 1936.98,-258.26 2093.76,-258.97"/>
<polygon fill="white" stroke="white" points="2093.73,-262.47 2103.74,-259 2093.74,-255.47 2093.73,-262.47"/>
</g>
<!-- _Core3d__Core3dDeferredLightingPass -->
<g id="node30" class="node">
<title>_Core3d__Core3dDeferredLightingPass</title>
<text text-anchor="start" x="1812.25" y="-288.7" font-family="Helvetica,sans-Serif" font-size="14.00" fill="white">DeferredLightingPass</text>
<text text-anchor="start" x="1744.75" y="-278.5" font-family="Helvetica,sans-Serif" font-size="10.00" fill="red">ViewNodeRunner&lt;DeferredOpaquePass3dPbrLightingNode&gt;</text>
<path fill="none" stroke="white" d="M1750.58,-272C1750.58,-272 2003.67,-272 2003.67,-272 2009.33,-272 2015,-277.67 2015,-283.33 2015,-283.33 2015,-294.67 2015,-294.67 2015,-300.33 2009.33,-306 2003.67,-306 2003.67,-306 1750.58,-306 1750.58,-306 1744.92,-306 1739.25,-300.33 1739.25,-294.67 1739.25,-294.67 1739.25,-283.33 1739.25,-283.33 1739.25,-277.67 1744.92,-272 1750.58,-272"/>
</g>
<!-- _Core3d__Core3dStartMainPass&#45;&gt;_Core3d__Core3dDeferredLightingPass -->
<g id="edge40" class="edge">
<title>_Core3d__Core3dStartMainPass:e&#45;&gt;_Core3d__Core3dDeferredLightingPass:w</title>
<path fill="none" stroke="white" d="M1604.12,-284C1661.13,-284 1678.05,-288.38 1729.89,-288.94"/>
<polygon fill="white" stroke="white" points="1729.59,-292.44 1739.61,-288.99 1729.63,-285.44 1729.59,-292.44"/>
</g>
<!-- _Core3d__Core3dUiPass&#45;&gt;_Core3d__Core3dUpscaling -->
<g id="edge39" class="edge">
<title>_Core3d__Core3dUiPass:e&#45;&gt;_Core3d__Core3dUpscaling:w</title>
<path fill="none" stroke="white" d="M4623.5,-219C4661.11,-219 4671.51,-235.28 4703.81,-238.47"/>
<polygon fill="white" stroke="white" points="4703.46,-241.95 4713.61,-238.93 4703.79,-234.96 4703.46,-241.95"/>
</g>
<!-- _Core3d__Core3dBloom&#45;&gt;_Core3d__Core3dTonemapping -->
<g id="edge37" class="edge">
<title>_Core3d__Core3dBloom:e&#45;&gt;_Core3d__Core3dTonemapping:w</title>
<path fill="none" stroke="white" d="M3372.5,-259C3410.45,-259 3420.98,-275.28 3453.58,-278.47"/>
<polygon fill="white" stroke="white" points="3453.34,-281.96 3463.49,-278.93 3453.66,-274.97 3453.34,-281.96"/>
</g>
<!-- _Core3d__Core3dMainTransmissivePass -->
<g id="node22" class="node">
<title>_Core3d__Core3dMainTransmissivePass</title>
<text text-anchor="start" x="2449" y="-258.7" font-family="Helvetica,sans-Serif" font-size="14.00" fill="white">MainTransmissivePass</text>
<text text-anchor="start" x="2407" y="-248.5" font-family="Helvetica,sans-Serif" font-size="10.00" fill="red">ViewNodeRunner&lt;MainTransmissivePass3dNode&gt;</text>
<path fill="none" stroke="white" d="M2412.83,-242C2412.83,-242 2625.42,-242 2625.42,-242 2631.08,-242 2636.75,-247.67 2636.75,-253.33 2636.75,-253.33 2636.75,-264.67 2636.75,-264.67 2636.75,-270.33 2631.08,-276 2625.42,-276 2625.42,-276 2412.83,-276 2412.83,-276 2407.17,-276 2401.5,-270.33 2401.5,-264.67 2401.5,-264.67 2401.5,-253.33 2401.5,-253.33 2401.5,-247.67 2407.17,-242 2412.83,-242"/>
</g>
<!-- _Core3d__Core3dMainOpaquePass&#45;&gt;_Core3d__Core3dMainTransmissivePass -->
<g id="edge31" class="edge">
<title>_Core3d__Core3dMainOpaquePass:e&#45;&gt;_Core3d__Core3dMainTransmissivePass:w</title>
<path fill="none" stroke="white" d="M2311.25,-259C2348.1,-259 2360.01,-259 2391.98,-259"/>
<polygon fill="white" stroke="white" points="2391.61,-262.5 2401.61,-259 2391.61,-255.5 2391.61,-262.5"/>
</g>
<!-- _Core3d__Core3dMainTransparentPass -->
<g id="node23" class="node">
<title>_Core3d__Core3dMainTransparentPass</title>
<text text-anchor="start" x="2772.62" y="-258.7" font-family="Helvetica,sans-Serif" font-size="14.00" fill="white">MainTransparentPass</text>
<text text-anchor="start" x="2730.25" y="-248.5" font-family="Helvetica,sans-Serif" font-size="10.00" fill="red">ViewNodeRunner&lt;MainTransparentPass3dNode&gt;</text>
<path fill="none" stroke="white" d="M2736.08,-242C2736.08,-242 2941.92,-242 2941.92,-242 2947.58,-242 2953.25,-247.67 2953.25,-253.33 2953.25,-253.33 2953.25,-264.67 2953.25,-264.67 2953.25,-270.33 2947.58,-276 2941.92,-276 2941.92,-276 2736.08,-276 2736.08,-276 2730.42,-276 2724.75,-270.33 2724.75,-264.67 2724.75,-264.67 2724.75,-253.33 2724.75,-253.33 2724.75,-247.67 2730.42,-242 2736.08,-242"/>
</g>
<!-- _Core3d__Core3dMainTransmissivePass&#45;&gt;_Core3d__Core3dMainTransparentPass -->
<g id="edge32" class="edge">
<title>_Core3d__Core3dMainTransmissivePass:e&#45;&gt;_Core3d__Core3dMainTransparentPass:w</title>
<path fill="none" stroke="white" d="M2635.12,-259C2671.97,-259 2683.88,-259 2715.86,-259"/>
<polygon fill="white" stroke="white" points="2715.49,-262.5 2725.49,-259 2715.49,-255.5 2715.49,-262.5"/>
</g>
<!-- _Core3d__Core3dMainTransparentPass&#45;&gt;_Core3d__Core3dEndMainPass -->
<g id="edge17" class="edge">
<title>_Core3d__Core3dMainTransparentPass:e&#45;&gt;_Core3d__Core3dEndMainPass:w</title>
<path fill="none" stroke="white" d="M2951,-259C2987.8,-259 2999.69,-259 3031.62,-259"/>
<polygon fill="white" stroke="white" points="3031.24,-262.5 3041.24,-259 3031.24,-255.5 3031.24,-262.5"/>
</g>
<!-- _Core3d__Core3dCopyDeferredLightingId -->
<g id="node24" class="node">
<title>_Core3d__Core3dCopyDeferredLightingId</title>
<text text-anchor="start" x="630.25" y="-338.7" font-family="Helvetica,sans-Serif" font-size="14.00" fill="white">CopyDeferredLightingId</text>
<text text-anchor="start" x="594.25" y="-328.5" font-family="Helvetica,sans-Serif" font-size="10.00" fill="red">ViewNodeRunner&lt;CopyDeferredLightingIdNode&gt;</text>
<path fill="none" stroke="white" d="M600.08,-322C600.08,-322 802.92,-322 802.92,-322 808.58,-322 814.25,-327.67 814.25,-333.33 814.25,-333.33 814.25,-344.67 814.25,-344.67 814.25,-350.33 808.58,-356 802.92,-356 802.92,-356 600.08,-356 600.08,-356 594.42,-356 588.75,-350.33 588.75,-344.67 588.75,-344.67 588.75,-333.33 588.75,-333.33 588.75,-327.67 594.42,-322 600.08,-322"/>
</g>
<!-- _Core3d__Core3dCopyDeferredLightingId&#45;&gt;_Core3d__Core3dEndPrepasses -->
<g id="edge21" class="edge">
<title>_Core3d__Core3dCopyDeferredLightingId:e&#45;&gt;_Core3d__Core3dEndPrepasses:w</title>
<path fill="none" stroke="white" d="M812.5,-339C867.69,-339 884.23,-339 934.28,-339"/>
<polygon fill="white" stroke="white" points="933.99,-342.5 943.99,-339 933.99,-335.5 933.99,-342.5"/>
</g>
<!-- _Core3d__Core3dDeferredPrepass -->
<g id="node25" class="node">
<title>_Core3d__Core3dDeferredPrepass</title>
<text text-anchor="start" x="334.75" y="-338.7" font-family="Helvetica,sans-Serif" font-size="14.00" fill="white">DeferredPrepass</text>
<text text-anchor="start" x="276.25" y="-328.5" font-family="Helvetica,sans-Serif" font-size="10.00" fill="red">ViewNodeRunner&lt;DeferredGBufferPrepassNode&gt;</text>
<path fill="none" stroke="white" d="M282.08,-322C282.08,-322 489.42,-322 489.42,-322 495.08,-322 500.75,-327.67 500.75,-333.33 500.75,-333.33 500.75,-344.67 500.75,-344.67 500.75,-350.33 495.08,-356 489.42,-356 489.42,-356 282.08,-356 282.08,-356 276.42,-356 270.75,-350.33 270.75,-344.67 270.75,-344.67 270.75,-333.33 270.75,-333.33 270.75,-327.67 276.42,-322 282.08,-322"/>
</g>
<!-- _Core3d__Core3dDeferredPrepass&#45;&gt;_Core3d__Core3dCopyDeferredLightingId -->
<g id="edge33" class="edge">
<title>_Core3d__Core3dDeferredPrepass:e&#45;&gt;_Core3d__Core3dCopyDeferredLightingId:w</title>
<path fill="none" stroke="white" d="M498.75,-339C535.55,-339 547.44,-339 579.37,-339"/>
<polygon fill="white" stroke="white" points="578.99,-342.5 588.99,-339 578.99,-335.5 578.99,-342.5"/>
</g>
<!-- _Core3d__Core3dFxaa -->
<g id="node26" class="node">
<title>_Core3d__Core3dFxaa</title>
<text text-anchor="start" x="3788.5" y="-278.7" font-family="Helvetica,sans-Serif" font-size="14.00" fill="white">Fxaa</text>
<text text-anchor="start" x="3736.75" y="-268.5" font-family="Helvetica,sans-Serif" font-size="10.00" fill="red">ViewNodeRunner&lt;FxaaNode&gt;</text>
<path fill="none" stroke="white" d="M3742.58,-262C3742.58,-262 3864.42,-262 3864.42,-262 3870.08,-262 3875.75,-267.67 3875.75,-273.33 3875.75,-273.33 3875.75,-284.67 3875.75,-284.67 3875.75,-290.33 3870.08,-296 3864.42,-296 3864.42,-296 3742.58,-296 3742.58,-296 3736.92,-296 3731.25,-290.33 3731.25,-284.67 3731.25,-284.67 3731.25,-273.33 3731.25,-273.33 3731.25,-267.67 3736.92,-262 3742.58,-262"/>
</g>
<!-- _Core3d__Core3dFxaa&#45;&gt;_Core3d__Core3dContrastAdaptiveSharpening -->
<g id="edge16" class="edge">
<title>_Core3d__Core3dFxaa:e&#45;&gt;_Core3d__Core3dContrastAdaptiveSharpening:w</title>
<path fill="none" stroke="white" d="M3873.5,-279C3911.26,-279 3921.71,-295.28 3954.14,-298.47"/>
<polygon fill="white" stroke="white" points="3953.83,-301.95 3963.99,-298.93 3954.16,-294.96 3953.83,-301.95"/>
</g>
<!-- _Core3d__Core3dFxaa&#45;&gt;_Core3d__Core3dEndMainPassPostProcessing -->
<g id="edge19" class="edge">
<title>_Core3d__Core3dFxaa:e&#45;&gt;_Core3d__Core3dEndMainPassPostProcessing:w</title>
<path fill="none" stroke="white" d="M3873.5,-279C3910.32,-279 3919.04,-271.88 3955.75,-269 4076.82,-259.51 4110.21,-259.02 4226.14,-259"/>
<polygon fill="white" stroke="white" points="4226.11,-262.5 4236.11,-259 4226.11,-255.5 4226.11,-262.5"/>
</g>
<!-- _Core3d__Core3dPrepass -->
<g id="node27" class="node">
<title>_Core3d__Core3dPrepass</title>
<text text-anchor="start" x="78.62" y="-338.7" font-family="Helvetica,sans-Serif" font-size="14.00" fill="white">Prepass</text>
<text text-anchor="start" x="29.5" y="-328.5" font-family="Helvetica,sans-Serif" font-size="10.00" fill="red">ViewNodeRunner&lt;PrepassNode&gt;</text>
<path fill="none" stroke="white" d="M35.33,-322C35.33,-322 171.42,-322 171.42,-322 177.08,-322 182.75,-327.67 182.75,-333.33 182.75,-333.33 182.75,-344.67 182.75,-344.67 182.75,-350.33 177.08,-356 171.42,-356 171.42,-356 35.33,-356 35.33,-356 29.67,-356 24,-350.33 24,-344.67 24,-344.67 24,-333.33 24,-333.33 24,-327.67 29.67,-322 35.33,-322"/>
</g>
<!-- _Core3d__Core3dPrepass&#45;&gt;_Core3d__Core3dDeferredPrepass -->
<g id="edge34" class="edge">
<title>_Core3d__Core3dPrepass:e&#45;&gt;_Core3d__Core3dDeferredPrepass:w</title>
<path fill="none" stroke="white" d="M180.38,-339C217.42,-339 229.4,-339 261.55,-339"/>
<polygon fill="white" stroke="white" points="261.24,-342.5 271.24,-339 261.24,-335.5 261.24,-342.5"/>
</g>
<!-- _Core3d__Core3dTonemapping&#45;&gt;_Core3d__Core3dContrastAdaptiveSharpening -->
<g id="edge15" class="edge">
<title>_Core3d__Core3dTonemapping:e&#45;&gt;_Core3d__Core3dContrastAdaptiveSharpening:w</title>
<path fill="none" stroke="white" d="M3641,-279C3679.91,-279 3684.93,-302.23 3723.25,-309 3793.5,-321.41 3812.55,-313.34 3883.75,-309 3916.15,-307.03 3926.59,-300.69 3954.06,-299.28"/>
<polygon fill="white" stroke="white" points="3954.08,-302.78 3963.99,-299.04 3953.9,-295.78 3954.08,-302.78"/>
</g>
<!-- _Core3d__Core3dTonemapping&#45;&gt;_Core3d__Core3dEndMainPassPostProcessing -->
<g id="edge18" class="edge">
<title>_Core3d__Core3dTonemapping:e&#45;&gt;_Core3d__Core3dEndMainPassPostProcessing:w</title>
<path fill="none" stroke="white" d="M3641,-279C3679.91,-279 3684.93,-255.77 3723.25,-249 3763.04,-241.97 4089.59,-252.68 4155.25,-255 4187.73,-256.15 4198.56,-258.41 4226.15,-258.9"/>
<polygon fill="white" stroke="white" points="4226.08,-262.4 4236.11,-258.99 4226.14,-255.4 4226.08,-262.4"/>
</g>
<!-- _Core3d__Core3dTonemapping&#45;&gt;_Core3d__Core3dFxaa -->
<g id="edge35" class="edge">
<title>_Core3d__Core3dTonemapping:e&#45;&gt;_Core3d__Core3dFxaa:w</title>
<path fill="none" stroke="white" d="M3641,-279C3678.1,-279 3690.09,-279 3722.28,-279"/>
<polygon fill="white" stroke="white" points="3721.99,-282.5 3731.99,-279 3721.99,-275.5 3721.99,-282.5"/>
</g>
<!-- _Core3d__Core3dDeferredLightingPass&#45;&gt;_Core3d__Core3dMainOpaquePass -->
<g id="edge30" class="edge">
<title>_Core3d__Core3dDeferredLightingPass:e&#45;&gt;_Core3d__Core3dMainOpaquePass:w</title>
<path fill="none" stroke="white" d="M2013.12,-289C2052.15,-289 2060.74,-264.36 2094.06,-259.74"/>
<polygon fill="white" stroke="white" points="2093.99,-263.25 2103.74,-259.1 2093.53,-256.27 2093.99,-263.25"/>
</g>
<!-- _Core3d__Core3dScreenSpaceAmbientOcclusion&#45;&gt;_Core3d__Core3dStartMainPass -->
<g id="edge25" class="edge">
<title>_Core3d__Core3dScreenSpaceAmbientOcclusion:e&#45;&gt;_Core3d__Core3dStartMainPass:w</title>
<path fill="none" stroke="white" d="M1370.88,-359C1436.45,-359 1438.58,-292.26 1496.97,-284.69"/>
<polygon fill="white" stroke="white" points="1496.85,-288.21 1506.61,-284.09 1496.42,-281.22 1496.85,-288.21"/>
</g>
<!-- _CameraDriverLabel -->
<g id="node32" class="node">
<title>_CameraDriverLabel</title>
<text text-anchor="start" x="44.5" y="-441.7" font-family="Helvetica,sans-Serif" font-size="14.00" fill="white">CameraDriverLabel</text>
<text text-anchor="start" x="61.38" y="-431.5" font-family="Helvetica,sans-Serif" font-size="10.00" fill="red">CameraDriverNode</text>
<path fill="none" stroke="white" d="M50.33,-425C50.33,-425 156.42,-425 156.42,-425 162.08,-425 167.75,-430.67 167.75,-436.33 167.75,-436.33 167.75,-447.67 167.75,-447.67 167.75,-453.33 162.08,-459 156.42,-459 156.42,-459 50.33,-459 50.33,-459 44.67,-459 39,-453.33 39,-447.67 39,-447.67 39,-436.33 39,-436.33 39,-430.67 44.67,-425 50.33,-425"/>
</g>
</g>
</svg>
