<?xml version="1.0" encoding="UTF-8" standalone="no"?>
<!DOCTYPE svg PUBLIC "-//W3C//DTD SVG 1.1//EN"
 "http://www.w3.org/Graphics/SVG/1.1/DTD/svg11.dtd">
<!-- Generated by graphviz version 10.0.1 (0)
 -->
<!-- Pages: 1 -->
<svg width="710pt" height="996pt"
 viewBox="0.00 0.00 710.12 996.00" xmlns="http://www.w3.org/2000/svg" xmlns:xlink="http://www.w3.org/1999/xlink">
<g id="graph0" class="graph" transform="scale(1 1) rotate(0) translate(4 992)">
<polygon fill="#0d1117" stroke="none" points="-4,4 -4,-992 706.12,-992 706.12,4 -4,4"/>
<g id="clust1" class="cluster">
<title>clusternode_Set(2)</title>
<g id="a_clust1"><a xlink:title="AssetUpdateSet">
<path fill="#ffffff" fill-opacity="0.266667" stroke="#ffffff" stroke-width="2" stroke-opacity="0.313725" d="M51.75,-8C51.75,-8 690.12,-8 690.12,-8 696.12,-8 702.12,-14 702.12,-20 702.12,-20 702.12,-131 702.12,-131 702.12,-137 696.12,-143 690.12,-143 690.12,-143 51.75,-143 51.75,-143 45.75,-143 39.75,-137 39.75,-131 39.75,-131 39.75,-20 39.75,-20 39.75,-14 45.75,-8 51.75,-8"/>
<text text-anchor="middle" x="370.94" y="-125.7" font-family="Helvetica,sans-Serif" font-size="14.00" fill="#ffffff">AssetUpdateSet</text>
</a>
</g>
</g>
<g id="clust2" class="cluster">
<title>clusternode_Set(1)</title>
<g id="a_clust2"><a xlink:title="Waiting">
<path fill="#ffffff" fill-opacity="0.266667" stroke="#ffffff" stroke-width="2" stroke-opacity="0.313725" d="M59.75,-16C59.75,-16 186.25,-16 186.25,-16 192.25,-16 198.25,-22 198.25,-28 198.25,-28 198.25,-91 198.25,-91 198.25,-97 192.25,-103 186.25,-103 186.25,-103 59.75,-103 59.75,-103 53.75,-103 47.75,-97 47.75,-91 47.75,-91 47.75,-28 47.75,-28 47.75,-22 53.75,-16 59.75,-16"/>
<text text-anchor="middle" x="123" y="-85.7" font-family="Helvetica,sans-Serif" font-size="14.00" fill="#ffffff">Waiting</text>
</a>
</g>
</g>
<g id="clust3" class="cluster">
<title>clusternode_Set(3)</title>
<g id="a_clust3"><a xlink:title="Loading">
<path fill="#ffffff" fill-opacity="0.266667" stroke="#ffffff" stroke-width="2" stroke-opacity="0.313725" d="M268,-16C268,-16 433.5,-16 433.5,-16 439.5,-16 445.5,-22 445.5,-28 445.5,-28 445.5,-91 445.5,-91 445.5,-97 439.5,-103 433.5,-103 433.5,-103 268,-103 268,-103 262,-103 256,-97 256,-91 256,-91 256,-28 256,-28 256,-22 262,-16 268,-16"/>
<text text-anchor="middle" x="350.75" y="-85.7" font-family="Helvetica,sans-Serif" font-size="14.00" fill="#ffffff">Loading</text>
</a>
</g>
</g>
<g id="clust4" class="cluster">
<title>clusternode_Set(4)</title>
<g id="a_clust4"><a xlink:title="Processing">
<path fill="#ffffff" fill-opacity="0.266667" stroke="#ffffff" stroke-width="2" stroke-opacity="0.313725" d="M482.38,-16C482.38,-16 599.12,-16 599.12,-16 605.12,-16 611.12,-22 611.12,-28 611.12,-28 611.12,-91 611.12,-91 611.12,-97 605.12,-103 599.12,-103 599.12,-103 482.38,-103 482.38,-103 476.38,-103 470.38,-97 470.38,-91 470.38,-91 470.38,-28 470.38,-28 470.38,-22 476.38,-16 482.38,-16"/>
<text text-anchor="middle" x="540.75" y="-85.7" font-family="Helvetica,sans-Serif" font-size="14.00" fill="#ffffff">Processing</text>
</a>
</g>
</g>
<g id="clust5" class="cluster">
<title>clusternode_Set(5)</title>
<g id="a_clust5"><a xlink:title="Ready">
<path fill="#ffffff" fill-opacity="0.266667" stroke="#ffffff" stroke-width="2" stroke-opacity="0.313725" d="M651.12,-16C651.12,-16 682.12,-16 682.12,-16 688.12,-16 694.12,-22 694.12,-28 694.12,-28 694.12,-44 694.12,-44 694.12,-50 688.12,-56 682.12,-56 682.12,-56 651.12,-56 651.12,-56 645.12,-56 639.12,-50 639.12,-44 639.12,-44 639.12,-28 639.12,-28 639.12,-22 645.12,-16 651.12,-16"/>
<text text-anchor="middle" x="666.62" y="-38.7" font-family="Helvetica,sans-Serif" font-size="14.00" fill="#ffffff">Ready</text>
</a>
</g>
</g>
<g id="clust6" class="cluster">
<title>clusternode_Set(7)</title>
<g id="a_clust6"><a xlink:title="InterfaceUpdateSet">
<path fill="#ffffff" fill-opacity="0.266667" stroke="#ffffff" stroke-width="2" stroke-opacity="0.313725" d="M20,-151C20,-151 450.38,-151 450.38,-151 456.38,-151 462.38,-157 462.38,-163 462.38,-163 462.38,-885 462.38,-885 462.38,-891 456.38,-897 450.38,-897 450.38,-897 20,-897 20,-897 14,-897 8,-891 8,-885 8,-885 8,-163 8,-163 8,-157 14,-151 20,-151"/>
<text text-anchor="middle" x="235.19" y="-879.7" font-family="Helvetica,sans-Serif" font-size="14.00" fill="#ffffff">InterfaceUpdateSet</text>
</a>
</g>
</g>
<g id="clust7" class="cluster">
<title>clusternode_Set(9)</title>
<g id="a_clust7"><a xlink:title="DebugUpdateSet">
<path fill="#ffffff" fill-opacity="0.266667" stroke="#ffffff" stroke-width="2" stroke-opacity="0.313725" d="M76,-159C76,-159 171,-159 171,-159 177,-159 183,-165 183,-171 183,-171 183,-187 183,-187 183,-193 177,-199 171,-199 171,-199 76,-199 76,-199 70,-199 64,-193 64,-187 64,-187 64,-171 64,-171 64,-165 70,-159 76,-159"/>
<text text-anchor="middle" x="123.5" y="-181.7" font-family="Helvetica,sans-Serif" font-size="14.00" fill="#ffffff">DebugUpdateSet</text>
</a>
</g>
</g>
<g id="clust8" class="cluster">
<title>clusternode_Set(10)</title>
<g id="a_clust8"><a xlink:title="UiScaleUpdateSet">
<path fill="#ffffff" fill-opacity="0.266667" stroke="#ffffff" stroke-width="2" stroke-opacity="0.313725" d="M52.25,-207C52.25,-207 193.75,-207 193.75,-207 199.75,-207 205.75,-213 205.75,-219 205.75,-219 205.75,-329 205.75,-329 205.75,-335 199.75,-341 193.75,-341 193.75,-341 52.25,-341 52.25,-341 46.25,-341 40.25,-335 40.25,-329 40.25,-329 40.25,-219 40.25,-219 40.25,-213 46.25,-207 52.25,-207"/>
<text text-anchor="middle" x="123" y="-323.7" font-family="Helvetica,sans-Serif" font-size="14.00" fill="#ffffff">UiScaleUpdateSet</text>
</a>
</g>
</g>
<g id="clust9" class="cluster">
<title>clusternode_Set(13)</title>
<g id="a_clust9"><a xlink:title="InterfaceMenuUpdateSet">
<path fill="#ffffff" fill-opacity="0.266667" stroke="#ffffff" stroke-width="2" stroke-opacity="0.313725" d="M28,-349C28,-349 442.38,-349 442.38,-349 448.38,-349 454.38,-355 454.38,-361 454.38,-361 454.38,-750 454.38,-750 454.38,-756 448.38,-762 442.38,-762 442.38,-762 28,-762 28,-762 22,-762 16,-756 16,-750 16,-750 16,-361 16,-361 16,-355 22,-349 28,-349"/>
<text text-anchor="middle" x="235.19" y="-744.7" font-family="Helvetica,sans-Serif" font-size="14.00" fill="#ffffff">InterfaceMenuUpdateSet</text>
</a>
</g>
</g>
<g id="clust10" class="cluster">
<title>clusternode_Set(14)</title>
<g id="a_clust10"><a xlink:title="LoadingScreenUpdateSet">
<path fill="#ffffff" fill-opacity="0.266667" stroke="#ffffff" stroke-width="2" stroke-opacity="0.313725" d="M36,-357C36,-357 434.38,-357 434.38,-357 440.38,-357 446.38,-363 446.38,-369 446.38,-369 446.38,-566 446.38,-566 446.38,-572 440.38,-578 434.38,-578 434.38,-578 36,-578 36,-578 30,-578 24,-572 24,-566 24,-566 24,-369 24,-369 24,-363 30,-357 36,-357"/>
<text text-anchor="middle" x="235.19" y="-560.7" font-family="Helvetica,sans-Serif" font-size="14.00" fill="#ffffff">LoadingScreenUpdateSet</text>
</a>
</g>
</g>
<g id="clust11" class="cluster">
<title>clusternode_Set(15)</title>
<g id="a_clust11"><a xlink:title="Hidden">
<path fill="#ffffff" fill-opacity="0.266667" stroke="#ffffff" stroke-width="2" stroke-opacity="0.313725" d="M44,-365C44,-365 202,-365 202,-365 208,-365 214,-371 214,-377 214,-377 214,-440 214,-440 214,-446 208,-452 202,-452 202,-452 44,-452 44,-452 38,-452 32,-446 32,-440 32,-440 32,-377 32,-377 32,-371 38,-365 44,-365"/>
<text text-anchor="middle" x="123" y="-434.7" font-family="Helvetica,sans-Serif" font-size="14.00" fill="#ffffff">Hidden</text>
</a>
</g>
</g>
<g id="clust12" class="cluster">
<title>clusternode_Set(16)</title>
<g id="a_clust12"><a xlink:title="Shown">
<path fill="#ffffff" fill-opacity="0.266667" stroke="#ffffff" stroke-width="2" stroke-opacity="0.313725" d="M275.12,-365C275.12,-365 426.38,-365 426.38,-365 432.38,-365 438.38,-371 438.38,-377 438.38,-377 438.38,-534 438.38,-534 438.38,-540 432.38,-546 426.38,-546 426.38,-546 275.12,-546 275.12,-546 269.12,-546 263.12,-540 263.12,-534 263.12,-534 263.12,-377 263.12,-377 263.12,-371 269.12,-365 275.12,-365"/>
<text text-anchor="middle" x="350.75" y="-528.7" font-family="Helvetica,sans-Serif" font-size="14.00" fill="#ffffff">Shown</text>
</a>
</g>
</g>
<g id="clust13" class="cluster">
<title>clusternode_Set(21)</title>
<g id="a_clust13"><a xlink:title="MainMenuUpdateSet">
<path fill="#ffffff" fill-opacity="0.266667" stroke="#ffffff" stroke-width="2" stroke-opacity="0.313725" d="M63,-586C63,-586 183,-586 183,-586 189,-586 195,-592 195,-598 195,-598 195,-614 195,-614 195,-620 189,-626 183,-626 183,-626 63,-626 63,-626 57,-626 51,-620 51,-614 51,-614 51,-598 51,-598 51,-592 57,-586 63,-586"/>
<text text-anchor="middle" x="123" y="-608.7" font-family="Helvetica,sans-Serif" font-size="14.00" fill="#ffffff">MainMenuUpdateSet</text>
</a>
</g>
</g>
<g id="clust14" class="cluster">
<title>clusternode_Set(22)</title>
<g id="a_clust14"><a xlink:title="MultiplayerMenuUpdateSet">
<path fill="#ffffff" fill-opacity="0.266667" stroke="#ffffff" stroke-width="2" stroke-opacity="0.313725" d="M45,-634C45,-634 201,-634 201,-634 207,-634 213,-640 213,-646 213,-646 213,-662 213,-662 213,-668 207,-674 201,-674 201,-674 45,-674 45,-674 39,-674 33,-668 33,-662 33,-662 33,-646 33,-646 33,-640 39,-634 45,-634"/>
<text text-anchor="middle" x="123" y="-656.7" font-family="Helvetica,sans-Serif" font-size="14.00" fill="#ffffff">MultiplayerMenuUpdateSet</text>
</a>
</g>
</g>
<g id="clust15" class="cluster">
<title>clusternode_Set(23)</title>
<g id="a_clust15"><a xlink:title="SettingsMenuUpdateSet">
<path fill="#ffffff" fill-opacity="0.266667" stroke="#ffffff" stroke-width="2" stroke-opacity="0.313725" d="M54,-682C54,-682 193,-682 193,-682 199,-682 205,-688 205,-694 205,-694 205,-710 205,-710 205,-716 199,-722 193,-722 193,-722 54,-722 54,-722 48,-722 42,-716 42,-710 42,-710 42,-694 42,-694 42,-688 48,-682 54,-682"/>
<text text-anchor="middle" x="123.5" y="-704.7" font-family="Helvetica,sans-Serif" font-size="14.00" fill="#ffffff">SettingsMenuUpdateSet</text>
</a>
</g>
</g>
<g id="clust16" class="cluster">
<title>clusternode_Set(24)</title>
<g id="a_clust16"><a xlink:title="InspectorUpdateSet">
<path fill="#ffffff" fill-opacity="0.266667" stroke="#ffffff" stroke-width="2" stroke-opacity="0.313725" d="M64.62,-770C64.62,-770 181.38,-770 181.38,-770 187.38,-770 193.38,-776 193.38,-782 193.38,-782 193.38,-845 193.38,-845 193.38,-851 187.38,-857 181.38,-857 181.38,-857 64.62,-857 64.62,-857 58.62,-857 52.62,-851 52.62,-845 52.62,-845 52.62,-782 52.62,-782 52.62,-776 58.62,-770 64.62,-770"/>
<text text-anchor="middle" x="123" y="-839.7" font-family="Helvetica,sans-Serif" font-size="14.00" fill="#ffffff">InspectorUpdateSet</text>
</a>
</g>
</g>
<!-- set_marker_node_Set(2) -->
<!-- set_marker_node_Set(1) -->
<!-- set_marker_node_Set(3) -->
<!-- set_marker_node_Set(1)&#45;&gt;set_marker_node_Set(3) -->
<g id="edge1" class="edge">
<title>set_marker_node_Set(1)&#45;&gt;set_marker_node_Set(3)</title>
<g id="a_edge1"><a xlink:title="Waiting → Loading">
<path fill="none" stroke="#eede00" stroke-width="2" d="M198.25,-24C212.65,-24 228,-24 243.2,-24"/>
<polygon fill="#eede00" stroke="#eede00" stroke-width="2" points="242.98,-27.5 252.98,-24 242.98,-20.5 242.98,-27.5"/>
</a>
</g>
</g>
<!-- node_System(1) -->
<g id="node3" class="node">
<title>node_System(1)</title>
<g id="a_node3"><a xlink:title="froglight_assets::systemset::resourcepack::ResourcePackState::enter_loading_state">
<polygon fill="#eff1f3" stroke="#b4bec7" points="190.25,-71 55.75,-71 55.75,-35 190.25,-35 190.25,-71"/>
<text text-anchor="middle" x="123" y="-47.58" font-family="Helvetica,sans-Serif" font-size="14.00" fill="#15191d">enter_loading_state</text>
</a>
</g>
</g>
<!-- set_marker_node_Set(4) -->
<!-- set_marker_node_Set(3)&#45;&gt;set_marker_node_Set(4) -->
<g id="edge2" class="edge">
<title>set_marker_node_Set(3)&#45;&gt;set_marker_node_Set(4)</title>
<g id="a_edge2"><a xlink:title="Loading → Processing">
<path fill="none" stroke="#881877" stroke-width="2" d="M445.5,-24C449.46,-24 453.43,-24 457.36,-24"/>
<polygon fill="#881877" stroke="#881877" stroke-width="2" points="457.35,-27.5 467.35,-24 457.35,-20.5 457.35,-27.5"/>
</a>
</g>
</g>
<!-- node_System(2) -->
<g id="node5" class="node">
<title>node_System(2)</title>
<g id="a_node5"><a xlink:title="froglight_assets::asset_manager::tracker::AssetTracker::load_next_pack_in_queue">
<polygon fill="#eff1f3" stroke="#b4bec7" points="437.5,-71 264,-71 264,-35 437.5,-35 437.5,-71"/>
<text text-anchor="middle" x="350.75" y="-47.58" font-family="Helvetica,sans-Serif" font-size="14.00" fill="#15191d">load_next_pack_in_queue</text>
</a>
</g>
</g>
<!-- set_marker_node_Set(5) -->
<!-- set_marker_node_Set(4)&#45;&gt;set_marker_node_Set(5) -->
<g id="edge3" class="edge">
<title>set_marker_node_Set(4)&#45;&gt;set_marker_node_Set(5)</title>
<g id="a_edge3"><a xlink:title="Processing → Ready">
<path fill="none" stroke="#00b0cc" stroke-width="2" d="M611.12,-24C616.3,-24 621.41,-24 626.3,-24"/>
<polygon fill="#00b0cc" stroke="#00b0cc" stroke-width="2" points="626.1,-27.5 636.1,-24 626.1,-20.5 626.1,-27.5"/>
</a>
</g>
</g>
<!-- node_System(11) -->
<g id="node7" class="node">
<title>node_System(11)</title>
<g id="a_node7"><a xlink:title="froglight_assets::systemset::resourcepack::ResourcePackState::enter_ready_state">
<polygon fill="#eff1f3" stroke="#b4bec7" points="603.12,-71 478.38,-71 478.38,-35 603.12,-35 603.12,-71"/>
<text text-anchor="middle" x="540.75" y="-47.58" font-family="Helvetica,sans-Serif" font-size="14.00" fill="#15191d">enter_ready_state</text>
</a>
</g>
</g>
<!-- set_marker_node_Set(7) -->
<!-- set_marker_node_Set(9) -->
<!-- set_marker_node_Set(10) -->
<!-- node_System(3) -->
<g id="node12" class="node">
<title>node_System(3)</title>
<g id="a_node12"><a xlink:title="froglight_interface::plugins::uiscale::UiScalePlugin::set_uiscale">
<polygon fill="#eff1f3" stroke="#b4bec7" points="164.75,-262 81.25,-262 81.25,-226 164.75,-226 164.75,-262"/>
<text text-anchor="middle" x="123" y="-238.57" font-family="Helvetica,sans-Serif" font-size="14.00" fill="#15191d">set_uiscale</text>
</a>
</g>
</g>
<!-- node_System(4) -->
<g id="node13" class="node">
<title>node_System(4)</title>
<g id="a_node13"><a xlink:title="froglight_interface::plugins::uiscale::UiScalePlugin::set_uiscale_on_resize">
<polygon fill="#eff1f3" stroke="#b4bec7" points="197.75,-309 48.25,-309 48.25,-273 197.75,-273 197.75,-309"/>
<text text-anchor="middle" x="123" y="-285.57" font-family="Helvetica,sans-Serif" font-size="14.00" fill="#15191d">set_uiscale_on_resize</text>
</a>
</g>
</g>
<!-- set_marker_node_Set(13) -->
<!-- set_marker_node_Set(14) -->
<!-- set_marker_node_Set(15) -->
<!-- set_marker_node_Set(16) -->
<!-- set_marker_node_Set(15)&#45;&gt;set_marker_node_Set(16) -->
<g id="edge4" class="edge">
<title>set_marker_node_Set(15)&#45;&gt;set_marker_node_Set(16)</title>
<g id="a_edge4"><a xlink:title="Hidden → Shown">
<path fill="none" stroke="#aa3a55" stroke-width="2" d="M214,-373C225.93,-373 238.21,-373 250.29,-373"/>
<polygon fill="#aa3a55" stroke="#aa3a55" stroke-width="2" points="250.1,-376.5 260.1,-373 250.1,-369.5 250.1,-376.5"/>
</a>
</g>
</g>
<!-- node_System(5) -->
<g id="node17" class="node">
<title>node_System(5)</title>
<g id="a_node17"><a xlink:title="froglight_interface::menus::loadingscreen::LoadingScreenRootNode::listen_for_resourcepacks">
<polygon fill="#eff1f3" stroke="#b4bec7" points="206,-420 40,-420 40,-384 206,-384 206,-420"/>
<text text-anchor="middle" x="123" y="-396.57" font-family="Helvetica,sans-Serif" font-size="14.00" fill="#15191d">listen_for_resourcepacks</text>
</a>
</g>
</g>
<!-- node_System(6) -->
<g id="node19" class="node">
<title>node_System(6)</title>
<g id="a_node19"><a xlink:title="froglight_interface::menus::loadingscreen::bar::ProgressBar::listen_for_finish">
<polygon fill="#eff1f3" stroke="#b4bec7" points="405.62,-420 295.88,-420 295.88,-384 405.62,-384 405.62,-420"/>
<text text-anchor="middle" x="350.75" y="-396.57" font-family="Helvetica,sans-Serif" font-size="14.00" fill="#15191d">listen_for_finish</text>
</a>
</g>
</g>
<!-- node_System(7) -->
<g id="node20" class="node">
<title>node_System(7)</title>
<g id="a_node20"><a xlink:title="froglight_interface::menus::loadingscreen::bar::ProgressBar::update_visual_progress">
<polygon fill="#eff1f3" stroke="#b4bec7" points="430.38,-467 271.12,-467 271.12,-431 430.38,-431 430.38,-467"/>
<text text-anchor="middle" x="350.75" y="-443.57" font-family="Helvetica,sans-Serif" font-size="14.00" fill="#15191d">update_visual_progress</text>
</a>
</g>
</g>
<!-- node_System(8) -->
<g id="node21" class="node">
<title>node_System(8)</title>
<g id="a_node21"><a xlink:title="froglight_interface::menus::loadingscreen::bar::ProgressBar::hide_when_finished">
<polygon fill="#eff1f3" stroke="#b4bec7" points="418.38,-514 283.12,-514 283.12,-478 418.38,-478 418.38,-514"/>
<text text-anchor="middle" x="350.75" y="-490.57" font-family="Helvetica,sans-Serif" font-size="14.00" fill="#15191d">hide_when_finished</text>
</a>
</g>
</g>
<!-- set_marker_node_Set(21) -->
<!-- set_marker_node_Set(22) -->
<!-- set_marker_node_Set(23) -->
<!-- set_marker_node_Set(24) -->
<!-- node_System(9) -->
<g id="node26" class="node">
<title>node_System(9)</title>
<g id="a_node26"><a xlink:title="froglight_interface::plugins::inspector::enable::InspectorEnable::inspector_keybind">
<polygon fill="#eff1f3" stroke="#b4bec7" points="185.38,-825 60.63,-825 60.63,-789 185.38,-789 185.38,-825"/>
<text text-anchor="middle" x="123" y="-801.58" font-family="Helvetica,sans-Serif" font-size="14.00" fill="#15191d">inspector_keybind</text>
</a>
</g>
</g>
<!-- node_System(0) -->
<g id="node27" class="node">
<title>node_System(0)</title>
<g id="a_node27"><a xlink:title="bevy_window::system::close_when_requested">
<polygon fill="lightgrey" stroke="black" points="192.12,-941 53.88,-941 53.88,-905 192.12,-905 192.12,-941"/>
<text text-anchor="middle" x="123" y="-917.95" font-family="Times,serif" font-size="14.00">close_when_requested</text>
</a>
</g>
</g>
<!-- node_System(10) -->
<g id="node28" class="node">
<title>node_System(10)</title>
<g id="a_node28"><a xlink:title="bevy_inspector_egui::quick::world_inspector_ui">
<polygon fill="lightgrey" stroke="black" points="183.5,-988 62.5,-988 62.5,-952 183.5,-952 183.5,-988"/>
<text text-anchor="middle" x="123" y="-964.95" font-family="Times,serif" font-size="14.00">world_inspector_ui</text>
</a>
</g>
</g>
</g>
</svg>
