<?xml version="1.0" encoding="UTF-8" standalone="no"?>
<!DOCTYPE svg PUBLIC "-//W3C//DTD SVG 1.1//EN"
 "http://www.w3.org/Graphics/SVG/1.1/DTD/svg11.dtd">
<!-- Generated by graphviz version 9.0.0 (0)
 -->
<!-- Pages: 1 -->
<svg width="312pt" height="311pt"
 viewBox="0.00 0.00 312.25 311.00" xmlns="http://www.w3.org/2000/svg" xmlns:xlink="http://www.w3.org/1999/xlink">
<g id="graph0" class="graph" transform="scale(1 1) rotate(0) translate(4 307)">
<polygon fill="#0d1117" stroke="none" points="-4,4 -4,-307 308.25,-307 308.25,4 -4,4"/>
<g id="clust1" class="cluster">
<title>clusternode_Set(1)</title>
<g id="a_clust1"><a xlink:title="LoadingScreenUpdateSet">
<path fill="#ffffff" fill-opacity="0.266667" stroke="#ffffff" stroke-width="2" stroke-opacity="0.313725" d="M20,-8C20,-8 280.12,-8 280.12,-8 286.12,-8 292.12,-14 292.12,-20 292.12,-20 292.12,-130 292.12,-130 292.12,-136 286.12,-142 280.12,-142 280.12,-142 20,-142 20,-142 14,-142 8,-136 8,-130 8,-130 8,-20 8,-20 8,-14 14,-8 20,-8"/>
<text text-anchor="middle" x="150.06" y="-124.7" font-family="Helvetica,sans-Serif" font-size="14.00" fill="#ffffff">LoadingScreenUpdateSet</text>
</a>
</g>
</g>
<g id="clust2" class="cluster">
<title>clusternode_Set(2)</title>
<g id="a_clust2"><a xlink:title="LoadingScreenFadeOutUpdateSet">
<path fill="#ffffff" fill-opacity="0.266667" stroke="#ffffff" stroke-width="2" stroke-opacity="0.313725" d="M29.75,-172C29.75,-172 284.25,-172 284.25,-172 290.25,-172 296.25,-178 296.25,-184 296.25,-184 296.25,-247 296.25,-247 296.25,-253 290.25,-259 284.25,-259 284.25,-259 29.75,-259 29.75,-259 23.75,-259 17.75,-253 17.75,-247 17.75,-247 17.75,-184 17.75,-184 17.75,-178 23.75,-172 29.75,-172"/>
<text text-anchor="middle" x="157" y="-241.7" font-family="Helvetica,sans-Serif" font-size="14.00" fill="#ffffff">LoadingScreenFadeOutUpdateSet</text>
</a>
</g>
</g>
<!-- set_marker_node_Set(1) -->
<!-- node_System(1) -->
<g id="node2" class="node">
<title>node_System(1)</title>
<g id="a_node2"><a xlink:title="froglight_loading::layout::fade_animation::FadeTimer::insert_fade_in_timer">
<polygon fill="#eff1f3" stroke="#b4bec7" points="168.88,-99 29.88,-99 29.88,-63 168.88,-63 168.88,-99"/>
<text text-anchor="middle" x="99.38" y="-75.58" font-family="Helvetica,sans-Serif" font-size="14.00" fill="#15191d">insert_fade_in_timer</text>
</a>
</g>
</g>
<!-- node_System(2) -->
<g id="node3" class="node">
<title>node_System(2)</title>
<g id="a_node3"><a xlink:title="froglight_loading::layout::fade_animation::FadeAnimationMarker::fade_in">
<polygon fill="#eff1f3" stroke="#b4bec7" points="284.12,-99 223.88,-99 223.88,-63 284.12,-63 284.12,-99"/>
<text text-anchor="middle" x="254" y="-75.58" font-family="Helvetica,sans-Serif" font-size="14.00" fill="#15191d">fade_in</text>
</a>
</g>
</g>
<!-- node_System(1)&#45;&gt;node_System(2) -->
<g id="edge1" class="edge">
<title>node_System(1)&#45;&gt;node_System(2)</title>
<g id="a_edge1"><a xlink:title="insert_fade_in_timer → fade_in">
<path fill="none" stroke="#eede00" stroke-width="2" d="M169.1,-81C183.31,-81 197.87,-81 210.8,-81"/>
<polygon fill="#eede00" stroke="#eede00" stroke-width="2" points="210.56,-84.5 220.56,-81 210.56,-77.5 210.56,-84.5"/>
</a>
</g>
</g>
<!-- node_System(4) -->
<g id="node7" class="node">
<title>node_System(4)</title>
<g id="a_node7"><a xlink:title="froglight_loading::layout::fade_animation::FadeAnimationMarker::fade_out">
<polygon fill="#eff1f3" stroke="#b4bec7" points="288.25,-216 219.75,-216 219.75,-180 288.25,-180 288.25,-216"/>
<text text-anchor="middle" x="254" y="-192.57" font-family="Helvetica,sans-Serif" font-size="14.00" fill="#15191d">fade_out</text>
</a>
</g>
</g>
<!-- node_System(2)&#45;&gt;node_System(4) -->
<g id="edge3" class="edge">
<title>node_System(2)&#45;&gt;node_System(4)</title>
<path fill="none" stroke="#c93526" stroke-width="2" d="M254,-99.28C254,-121.26 254,-157.92 254,-179.85"/>
<g id="a_edge3&#45;label"><a xlink:title="fade_in — fade_out">
<polygon fill="#c6e6ff" stroke="none" points="165.88,-151.75 165.88,-172.25 266.62,-172.25 266.62,-151.75 165.88,-151.75"/>
<text text-anchor="start" x="186.25" y="-156.95" font-family="Times,serif" font-size="14.00" fill="#c93526">FadeTimer</text>
<polygon fill="#c6e6ff" stroke="none" points="165.88,-129.25 165.88,-149.75 266.62,-149.75 266.62,-129.25 165.88,-129.25"/>
<text text-anchor="start" x="167.88" y="-134.45" font-family="Times,serif" font-size="14.00" fill="#c93526">BackgroundColor</text>
<polygon fill="#c6e6ff" stroke="none" points="165.88,-106.75 165.88,-127.25 266.62,-127.25 266.62,-106.75 165.88,-106.75"/>
<text text-anchor="start" x="190.75" y="-111.95" font-family="Times,serif" font-size="14.00" fill="#c93526">Visibility</text>
</a>
</g>
</g>
<!-- node_System(5) -->
<g id="node4" class="node">
<title>node_System(5)</title>
<g id="a_node4"><a xlink:title="froglight_loading::layout::progress_bar::bar_progress::ProgressBarProgress::update_current_progress">
<polygon fill="#eff1f3" stroke="#b4bec7" points="182.75,-52 16,-52 16,-16 182.75,-16 182.75,-52"/>
<text text-anchor="middle" x="99.38" y="-28.57" font-family="Helvetica,sans-Serif" font-size="14.00" fill="#15191d">update_current_progress</text>
</a>
</g>
</g>
<!-- set_marker_node_Set(2) -->
<!-- node_System(3) -->
<g id="node6" class="node">
<title>node_System(3)</title>
<g id="a_node6"><a xlink:title="froglight_loading::layout::fade_animation::FadeTimer::insert_fade_out_timer">
<polygon fill="#eff1f3" stroke="#b4bec7" points="173,-216 25.75,-216 25.75,-180 173,-180 173,-216"/>
<text text-anchor="middle" x="99.38" y="-192.57" font-family="Helvetica,sans-Serif" font-size="14.00" fill="#15191d">insert_fade_out_timer</text>
</a>
</g>
</g>
<!-- node_System(3)&#45;&gt;node_System(4) -->
<g id="edge2" class="edge">
<title>node_System(3)&#45;&gt;node_System(4)</title>
<g id="a_edge2"><a xlink:title="insert_fade_out_timer → fade_out">
<path fill="none" stroke="#881877" stroke-width="2" d="M173.11,-198C184.56,-198 196.11,-198 206.74,-198"/>
<polygon fill="#881877" stroke="#881877" stroke-width="2" points="206.6,-201.5 216.6,-198 206.6,-194.5 206.6,-201.5"/>
</a>
</g>
</g>
<!-- node_System(0) -->
<g id="node8" class="node">
<title>node_System(0)</title>
<g id="a_node8"><a xlink:title="bevy_window::system::close_when_requested">
<polygon fill="lightgrey" stroke="black" points="168.5,-303 30.25,-303 30.25,-267 168.5,-267 168.5,-303"/>
<text text-anchor="middle" x="99.38" y="-279.95" font-family="Times,serif" font-size="14.00">close_when_requested</text>
</a>
</g>
</g>
</g>
</svg>
