<?xml version="1.0" encoding="UTF-8" standalone="no"?>
<!DOCTYPE svg PUBLIC "-//W3C//DTD SVG 1.1//EN"
 "http://www.w3.org/Graphics/SVG/1.1/DTD/svg11.dtd">
<!-- Generated by graphviz version 9.0.0 (0)
 -->
<!-- Pages: 1 -->
<svg width="950pt" height="515pt"
 viewBox="0.00 0.00 950.00 515.00" xmlns="http://www.w3.org/2000/svg" xmlns:xlink="http://www.w3.org/1999/xlink">
<g id="graph0" class="graph" transform="scale(1 1) rotate(0) translate(4 511)">
<polygon fill="#0d1117" stroke="none" points="-4,4 -4,-511 946,-511 946,4 -4,4"/>
<g id="clust1" class="cluster">
<title>clusternode_Set(1)</title>
<g id="a_clust1"><a xlink:title="LoadingScreenUpdateSet">
<path fill="#ffffff" fill-opacity="0.266667" stroke="#ffffff" stroke-width="2" stroke-opacity="0.313725" d="M20,-8C20,-8 922,-8 922,-8 928,-8 934,-14 934,-20 934,-20 934,-215 934,-215 934,-221 928,-227 922,-227 922,-227 20,-227 20,-227 14,-227 8,-221 8,-215 8,-215 8,-20 8,-20 8,-14 14,-8 20,-8"/>
<text text-anchor="middle" x="471" y="-209.7" font-family="Helvetica,sans-Serif" font-size="14.00" fill="#ffffff">LoadingScreenUpdateSet</text>
</a>
</g>
</g>
<g id="clust2" class="cluster">
<title>clusternode_Set(4)</title>
<g id="a_clust2"><a xlink:title="LoadingScreenToggleSet">
<path fill="#ffffff" fill-opacity="0.266667" stroke="#ffffff" stroke-width="2" stroke-opacity="0.313725" d="M202.75,-16C202.75,-16 914,-16 914,-16 920,-16 926,-22 926,-28 926,-28 926,-183 926,-183 926,-189 920,-195 914,-195 914,-195 202.75,-195 202.75,-195 196.75,-195 190.75,-189 190.75,-183 190.75,-183 190.75,-28 190.75,-28 190.75,-22 196.75,-16 202.75,-16"/>
<text text-anchor="middle" x="558.38" y="-177.7" font-family="Helvetica,sans-Serif" font-size="14.00" fill="#ffffff">LoadingScreenToggleSet</text>
</a>
</g>
</g>
<g id="clust3" class="cluster">
<title>clusternode_Set(5)</title>
<g id="a_clust3"><a xlink:title="LoadingScreenFadeInSet">
<path fill="#ffffff" fill-opacity="0.266667" stroke="#ffffff" stroke-width="2" stroke-opacity="0.313725" d="M210.75,-32C210.75,-32 491.25,-32 491.25,-32 497.25,-32 503.25,-38 503.25,-44 503.25,-44 503.25,-107 503.25,-107 503.25,-113 497.25,-119 491.25,-119 491.25,-119 210.75,-119 210.75,-119 204.75,-119 198.75,-113 198.75,-107 198.75,-107 198.75,-44 198.75,-44 198.75,-38 204.75,-32 210.75,-32"/>
<text text-anchor="middle" x="351" y="-101.7" font-family="Helvetica,sans-Serif" font-size="14.00" fill="#ffffff">LoadingScreenFadeInSet</text>
</a>
</g>
</g>
<g id="clust4" class="cluster">
<title>clusternode_Set(6)</title>
<g id="a_clust4"><a xlink:title="LoadingScreenFadeOutSet">
<path fill="#ffffff" fill-opacity="0.266667" stroke="#ffffff" stroke-width="2" stroke-opacity="0.313725" d="M588.5,-32C588.5,-32 873.12,-32 873.12,-32 879.12,-32 885.12,-38 885.12,-44 885.12,-44 885.12,-107 885.12,-107 885.12,-113 879.12,-119 873.12,-119 873.12,-119 588.5,-119 588.5,-119 582.5,-119 576.5,-113 576.5,-107 576.5,-107 576.5,-44 576.5,-44 576.5,-38 582.5,-32 588.5,-32"/>
<text text-anchor="middle" x="730.81" y="-101.7" font-family="Helvetica,sans-Serif" font-size="14.00" fill="#ffffff">LoadingScreenFadeOutSet</text>
</a>
</g>
</g>
<g id="clust5" class="cluster">
<title>clusternode_Set(14)</title>
<g id="a_clust5"><a xlink:title="DebugUpdateSet">
<path fill="#ffffff" fill-opacity="0.266667" stroke="#ffffff" stroke-width="2" stroke-opacity="0.313725" d="M36.5,-235C36.5,-235 143.5,-235 143.5,-235 149.5,-235 155.5,-241 155.5,-247 155.5,-247 155.5,-310 155.5,-310 155.5,-316 149.5,-322 143.5,-322 143.5,-322 36.5,-322 36.5,-322 30.5,-322 24.5,-316 24.5,-310 24.5,-310 24.5,-247 24.5,-247 24.5,-241 30.5,-235 36.5,-235"/>
<text text-anchor="middle" x="90" y="-304.7" font-family="Helvetica,sans-Serif" font-size="14.00" fill="#ffffff">DebugUpdateSet</text>
</a>
</g>
</g>
<!-- set_marker_node_Set(1) -->
<!-- set_marker_node_Set(4) -->
<!-- set_marker_node_Set(5) -->
<!-- set_marker_node_Set(6) -->
<!-- set_marker_node_Set(5)&#45;&gt;set_marker_node_Set(6) -->
<g id="edge1" class="edge">
<title>set_marker_node_Set(5)&#45;&gt;set_marker_node_Set(6)</title>
<g id="a_edge1"><a xlink:title="LoadingScreenFadeInSet → LoadingScreenFadeOutSet">
<path fill="none" stroke="#eede00" stroke-width="2" d="M503.25,-87C524.34,-87 544.82,-87 563.59,-87"/>
<polygon fill="#eede00" stroke="#eede00" stroke-width="2" points="563.48,-90.5 573.48,-87 563.48,-83.5 563.48,-90.5"/>
</a>
</g>
</g>
<!-- node_System(9) -->
<g id="node10" class="node">
<title>node_System(9)</title>
<g id="a_node10"><a xlink:title="froglight_loading::layout::progress_bar::progress::ProgressBarProgress::update_current_progress">
<polygon fill="#eff1f3" stroke="#b4bec7" points="548.5,-163 381.75,-163 381.75,-127 548.5,-127 548.5,-163"/>
<text text-anchor="middle" x="465.12" y="-139.57" font-family="Helvetica,sans-Serif" font-size="14.00" fill="#15191d">update_current_progress</text>
</a>
</g>
</g>
<!-- set_marker_node_Set(5)&#45;&gt;node_System(9) -->
<g id="edge6" class="edge">
<title>set_marker_node_Set(5)&#45;&gt;node_System(9)</title>
<g id="a_edge6"><a xlink:title="LoadingScreenFadeInSet → update_current_progress">
<path fill="none" stroke="#0090cc" stroke-width="2" d="M375.3,-119C377.47,-119.68 379.62,-120.34 381.75,-121 383.81,-121.63 385.89,-122.27 388,-122.91"/>
<polygon fill="#0090cc" stroke="#0090cc" stroke-width="2" points="386.72,-126.19 397.31,-125.72 388.74,-119.48 386.72,-126.19"/>
</a>
</g>
</g>
<!-- node_System(5) -->
<g id="node4" class="node">
<title>node_System(5)</title>
<g id="a_node4"><a xlink:title="froglight_loading::layout::fade_animation::FadeTimer::insert_fade_in_timer">
<polygon fill="#eff1f3" stroke="#b4bec7" points="345.75,-76 206.75,-76 206.75,-40 345.75,-40 345.75,-76"/>
<text text-anchor="middle" x="276.25" y="-52.58" font-family="Helvetica,sans-Serif" font-size="14.00" fill="#15191d">insert_fade_in_timer</text>
</a>
</g>
</g>
<!-- node_System(6) -->
<g id="node5" class="node">
<title>node_System(6)</title>
<g id="a_node5"><a xlink:title="froglight_loading::layout::fade_animation::FadeAnimationMarker::fade_in">
<polygon fill="#eff1f3" stroke="#b4bec7" points="495.25,-76 435,-76 435,-40 495.25,-40 495.25,-76"/>
<text text-anchor="middle" x="465.12" y="-52.58" font-family="Helvetica,sans-Serif" font-size="14.00" fill="#15191d">fade_in</text>
</a>
</g>
</g>
<!-- node_System(5)&#45;&gt;node_System(6) -->
<g id="edge4" class="edge">
<title>node_System(5)&#45;&gt;node_System(6)</title>
<g id="a_edge4"><a xlink:title="insert_fade_in_timer → fade_in">
<path fill="none" stroke="#aa3a55" stroke-width="2" d="M346.04,-58C371.5,-58 399.58,-58 421.98,-58"/>
<polygon fill="#aa3a55" stroke="#aa3a55" stroke-width="2" points="421.75,-61.5 431.75,-58 421.75,-54.5 421.75,-61.5"/>
</a>
</g>
</g>
<!-- node_System(4) -->
<g id="node9" class="node">
<title>node_System(4)</title>
<g id="a_node9"><a xlink:title="froglight_loading::systemsets::LoadingScreenEnableSystems::disable_fade_systems">
<polygon fill="#eff1f3" stroke="#b4bec7" points="918,-163 767.75,-163 767.75,-127 918,-127 918,-163"/>
<text text-anchor="middle" x="842.88" y="-139.57" font-family="Helvetica,sans-Serif" font-size="14.00" fill="#15191d">disable_fade_systems</text>
</a>
</g>
</g>
<!-- set_marker_node_Set(6)&#45;&gt;node_System(4) -->
<g id="edge3" class="edge">
<title>set_marker_node_Set(6)&#45;&gt;node_System(4)</title>
<g id="a_edge3"><a xlink:title="LoadingScreenFadeOutSet → disable_fade_systems">
<path fill="none" stroke="#00b0cc" stroke-width="2" d="M759.94,-119C763.96,-120.27 767.95,-121.54 771.89,-122.79"/>
<polygon fill="#00b0cc" stroke="#00b0cc" stroke-width="2" points="770.6,-126.05 781.19,-125.74 772.72,-119.38 770.6,-126.05"/>
</a>
</g>
</g>
<!-- node_System(7) -->
<g id="node7" class="node">
<title>node_System(7)</title>
<g id="a_node7"><a xlink:title="froglight_loading::layout::fade_animation::FadeTimer::insert_fade_out_timer">
<polygon fill="#eff1f3" stroke="#b4bec7" points="731.75,-76 584.5,-76 584.5,-40 731.75,-40 731.75,-76"/>
<text text-anchor="middle" x="658.12" y="-52.58" font-family="Helvetica,sans-Serif" font-size="14.00" fill="#15191d">insert_fade_out_timer</text>
</a>
</g>
</g>
<!-- node_System(8) -->
<g id="node8" class="node">
<title>node_System(8)</title>
<g id="a_node8"><a xlink:title="froglight_loading::layout::fade_animation::FadeAnimationMarker::fade_out">
<polygon fill="#eff1f3" stroke="#b4bec7" points="877.12,-76 808.62,-76 808.62,-40 877.12,-40 877.12,-76"/>
<text text-anchor="middle" x="842.88" y="-52.58" font-family="Helvetica,sans-Serif" font-size="14.00" fill="#15191d">fade_out</text>
</a>
</g>
</g>
<!-- node_System(7)&#45;&gt;node_System(8) -->
<g id="edge5" class="edge">
<title>node_System(7)&#45;&gt;node_System(8)</title>
<g id="a_edge5"><a xlink:title="insert_fade_out_timer → fade_out">
<path fill="none" stroke="#44d488" stroke-width="2" d="M732.14,-58C753.52,-58 776.31,-58 795.54,-58"/>
<polygon fill="#44d488" stroke="#44d488" stroke-width="2" points="795.51,-61.5 805.51,-58 795.51,-54.5 795.51,-61.5"/>
</a>
</g>
</g>
<!-- node_System(9)&#45;&gt;set_marker_node_Set(6) -->
<g id="edge7" class="edge">
<title>node_System(9)&#45;&gt;set_marker_node_Set(6)</title>
<g id="a_edge7"><a xlink:title="update_current_progress → LoadingScreenFadeOutSet">
<path fill="none" stroke="#ee9e44" stroke-width="2" d="M530.02,-126.52C536.27,-124.67 542.51,-122.81 548.5,-121 553.61,-119.46 558.84,-117.86 564.13,-116.24"/>
<polygon fill="#ee9e44" stroke="#ee9e44" stroke-width="2" points="565.08,-119.61 573.61,-113.32 563.02,-112.92 565.08,-119.61"/>
</a>
</g>
</g>
<!-- node_System(3) -->
<g id="node11" class="node">
<title>node_System(3)</title>
<g id="a_node11"><a xlink:title="froglight_loading::systemsets::LoadingScreenEnableSystems::enable_fade_systems">
<polygon fill="#eff1f3" stroke="#b4bec7" points="164,-52 16,-52 16,-16 164,-16 164,-52"/>
<text text-anchor="middle" x="90" y="-28.57" font-family="Helvetica,sans-Serif" font-size="14.00" fill="#15191d">enable_fade_systems</text>
</a>
</g>
</g>
<!-- node_System(3)&#45;&gt;set_marker_node_Set(4) -->
<g id="edge2" class="edge">
<title>node_System(3)&#45;&gt;set_marker_node_Set(4)</title>
<g id="a_edge2"><a xlink:title="enable_fade_systems → LoadingScreenToggleSet">
<path fill="none" stroke="#881877" stroke-width="2" d="M164.35,-30.02C168.82,-29.78 173.36,-29.53 177.91,-29.28"/>
<polygon fill="#881877" stroke="#881877" stroke-width="2" points="177.94,-32.79 187.73,-28.75 177.56,-25.8 177.94,-32.79"/>
</a>
</g>
</g>
<!-- set_marker_node_Set(14) -->
<!-- node_System(10) -->
<g id="node13" class="node">
<title>node_System(10)</title>
<g id="a_node13"><a xlink:title="froglight_debug::inspector::InspectorEnable::toggle_inspector">
<polygon fill="#eff1f3" stroke="#b4bec7" points="147.5,-279 32.5,-279 32.5,-243 147.5,-243 147.5,-279"/>
<text text-anchor="middle" x="90" y="-255.57" font-family="Helvetica,sans-Serif" font-size="14.00" fill="#15191d">toggle_inspector</text>
</a>
</g>
</g>
<!-- node_System(0) -->
<g id="node14" class="node">
<title>node_System(0)</title>
<g id="a_node14"><a xlink:title="bevy_window::system::close_when_requested">
<polygon fill="lightgrey" stroke="black" points="159.12,-366 20.88,-366 20.88,-330 159.12,-330 159.12,-366"/>
<text text-anchor="middle" x="90" y="-342.95" font-family="Times,serif" font-size="14.00">close_when_requested</text>
</a>
</g>
</g>
<!-- node_System(1) -->
<g id="node15" class="node">
<title>node_System(1)</title>
<g id="a_node15"><a xlink:title="bevy_xpbd_3d::plugins::prepare::init_async_colliders">
<polygon fill="lightgrey" stroke="black" points="152.38,-413 27.63,-413 27.63,-377 152.38,-377 152.38,-413"/>
<text text-anchor="middle" x="90" y="-389.95" font-family="Times,serif" font-size="14.00">init_async_colliders</text>
</a>
</g>
</g>
<!-- node_System(2) -->
<g id="node16" class="node">
<title>node_System(2)</title>
<g id="a_node16"><a xlink:title="bevy_xpbd_3d::plugins::prepare::init_async_scene_colliders">
<polygon fill="lightgrey" stroke="black" points="170.75,-460 9.25,-460 9.25,-424 170.75,-424 170.75,-460"/>
<text text-anchor="middle" x="90" y="-436.95" font-family="Times,serif" font-size="14.00">init_async_scene_colliders</text>
</a>
</g>
</g>
<!-- node_System(11) -->
<g id="node17" class="node">
<title>node_System(11)</title>
<g id="a_node17"><a xlink:title="bevy_inspector_egui::quick::world_inspector_ui">
<polygon fill="lightgrey" stroke="black" points="150.5,-507 29.5,-507 29.5,-471 150.5,-471 150.5,-507"/>
<text text-anchor="middle" x="90" y="-483.95" font-family="Times,serif" font-size="14.00">world_inspector_ui</text>
</a>
</g>
</g>
</g>
</svg>
