<?xml version="1.0" encoding="UTF-8" standalone="no"?>
<!DOCTYPE svg PUBLIC "-//W3C//DTD SVG 1.1//EN"
 "http://www.w3.org/Graphics/SVG/1.1/DTD/svg11.dtd">
<!-- Generated by graphviz version 9.0.0 (0)
 -->
<!-- Pages: 1 -->
<svg width="969pt" height="610pt"
 viewBox="0.00 0.00 968.75 610.00" xmlns="http://www.w3.org/2000/svg" xmlns:xlink="http://www.w3.org/1999/xlink">
<g id="graph0" class="graph" transform="scale(1 1) rotate(0) translate(4 606)">
<polygon fill="#0d1117" stroke="none" points="-4,4 -4,-606 964.75,-606 964.75,4 -4,4"/>
<g id="clust1" class="cluster">
<title>clusternode_Set(1)</title>
<g id="a_clust1"><a xlink:title="LoadingScreenUpdateSet">
<path fill="#ffffff" fill-opacity="0.266667" stroke="#ffffff" stroke-width="2" stroke-opacity="0.313725" d="M32.75,-8C32.75,-8 940.75,-8 940.75,-8 946.75,-8 952.75,-14 952.75,-20 952.75,-20 952.75,-215 952.75,-215 952.75,-221 946.75,-227 940.75,-227 940.75,-227 32.75,-227 32.75,-227 26.75,-227 20.75,-221 20.75,-215 20.75,-215 20.75,-20 20.75,-20 20.75,-14 26.75,-8 32.75,-8"/>
<text text-anchor="middle" x="486.75" y="-209.7" font-family="Helvetica,sans-Serif" font-size="14.00" fill="#ffffff">LoadingScreenUpdateSet</text>
</a>
</g>
</g>
<g id="clust2" class="cluster">
<title>clusternode_Set(6)</title>
<g id="a_clust2"><a xlink:title="LoadingScreenToggleSet">
<path fill="#ffffff" fill-opacity="0.266667" stroke="#ffffff" stroke-width="2" stroke-opacity="0.313725" d="M221.5,-16C221.5,-16 932.75,-16 932.75,-16 938.75,-16 944.75,-22 944.75,-28 944.75,-28 944.75,-183 944.75,-183 944.75,-189 938.75,-195 932.75,-195 932.75,-195 221.5,-195 221.5,-195 215.5,-195 209.5,-189 209.5,-183 209.5,-183 209.5,-28 209.5,-28 209.5,-22 215.5,-16 221.5,-16"/>
<text text-anchor="middle" x="577.12" y="-177.7" font-family="Helvetica,sans-Serif" font-size="14.00" fill="#ffffff">LoadingScreenToggleSet</text>
</a>
</g>
</g>
<g id="clust3" class="cluster">
<title>clusternode_Set(7)</title>
<g id="a_clust3"><a xlink:title="LoadingScreenFadeInSet">
<path fill="#ffffff" fill-opacity="0.266667" stroke="#ffffff" stroke-width="2" stroke-opacity="0.313725" d="M229.5,-32C229.5,-32 510,-32 510,-32 516,-32 522,-38 522,-44 522,-44 522,-107 522,-107 522,-113 516,-119 510,-119 510,-119 229.5,-119 229.5,-119 223.5,-119 217.5,-113 217.5,-107 217.5,-107 217.5,-44 217.5,-44 217.5,-38 223.5,-32 229.5,-32"/>
<text text-anchor="middle" x="369.75" y="-101.7" font-family="Helvetica,sans-Serif" font-size="14.00" fill="#ffffff">LoadingScreenFadeInSet</text>
</a>
</g>
</g>
<g id="clust4" class="cluster">
<title>clusternode_Set(8)</title>
<g id="a_clust4"><a xlink:title="LoadingScreenFadeOutSet">
<path fill="#ffffff" fill-opacity="0.266667" stroke="#ffffff" stroke-width="2" stroke-opacity="0.313725" d="M607.25,-32C607.25,-32 891.88,-32 891.88,-32 897.88,-32 903.88,-38 903.88,-44 903.88,-44 903.88,-107 903.88,-107 903.88,-113 897.88,-119 891.88,-119 891.88,-119 607.25,-119 607.25,-119 601.25,-119 595.25,-113 595.25,-107 595.25,-107 595.25,-44 595.25,-44 595.25,-38 601.25,-32 607.25,-32"/>
<text text-anchor="middle" x="749.56" y="-101.7" font-family="Helvetica,sans-Serif" font-size="14.00" fill="#ffffff">LoadingScreenFadeOutSet</text>
</a>
</g>
</g>
<g id="clust5" class="cluster">
<title>clusternode_Set(2)</title>
<g id="a_clust5"><a xlink:title="ResourcePackUpdateSet">
<path fill="#ffffff" fill-opacity="0.266667" stroke="#ffffff" stroke-width="2" stroke-opacity="0.313725" d="M20,-235C20,-235 185.5,-235 185.5,-235 191.5,-235 197.5,-241 197.5,-247 197.5,-247 197.5,-310 197.5,-310 197.5,-316 191.5,-322 185.5,-322 185.5,-322 20,-322 20,-322 14,-322 8,-316 8,-310 8,-310 8,-247 8,-247 8,-241 14,-235 20,-235"/>
<text text-anchor="middle" x="102.75" y="-304.7" font-family="Helvetica,sans-Serif" font-size="14.00" fill="#ffffff">ResourcePackUpdateSet</text>
</a>
</g>
</g>
<g id="clust6" class="cluster">
<title>clusternode_Set(16)</title>
<g id="a_clust6"><a xlink:title="DebugUpdateSet">
<path fill="#ffffff" fill-opacity="0.266667" stroke="#ffffff" stroke-width="2" stroke-opacity="0.313725" d="M49.25,-330C49.25,-330 156.25,-330 156.25,-330 162.25,-330 168.25,-336 168.25,-342 168.25,-342 168.25,-405 168.25,-405 168.25,-411 162.25,-417 156.25,-417 156.25,-417 49.25,-417 49.25,-417 43.25,-417 37.25,-411 37.25,-405 37.25,-405 37.25,-342 37.25,-342 37.25,-336 43.25,-330 49.25,-330"/>
<text text-anchor="middle" x="102.75" y="-399.7" font-family="Helvetica,sans-Serif" font-size="14.00" fill="#ffffff">DebugUpdateSet</text>
</a>
</g>
</g>
<!-- set_marker_node_Set(1) -->
<!-- set_marker_node_Set(6) -->
<!-- set_marker_node_Set(7) -->
<!-- set_marker_node_Set(8) -->
<!-- set_marker_node_Set(7)&#45;&gt;set_marker_node_Set(8) -->
<g id="edge1" class="edge">
<title>set_marker_node_Set(7)&#45;&gt;set_marker_node_Set(8)</title>
<g id="a_edge1"><a xlink:title="LoadingScreenFadeInSet → LoadingScreenFadeOutSet">
<path fill="none" stroke="#eede00" stroke-width="2" d="M522,-87C543.09,-87 563.57,-87 582.34,-87"/>
<polygon fill="#eede00" stroke="#eede00" stroke-width="2" points="582.23,-90.5 592.23,-87 582.23,-83.5 582.23,-90.5"/>
</a>
</g>
</g>
<!-- node_System(10) -->
<g id="node10" class="node">
<title>node_System(10)</title>
<g id="a_node10"><a xlink:title="froglight_loading::layout::progress_bar::progress::ProgressBarProgress::update_current_progress">
<polygon fill="#eff1f3" stroke="#b4bec7" points="567.25,-163 400.5,-163 400.5,-127 567.25,-127 567.25,-163"/>
<text text-anchor="middle" x="483.88" y="-139.57" font-family="Helvetica,sans-Serif" font-size="14.00" fill="#15191d">update_current_progress</text>
</a>
</g>
</g>
<!-- set_marker_node_Set(7)&#45;&gt;node_System(10) -->
<g id="edge6" class="edge">
<title>set_marker_node_Set(7)&#45;&gt;node_System(10)</title>
<g id="a_edge6"><a xlink:title="LoadingScreenFadeInSet → update_current_progress">
<path fill="none" stroke="#0090cc" stroke-width="2" d="M394.05,-119C396.22,-119.68 398.37,-120.34 400.5,-121 402.56,-121.63 404.64,-122.27 406.75,-122.91"/>
<polygon fill="#0090cc" stroke="#0090cc" stroke-width="2" points="405.47,-126.19 416.06,-125.72 407.49,-119.48 405.47,-126.19"/>
</a>
</g>
</g>
<!-- node_System(6) -->
<g id="node4" class="node">
<title>node_System(6)</title>
<g id="a_node4"><a xlink:title="froglight_loading::layout::fade_animation::FadeTimer::insert_fade_in_timer">
<polygon fill="#eff1f3" stroke="#b4bec7" points="364.5,-76 225.5,-76 225.5,-40 364.5,-40 364.5,-76"/>
<text text-anchor="middle" x="295" y="-52.58" font-family="Helvetica,sans-Serif" font-size="14.00" fill="#15191d">insert_fade_in_timer</text>
</a>
</g>
</g>
<!-- node_System(7) -->
<g id="node5" class="node">
<title>node_System(7)</title>
<g id="a_node5"><a xlink:title="froglight_loading::layout::fade_animation::FadeAnimationMarker::fade_in">
<polygon fill="#eff1f3" stroke="#b4bec7" points="514,-76 453.75,-76 453.75,-40 514,-40 514,-76"/>
<text text-anchor="middle" x="483.88" y="-52.58" font-family="Helvetica,sans-Serif" font-size="14.00" fill="#15191d">fade_in</text>
</a>
</g>
</g>
<!-- node_System(6)&#45;&gt;node_System(7) -->
<g id="edge4" class="edge">
<title>node_System(6)&#45;&gt;node_System(7)</title>
<g id="a_edge4"><a xlink:title="insert_fade_in_timer → fade_in">
<path fill="none" stroke="#aa3a55" stroke-width="2" d="M364.79,-58C390.25,-58 418.33,-58 440.73,-58"/>
<polygon fill="#aa3a55" stroke="#aa3a55" stroke-width="2" points="440.5,-61.5 450.5,-58 440.5,-54.5 440.5,-61.5"/>
</a>
</g>
</g>
<!-- node_System(5) -->
<g id="node9" class="node">
<title>node_System(5)</title>
<g id="a_node9"><a xlink:title="froglight_loading::systemsets::LoadingScreenEnableSystems::disable_fade_systems">
<polygon fill="#eff1f3" stroke="#b4bec7" points="936.75,-163 786.5,-163 786.5,-127 936.75,-127 936.75,-163"/>
<text text-anchor="middle" x="861.62" y="-139.57" font-family="Helvetica,sans-Serif" font-size="14.00" fill="#15191d">disable_fade_systems</text>
</a>
</g>
</g>
<!-- set_marker_node_Set(8)&#45;&gt;node_System(5) -->
<g id="edge3" class="edge">
<title>set_marker_node_Set(8)&#45;&gt;node_System(5)</title>
<g id="a_edge3"><a xlink:title="LoadingScreenFadeOutSet → disable_fade_systems">
<path fill="none" stroke="#00b0cc" stroke-width="2" d="M778.69,-119C782.71,-120.27 786.7,-121.54 790.64,-122.79"/>
<polygon fill="#00b0cc" stroke="#00b0cc" stroke-width="2" points="789.35,-126.05 799.94,-125.74 791.47,-119.38 789.35,-126.05"/>
</a>
</g>
</g>
<!-- node_System(8) -->
<g id="node7" class="node">
<title>node_System(8)</title>
<g id="a_node7"><a xlink:title="froglight_loading::layout::fade_animation::FadeTimer::insert_fade_out_timer">
<polygon fill="#eff1f3" stroke="#b4bec7" points="750.5,-76 603.25,-76 603.25,-40 750.5,-40 750.5,-76"/>
<text text-anchor="middle" x="676.88" y="-52.58" font-family="Helvetica,sans-Serif" font-size="14.00" fill="#15191d">insert_fade_out_timer</text>
</a>
</g>
</g>
<!-- node_System(9) -->
<g id="node8" class="node">
<title>node_System(9)</title>
<g id="a_node8"><a xlink:title="froglight_loading::layout::fade_animation::FadeAnimationMarker::fade_out">
<polygon fill="#eff1f3" stroke="#b4bec7" points="895.88,-76 827.38,-76 827.38,-40 895.88,-40 895.88,-76"/>
<text text-anchor="middle" x="861.62" y="-52.58" font-family="Helvetica,sans-Serif" font-size="14.00" fill="#15191d">fade_out</text>
</a>
</g>
</g>
<!-- node_System(8)&#45;&gt;node_System(9) -->
<g id="edge5" class="edge">
<title>node_System(8)&#45;&gt;node_System(9)</title>
<g id="a_edge5"><a xlink:title="insert_fade_out_timer → fade_out">
<path fill="none" stroke="#44d488" stroke-width="2" d="M750.89,-58C772.27,-58 795.06,-58 814.29,-58"/>
<polygon fill="#44d488" stroke="#44d488" stroke-width="2" points="814.26,-61.5 824.26,-58 814.26,-54.5 814.26,-61.5"/>
</a>
</g>
</g>
<!-- node_System(10)&#45;&gt;set_marker_node_Set(8) -->
<g id="edge7" class="edge">
<title>node_System(10)&#45;&gt;set_marker_node_Set(8)</title>
<g id="a_edge7"><a xlink:title="update_current_progress → LoadingScreenFadeOutSet">
<path fill="none" stroke="#ee9e44" stroke-width="2" d="M548.77,-126.52C555.02,-124.67 561.26,-122.81 567.25,-121 572.36,-119.46 577.59,-117.86 582.88,-116.24"/>
<polygon fill="#ee9e44" stroke="#ee9e44" stroke-width="2" points="583.83,-119.61 592.36,-113.32 581.77,-112.92 583.83,-119.61"/>
</a>
</g>
</g>
<!-- node_System(4) -->
<g id="node11" class="node">
<title>node_System(4)</title>
<g id="a_node11"><a xlink:title="froglight_loading::systemsets::LoadingScreenEnableSystems::enable_fade_systems">
<polygon fill="#eff1f3" stroke="#b4bec7" points="176.75,-52 28.75,-52 28.75,-16 176.75,-16 176.75,-52"/>
<text text-anchor="middle" x="102.75" y="-28.57" font-family="Helvetica,sans-Serif" font-size="14.00" fill="#15191d">enable_fade_systems</text>
</a>
</g>
</g>
<!-- node_System(4)&#45;&gt;set_marker_node_Set(6) -->
<g id="edge2" class="edge">
<title>node_System(4)&#45;&gt;set_marker_node_Set(6)</title>
<g id="a_edge2"><a xlink:title="enable_fade_systems → LoadingScreenToggleSet">
<path fill="none" stroke="#881877" stroke-width="2" d="M177.03,-30.15C183.43,-29.81 189.96,-29.47 196.51,-29.12"/>
<polygon fill="#881877" stroke="#881877" stroke-width="2" points="196.68,-32.62 206.48,-28.6 196.31,-25.63 196.68,-32.62"/>
</a>
</g>
</g>
<!-- set_marker_node_Set(2) -->
<!-- node_System(3) -->
<g id="node13" class="node">
<title>node_System(3)</title>
<g id="a_node13"><a xlink:title="froglight_resourcepack::tracker::ResourcePackTracker::load_next_pack_in_queue">
<polygon fill="#eff1f3" stroke="#b4bec7" points="189.5,-279 16,-279 16,-243 189.5,-243 189.5,-279"/>
<text text-anchor="middle" x="102.75" y="-255.57" font-family="Helvetica,sans-Serif" font-size="14.00" fill="#15191d">load_next_pack_in_queue</text>
</a>
</g>
</g>
<!-- set_marker_node_Set(16) -->
<!-- node_System(11) -->
<g id="node15" class="node">
<title>node_System(11)</title>
<g id="a_node15"><a xlink:title="froglight_debug::inspector::InspectorEnable::toggle_inspector">
<polygon fill="#eff1f3" stroke="#b4bec7" points="160.25,-374 45.25,-374 45.25,-338 160.25,-338 160.25,-374"/>
<text text-anchor="middle" x="102.75" y="-350.57" font-family="Helvetica,sans-Serif" font-size="14.00" fill="#15191d">toggle_inspector</text>
</a>
</g>
</g>
<!-- node_System(0) -->
<g id="node16" class="node">
<title>node_System(0)</title>
<g id="a_node16"><a xlink:title="bevy_window::system::close_when_requested">
<polygon fill="lightgrey" stroke="black" points="171.88,-461 33.62,-461 33.62,-425 171.88,-425 171.88,-461"/>
<text text-anchor="middle" x="102.75" y="-437.95" font-family="Times,serif" font-size="14.00">close_when_requested</text>
</a>
</g>
</g>
<!-- node_System(1) -->
<g id="node17" class="node">
<title>node_System(1)</title>
<g id="a_node17"><a xlink:title="bevy_xpbd_3d::plugins::prepare::init_async_colliders">
<polygon fill="lightgrey" stroke="black" points="165.12,-508 40.38,-508 40.38,-472 165.12,-472 165.12,-508"/>
<text text-anchor="middle" x="102.75" y="-484.95" font-family="Times,serif" font-size="14.00">init_async_colliders</text>
</a>
</g>
</g>
<!-- node_System(2) -->
<g id="node18" class="node">
<title>node_System(2)</title>
<g id="a_node18"><a xlink:title="bevy_xpbd_3d::plugins::prepare::init_async_scene_colliders">
<polygon fill="lightgrey" stroke="black" points="183.5,-555 22,-555 22,-519 183.5,-519 183.5,-555"/>
<text text-anchor="middle" x="102.75" y="-531.95" font-family="Times,serif" font-size="14.00">init_async_scene_colliders</text>
</a>
</g>
</g>
<!-- node_System(12) -->
<g id="node19" class="node">
<title>node_System(12)</title>
<g id="a_node19"><a xlink:title="bevy_inspector_egui::quick::world_inspector_ui">
<polygon fill="lightgrey" stroke="black" points="163.25,-602 42.25,-602 42.25,-566 163.25,-566 163.25,-602"/>
<text text-anchor="middle" x="102.75" y="-578.95" font-family="Times,serif" font-size="14.00">world_inspector_ui</text>
</a>
</g>
</g>
</g>
</svg>
