<?xml version="1.0" encoding="UTF-8" standalone="no"?>
<!DOCTYPE svg PUBLIC "-//W3C//DTD SVG 1.1//EN"
 "http://www.w3.org/Graphics/SVG/1.1/DTD/svg11.dtd">
<!-- Generated by graphviz version 10.0.1 (0)
 -->
<!-- Pages: 1 -->
<svg width="177pt" height="290pt"
 viewBox="0.00 0.00 176.75 290.00" xmlns="http://www.w3.org/2000/svg" xmlns:xlink="http://www.w3.org/1999/xlink">
<g id="graph0" class="graph" transform="scale(1 1) rotate(0) translate(4 286)">
<polygon fill="#0d1117" stroke="none" points="-4,4 -4,-286 172.75,-286 172.75,4 -4,4"/>
<g id="clust1" class="cluster">
<title>clusternode_Set(1)</title>
<g id="a_clust1"><a xlink:title="InterfaceStartupSet">
<path fill="#ffffff" fill-opacity="0.266667" stroke="#ffffff" stroke-width="2" stroke-opacity="0.313725" d="M25.62,-8C25.62,-8 143.12,-8 143.12,-8 149.12,-8 155.12,-14 155.12,-20 155.12,-20 155.12,-131 155.12,-131 155.12,-137 149.12,-143 143.12,-143 143.12,-143 25.62,-143 25.62,-143 19.62,-143 13.62,-137 13.62,-131 13.62,-131 13.62,-20 13.62,-20 13.62,-14 19.62,-8 25.62,-8"/>
<text text-anchor="middle" x="84.38" y="-125.7" font-family="Helvetica,sans-Serif" font-size="14.00" fill="#ffffff">InterfaceStartupSet</text>
</a>
</g>
</g>
<g id="clust2" class="cluster">
<title>clusternode_Set(4)</title>
<g id="a_clust2"><a xlink:title="UiScaleStartupSet">
<path fill="#ffffff" fill-opacity="0.266667" stroke="#ffffff" stroke-width="2" stroke-opacity="0.313725" d="M33.62,-16C33.62,-16 135.12,-16 135.12,-16 141.12,-16 147.12,-22 147.12,-28 147.12,-28 147.12,-91 147.12,-91 147.12,-97 141.12,-103 135.12,-103 135.12,-103 33.62,-103 33.62,-103 27.62,-103 21.62,-97 21.62,-91 21.62,-91 21.62,-28 21.62,-28 21.62,-22 27.62,-16 33.62,-16"/>
<text text-anchor="middle" x="84.38" y="-85.7" font-family="Helvetica,sans-Serif" font-size="14.00" fill="#ffffff">UiScaleStartupSet</text>
</a>
</g>
</g>
<g id="clust3" class="cluster">
<title>clusternode_Set(2)</title>
<g id="a_clust3"><a xlink:title="AssetStartupSet">
<path fill="#ffffff" fill-opacity="0.266667" stroke="#ffffff" stroke-width="2" stroke-opacity="0.313725" d="M20,-151C20,-151 148.75,-151 148.75,-151 154.75,-151 160.75,-157 160.75,-163 160.75,-163 160.75,-226 160.75,-226 160.75,-232 154.75,-238 148.75,-238 148.75,-238 20,-238 20,-238 14,-238 8,-232 8,-226 8,-226 8,-163 8,-163 8,-157 14,-151 20,-151"/>
<text text-anchor="middle" x="84.38" y="-220.7" font-family="Helvetica,sans-Serif" font-size="14.00" fill="#ffffff">AssetStartupSet</text>
</a>
</g>
</g>
<!-- set_marker_node_Set(1) -->
<!-- set_marker_node_Set(4) -->
<!-- node_System(2) -->
<g id="node3" class="node">
<title>node_System(2)</title>
<g id="a_node3"><a xlink:title="froglight_interface::plugins::uiscale::UiScalePlugin::set_uiscale">
<polygon fill="#eff1f3" stroke="#b4bec7" points="126.12,-71 42.62,-71 42.62,-35 126.12,-35 126.12,-71"/>
<text text-anchor="middle" x="84.38" y="-47.58" font-family="Helvetica,sans-Serif" font-size="14.00" fill="#15191d">set_uiscale</text>
</a>
</g>
</g>
<!-- set_marker_node_Set(2) -->
<!-- node_System(1) -->
<g id="node5" class="node">
<title>node_System(1)</title>
<g id="a_node5"><a xlink:title="froglight_assets::settings::resourcepack_config::ResourcePackSettings::load_resourcepacks">
<polygon fill="#eff1f3" stroke="#b4bec7" points="152.75,-206 16,-206 16,-170 152.75,-170 152.75,-206"/>
<text text-anchor="middle" x="84.38" y="-182.57" font-family="Helvetica,sans-Serif" font-size="14.00" fill="#15191d">load_resourcepacks</text>
</a>
</g>
</g>
<!-- node_System(0) -->
<g id="node6" class="node">
<title>node_System(0)</title>
<g id="a_node6"><a xlink:title="bevy_diagnostic::system_information_diagnostics_plugin::internal::log_system_info">
<polygon fill="lightgrey" stroke="black" points="137.75,-282 31,-282 31,-246 137.75,-246 137.75,-282"/>
<text text-anchor="middle" x="84.38" y="-258.95" font-family="Times,serif" font-size="14.00">log_system_info</text>
</a>
</g>
</g>
</g>
</svg>
