<?xml version="1.0" encoding="UTF-8" standalone="no"?>
<!DOCTYPE svg PUBLIC "-//W3C//DTD SVG 1.1//EN"
 "http://www.w3.org/Graphics/SVG/1.1/DTD/svg11.dtd">
<!-- Generated by graphviz version 9.0.0 (0)
 -->
<!-- Pages: 1 -->
<svg width="671pt" height="384pt"
 viewBox="0.00 0.00 670.50 384.00" xmlns="http://www.w3.org/2000/svg" xmlns:xlink="http://www.w3.org/1999/xlink">
<g id="graph0" class="graph" transform="scale(1 1) rotate(0) translate(4 380)">
<polygon fill="#0d1117" stroke="none" points="-4,4 -4,-380 666.5,-380 666.5,4 -4,4"/>
<g id="clust1" class="cluster">
<title>clusternode_Set(1)</title>
<g id="a_clust1"><a xlink:title="CameraUpdateSystem">
<path fill="#ffffff" fill-opacity="0.266667" stroke="#ffffff" stroke-width="2" stroke-opacity="0.313725" d="M65.88,-8C65.88,-8 325.88,-8 325.88,-8 331.88,-8 337.88,-14 337.88,-20 337.88,-20 337.88,-177 337.88,-177 337.88,-183 331.88,-189 325.88,-189 325.88,-189 65.88,-189 65.88,-189 59.88,-189 53.88,-183 53.88,-177 53.88,-177 53.88,-20 53.88,-20 53.88,-14 59.88,-8 65.88,-8"/>
<text text-anchor="middle" x="195.88" y="-171.7" font-family="Helvetica,sans-Serif" font-size="14.00" fill="#ffffff">CameraUpdateSystem</text>
</a>
</g>
</g>
<g id="clust2" class="cluster">
<title>clusternode_Set(5)</title>
<g id="a_clust2"><a xlink:title="TransformPropagate">
<path fill="#ffffff" fill-opacity="0.266667" stroke="#ffffff" stroke-width="2" stroke-opacity="0.313725" d="M432.75,-234C432.75,-234 642.5,-234 642.5,-234 648.5,-234 654.5,-240 654.5,-246 654.5,-246 654.5,-356 654.5,-356 654.5,-362 648.5,-368 642.5,-368 642.5,-368 432.75,-368 432.75,-368 426.75,-368 420.75,-362 420.75,-356 420.75,-356 420.75,-246 420.75,-246 420.75,-240 426.75,-234 432.75,-234"/>
<text text-anchor="middle" x="537.62" y="-350.7" font-family="Helvetica,sans-Serif" font-size="14.00" fill="#ffffff">TransformPropagate</text>
</a>
</g>
</g>
<g id="clust3" class="cluster">
<title>clusternode_Set(6)</title>
<g id="a_clust3"><a xlink:title="RootGlobalTransformUpdates">
<path fill="#ffffff" fill-opacity="0.266667" stroke="#ffffff" stroke-width="2" stroke-opacity="0.313725" d="M451.62,-186C451.62,-186 623.62,-186 623.62,-186 629.62,-186 635.62,-192 635.62,-198 635.62,-198 635.62,-214 635.62,-214 635.62,-220 629.62,-226 623.62,-226 623.62,-226 451.62,-226 451.62,-226 445.62,-226 439.62,-220 439.62,-214 439.62,-214 439.62,-198 439.62,-198 439.62,-192 445.62,-186 451.62,-186"/>
<text text-anchor="middle" x="537.62" y="-208.7" font-family="Helvetica,sans-Serif" font-size="14.00" fill="#ffffff">RootGlobalTransformUpdates</text>
</a>
</g>
</g>
<!-- set_marker_node_Set(1) -->
<!-- node_System(0) -->
<g id="node2" class="node">
<title>node_System(0)</title>
<g id="a_node2"><a xlink:title="bevy_render::camera::camera::camera_system&lt;bevy_render::camera::projection::Projection&gt;">
<polygon fill="#70b9fc" stroke="#0c88f9" points="290.5,-146 101.25,-146 101.25,-110 290.5,-110 290.5,-146"/>
<text text-anchor="middle" x="195.88" y="-122.58" font-family="Helvetica,sans-Serif" font-size="14.00" fill="#011a31">camera_system&lt;Projection&gt;</text>
</a>
</g>
</g>
<!-- node_System(1) -->
<g id="node3" class="node">
<title>node_System(1)</title>
<g id="a_node3"><a xlink:title="bevy_render::camera::camera::camera_system&lt;bevy_render::camera::projection::OrthographicProjection&gt;">
<polygon fill="#70b9fc" stroke="#0c88f9" points="329.88,-99 61.88,-99 61.88,-63 329.88,-63 329.88,-99"/>
<text text-anchor="middle" x="195.88" y="-75.58" font-family="Helvetica,sans-Serif" font-size="14.00" fill="#011a31">camera_system&lt;OrthographicProjection&gt;</text>
</a>
</g>
</g>
<!-- node_System(2) -->
<g id="node4" class="node">
<title>node_System(2)</title>
<g id="a_node4"><a xlink:title="bevy_render::camera::camera::camera_system&lt;bevy_render::camera::projection::PerspectiveProjection&gt;">
<polygon fill="#70b9fc" stroke="#0c88f9" points="325.75,-52 66,-52 66,-16 325.75,-16 325.75,-52"/>
<text text-anchor="middle" x="195.88" y="-28.57" font-family="Helvetica,sans-Serif" font-size="14.00" fill="#011a31">camera_system&lt;PerspectiveProjection&gt;</text>
</a>
</g>
</g>
<!-- set_marker_node_Set(5) -->
<!-- node_System(3) -->
<g id="node6" class="node">
<title>node_System(3)</title>
<g id="a_node6"><a xlink:title="big_space::recenter_transform_on_grid&lt;i16&gt;">
<polygon fill="#eff1f3" stroke="#b4bec7" points="646.5,-278 428.75,-278 428.75,-242 646.5,-242 646.5,-278"/>
<text text-anchor="middle" x="537.62" y="-254.57" font-family="Helvetica,sans-Serif" font-size="14.00" fill="#15191d">recenter_transform_on_grid&lt;i16&gt;</text>
</a>
</g>
</g>
<!-- set_marker_node_Set(6) -->
<!-- node_System(3)&#45;&gt;set_marker_node_Set(6) -->
<g id="edge5" class="edge">
<title>node_System(3)&#45;&gt;set_marker_node_Set(6)</title>
<g id="a_edge5"><a xlink:title="recenter_transform_on_grid&lt;i16&gt; → RootGlobalTransformUpdates">
<path fill="none" stroke="#eede00" stroke-width="2" d="M537.62,-241.51C537.62,-240.54 537.62,-239.57 537.62,-238.6"/>
<polygon fill="#eede00" stroke="#eede00" stroke-width="2" points="541.13,-239.02 537.63,-229.02 534.13,-239.02 541.13,-239.02"/>
</a>
</g>
</g>
<!-- node_System(6) -->
<g id="node7" class="node">
<title>node_System(6)</title>
<g id="a_node7"><a xlink:title="big_space::propagation::propagate_transforms&lt;i16&gt;">
<polygon fill="#eff1f3" stroke="#b4bec7" points="629.25,-325 446,-325 446,-289 629.25,-289 629.25,-325"/>
<text text-anchor="middle" x="537.62" y="-301.57" font-family="Helvetica,sans-Serif" font-size="14.00" fill="#15191d">propagate_transforms&lt;i16&gt;</text>
</a>
</g>
</g>
<!-- set_marker_node_Set(6)&#45;&gt;node_System(6) -->
<g id="edge6" class="edge">
<title>set_marker_node_Set(6)&#45;&gt;node_System(6)</title>
<g id="a_edge6"><a xlink:title="RootGlobalTransformUpdates → propagate_transforms&lt;i16&gt;">
<path fill="none" stroke="#881877" stroke-width="2" d="M439.63,-210.24C426.43,-216.63 414.59,-225.42 406.25,-237.5 395.9,-252.5 395.9,-263.5 406.25,-278.5 413.16,-288.52 422.71,-295.63 433.53,-300.62"/>
<polygon fill="#881877" stroke="#881877" stroke-width="2" points="432.28,-303.89 442.88,-304.15 434.76,-297.34 432.28,-303.89"/>
</a>
</g>
</g>
<!-- node_System(4) -->
<g id="node9" class="node">
<title>node_System(4)</title>
<g id="a_node9"><a xlink:title="big_space::sync_simple_transforms&lt;i16&gt;">
<polygon fill="lightgrey" stroke="black" points="391.75,-339.5 0,-339.5 0,-298.5 391.75,-298.5 391.75,-339.5"/>
<text text-anchor="middle" x="195.88" y="-322.2" font-family="Times,serif" font-size="14.00">sync_simple_transforms&lt;i16&gt;</text>
<text text-anchor="middle" x="195.88" y="-305.7" font-family="Times,serif" font-size="14.00">In multiple sets, TransformPropagate, RootGlobalTransformUpdates</text>
</a>
</g>
</g>
<!-- node_System(4)&#45;&gt;set_marker_node_Set(5) -->
<g id="edge1" class="edge">
<title>node_System(4)&#45;&gt;set_marker_node_Set(5)</title>
<path fill="none" stroke="blue" stroke-width="2" d="M392.23,-329.59C401.87,-330.08 411.42,-330.55 420.75,-331"/>
</g>
<!-- node_System(4)&#45;&gt;set_marker_node_Set(6) -->
<g id="edge2" class="edge">
<title>node_System(4)&#45;&gt;set_marker_node_Set(6)</title>
<path fill="none" stroke="blue" stroke-width="2" d="M252.46,-298.03C291.52,-283.19 344.95,-262.68 391.75,-244 404.7,-238.83 407.67,-236.84 420.75,-232 426.88,-229.73 433.22,-227.45 439.63,-225.21"/>
</g>
<!-- node_System(5) -->
<g id="node10" class="node">
<title>node_System(5)</title>
<g id="a_node10"><a xlink:title="big_space::update_global_from_grid&lt;i16&gt;">
<polygon fill="lightgrey" stroke="black" points="391.75,-238.5 0,-238.5 0,-197.5 391.75,-197.5 391.75,-238.5"/>
<text text-anchor="middle" x="195.88" y="-221.2" font-family="Times,serif" font-size="14.00">update_global_from_grid&lt;i16&gt;</text>
<text text-anchor="middle" x="195.88" y="-204.7" font-family="Times,serif" font-size="14.00">In multiple sets, TransformPropagate, RootGlobalTransformUpdates</text>
</a>
</g>
</g>
<!-- node_System(5)&#45;&gt;set_marker_node_Set(5) -->
<g id="edge3" class="edge">
<title>node_System(5)&#45;&gt;set_marker_node_Set(5)</title>
<path fill="none" stroke="blue" stroke-width="2" d="M280.19,-238.91C316.79,-250.79 358.83,-268.32 391.75,-293 408.75,-305.74 401.92,-321.17 420.75,-331"/>
</g>
<!-- node_System(5)&#45;&gt;set_marker_node_Set(6) -->
<g id="edge4" class="edge">
<title>node_System(5)&#45;&gt;set_marker_node_Set(6)</title>
<path fill="none" stroke="blue" stroke-width="2" d="M392.05,-204.21C408.44,-203.06 424.51,-201.92 439.63,-200.85"/>
</g>
<!-- node_System(5)&#45;&gt;node_System(4) -->
<g id="edge7" class="edge">
<title>node_System(5)&#45;&gt;node_System(4)</title>
<path fill="none" stroke="#c93526" stroke-width="2" d="M195.88,-238.93C195.88,-256.26 195.88,-280.77 195.88,-298.1"/>
<g id="a_edge7&#45;label"><a xlink:title="update_global_from_grid&lt;i16&gt; — sync_simple_transforms&lt;i16&gt;">
<polygon fill="#c6e6ff" stroke="none" points="131.38,-258.25 131.38,-278.75 229.88,-278.75 229.88,-258.25 131.38,-258.25"/>
<text text-anchor="start" x="133.38" y="-263.45" font-family="Times,serif" font-size="14.00" fill="#c93526">GlobalTransform</text>
</a>
</g>
</g>
</g>
</svg>
