<?xml version="1.0" encoding="UTF-8" standalone="no"?>
<!DOCTYPE svg PUBLIC "-//W3C//DTD SVG 1.1//EN"
 "http://www.w3.org/Graphics/SVG/1.1/DTD/svg11.dtd">
<!-- Generated by graphviz version 9.0.0 (0)
 -->
<!-- Pages: 1 -->
<svg width="943pt" height="279pt"
 viewBox="0.00 0.00 943.25 279.00" xmlns="http://www.w3.org/2000/svg" xmlns:xlink="http://www.w3.org/1999/xlink">
<g id="graph0" class="graph" transform="scale(1 1) rotate(0) translate(4 275)">
<polygon fill="#0d1117" stroke="none" points="-4,4 -4,-275 939.25,-275 939.25,4 -4,4"/>
<g id="clust1" class="cluster">
<title>clusternode_Set(1)</title>
<g id="a_clust1"><a xlink:title="LoadingScreenUpdateSet">
<path fill="#ffffff" fill-opacity="0.266667" stroke="#ffffff" stroke-width="2" stroke-opacity="0.313725" d="M20,-8C20,-8 915.25,-8 915.25,-8 921.25,-8 927.25,-14 927.25,-20 927.25,-20 927.25,-215 927.25,-215 927.25,-221 921.25,-227 915.25,-227 915.25,-227 20,-227 20,-227 14,-227 8,-221 8,-215 8,-215 8,-20 8,-20 8,-14 14,-8 20,-8"/>
<text text-anchor="middle" x="467.62" y="-209.7" font-family="Helvetica,sans-Serif" font-size="14.00" fill="#ffffff">LoadingScreenUpdateSet</text>
</a>
</g>
</g>
<g id="clust2" class="cluster">
<title>clusternode_Set(2)</title>
<g id="a_clust2"><a xlink:title="LoadingScreenToggleSet">
<path fill="#ffffff" fill-opacity="0.266667" stroke="#ffffff" stroke-width="2" stroke-opacity="0.313725" d="M196,-16C196,-16 907.25,-16 907.25,-16 913.25,-16 919.25,-22 919.25,-28 919.25,-28 919.25,-183 919.25,-183 919.25,-189 913.25,-195 907.25,-195 907.25,-195 196,-195 196,-195 190,-195 184,-189 184,-183 184,-183 184,-28 184,-28 184,-22 190,-16 196,-16"/>
<text text-anchor="middle" x="551.62" y="-177.7" font-family="Helvetica,sans-Serif" font-size="14.00" fill="#ffffff">LoadingScreenToggleSet</text>
</a>
</g>
</g>
<g id="clust3" class="cluster">
<title>clusternode_Set(3)</title>
<g id="a_clust3"><a xlink:title="LoadingScreenFadeInSet">
<path fill="#ffffff" fill-opacity="0.266667" stroke="#ffffff" stroke-width="2" stroke-opacity="0.313725" d="M204,-32C204,-32 484.5,-32 484.5,-32 490.5,-32 496.5,-38 496.5,-44 496.5,-44 496.5,-107 496.5,-107 496.5,-113 490.5,-119 484.5,-119 484.5,-119 204,-119 204,-119 198,-119 192,-113 192,-107 192,-107 192,-44 192,-44 192,-38 198,-32 204,-32"/>
<text text-anchor="middle" x="344.25" y="-101.7" font-family="Helvetica,sans-Serif" font-size="14.00" fill="#ffffff">LoadingScreenFadeInSet</text>
</a>
</g>
</g>
<g id="clust4" class="cluster">
<title>clusternode_Set(4)</title>
<g id="a_clust4"><a xlink:title="LoadingScreenFadeOutSet">
<path fill="#ffffff" fill-opacity="0.266667" stroke="#ffffff" stroke-width="2" stroke-opacity="0.313725" d="M581.75,-32C581.75,-32 866.38,-32 866.38,-32 872.38,-32 878.38,-38 878.38,-44 878.38,-44 878.38,-107 878.38,-107 878.38,-113 872.38,-119 866.38,-119 866.38,-119 581.75,-119 581.75,-119 575.75,-119 569.75,-113 569.75,-107 569.75,-107 569.75,-44 569.75,-44 569.75,-38 575.75,-32 581.75,-32"/>
<text text-anchor="middle" x="724.06" y="-101.7" font-family="Helvetica,sans-Serif" font-size="14.00" fill="#ffffff">LoadingScreenFadeOutSet</text>
</a>
</g>
</g>
<!-- set_marker_node_Set(1) -->
<!-- set_marker_node_Set(2) -->
<!-- set_marker_node_Set(3) -->
<!-- set_marker_node_Set(4) -->
<!-- set_marker_node_Set(3)&#45;&gt;set_marker_node_Set(4) -->
<g id="edge1" class="edge">
<title>set_marker_node_Set(3)&#45;&gt;set_marker_node_Set(4)</title>
<g id="a_edge1"><a xlink:title="LoadingScreenFadeInSet → LoadingScreenFadeOutSet">
<path fill="none" stroke="#eede00" stroke-width="2" d="M496.5,-87C517.59,-87 538.07,-87 556.84,-87"/>
<polygon fill="#eede00" stroke="#eede00" stroke-width="2" points="556.73,-90.5 566.73,-87 556.73,-83.5 556.73,-90.5"/>
</a>
</g>
</g>
<!-- node_System(7) -->
<g id="node10" class="node">
<title>node_System(7)</title>
<g id="a_node10"><a xlink:title="froglight_loading::layout::progress_bar::progress::ProgressBarProgress::update_current_progress">
<polygon fill="#eff1f3" stroke="#b4bec7" points="541.75,-163 375,-163 375,-127 541.75,-127 541.75,-163"/>
<text text-anchor="middle" x="458.38" y="-139.57" font-family="Helvetica,sans-Serif" font-size="14.00" fill="#15191d">update_current_progress</text>
</a>
</g>
</g>
<!-- set_marker_node_Set(3)&#45;&gt;node_System(7) -->
<g id="edge6" class="edge">
<title>set_marker_node_Set(3)&#45;&gt;node_System(7)</title>
<g id="a_edge6"><a xlink:title="LoadingScreenFadeInSet → update_current_progress">
<path fill="none" stroke="#0090cc" stroke-width="2" d="M368.55,-119C370.72,-119.68 372.87,-120.34 375,-121 377.06,-121.63 379.14,-122.27 381.25,-122.91"/>
<polygon fill="#0090cc" stroke="#0090cc" stroke-width="2" points="379.97,-126.19 390.56,-125.72 381.99,-119.48 379.97,-126.19"/>
</a>
</g>
</g>
<!-- node_System(3) -->
<g id="node4" class="node">
<title>node_System(3)</title>
<g id="a_node4"><a xlink:title="froglight_loading::layout::fade_animation::FadeTimer::insert_fade_in_timer">
<polygon fill="#eff1f3" stroke="#b4bec7" points="339,-76 200,-76 200,-40 339,-40 339,-76"/>
<text text-anchor="middle" x="269.5" y="-52.58" font-family="Helvetica,sans-Serif" font-size="14.00" fill="#15191d">insert_fade_in_timer</text>
</a>
</g>
</g>
<!-- node_System(4) -->
<g id="node5" class="node">
<title>node_System(4)</title>
<g id="a_node5"><a xlink:title="froglight_loading::layout::fade_animation::FadeAnimationMarker::fade_in">
<polygon fill="#eff1f3" stroke="#b4bec7" points="488.5,-76 428.25,-76 428.25,-40 488.5,-40 488.5,-76"/>
<text text-anchor="middle" x="458.38" y="-52.58" font-family="Helvetica,sans-Serif" font-size="14.00" fill="#15191d">fade_in</text>
</a>
</g>
</g>
<!-- node_System(3)&#45;&gt;node_System(4) -->
<g id="edge4" class="edge">
<title>node_System(3)&#45;&gt;node_System(4)</title>
<g id="a_edge4"><a xlink:title="insert_fade_in_timer → fade_in">
<path fill="none" stroke="#aa3a55" stroke-width="2" d="M339.29,-58C364.75,-58 392.83,-58 415.23,-58"/>
<polygon fill="#aa3a55" stroke="#aa3a55" stroke-width="2" points="415,-61.5 425,-58 415,-54.5 415,-61.5"/>
</a>
</g>
</g>
<!-- node_System(2) -->
<g id="node9" class="node">
<title>node_System(2)</title>
<g id="a_node9"><a xlink:title="froglight_loading::systemsets::LoadingScreenEnableSystems::disable_fade_systems">
<polygon fill="#eff1f3" stroke="#b4bec7" points="911.25,-163 761,-163 761,-127 911.25,-127 911.25,-163"/>
<text text-anchor="middle" x="836.12" y="-139.57" font-family="Helvetica,sans-Serif" font-size="14.00" fill="#15191d">disable_fade_systems</text>
</a>
</g>
</g>
<!-- set_marker_node_Set(4)&#45;&gt;node_System(2) -->
<g id="edge3" class="edge">
<title>set_marker_node_Set(4)&#45;&gt;node_System(2)</title>
<g id="a_edge3"><a xlink:title="LoadingScreenFadeOutSet → disable_fade_systems">
<path fill="none" stroke="#00b0cc" stroke-width="2" d="M753.19,-119C757.21,-120.27 761.2,-121.54 765.14,-122.79"/>
<polygon fill="#00b0cc" stroke="#00b0cc" stroke-width="2" points="763.85,-126.05 774.44,-125.74 765.97,-119.38 763.85,-126.05"/>
</a>
</g>
</g>
<!-- node_System(5) -->
<g id="node7" class="node">
<title>node_System(5)</title>
<g id="a_node7"><a xlink:title="froglight_loading::layout::fade_animation::FadeTimer::insert_fade_out_timer">
<polygon fill="#eff1f3" stroke="#b4bec7" points="725,-76 577.75,-76 577.75,-40 725,-40 725,-76"/>
<text text-anchor="middle" x="651.38" y="-52.58" font-family="Helvetica,sans-Serif" font-size="14.00" fill="#15191d">insert_fade_out_timer</text>
</a>
</g>
</g>
<!-- node_System(6) -->
<g id="node8" class="node">
<title>node_System(6)</title>
<g id="a_node8"><a xlink:title="froglight_loading::layout::fade_animation::FadeAnimationMarker::fade_out">
<polygon fill="#eff1f3" stroke="#b4bec7" points="870.38,-76 801.88,-76 801.88,-40 870.38,-40 870.38,-76"/>
<text text-anchor="middle" x="836.12" y="-52.58" font-family="Helvetica,sans-Serif" font-size="14.00" fill="#15191d">fade_out</text>
</a>
</g>
</g>
<!-- node_System(5)&#45;&gt;node_System(6) -->
<g id="edge5" class="edge">
<title>node_System(5)&#45;&gt;node_System(6)</title>
<g id="a_edge5"><a xlink:title="insert_fade_out_timer → fade_out">
<path fill="none" stroke="#44d488" stroke-width="2" d="M725.39,-58C746.77,-58 769.56,-58 788.79,-58"/>
<polygon fill="#44d488" stroke="#44d488" stroke-width="2" points="788.76,-61.5 798.76,-58 788.76,-54.5 788.76,-61.5"/>
</a>
</g>
</g>
<!-- node_System(7)&#45;&gt;set_marker_node_Set(4) -->
<g id="edge7" class="edge">
<title>node_System(7)&#45;&gt;set_marker_node_Set(4)</title>
<g id="a_edge7"><a xlink:title="update_current_progress → LoadingScreenFadeOutSet">
<path fill="none" stroke="#ee9e44" stroke-width="2" d="M523.27,-126.52C529.52,-124.67 535.76,-122.81 541.75,-121 546.86,-119.46 552.09,-117.86 557.38,-116.24"/>
<polygon fill="#ee9e44" stroke="#ee9e44" stroke-width="2" points="558.33,-119.61 566.86,-113.32 556.27,-112.92 558.33,-119.61"/>
</a>
</g>
</g>
<!-- node_System(1) -->
<g id="node11" class="node">
<title>node_System(1)</title>
<g id="a_node11"><a xlink:title="froglight_loading::systemsets::LoadingScreenEnableSystems::enable_fade_systems">
<polygon fill="#eff1f3" stroke="#b4bec7" points="164,-52 16,-52 16,-16 164,-16 164,-52"/>
<text text-anchor="middle" x="90" y="-28.57" font-family="Helvetica,sans-Serif" font-size="14.00" fill="#15191d">enable_fade_systems</text>
</a>
</g>
</g>
<!-- node_System(1)&#45;&gt;set_marker_node_Set(2) -->
<g id="edge2" class="edge">
<title>node_System(1)&#45;&gt;set_marker_node_Set(2)</title>
<g id="a_edge2"><a xlink:title="enable_fade_systems → LoadingScreenToggleSet">
<path fill="none" stroke="#881877" stroke-width="2" d="M164.48,-29.86C166.69,-29.74 168.92,-29.61 171.16,-29.48"/>
<polygon fill="#881877" stroke="#881877" stroke-width="2" points="171.19,-32.99 180.98,-28.93 170.8,-26 171.19,-32.99"/>
</a>
</g>
</g>
<!-- node_System(0) -->
<g id="node12" class="node">
<title>node_System(0)</title>
<g id="a_node12"><a xlink:title="bevy_window::system::close_when_requested">
<polygon fill="lightgrey" stroke="black" points="159.12,-271 20.88,-271 20.88,-235 159.12,-235 159.12,-271"/>
<text text-anchor="middle" x="90" y="-247.95" font-family="Times,serif" font-size="14.00">close_when_requested</text>
</a>
</g>
</g>
</g>
</svg>
