<?xml version="1.0" encoding="UTF-8" standalone="no"?>
<!DOCTYPE svg PUBLIC "-//W3C//DTD SVG 1.1//EN"
 "http://www.w3.org/Graphics/SVG/1.1/DTD/svg11.dtd">
<!-- Generated by graphviz version 10.0.1 (0)
 -->
<!-- Pages: 1 -->
<svg width="690pt" height="911pt"
 viewBox="0.00 0.00 690.00 911.00" xmlns="http://www.w3.org/2000/svg" xmlns:xlink="http://www.w3.org/1999/xlink">
<g id="graph0" class="graph" transform="scale(1 1) rotate(0) translate(4 907)">
<polygon fill="#0d1117" stroke="none" points="-4,4 -4,-907 686,-907 686,4 -4,4"/>
<g id="clust1" class="cluster">
<title>clusternode_Set(2)</title>
<g id="a_clust1"><a xlink:title="AssetUpdateSet">
<path fill="#ffffff" fill-opacity="0.266667" stroke="#ffffff" stroke-width="2" stroke-opacity="0.313725" d="M34.75,-8C34.75,-8 670,-8 670,-8 676,-8 682,-14 682,-20 682,-20 682,-131 682,-131 682,-137 676,-143 670,-143 670,-143 34.75,-143 34.75,-143 28.75,-143 22.75,-137 22.75,-131 22.75,-131 22.75,-20 22.75,-20 22.75,-14 28.75,-8 34.75,-8"/>
<text text-anchor="middle" x="352.38" y="-125.7" font-family="Helvetica,sans-Serif" font-size="14.00" fill="#ffffff">AssetUpdateSet</text>
</a>
</g>
</g>
<g id="clust2" class="cluster">
<title>clusternode_Set(1)</title>
<g id="a_clust2"><a xlink:title="Waiting">
<path fill="#ffffff" fill-opacity="0.266667" stroke="#ffffff" stroke-width="2" stroke-opacity="0.313725" d="M42.75,-16C42.75,-16 169.25,-16 169.25,-16 175.25,-16 181.25,-22 181.25,-28 181.25,-28 181.25,-91 181.25,-91 181.25,-97 175.25,-103 169.25,-103 169.25,-103 42.75,-103 42.75,-103 36.75,-103 30.75,-97 30.75,-91 30.75,-91 30.75,-28 30.75,-28 30.75,-22 36.75,-16 42.75,-16"/>
<text text-anchor="middle" x="106" y="-85.7" font-family="Helvetica,sans-Serif" font-size="14.00" fill="#ffffff">Waiting</text>
</a>
</g>
</g>
<g id="clust3" class="cluster">
<title>clusternode_Set(3)</title>
<g id="a_clust3"><a xlink:title="Loading">
<path fill="#ffffff" fill-opacity="0.266667" stroke="#ffffff" stroke-width="2" stroke-opacity="0.313725" d="M252.75,-16C252.75,-16 418.25,-16 418.25,-16 424.25,-16 430.25,-22 430.25,-28 430.25,-28 430.25,-91 430.25,-91 430.25,-97 424.25,-103 418.25,-103 418.25,-103 252.75,-103 252.75,-103 246.75,-103 240.75,-97 240.75,-91 240.75,-91 240.75,-28 240.75,-28 240.75,-22 246.75,-16 252.75,-16"/>
<text text-anchor="middle" x="335.5" y="-85.7" font-family="Helvetica,sans-Serif" font-size="14.00" fill="#ffffff">Loading</text>
</a>
</g>
</g>
<g id="clust4" class="cluster">
<title>clusternode_Set(4)</title>
<g id="a_clust4"><a xlink:title="Processing">
<path fill="#ffffff" fill-opacity="0.266667" stroke="#ffffff" stroke-width="2" stroke-opacity="0.313725" d="M462.25,-16C462.25,-16 579,-16 579,-16 585,-16 591,-22 591,-28 591,-28 591,-91 591,-91 591,-97 585,-103 579,-103 579,-103 462.25,-103 462.25,-103 456.25,-103 450.25,-97 450.25,-91 450.25,-91 450.25,-28 450.25,-28 450.25,-22 456.25,-16 462.25,-16"/>
<text text-anchor="middle" x="520.62" y="-85.7" font-family="Helvetica,sans-Serif" font-size="14.00" fill="#ffffff">Processing</text>
</a>
</g>
</g>
<g id="clust5" class="cluster">
<title>clusternode_Set(5)</title>
<g id="a_clust5"><a xlink:title="Ready">
<path fill="#ffffff" fill-opacity="0.266667" stroke="#ffffff" stroke-width="2" stroke-opacity="0.313725" d="M631,-16C631,-16 662,-16 662,-16 668,-16 674,-22 674,-28 674,-28 674,-44 674,-44 674,-50 668,-56 662,-56 662,-56 631,-56 631,-56 625,-56 619,-50 619,-44 619,-44 619,-28 619,-28 619,-22 625,-16 631,-16"/>
<text text-anchor="middle" x="646.5" y="-38.7" font-family="Helvetica,sans-Serif" font-size="14.00" fill="#ffffff">Ready</text>
</a>
</g>
</g>
<g id="clust6" class="cluster">
<title>clusternode_Set(7)</title>
<g id="a_clust6"><a xlink:title="InterfaceUpdateSet">
<path fill="#ffffff" fill-opacity="0.266667" stroke="#ffffff" stroke-width="2" stroke-opacity="0.313725" d="M12,-151C12,-151 200,-151 200,-151 206,-151 212,-157 212,-163 212,-163 212,-800 212,-800 212,-806 206,-812 200,-812 200,-812 12,-812 12,-812 6,-812 0,-806 0,-800 0,-800 0,-163 0,-163 0,-157 6,-151 12,-151"/>
<text text-anchor="middle" x="106" y="-794.7" font-family="Helvetica,sans-Serif" font-size="14.00" fill="#ffffff">InterfaceUpdateSet</text>
</a>
</g>
</g>
<g id="clust7" class="cluster">
<title>clusternode_Set(9)</title>
<g id="a_clust7"><a xlink:title="DebugUpdateSet">
<path fill="#ffffff" fill-opacity="0.266667" stroke="#ffffff" stroke-width="2" stroke-opacity="0.313725" d="M59,-159C59,-159 154,-159 154,-159 160,-159 166,-165 166,-171 166,-171 166,-187 166,-187 166,-193 160,-199 154,-199 154,-199 59,-199 59,-199 53,-199 47,-193 47,-187 47,-187 47,-171 47,-171 47,-165 53,-159 59,-159"/>
<text text-anchor="middle" x="106.5" y="-181.7" font-family="Helvetica,sans-Serif" font-size="14.00" fill="#ffffff">DebugUpdateSet</text>
</a>
</g>
</g>
<g id="clust8" class="cluster">
<title>clusternode_Set(10)</title>
<g id="a_clust8"><a xlink:title="UiScaleUpdateSet">
<path fill="#ffffff" fill-opacity="0.266667" stroke="#ffffff" stroke-width="2" stroke-opacity="0.313725" d="M35.25,-207C35.25,-207 176.75,-207 176.75,-207 182.75,-207 188.75,-213 188.75,-219 188.75,-219 188.75,-329 188.75,-329 188.75,-335 182.75,-341 176.75,-341 176.75,-341 35.25,-341 35.25,-341 29.25,-341 23.25,-335 23.25,-329 23.25,-329 23.25,-219 23.25,-219 23.25,-213 29.25,-207 35.25,-207"/>
<text text-anchor="middle" x="106" y="-323.7" font-family="Helvetica,sans-Serif" font-size="14.00" fill="#ffffff">UiScaleUpdateSet</text>
</a>
</g>
</g>
<g id="clust9" class="cluster">
<title>clusternode_Set(13)</title>
<g id="a_clust9"><a xlink:title="InterfaceMenuUpdateSet">
<path fill="#ffffff" fill-opacity="0.266667" stroke="#ffffff" stroke-width="2" stroke-opacity="0.313725" d="M20,-349C20,-349 192,-349 192,-349 198,-349 204,-355 204,-361 204,-361 204,-665 204,-665 204,-671 198,-677 192,-677 192,-677 20,-677 20,-677 14,-677 8,-671 8,-665 8,-665 8,-361 8,-361 8,-355 14,-349 20,-349"/>
<text text-anchor="middle" x="106" y="-659.7" font-family="Helvetica,sans-Serif" font-size="14.00" fill="#ffffff">InterfaceMenuUpdateSet</text>
</a>
</g>
</g>
<g id="clust10" class="cluster">
<title>clusternode_Set(14)</title>
<g id="a_clust10"><a xlink:title="LoadingScreenUpdateSet">
<path fill="#ffffff" fill-opacity="0.266667" stroke="#ffffff" stroke-width="2" stroke-opacity="0.313725" d="M33,-357C33,-357 179,-357 179,-357 185,-357 191,-363 191,-369 191,-369 191,-481 191,-481 191,-487 185,-493 179,-493 179,-493 33,-493 33,-493 27,-493 21,-487 21,-481 21,-481 21,-369 21,-369 21,-363 27,-357 33,-357"/>
<text text-anchor="middle" x="106" y="-475.7" font-family="Helvetica,sans-Serif" font-size="14.00" fill="#ffffff">LoadingScreenUpdateSet</text>
</a>
</g>
</g>
<g id="clust11" class="cluster">
<title>clusternode_Set(15)</title>
<g id="a_clust11"><a xlink:title="Hidden">
<path fill="#ffffff" fill-opacity="0.266667" stroke="#ffffff" stroke-width="2" stroke-opacity="0.313725" d="M89,-365C89,-365 123,-365 123,-365 129,-365 135,-371 135,-377 135,-377 135,-393 135,-393 135,-399 129,-405 123,-405 123,-405 89,-405 89,-405 83,-405 77,-399 77,-393 77,-393 77,-377 77,-377 77,-371 83,-365 89,-365"/>
<text text-anchor="middle" x="106" y="-387.7" font-family="Helvetica,sans-Serif" font-size="14.00" fill="#ffffff">Hidden</text>
</a>
</g>
</g>
<g id="clust12" class="cluster">
<title>clusternode_Set(16)</title>
<g id="a_clust12"><a xlink:title="Shown">
<path fill="#ffffff" fill-opacity="0.266667" stroke="#ffffff" stroke-width="2" stroke-opacity="0.313725" d="M90,-413C90,-413 123,-413 123,-413 129,-413 135,-419 135,-425 135,-425 135,-441 135,-441 135,-447 129,-453 123,-453 123,-453 90,-453 90,-453 84,-453 78,-447 78,-441 78,-441 78,-425 78,-425 78,-419 84,-413 90,-413"/>
<text text-anchor="middle" x="106.5" y="-435.7" font-family="Helvetica,sans-Serif" font-size="14.00" fill="#ffffff">Shown</text>
</a>
</g>
</g>
<g id="clust13" class="cluster">
<title>clusternode_Set(17)</title>
<g id="a_clust13"><a xlink:title="MainMenuUpdateSet">
<path fill="#ffffff" fill-opacity="0.266667" stroke="#ffffff" stroke-width="2" stroke-opacity="0.313725" d="M46,-501C46,-501 166,-501 166,-501 172,-501 178,-507 178,-513 178,-513 178,-529 178,-529 178,-535 172,-541 166,-541 166,-541 46,-541 46,-541 40,-541 34,-535 34,-529 34,-529 34,-513 34,-513 34,-507 40,-501 46,-501"/>
<text text-anchor="middle" x="106" y="-523.7" font-family="Helvetica,sans-Serif" font-size="14.00" fill="#ffffff">MainMenuUpdateSet</text>
</a>
</g>
</g>
<g id="clust14" class="cluster">
<title>clusternode_Set(18)</title>
<g id="a_clust14"><a xlink:title="MultiplayerMenuUpdateSet">
<path fill="#ffffff" fill-opacity="0.266667" stroke="#ffffff" stroke-width="2" stroke-opacity="0.313725" d="M28,-549C28,-549 184,-549 184,-549 190,-549 196,-555 196,-561 196,-561 196,-577 196,-577 196,-583 190,-589 184,-589 184,-589 28,-589 28,-589 22,-589 16,-583 16,-577 16,-577 16,-561 16,-561 16,-555 22,-549 28,-549"/>
<text text-anchor="middle" x="106" y="-571.7" font-family="Helvetica,sans-Serif" font-size="14.00" fill="#ffffff">MultiplayerMenuUpdateSet</text>
</a>
</g>
</g>
<g id="clust15" class="cluster">
<title>clusternode_Set(19)</title>
<g id="a_clust15"><a xlink:title="SettingsMenuUpdateSet">
<path fill="#ffffff" fill-opacity="0.266667" stroke="#ffffff" stroke-width="2" stroke-opacity="0.313725" d="M37,-597C37,-597 176,-597 176,-597 182,-597 188,-603 188,-609 188,-609 188,-625 188,-625 188,-631 182,-637 176,-637 176,-637 37,-637 37,-637 31,-637 25,-631 25,-625 25,-625 25,-609 25,-609 25,-603 31,-597 37,-597"/>
<text text-anchor="middle" x="106.5" y="-619.7" font-family="Helvetica,sans-Serif" font-size="14.00" fill="#ffffff">SettingsMenuUpdateSet</text>
</a>
</g>
</g>
<g id="clust16" class="cluster">
<title>clusternode_Set(20)</title>
<g id="a_clust16"><a xlink:title="InspectorUpdateSet">
<path fill="#ffffff" fill-opacity="0.266667" stroke="#ffffff" stroke-width="2" stroke-opacity="0.313725" d="M47.62,-685C47.62,-685 164.38,-685 164.38,-685 170.38,-685 176.38,-691 176.38,-697 176.38,-697 176.38,-760 176.38,-760 176.38,-766 170.38,-772 164.38,-772 164.38,-772 47.62,-772 47.62,-772 41.62,-772 35.62,-766 35.62,-760 35.62,-760 35.62,-697 35.62,-697 35.62,-691 41.62,-685 47.62,-685"/>
<text text-anchor="middle" x="106" y="-754.7" font-family="Helvetica,sans-Serif" font-size="14.00" fill="#ffffff">InspectorUpdateSet</text>
</a>
</g>
</g>
<!-- set_marker_node_Set(2) -->
<!-- set_marker_node_Set(1) -->
<!-- set_marker_node_Set(3) -->
<!-- set_marker_node_Set(1)&#45;&gt;set_marker_node_Set(3) -->
<g id="edge1" class="edge">
<title>set_marker_node_Set(1)&#45;&gt;set_marker_node_Set(3)</title>
<g id="a_edge1"><a xlink:title="Waiting → Loading">
<path fill="none" stroke="#eede00" stroke-width="2" d="M181.25,-24C196.14,-24 212.06,-24 227.8,-24"/>
<polygon fill="#eede00" stroke="#eede00" stroke-width="2" points="227.72,-27.5 237.72,-24 227.72,-20.5 227.72,-27.5"/>
</a>
</g>
</g>
<!-- node_System(1) -->
<g id="node3" class="node">
<title>node_System(1)</title>
<g id="a_node3"><a xlink:title="froglight_assets::systemset::resourcepack::ResourcePackState::enter_loading_state">
<polygon fill="#eff1f3" stroke="#b4bec7" points="173.25,-71 38.75,-71 38.75,-35 173.25,-35 173.25,-71"/>
<text text-anchor="middle" x="106" y="-47.58" font-family="Helvetica,sans-Serif" font-size="14.00" fill="#15191d">enter_loading_state</text>
</a>
</g>
</g>
<!-- set_marker_node_Set(4) -->
<!-- set_marker_node_Set(3)&#45;&gt;set_marker_node_Set(4) -->
<g id="edge2" class="edge">
<title>set_marker_node_Set(3)&#45;&gt;set_marker_node_Set(4)</title>
<g id="a_edge2"><a xlink:title="Loading → Processing">
<path fill="none" stroke="#881877" stroke-width="2" d="M430.25,-24C432.63,-24 435.01,-24 437.38,-24"/>
<polygon fill="#881877" stroke="#881877" stroke-width="2" points="437.22,-27.5 447.22,-24 437.22,-20.5 437.22,-27.5"/>
</a>
</g>
</g>
<!-- node_System(2) -->
<g id="node5" class="node">
<title>node_System(2)</title>
<g id="a_node5"><a xlink:title="froglight_assets::asset_manager::tracker::AssetTracker::load_next_pack_in_queue">
<polygon fill="#eff1f3" stroke="#b4bec7" points="422.25,-71 248.75,-71 248.75,-35 422.25,-35 422.25,-71"/>
<text text-anchor="middle" x="335.5" y="-47.58" font-family="Helvetica,sans-Serif" font-size="14.00" fill="#15191d">load_next_pack_in_queue</text>
</a>
</g>
</g>
<!-- set_marker_node_Set(5) -->
<!-- set_marker_node_Set(4)&#45;&gt;set_marker_node_Set(5) -->
<g id="edge3" class="edge">
<title>set_marker_node_Set(4)&#45;&gt;set_marker_node_Set(5)</title>
<g id="a_edge3"><a xlink:title="Processing → Ready">
<path fill="none" stroke="#00b0cc" stroke-width="2" d="M591,-24C596.18,-24 601.29,-24 606.17,-24"/>
<polygon fill="#00b0cc" stroke="#00b0cc" stroke-width="2" points="605.98,-27.5 615.98,-24 605.98,-20.5 605.98,-27.5"/>
</a>
</g>
</g>
<!-- node_System(7) -->
<g id="node7" class="node">
<title>node_System(7)</title>
<g id="a_node7"><a xlink:title="froglight_assets::systemset::resourcepack::ResourcePackState::enter_ready_state">
<polygon fill="#eff1f3" stroke="#b4bec7" points="583,-71 458.25,-71 458.25,-35 583,-35 583,-71"/>
<text text-anchor="middle" x="520.62" y="-47.58" font-family="Helvetica,sans-Serif" font-size="14.00" fill="#15191d">enter_ready_state</text>
</a>
</g>
</g>
<!-- set_marker_node_Set(7) -->
<!-- set_marker_node_Set(9) -->
<!-- set_marker_node_Set(10) -->
<!-- node_System(3) -->
<g id="node12" class="node">
<title>node_System(3)</title>
<g id="a_node12"><a xlink:title="froglight_interface::plugins::uiscale::UiScalePlugin::set_uiscale">
<polygon fill="#eff1f3" stroke="#b4bec7" points="147.75,-262 64.25,-262 64.25,-226 147.75,-226 147.75,-262"/>
<text text-anchor="middle" x="106" y="-238.57" font-family="Helvetica,sans-Serif" font-size="14.00" fill="#15191d">set_uiscale</text>
</a>
</g>
</g>
<!-- node_System(4) -->
<g id="node13" class="node">
<title>node_System(4)</title>
<g id="a_node13"><a xlink:title="froglight_interface::plugins::uiscale::UiScalePlugin::set_uiscale_on_resize">
<polygon fill="#eff1f3" stroke="#b4bec7" points="180.75,-309 31.25,-309 31.25,-273 180.75,-273 180.75,-309"/>
<text text-anchor="middle" x="106" y="-285.57" font-family="Helvetica,sans-Serif" font-size="14.00" fill="#15191d">set_uiscale_on_resize</text>
</a>
</g>
</g>
<!-- set_marker_node_Set(13) -->
<!-- set_marker_node_Set(14) -->
<!-- set_marker_node_Set(15) -->
<!-- set_marker_node_Set(16) -->
<!-- set_marker_node_Set(17) -->
<!-- set_marker_node_Set(18) -->
<!-- set_marker_node_Set(19) -->
<!-- set_marker_node_Set(20) -->
<!-- node_System(5) -->
<g id="node22" class="node">
<title>node_System(5)</title>
<g id="a_node22"><a xlink:title="froglight_interface::plugins::inspector::enable::InspectorEnable::inspector_keybind">
<polygon fill="#eff1f3" stroke="#b4bec7" points="168.38,-740 43.63,-740 43.63,-704 168.38,-704 168.38,-740"/>
<text text-anchor="middle" x="106" y="-716.58" font-family="Helvetica,sans-Serif" font-size="14.00" fill="#15191d">inspector_keybind</text>
</a>
</g>
</g>
<!-- node_System(0) -->
<g id="node23" class="node">
<title>node_System(0)</title>
<g id="a_node23"><a xlink:title="bevy_window::system::close_when_requested">
<polygon fill="lightgrey" stroke="black" points="175.12,-856 36.88,-856 36.88,-820 175.12,-820 175.12,-856"/>
<text text-anchor="middle" x="106" y="-832.95" font-family="Times,serif" font-size="14.00">close_when_requested</text>
</a>
</g>
</g>
<!-- node_System(6) -->
<g id="node24" class="node">
<title>node_System(6)</title>
<g id="a_node24"><a xlink:title="bevy_inspector_egui::quick::world_inspector_ui">
<polygon fill="lightgrey" stroke="black" points="166.5,-903 45.5,-903 45.5,-867 166.5,-867 166.5,-903"/>
<text text-anchor="middle" x="106" y="-879.95" font-family="Times,serif" font-size="14.00">world_inspector_ui</text>
</a>
</g>
</g>
</g>
</svg>
