<?xml version="1.0" encoding="UTF-8" standalone="no"?>
<!DOCTYPE svg PUBLIC "-//W3C//DTD SVG 1.1//EN"
 "http://www.w3.org/Graphics/SVG/1.1/DTD/svg11.dtd">
<!-- Generated by graphviz version 10.0.1 (0)
 -->
<!-- Pages: 1 -->
<svg width="194pt" height="338pt"
 viewBox="0.00 0.00 194.00 338.00" xmlns="http://www.w3.org/2000/svg" xmlns:xlink="http://www.w3.org/1999/xlink">
<g id="graph0" class="graph" transform="scale(1 1) rotate(0) translate(4 334)">
<polygon fill="#0d1117" stroke="none" points="-4,4 -4,-334 190,-334 190,4 -4,4"/>
<g id="clust1" class="cluster">
<title>clusternode_Set(1)</title>
<g id="a_clust1"><a xlink:title="InterfaceStartupSet">
<path fill="#ffffff" fill-opacity="0.266667" stroke="#ffffff" stroke-width="2" stroke-opacity="0.313725" d="M12,-8C12,-8 174,-8 174,-8 180,-8 186,-14 186,-20 186,-20 186,-179 186,-179 186,-185 180,-191 174,-191 174,-191 12,-191 12,-191 6,-191 0,-185 0,-179 0,-179 0,-20 0,-20 0,-14 6,-8 12,-8"/>
<text text-anchor="middle" x="93" y="-173.7" font-family="Helvetica,sans-Serif" font-size="14.00" fill="#ffffff">InterfaceStartupSet</text>
</a>
</g>
</g>
<g id="clust2" class="cluster">
<title>clusternode_Set(4)</title>
<g id="a_clust2"><a xlink:title="UiScaleStartupSet">
<path fill="#ffffff" fill-opacity="0.266667" stroke="#ffffff" stroke-width="2" stroke-opacity="0.313725" d="M42.25,-16C42.25,-16 143.75,-16 143.75,-16 149.75,-16 155.75,-22 155.75,-28 155.75,-28 155.75,-91 155.75,-91 155.75,-97 149.75,-103 143.75,-103 143.75,-103 42.25,-103 42.25,-103 36.25,-103 30.25,-97 30.25,-91 30.25,-91 30.25,-28 30.25,-28 30.25,-22 36.25,-16 42.25,-16"/>
<text text-anchor="middle" x="93" y="-85.7" font-family="Helvetica,sans-Serif" font-size="14.00" fill="#ffffff">UiScaleStartupSet</text>
</a>
</g>
</g>
<g id="clust3" class="cluster">
<title>clusternode_Set(6)</title>
<g id="a_clust3"><a xlink:title="LoadingScreenStartupSet">
<path fill="#ffffff" fill-opacity="0.266667" stroke="#ffffff" stroke-width="2" stroke-opacity="0.313725" d="M20,-111C20,-111 166,-111 166,-111 172,-111 178,-117 178,-123 178,-123 178,-139 178,-139 178,-145 172,-151 166,-151 166,-151 20,-151 20,-151 14,-151 8,-145 8,-139 8,-139 8,-123 8,-123 8,-117 14,-111 20,-111"/>
<text text-anchor="middle" x="93" y="-133.7" font-family="Helvetica,sans-Serif" font-size="14.00" fill="#ffffff">LoadingScreenStartupSet</text>
</a>
</g>
</g>
<g id="clust4" class="cluster">
<title>clusternode_Set(2)</title>
<g id="a_clust4"><a xlink:title="AssetStartupSet">
<path fill="#ffffff" fill-opacity="0.266667" stroke="#ffffff" stroke-width="2" stroke-opacity="0.313725" d="M28.62,-199C28.62,-199 157.38,-199 157.38,-199 163.38,-199 169.38,-205 169.38,-211 169.38,-211 169.38,-274 169.38,-274 169.38,-280 163.38,-286 157.38,-286 157.38,-286 28.62,-286 28.62,-286 22.62,-286 16.62,-280 16.62,-274 16.62,-274 16.62,-211 16.62,-211 16.62,-205 22.62,-199 28.62,-199"/>
<text text-anchor="middle" x="93" y="-268.7" font-family="Helvetica,sans-Serif" font-size="14.00" fill="#ffffff">AssetStartupSet</text>
</a>
</g>
</g>
<!-- set_marker_node_Set(1) -->
<!-- set_marker_node_Set(4) -->
<!-- node_System(2) -->
<g id="node3" class="node">
<title>node_System(2)</title>
<g id="a_node3"><a xlink:title="froglight_interface::plugins::uiscale::UiScalePlugin::set_uiscale">
<polygon fill="#eff1f3" stroke="#b4bec7" points="134.75,-71 51.25,-71 51.25,-35 134.75,-35 134.75,-71"/>
<text text-anchor="middle" x="93" y="-47.58" font-family="Helvetica,sans-Serif" font-size="14.00" fill="#15191d">set_uiscale</text>
</a>
</g>
</g>
<!-- set_marker_node_Set(6) -->
<!-- set_marker_node_Set(2) -->
<!-- node_System(1) -->
<g id="node6" class="node">
<title>node_System(1)</title>
<g id="a_node6"><a xlink:title="froglight_assets::settings::resourcepack_config::ResourcePackSettings::load_resourcepacks">
<polygon fill="#eff1f3" stroke="#b4bec7" points="161.38,-254 24.62,-254 24.62,-218 161.38,-218 161.38,-254"/>
<text text-anchor="middle" x="93" y="-230.57" font-family="Helvetica,sans-Serif" font-size="14.00" fill="#15191d">load_resourcepacks</text>
</a>
</g>
</g>
<!-- node_System(0) -->
<g id="node7" class="node">
<title>node_System(0)</title>
<g id="a_node7"><a xlink:title="bevy_diagnostic::system_information_diagnostics_plugin::internal::log_system_info">
<polygon fill="lightgrey" stroke="black" points="146.38,-330 39.62,-330 39.62,-294 146.38,-294 146.38,-330"/>
<text text-anchor="middle" x="93" y="-306.95" font-family="Times,serif" font-size="14.00">log_system_info</text>
</a>
</g>
</g>
</g>
</svg>
