<?xml version="1.0" encoding="UTF-8" standalone="no"?>
<!DOCTYPE svg PUBLIC "-//W3C//DTD SVG 1.1//EN"
 "http://www.w3.org/Graphics/SVG/1.1/DTD/svg11.dtd">
<!-- Generated by graphviz version 10.0.1 (0)
 -->
<!-- Pages: 1 -->
<svg width="689pt" height="1005pt"
 viewBox="0.00 0.00 688.50 1005.00" xmlns="http://www.w3.org/2000/svg" xmlns:xlink="http://www.w3.org/1999/xlink">
<g id="graph0" class="graph" transform="scale(1 1) rotate(0) translate(4 1001)">
<polygon fill="#0d1117" stroke="none" points="-4,4 -4,-1001 684.5,-1001 684.5,4 -4,4"/>
<g id="clust1" class="cluster">
<title>clusternode_Set(2)</title>
<g id="a_clust1"><a xlink:title="AssetUpdateSet">
<path fill="#ffffff" fill-opacity="0.266667" stroke="#ffffff" stroke-width="2" stroke-opacity="0.313725" d="M48.38,-8C48.38,-8 668.5,-8 668.5,-8 674.5,-8 680.5,-14 680.5,-20 680.5,-20 680.5,-131 680.5,-131 680.5,-137 674.5,-143 668.5,-143 668.5,-143 48.38,-143 48.38,-143 42.38,-143 36.38,-137 36.38,-131 36.38,-131 36.38,-20 36.38,-20 36.38,-14 42.38,-8 48.38,-8"/>
<text text-anchor="middle" x="358.44" y="-125.7" font-family="Helvetica,sans-Serif" font-size="14.00" fill="#ffffff">AssetUpdateSet</text>
</a>
</g>
</g>
<g id="clust2" class="cluster">
<title>clusternode_Set(1)</title>
<g id="a_clust2"><a xlink:title="Waiting">
<path fill="#ffffff" fill-opacity="0.266667" stroke="#ffffff" stroke-width="2" stroke-opacity="0.313725" d="M56.38,-16C56.38,-16 182.88,-16 182.88,-16 188.88,-16 194.88,-22 194.88,-28 194.88,-28 194.88,-91 194.88,-91 194.88,-97 188.88,-103 182.88,-103 182.88,-103 56.38,-103 56.38,-103 50.38,-103 44.38,-97 44.38,-91 44.38,-91 44.38,-28 44.38,-28 44.38,-22 50.38,-16 56.38,-16"/>
<text text-anchor="middle" x="119.62" y="-85.7" font-family="Helvetica,sans-Serif" font-size="14.00" fill="#ffffff">Waiting</text>
</a>
</g>
</g>
<g id="clust3" class="cluster">
<title>clusternode_Set(3)</title>
<g id="a_clust3"><a xlink:title="Loading">
<path fill="#ffffff" fill-opacity="0.266667" stroke="#ffffff" stroke-width="2" stroke-opacity="0.313725" d="M251.25,-16C251.25,-16 416.75,-16 416.75,-16 422.75,-16 428.75,-22 428.75,-28 428.75,-28 428.75,-91 428.75,-91 428.75,-97 422.75,-103 416.75,-103 416.75,-103 251.25,-103 251.25,-103 245.25,-103 239.25,-97 239.25,-91 239.25,-91 239.25,-28 239.25,-28 239.25,-22 245.25,-16 251.25,-16"/>
<text text-anchor="middle" x="334" y="-85.7" font-family="Helvetica,sans-Serif" font-size="14.00" fill="#ffffff">Loading</text>
</a>
</g>
</g>
<g id="clust4" class="cluster">
<title>clusternode_Set(4)</title>
<g id="a_clust4"><a xlink:title="Processing">
<path fill="#ffffff" fill-opacity="0.266667" stroke="#ffffff" stroke-width="2" stroke-opacity="0.313725" d="M460.75,-16C460.75,-16 577.5,-16 577.5,-16 583.5,-16 589.5,-22 589.5,-28 589.5,-28 589.5,-91 589.5,-91 589.5,-97 583.5,-103 577.5,-103 577.5,-103 460.75,-103 460.75,-103 454.75,-103 448.75,-97 448.75,-91 448.75,-91 448.75,-28 448.75,-28 448.75,-22 454.75,-16 460.75,-16"/>
<text text-anchor="middle" x="519.12" y="-85.7" font-family="Helvetica,sans-Serif" font-size="14.00" fill="#ffffff">Processing</text>
</a>
</g>
</g>
<g id="clust5" class="cluster">
<title>clusternode_Set(5)</title>
<g id="a_clust5"><a xlink:title="Ready">
<path fill="#ffffff" fill-opacity="0.266667" stroke="#ffffff" stroke-width="2" stroke-opacity="0.313725" d="M629.5,-16C629.5,-16 660.5,-16 660.5,-16 666.5,-16 672.5,-22 672.5,-28 672.5,-28 672.5,-44 672.5,-44 672.5,-50 666.5,-56 660.5,-56 660.5,-56 629.5,-56 629.5,-56 623.5,-56 617.5,-50 617.5,-44 617.5,-44 617.5,-28 617.5,-28 617.5,-22 623.5,-16 629.5,-16"/>
<text text-anchor="middle" x="645" y="-38.7" font-family="Helvetica,sans-Serif" font-size="14.00" fill="#ffffff">Ready</text>
</a>
</g>
</g>
<g id="clust6" class="cluster">
<title>clusternode_Set(7)</title>
<g id="a_clust6"><a xlink:title="InterfaceUpdateSet">
<path fill="#ffffff" fill-opacity="0.266667" stroke="#ffffff" stroke-width="2" stroke-opacity="0.313725" d="M20,-151C20,-151 219.25,-151 219.25,-151 225.25,-151 231.25,-157 231.25,-163 231.25,-163 231.25,-894 231.25,-894 231.25,-900 225.25,-906 219.25,-906 219.25,-906 20,-906 20,-906 14,-906 8,-900 8,-894 8,-894 8,-163 8,-163 8,-157 14,-151 20,-151"/>
<text text-anchor="middle" x="119.62" y="-888.7" font-family="Helvetica,sans-Serif" font-size="14.00" fill="#ffffff">InterfaceUpdateSet</text>
</a>
</g>
</g>
<g id="clust7" class="cluster">
<title>clusternode_Set(9)</title>
<g id="a_clust7"><a xlink:title="DebugUpdateSet">
<path fill="#ffffff" fill-opacity="0.266667" stroke="#ffffff" stroke-width="2" stroke-opacity="0.313725" d="M72.62,-159C72.62,-159 167.62,-159 167.62,-159 173.62,-159 179.62,-165 179.62,-171 179.62,-171 179.62,-187 179.62,-187 179.62,-193 173.62,-199 167.62,-199 167.62,-199 72.62,-199 72.62,-199 66.62,-199 60.62,-193 60.62,-187 60.62,-187 60.62,-171 60.62,-171 60.62,-165 66.62,-159 72.62,-159"/>
<text text-anchor="middle" x="120.12" y="-181.7" font-family="Helvetica,sans-Serif" font-size="14.00" fill="#ffffff">DebugUpdateSet</text>
</a>
</g>
</g>
<g id="clust8" class="cluster">
<title>clusternode_Set(10)</title>
<g id="a_clust8"><a xlink:title="UiScaleUpdateSet">
<path fill="#ffffff" fill-opacity="0.266667" stroke="#ffffff" stroke-width="2" stroke-opacity="0.313725" d="M48.88,-207C48.88,-207 190.38,-207 190.38,-207 196.38,-207 202.38,-213 202.38,-219 202.38,-219 202.38,-329 202.38,-329 202.38,-335 196.38,-341 190.38,-341 190.38,-341 48.88,-341 48.88,-341 42.88,-341 36.88,-335 36.88,-329 36.88,-329 36.88,-219 36.88,-219 36.88,-213 42.88,-207 48.88,-207"/>
<text text-anchor="middle" x="119.62" y="-323.7" font-family="Helvetica,sans-Serif" font-size="14.00" fill="#ffffff">UiScaleUpdateSet</text>
</a>
</g>
</g>
<g id="clust9" class="cluster">
<title>clusternode_Set(13)</title>
<g id="a_clust9"><a xlink:title="InterfaceMenuUpdateSet">
<path fill="#ffffff" fill-opacity="0.266667" stroke="#ffffff" stroke-width="2" stroke-opacity="0.313725" d="M28,-349C28,-349 211.25,-349 211.25,-349 217.25,-349 223.25,-355 223.25,-361 223.25,-361 223.25,-759 223.25,-759 223.25,-765 217.25,-771 211.25,-771 211.25,-771 28,-771 28,-771 22,-771 16,-765 16,-759 16,-759 16,-361 16,-361 16,-355 22,-349 28,-349"/>
<text text-anchor="middle" x="119.62" y="-753.7" font-family="Helvetica,sans-Serif" font-size="14.00" fill="#ffffff">InterfaceMenuUpdateSet</text>
</a>
</g>
</g>
<g id="clust10" class="cluster">
<title>clusternode_Set(14)</title>
<g id="a_clust10"><a xlink:title="LoadingScreenUpdateSet">
<path fill="#ffffff" fill-opacity="0.266667" stroke="#ffffff" stroke-width="2" stroke-opacity="0.313725" d="M36,-357C36,-357 203.25,-357 203.25,-357 209.25,-357 215.25,-363 215.25,-369 215.25,-369 215.25,-575 215.25,-575 215.25,-581 209.25,-587 203.25,-587 203.25,-587 36,-587 36,-587 30,-587 24,-581 24,-575 24,-575 24,-369 24,-369 24,-363 30,-357 36,-357"/>
<text text-anchor="middle" x="119.62" y="-569.7" font-family="Helvetica,sans-Serif" font-size="14.00" fill="#ffffff">LoadingScreenUpdateSet</text>
</a>
</g>
</g>
<g id="clust11" class="cluster">
<title>clusternode_Set(15)</title>
<g id="a_clust11"><a xlink:title="Hidden">
<path fill="#ffffff" fill-opacity="0.266667" stroke="#ffffff" stroke-width="2" stroke-opacity="0.313725" d="M102.62,-365C102.62,-365 136.62,-365 136.62,-365 142.62,-365 148.62,-371 148.62,-377 148.62,-377 148.62,-393 148.62,-393 148.62,-399 142.62,-405 136.62,-405 136.62,-405 102.62,-405 102.62,-405 96.62,-405 90.62,-399 90.62,-393 90.62,-393 90.62,-377 90.62,-377 90.62,-371 96.62,-365 102.62,-365"/>
<text text-anchor="middle" x="119.62" y="-387.7" font-family="Helvetica,sans-Serif" font-size="14.00" fill="#ffffff">Hidden</text>
</a>
</g>
</g>
<g id="clust12" class="cluster">
<title>clusternode_Set(16)</title>
<g id="a_clust12"><a xlink:title="Shown">
<path fill="#ffffff" fill-opacity="0.266667" stroke="#ffffff" stroke-width="2" stroke-opacity="0.313725" d="M44,-413C44,-413 195.25,-413 195.25,-413 201.25,-413 207.25,-419 207.25,-425 207.25,-425 207.25,-535 207.25,-535 207.25,-541 201.25,-547 195.25,-547 195.25,-547 44,-547 44,-547 38,-547 32,-541 32,-535 32,-535 32,-425 32,-425 32,-419 38,-413 44,-413"/>
<text text-anchor="middle" x="119.62" y="-529.7" font-family="Helvetica,sans-Serif" font-size="14.00" fill="#ffffff">Shown</text>
</a>
</g>
</g>
<g id="clust13" class="cluster">
<title>clusternode_Set(19)</title>
<g id="a_clust13"><a xlink:title="MainMenuUpdateSet">
<path fill="#ffffff" fill-opacity="0.266667" stroke="#ffffff" stroke-width="2" stroke-opacity="0.313725" d="M59.62,-595C59.62,-595 179.62,-595 179.62,-595 185.62,-595 191.62,-601 191.62,-607 191.62,-607 191.62,-623 191.62,-623 191.62,-629 185.62,-635 179.62,-635 179.62,-635 59.62,-635 59.62,-635 53.62,-635 47.62,-629 47.62,-623 47.62,-623 47.62,-607 47.62,-607 47.62,-601 53.62,-595 59.62,-595"/>
<text text-anchor="middle" x="119.62" y="-617.7" font-family="Helvetica,sans-Serif" font-size="14.00" fill="#ffffff">MainMenuUpdateSet</text>
</a>
</g>
</g>
<g id="clust14" class="cluster">
<title>clusternode_Set(20)</title>
<g id="a_clust14"><a xlink:title="MultiplayerMenuUpdateSet">
<path fill="#ffffff" fill-opacity="0.266667" stroke="#ffffff" stroke-width="2" stroke-opacity="0.313725" d="M41.62,-643C41.62,-643 197.62,-643 197.62,-643 203.62,-643 209.62,-649 209.62,-655 209.62,-655 209.62,-671 209.62,-671 209.62,-677 203.62,-683 197.62,-683 197.62,-683 41.62,-683 41.62,-683 35.62,-683 29.62,-677 29.62,-671 29.62,-671 29.62,-655 29.62,-655 29.62,-649 35.62,-643 41.62,-643"/>
<text text-anchor="middle" x="119.62" y="-665.7" font-family="Helvetica,sans-Serif" font-size="14.00" fill="#ffffff">MultiplayerMenuUpdateSet</text>
</a>
</g>
</g>
<g id="clust15" class="cluster">
<title>clusternode_Set(21)</title>
<g id="a_clust15"><a xlink:title="SettingsMenuUpdateSet">
<path fill="#ffffff" fill-opacity="0.266667" stroke="#ffffff" stroke-width="2" stroke-opacity="0.313725" d="M50.62,-691C50.62,-691 189.62,-691 189.62,-691 195.62,-691 201.62,-697 201.62,-703 201.62,-703 201.62,-719 201.62,-719 201.62,-725 195.62,-731 189.62,-731 189.62,-731 50.62,-731 50.62,-731 44.62,-731 38.62,-725 38.62,-719 38.62,-719 38.62,-703 38.62,-703 38.62,-697 44.62,-691 50.62,-691"/>
<text text-anchor="middle" x="120.12" y="-713.7" font-family="Helvetica,sans-Serif" font-size="14.00" fill="#ffffff">SettingsMenuUpdateSet</text>
</a>
</g>
</g>
<g id="clust16" class="cluster">
<title>clusternode_Set(22)</title>
<g id="a_clust16"><a xlink:title="InspectorUpdateSet">
<path fill="#ffffff" fill-opacity="0.266667" stroke="#ffffff" stroke-width="2" stroke-opacity="0.313725" d="M61.25,-779C61.25,-779 178,-779 178,-779 184,-779 190,-785 190,-791 190,-791 190,-854 190,-854 190,-860 184,-866 178,-866 178,-866 61.25,-866 61.25,-866 55.25,-866 49.25,-860 49.25,-854 49.25,-854 49.25,-791 49.25,-791 49.25,-785 55.25,-779 61.25,-779"/>
<text text-anchor="middle" x="119.62" y="-848.7" font-family="Helvetica,sans-Serif" font-size="14.00" fill="#ffffff">InspectorUpdateSet</text>
</a>
</g>
</g>
<!-- set_marker_node_Set(2) -->
<!-- set_marker_node_Set(1) -->
<!-- set_marker_node_Set(3) -->
<!-- set_marker_node_Set(1)&#45;&gt;set_marker_node_Set(3) -->
<g id="edge1" class="edge">
<title>set_marker_node_Set(1)&#45;&gt;set_marker_node_Set(3)</title>
<g id="a_edge1"><a xlink:title="Waiting → Loading">
<path fill="none" stroke="#eede00" stroke-width="2" d="M194.87,-24C205.04,-24 215.64,-24 226.25,-24"/>
<polygon fill="#eede00" stroke="#eede00" stroke-width="2" points="226.23,-27.5 236.23,-24 226.23,-20.5 226.23,-27.5"/>
</a>
</g>
</g>
<!-- node_System(1) -->
<g id="node3" class="node">
<title>node_System(1)</title>
<g id="a_node3"><a xlink:title="froglight_assets::systemset::resourcepack::ResourcePackState::enter_loading_state">
<polygon fill="#eff1f3" stroke="#b4bec7" points="186.88,-71 52.38,-71 52.38,-35 186.88,-35 186.88,-71"/>
<text text-anchor="middle" x="119.62" y="-47.58" font-family="Helvetica,sans-Serif" font-size="14.00" fill="#15191d">enter_loading_state</text>
</a>
</g>
</g>
<!-- set_marker_node_Set(4) -->
<!-- set_marker_node_Set(3)&#45;&gt;set_marker_node_Set(4) -->
<g id="edge2" class="edge">
<title>set_marker_node_Set(3)&#45;&gt;set_marker_node_Set(4)</title>
<g id="a_edge2"><a xlink:title="Loading → Processing">
<path fill="none" stroke="#881877" stroke-width="2" d="M428.75,-24C431.13,-24 433.51,-24 435.88,-24"/>
<polygon fill="#881877" stroke="#881877" stroke-width="2" points="435.72,-27.5 445.72,-24 435.72,-20.5 435.72,-27.5"/>
</a>
</g>
</g>
<!-- node_System(2) -->
<g id="node5" class="node">
<title>node_System(2)</title>
<g id="a_node5"><a xlink:title="froglight_assets::asset_manager::tracker::AssetTracker::load_next_pack_in_queue">
<polygon fill="#eff1f3" stroke="#b4bec7" points="420.75,-71 247.25,-71 247.25,-35 420.75,-35 420.75,-71"/>
<text text-anchor="middle" x="334" y="-47.58" font-family="Helvetica,sans-Serif" font-size="14.00" fill="#15191d">load_next_pack_in_queue</text>
</a>
</g>
</g>
<!-- set_marker_node_Set(5) -->
<!-- set_marker_node_Set(4)&#45;&gt;set_marker_node_Set(5) -->
<g id="edge3" class="edge">
<title>set_marker_node_Set(4)&#45;&gt;set_marker_node_Set(5)</title>
<g id="a_edge3"><a xlink:title="Processing → Ready">
<path fill="none" stroke="#00b0cc" stroke-width="2" d="M589.5,-24C594.68,-24 599.79,-24 604.67,-24"/>
<polygon fill="#00b0cc" stroke="#00b0cc" stroke-width="2" points="604.48,-27.5 614.48,-24 604.48,-20.5 604.48,-27.5"/>
</a>
</g>
</g>
<!-- node_System(9) -->
<g id="node7" class="node">
<title>node_System(9)</title>
<g id="a_node7"><a xlink:title="froglight_assets::systemset::resourcepack::ResourcePackState::enter_ready_state">
<polygon fill="#eff1f3" stroke="#b4bec7" points="581.5,-71 456.75,-71 456.75,-35 581.5,-35 581.5,-71"/>
<text text-anchor="middle" x="519.12" y="-47.58" font-family="Helvetica,sans-Serif" font-size="14.00" fill="#15191d">enter_ready_state</text>
</a>
</g>
</g>
<!-- set_marker_node_Set(7) -->
<!-- set_marker_node_Set(9) -->
<!-- set_marker_node_Set(10) -->
<!-- node_System(3) -->
<g id="node12" class="node">
<title>node_System(3)</title>
<g id="a_node12"><a xlink:title="froglight_interface::plugins::uiscale::UiScalePlugin::set_uiscale">
<polygon fill="#eff1f3" stroke="#b4bec7" points="161.38,-262 77.88,-262 77.88,-226 161.38,-226 161.38,-262"/>
<text text-anchor="middle" x="119.62" y="-238.57" font-family="Helvetica,sans-Serif" font-size="14.00" fill="#15191d">set_uiscale</text>
</a>
</g>
</g>
<!-- node_System(4) -->
<g id="node13" class="node">
<title>node_System(4)</title>
<g id="a_node13"><a xlink:title="froglight_interface::plugins::uiscale::UiScalePlugin::set_uiscale_on_resize">
<polygon fill="#eff1f3" stroke="#b4bec7" points="194.38,-309 44.88,-309 44.88,-273 194.38,-273 194.38,-309"/>
<text text-anchor="middle" x="119.62" y="-285.57" font-family="Helvetica,sans-Serif" font-size="14.00" fill="#15191d">set_uiscale_on_resize</text>
</a>
</g>
</g>
<!-- set_marker_node_Set(13) -->
<!-- set_marker_node_Set(14) -->
<!-- set_marker_node_Set(15) -->
<!-- set_marker_node_Set(16) -->
<!-- node_System(5) -->
<g id="node18" class="node">
<title>node_System(5)</title>
<g id="a_node18"><a xlink:title="froglight_interface::menus::loadingscreen::bar::ProgressBar::set_finished">
<polygon fill="#eff1f3" stroke="#b4bec7" points="163.62,-468 75.62,-468 75.62,-432 163.62,-432 163.62,-468"/>
<text text-anchor="middle" x="119.62" y="-444.57" font-family="Helvetica,sans-Serif" font-size="14.00" fill="#15191d">set_finished</text>
</a>
</g>
</g>
<!-- node_System(6) -->
<g id="node19" class="node">
<title>node_System(6)</title>
<g id="a_node19"><a xlink:title="froglight_interface::menus::loadingscreen::bar::ProgressBar::update_visual_progress">
<polygon fill="#eff1f3" stroke="#b4bec7" points="199.25,-515 40,-515 40,-479 199.25,-479 199.25,-515"/>
<text text-anchor="middle" x="119.62" y="-491.57" font-family="Helvetica,sans-Serif" font-size="14.00" fill="#15191d">update_visual_progress</text>
</a>
</g>
</g>
<!-- set_marker_node_Set(19) -->
<!-- set_marker_node_Set(20) -->
<!-- set_marker_node_Set(21) -->
<!-- set_marker_node_Set(22) -->
<!-- node_System(7) -->
<g id="node24" class="node">
<title>node_System(7)</title>
<g id="a_node24"><a xlink:title="froglight_interface::plugins::inspector::enable::InspectorEnable::inspector_keybind">
<polygon fill="#eff1f3" stroke="#b4bec7" points="182,-834 57.25,-834 57.25,-798 182,-798 182,-834"/>
<text text-anchor="middle" x="119.62" y="-810.58" font-family="Helvetica,sans-Serif" font-size="14.00" fill="#15191d">inspector_keybind</text>
</a>
</g>
</g>
<!-- node_System(0) -->
<g id="node25" class="node">
<title>node_System(0)</title>
<g id="a_node25"><a xlink:title="bevy_window::system::close_when_requested">
<polygon fill="lightgrey" stroke="black" points="188.75,-950 50.5,-950 50.5,-914 188.75,-914 188.75,-950"/>
<text text-anchor="middle" x="119.62" y="-926.95" font-family="Times,serif" font-size="14.00">close_when_requested</text>
</a>
</g>
</g>
<!-- node_System(8) -->
<g id="node26" class="node">
<title>node_System(8)</title>
<g id="a_node26"><a xlink:title="bevy_inspector_egui::quick::world_inspector_ui">
<polygon fill="lightgrey" stroke="black" points="180.12,-997 59.12,-997 59.12,-961 180.12,-961 180.12,-997"/>
<text text-anchor="middle" x="119.62" y="-973.95" font-family="Times,serif" font-size="14.00">world_inspector_ui</text>
</a>
</g>
</g>
</g>
</svg>
