<?xml version="1.0" encoding="UTF-8" standalone="no"?>
<!DOCTYPE svg PUBLIC "-//W3C//DTD SVG 1.1//EN"
 "http://www.w3.org/Graphics/SVG/1.1/DTD/svg11.dtd">
<!-- Generated by graphviz version 9.0.0 (0)
 -->
<!-- Pages: 1 -->
<svg width="393pt" height="147pt"
 viewBox="0.00 0.00 393.00 147.00" xmlns="http://www.w3.org/2000/svg" xmlns:xlink="http://www.w3.org/1999/xlink">
<g id="graph0" class="graph" transform="scale(1 1) rotate(0) translate(4 143)">
<polygon fill="#0d1117" stroke="none" points="-4,4 -4,-143 389,-143 389,4 -4,4"/>
<g id="clust1" class="cluster">
<title>clusternode_Set(1)</title>
<g id="a_clust1"><a xlink:title="LoadingScreenStartupSet">
<path fill="#ffffff" fill-opacity="0.266667" stroke="#ffffff" stroke-width="2" stroke-opacity="0.313725" d="M20,-8C20,-8 365,-8 365,-8 371,-8 377,-14 377,-20 377,-20 377,-83 377,-83 377,-89 371,-95 365,-95 365,-95 20,-95 20,-95 14,-95 8,-89 8,-83 8,-83 8,-20 8,-20 8,-14 14,-8 20,-8"/>
<text text-anchor="middle" x="192.5" y="-77.7" font-family="Helvetica,sans-Serif" font-size="14.00" fill="#ffffff">LoadingScreenStartupSet</text>
</a>
</g>
</g>
<!-- set_marker_node_Set(1) -->
<!-- node_System(1) -->
<g id="node2" class="node">
<title>node_System(1)</title>
<g id="a_node2"><a xlink:title="froglight_loading::layout::LoadingScreenRoot::build_loading_screen">
<polygon fill="#eff1f3" stroke="#b4bec7" points="159.5,-52 16,-52 16,-16 159.5,-16 159.5,-52"/>
<text text-anchor="middle" x="87.75" y="-28.57" font-family="Helvetica,sans-Serif" font-size="14.00" fill="#15191d">build_loading_screen</text>
</a>
</g>
</g>
<!-- node_System(2) -->
<g id="node3" class="node">
<title>node_System(2)</title>
<g id="a_node3"><a xlink:title="froglight_loading::layout::LoadingScreenRoot::create_camera2d_if_none">
<polygon fill="#eff1f3" stroke="#b4bec7" points="369,-52 195.5,-52 195.5,-16 369,-16 369,-52"/>
<text text-anchor="middle" x="282.25" y="-28.57" font-family="Helvetica,sans-Serif" font-size="14.00" fill="#15191d">create_camera2d_if_none</text>
</a>
</g>
</g>
<!-- node_System(1)&#45;&gt;node_System(2) -->
<g id="edge1" class="edge">
<title>node_System(1)&#45;&gt;node_System(2)</title>
<g id="a_edge1"><a xlink:title="build_loading_screen → create_camera2d_if_none">
<path fill="none" stroke="#eede00" stroke-width="2" d="M159.88,-34C167.13,-34 174.59,-34 182.07,-34"/>
<polygon fill="#eede00" stroke="#eede00" stroke-width="2" points="182.05,-37.5 192.05,-34 182.05,-30.5 182.05,-37.5"/>
</a>
</g>
</g>
<!-- node_System(0) -->
<g id="node4" class="node">
<title>node_System(0)</title>
<g id="a_node4"><a xlink:title="bevy_diagnostic::system_information_diagnostics_plugin::internal::log_system_info">
<polygon fill="lightgrey" stroke="black" points="141.12,-139 34.38,-139 34.38,-103 141.12,-103 141.12,-139"/>
<text text-anchor="middle" x="87.75" y="-115.95" font-family="Times,serif" font-size="14.00">log_system_info</text>
</a>
</g>
</g>
</g>
</svg>
