<?xml version="1.0" encoding="UTF-8" standalone="no"?>
<!DOCTYPE svg PUBLIC "-//W3C//DTD SVG 1.1//EN"
 "http://www.w3.org/Graphics/SVG/1.1/DTD/svg11.dtd">
<!-- Generated by graphviz version 10.0.1 (0)
 -->
<!-- Pages: 1 -->
<svg width="1317pt" height="584pt"
 viewBox="0.00 0.00 1317.00 584.00" xmlns="http://www.w3.org/2000/svg" xmlns:xlink="http://www.w3.org/1999/xlink">
<g id="graph0" class="graph" transform="scale(1 1) rotate(0) translate(4 580)">
<polygon fill="#0d1117" stroke="none" points="-4,4 -4,-580 1313,-580 1313,4 -4,4"/>
<g id="clust1" class="cluster">
<title>clusternode_Set(1)</title>
<g id="a_clust1"><a xlink:title="InputSystem">
<path fill="#ffffff" fill-opacity="0.266667" stroke="#ffffff" stroke-width="2" stroke-opacity="0.313725" d="M537,-8C537,-8 738.5,-8 738.5,-8 744.5,-8 750.5,-14 750.5,-20 750.5,-20 750.5,-365 750.5,-365 750.5,-371 744.5,-377 738.5,-377 738.5,-377 537,-377 537,-377 531,-377 525,-371 525,-365 525,-365 525,-20 525,-20 525,-14 531,-8 537,-8"/>
<text text-anchor="middle" x="637.75" y="-359.7" font-family="Helvetica,sans-Serif" font-size="14.00" fill="#ffffff">InputSystem</text>
</a>
</g>
</g>
<g id="clust2" class="cluster">
<title>clusternode_Set(9)</title>
<g id="a_clust2"><a xlink:title="Focus">
<path fill="#ffffff" fill-opacity="0.266667" stroke="#ffffff" stroke-width="2" stroke-opacity="0.313725" d="M853.88,-249C853.88,-249 963.12,-249 963.12,-249 969.12,-249 975.12,-255 975.12,-261 975.12,-261 975.12,-324 975.12,-324 975.12,-330 969.12,-336 963.12,-336 963.12,-336 853.88,-336 853.88,-336 847.88,-336 841.88,-330 841.88,-324 841.88,-324 841.88,-261 841.88,-261 841.88,-255 847.88,-249 853.88,-249"/>
<text text-anchor="middle" x="908.5" y="-318.7" font-family="Helvetica,sans-Serif" font-size="14.00" fill="#ffffff">Focus</text>
</a>
</g>
</g>
<g id="clust3" class="cluster">
<title>clusternode_Set(13)</title>
<g id="a_clust3"><a xlink:title="InterfacePreUpdateSet">
<path fill="#ffffff" fill-opacity="0.266667" stroke="#ffffff" stroke-width="2" stroke-opacity="0.313725" d="M184,-398C184,-398 313,-398 313,-398 319,-398 325,-404 325,-410 325,-410 325,-426 325,-426 325,-432 319,-438 313,-438 313,-438 184,-438 184,-438 178,-438 172,-432 172,-426 172,-426 172,-410 172,-410 172,-404 178,-398 184,-398"/>
<text text-anchor="middle" x="248.5" y="-420.7" font-family="Helvetica,sans-Serif" font-size="14.00" fill="#ffffff">InterfacePreUpdateSet</text>
</a>
</g>
</g>
<g id="clust4" class="cluster">
<title>clusternode_Set(15)</title>
<g id="a_clust4"><a xlink:title="InitContexts">
<path fill="#ffffff" fill-opacity="0.266667" stroke="#ffffff" stroke-width="2" stroke-opacity="0.313725" d="M546,-439C546,-439 1289,-439 1289,-439 1295,-439 1301,-445 1301,-451 1301,-451 1301,-514 1301,-514 1301,-520 1295,-526 1289,-526 1289,-526 546,-526 546,-526 540,-526 534,-520 534,-514 534,-514 534,-451 534,-451 534,-445 540,-439 546,-439"/>
<text text-anchor="middle" x="917.5" y="-508.7" font-family="Helvetica,sans-Serif" font-size="14.00" fill="#ffffff">InitContexts</text>
</a>
</g>
</g>
<g id="clust5" class="cluster">
<title>clusternode_Set(19)</title>
<g id="a_clust5"><a xlink:title="ProcessInput">
<path fill="#ffffff" fill-opacity="0.266667" stroke="#ffffff" stroke-width="2" stroke-opacity="0.313725" d="M837,-344C837,-344 980,-344 980,-344 986,-344 992,-350 992,-356 992,-356 992,-419 992,-419 992,-425 986,-431 980,-431 980,-431 837,-431 837,-431 831,-431 825,-425 825,-419 825,-419 825,-356 825,-356 825,-350 831,-344 837,-344"/>
<text text-anchor="middle" x="908.5" y="-413.7" font-family="Helvetica,sans-Serif" font-size="14.00" fill="#ffffff">ProcessInput</text>
</a>
</g>
</g>
<g id="clust6" class="cluster">
<title>clusternode_Set(21)</title>
<g id="a_clust6"><a xlink:title="BeginFrame">
<path fill="#ffffff" fill-opacity="0.266667" stroke="#ffffff" stroke-width="2" stroke-opacity="0.313725" d="M1116.38,-315C1116.38,-315 1251.12,-315 1251.12,-315 1257.12,-315 1263.12,-321 1263.12,-327 1263.12,-327 1263.12,-390 1263.12,-390 1263.12,-396 1257.12,-402 1251.12,-402 1251.12,-402 1116.38,-402 1116.38,-402 1110.38,-402 1104.38,-396 1104.38,-390 1104.38,-390 1104.38,-327 1104.38,-327 1104.38,-321 1110.38,-315 1116.38,-315"/>
<text text-anchor="middle" x="1183.75" y="-384.7" font-family="Helvetica,sans-Serif" font-size="14.00" fill="#ffffff">BeginFrame</text>
</a>
</g>
</g>
<!-- set_marker_node_Set(1) -->
<!-- node_System(7) -->
<g id="node10" class="node">
<title>node_System(7)</title>
<g id="a_node10"><a xlink:title="bevy_ui::focus::ui_focus_system">
<polygon fill="#ffb1e5" stroke="#ff4bc2" points="967.12,-304 849.88,-304 849.88,-268 967.12,-268 967.12,-304"/>
<text text-anchor="middle" x="908.5" y="-280.57" font-family="Helvetica,sans-Serif" font-size="14.00" fill="#320021">ui_focus_system</text>
</a>
</g>
</g>
<!-- set_marker_node_Set(1)&#45;&gt;node_System(7) -->
<g id="edge6" class="edge">
<title>set_marker_node_Set(1)&#45;&gt;node_System(7)</title>
<g id="a_edge6"><a xlink:title="InputSystem → ui_focus_system">
<path fill="none" stroke="#0090cc" stroke-width="2" d="M750.5,-293.01C779.74,-291.7 810.46,-290.33 836.89,-289.15"/>
<polygon fill="#0090cc" stroke="#0090cc" stroke-width="2" points="836.79,-292.66 846.63,-288.72 836.48,-285.67 836.79,-292.66"/>
</a>
</g>
</g>
<!-- node_System(14) -->
<g id="node17" class="node">
<title>node_System(14)</title>
<g id="a_node17"><a xlink:title="bevy_egui::systems::process_input_system">
<polygon fill="#eff1f3" stroke="#b4bec7" points="984,-399 833,-399 833,-363 984,-363 984,-399"/>
<text text-anchor="middle" x="908.5" y="-375.57" font-family="Helvetica,sans-Serif" font-size="14.00" fill="#15191d">process_input_system</text>
</a>
</g>
</g>
<!-- set_marker_node_Set(1)&#45;&gt;node_System(14) -->
<g id="edge10" class="edge">
<title>set_marker_node_Set(1)&#45;&gt;node_System(14)</title>
<g id="a_edge10"><a xlink:title="InputSystem → process_input_system">
<path fill="none" stroke="#22c2bb" stroke-width="2" d="M750.5,-304C779.71,-308.37 793.97,-299.26 815,-320 825.1,-329.96 817.3,-340.61 824.8,-354.45"/>
<polygon fill="#22c2bb" stroke="#22c2bb" stroke-width="2" points="822,-356.56 830.96,-362.21 827.48,-352.2 822,-356.56"/>
</a>
</g>
</g>
<!-- node_System(0) -->
<g id="node2" class="node">
<title>node_System(0)</title>
<g id="a_node2"><a xlink:title="bevy_input::keyboard::keyboard_input_system">
<polygon fill="#d36aaf" stroke="#a5317d" points="717.38,-99 558.12,-99 558.12,-63 717.38,-63 717.38,-99"/>
<text text-anchor="middle" x="637.75" y="-75.58" font-family="Helvetica,sans-Serif" font-size="14.00" fill="#270b1d">keyboard_input_system</text>
</a>
</g>
</g>
<!-- node_System(1) -->
<g id="node3" class="node">
<title>node_System(1)</title>
<g id="a_node3"><a xlink:title="bevy_input::mouse::mouse_button_input_system">
<polygon fill="#d36aaf" stroke="#a5317d" points="732.75,-146 542.75,-146 542.75,-110 732.75,-110 732.75,-146"/>
<text text-anchor="middle" x="637.75" y="-122.58" font-family="Helvetica,sans-Serif" font-size="14.00" fill="#270b1d">mouse_button_input_system</text>
</a>
</g>
</g>
<!-- node_System(2) -->
<g id="node4" class="node">
<title>node_System(2)</title>
<g id="a_node4"><a xlink:title="bevy_input::gamepad::gamepad_event_system">
<polygon fill="#d36aaf" stroke="#a5317d" points="720,-193 555.5,-193 555.5,-157 720,-157 720,-193"/>
<text text-anchor="middle" x="637.75" y="-169.57" font-family="Helvetica,sans-Serif" font-size="14.00" fill="#270b1d">gamepad_event_system</text>
</a>
</g>
</g>
<!-- node_System(3) -->
<g id="node5" class="node">
<title>node_System(3)</title>
<g id="a_node5"><a xlink:title="bevy_input::gamepad::gamepad_connection_system">
<polygon fill="#d36aaf" stroke="#a5317d" points="736.12,-287 539.38,-287 539.38,-251 736.12,-251 736.12,-287"/>
<text text-anchor="middle" x="637.75" y="-263.57" font-family="Helvetica,sans-Serif" font-size="14.00" fill="#270b1d">gamepad_connection_system</text>
</a>
</g>
</g>
<!-- node_System(4) -->
<g id="node6" class="node">
<title>node_System(4)</title>
<g id="a_node6"><a xlink:title="bevy_input::gamepad::gamepad_button_event_system">
<polygon fill="#d36aaf" stroke="#a5317d" points="742.5,-240 533,-240 533,-204 742.5,-204 742.5,-240"/>
<text text-anchor="middle" x="637.75" y="-216.57" font-family="Helvetica,sans-Serif" font-size="14.00" fill="#270b1d">gamepad_button_event_system</text>
</a>
</g>
</g>
<!-- node_System(5) -->
<g id="node7" class="node">
<title>node_System(5)</title>
<g id="a_node7"><a xlink:title="bevy_input::gamepad::gamepad_axis_event_system">
<polygon fill="#d36aaf" stroke="#a5317d" points="735.75,-52 539.75,-52 539.75,-16 735.75,-16 735.75,-52"/>
<text text-anchor="middle" x="637.75" y="-28.57" font-family="Helvetica,sans-Serif" font-size="14.00" fill="#270b1d">gamepad_axis_event_system</text>
</a>
</g>
</g>
<!-- node_System(6) -->
<g id="node8" class="node">
<title>node_System(6)</title>
<g id="a_node8"><a xlink:title="bevy_input::touch::touch_screen_input_system">
<polygon fill="#d36aaf" stroke="#a5317d" points="730.12,-345 545.38,-345 545.38,-309 730.12,-309 730.12,-345"/>
<text text-anchor="middle" x="637.75" y="-321.57" font-family="Helvetica,sans-Serif" font-size="14.00" fill="#270b1d">touch_screen_input_system</text>
</a>
</g>
</g>
<!-- set_marker_node_Set(9) -->
<!-- set_marker_node_Set(13) -->
<!-- set_marker_node_Set(15) -->
<!-- set_marker_node_Set(15)&#45;&gt;node_System(14) -->
<g id="edge11" class="edge">
<title>set_marker_node_Set(15)&#45;&gt;node_System(14)</title>
<g id="a_edge11"><a xlink:title="InitContexts → process_input_system">
<path fill="none" stroke="#99d955" stroke-width="2" d="M671.31,-439C708.07,-429.98 769.4,-414.91 820.36,-402.4"/>
<polygon fill="#99d955" stroke="#99d955" stroke-width="2" points="820.75,-405.91 829.63,-400.12 819.08,-399.11 820.75,-405.91"/>
</a>
</g>
</g>
<!-- node_System(11) -->
<g id="node13" class="node">
<title>node_System(11)</title>
<g id="a_node13"><a xlink:title="bevy_egui::setup_new_windows_system">
<polygon fill="#eff1f3" stroke="#b4bec7" points="733.5,-494 542,-494 542,-458 733.5,-458 733.5,-494"/>
<text text-anchor="middle" x="637.75" y="-470.57" font-family="Helvetica,sans-Serif" font-size="14.00" fill="#15191d">setup_new_windows_system</text>
</a>
</g>
</g>
<!-- node_System(12) -->
<g id="node14" class="node">
<title>node_System(12)</title>
<g id="a_node14"><a xlink:title="bevy_ecs::schedule::executor::apply_deferred">
<polygon fill="#b0d34a" stroke="#d3e69c" points="961.5,-494 855.5,-494 855.5,-458 961.5,-458 961.5,-494"/>
<text text-anchor="middle" x="908.5" y="-470.57" font-family="Helvetica,sans-Serif" font-size="14.00" fill="#edf5d5">apply_deferred</text>
</a>
</g>
</g>
<!-- node_System(11)&#45;&gt;node_System(12) -->
<g id="edge8" class="edge">
<title>node_System(11)&#45;&gt;node_System(12)</title>
<g id="a_edge8"><a xlink:title="setup_new_windows_system → apply_deferred">
<path fill="none" stroke="#663699" stroke-width="2" d="M733.88,-476C769.71,-476 809.63,-476 842.14,-476"/>
<polygon fill="#663699" stroke="#663699" stroke-width="2" points="842.1,-479.5 852.1,-476 842.1,-472.5 842.1,-479.5"/>
</a>
</g>
</g>
<!-- node_System(13) -->
<g id="node15" class="node">
<title>node_System(13)</title>
<g id="a_node15"><a xlink:title="bevy_egui::systems::update_window_contexts_system">
<polygon fill="#eff1f3" stroke="#b4bec7" points="1293,-494 1074.5,-494 1074.5,-458 1293,-458 1293,-494"/>
<text text-anchor="middle" x="1183.75" y="-470.57" font-family="Helvetica,sans-Serif" font-size="14.00" fill="#15191d">update_window_contexts_system</text>
</a>
</g>
</g>
<!-- node_System(12)&#45;&gt;node_System(13) -->
<g id="edge9" class="edge">
<title>node_System(12)&#45;&gt;node_System(13)</title>
<g id="a_edge9"><a xlink:title="apply_deferred → update_window_contexts_system">
<path fill="none" stroke="#3363bb" stroke-width="2" d="M961.86,-476C990.16,-476 1026.36,-476 1061.23,-476"/>
<polygon fill="#3363bb" stroke="#3363bb" stroke-width="2" points="1060.98,-479.5 1070.98,-476 1060.98,-472.5 1060.98,-479.5"/>
</a>
</g>
</g>
<!-- node_System(13)&#45;&gt;node_System(7) -->
<g id="edge13" class="edge">
<title>node_System(13)&#45;&gt;node_System(7)</title>
<path fill="none" stroke="#c93526" stroke-width="2" d="M1154.41,-457.79C1132.4,-443.49 1101.22,-422.9 1074.5,-404 1037.06,-377.51 1029.32,-368.67 992,-342 973.97,-329.12 953.35,-315.12 937.23,-304.34"/>
<g id="a_edge13&#45;label"><a xlink:title="update_window_contexts_system — ui_focus_system">
<polygon fill="#c6e6ff" stroke="none" points="1004,-391 1004,-411.5 1054.5,-411.5 1054.5,-391 1004,-391"/>
<text text-anchor="start" x="1006" y="-396.2" font-family="Times,serif" font-size="14.00" fill="#c93526">Window</text>
</a>
</g>
</g>
<!-- set_marker_node_Set(19) -->
<!-- node_System(15) -->
<g id="node19" class="node">
<title>node_System(15)</title>
<g id="a_node19"><a xlink:title="bevy_egui::systems::begin_frame_system">
<polygon fill="#eff1f3" stroke="#b4bec7" points="1255.12,-370 1112.38,-370 1112.38,-334 1255.12,-334 1255.12,-370"/>
<text text-anchor="middle" x="1183.75" y="-346.57" font-family="Helvetica,sans-Serif" font-size="14.00" fill="#15191d">begin_frame_system</text>
</a>
</g>
</g>
<!-- set_marker_node_Set(19)&#45;&gt;node_System(15) -->
<g id="edge12" class="edge">
<title>set_marker_node_Set(19)&#45;&gt;node_System(15)</title>
<g id="a_edge12"><a xlink:title="ProcessInput → begin_frame_system">
<path fill="none" stroke="#eede00" stroke-width="2" d="M992,-352C1025.84,-352 1064.97,-352 1098.95,-352"/>
<polygon fill="#eede00" stroke="#eede00" stroke-width="2" points="1098.89,-355.5 1108.89,-352 1098.89,-348.5 1098.89,-355.5"/>
</a>
</g>
</g>
<!-- node_System(14)&#45;&gt;node_System(7) -->
<g id="edge14" class="edge">
<title>node_System(14)&#45;&gt;node_System(7)</title>
<path fill="none" stroke="#c93526" stroke-width="2" d="M832.79,-376.86C812.74,-371.88 793.2,-362.7 780.62,-346.25 758.27,-317.01 806.01,-301.35 849.38,-293.39"/>
<g id="a_edge14&#45;label"><a xlink:title="process_input_system — ui_focus_system">
<polygon fill="#c6e6ff" stroke="none" points="762.5,-323.75 762.5,-344.25 813,-344.25 813,-323.75 762.5,-323.75"/>
<text text-anchor="start" x="764.5" y="-328.95" font-family="Times,serif" font-size="14.00" fill="#c93526">Window</text>
</a>
</g>
</g>
<!-- set_marker_node_Set(21) -->
<!-- node_System(8) -->
<g id="node20" class="node">
<title>node_System(8)</title>
<g id="a_node20"><a xlink:title="bevy_pbr::prepass::update_mesh_previous_global_transforms">
<polygon fill="lightgrey" stroke="black" points="371.5,-482 124.5,-482 124.5,-446 371.5,-446 371.5,-482"/>
<text text-anchor="middle" x="248" y="-458.95" font-family="Times,serif" font-size="14.00">update_mesh_previous_global_transforms</text>
</a>
</g>
</g>
<!-- node_System(9) -->
<g id="node21" class="node">
<title>node_System(9)</title>
<g id="a_node21"><a xlink:title="bevy_pbr::prepass::update_previous_view_projections">
<polygon fill="lightgrey" stroke="black" points="350.5,-529 145.5,-529 145.5,-493 350.5,-493 350.5,-529"/>
<text text-anchor="middle" x="248" y="-505.95" font-family="Times,serif" font-size="14.00">update_previous_view_projections</text>
</a>
</g>
</g>
<!-- node_System(10) -->
<g id="node22" class="node">
<title>node_System(10)</title>
<g id="a_node22"><a xlink:title="bevy_gilrs::gilrs_system::gilrs_event_system">
<polygon fill="lightgrey" stroke="black" points="308.5,-316 187.5,-316 187.5,-280 308.5,-280 308.5,-316"/>
<text text-anchor="middle" x="248" y="-292.95" font-family="Times,serif" font-size="14.00">gilrs_event_system</text>
</a>
</g>
</g>
<!-- node_System(10)&#45;&gt;set_marker_node_Set(1) -->
<g id="edge7" class="edge">
<title>node_System(10)&#45;&gt;set_marker_node_Set(1)</title>
<g id="a_edge7"><a xlink:title="gilrs_event_system → InputSystem">
<path fill="none" stroke="#ee9e44" stroke-width="2" d="M308.74,-298C362.72,-298 443.91,-298 512.01,-298"/>
<polygon fill="#ee9e44" stroke="#ee9e44" stroke-width="2" points="511.98,-301.5 521.98,-298 511.98,-294.5 511.98,-301.5"/>
</a>
</g>
</g>
<!-- node_System(16) -->
<g id="node23" class="node">
<title>node_System(16)</title>
<g id="a_node23"><a xlink:title="bevy_ecs::schedule::executor::apply_deferred">
<polygon fill="lightgrey" stroke="black" points="296.88,-576 199.12,-576 199.12,-540 296.88,-540 296.88,-576"/>
<text text-anchor="middle" x="248" y="-552.95" font-family="Times,serif" font-size="14.00">apply_deferred</text>
</a>
</g>
</g>
<!-- UNKNOWN SystemTypeSet(fn bevy_input::gamepad::gamepad_event_system()) -->
<g id="node24" class="node">
<title>UNKNOWN SystemTypeSet(fn bevy_input::gamepad::gamepad_event_system())</title>
<polygon fill="lightgrey" stroke="black" points="481,-240 15,-240 15,-204 481,-204 481,-240"/>
<text text-anchor="middle" x="248" y="-216.95" font-family="Times,serif" font-size="14.00">UNKNOWN SystemTypeSet(fn bevy_input::gamepad::gamepad_event_system())</text>
</g>
<!-- UNKNOWN SystemTypeSet(fn bevy_input::gamepad::gamepad_event_system())&#45;&gt;node_System(3) -->
<g id="edge1" class="edge">
<title>UNKNOWN SystemTypeSet(fn bevy_input::gamepad::gamepad_event_system())&#45;&gt;node_System(3)</title>
<g id="a_edge1"><a xlink:title="SystemTypeSet(gamepad_event_system()) → gamepad_connection_system">
<path fill="none" stroke="#eede00" stroke-width="2" d="M401.41,-240.47C443.13,-245.53 487.54,-250.91 526.4,-255.62"/>
<polygon fill="#eede00" stroke="#eede00" stroke-width="2" points="525.73,-259.07 536.08,-256.8 526.58,-252.12 525.73,-259.07"/>
</a>
</g>
</g>
<!-- UNKNOWN SystemTypeSet(fn bevy_input::gamepad::gamepad_event_system())&#45;&gt;node_System(4) -->
<g id="edge2" class="edge">
<title>UNKNOWN SystemTypeSet(fn bevy_input::gamepad::gamepad_event_system())&#45;&gt;node_System(4)</title>
<g id="a_edge2"><a xlink:title="SystemTypeSet(gamepad_event_system()) → gamepad_button_event_system">
<path fill="none" stroke="#881877" stroke-width="2" d="M481.27,-222C494.44,-222 507.36,-222 519.78,-222"/>
<polygon fill="#881877" stroke="#881877" stroke-width="2" points="519.5,-225.5 529.5,-222 519.5,-218.5 519.5,-225.5"/>
</a>
</g>
</g>
<!-- UNKNOWN SystemTypeSet(fn bevy_input::gamepad::gamepad_event_system())&#45;&gt;node_System(5) -->
<g id="edge4" class="edge">
<title>UNKNOWN SystemTypeSet(fn bevy_input::gamepad::gamepad_event_system())&#45;&gt;node_System(5)</title>
<g id="a_edge4"><a xlink:title="SystemTypeSet(gamepad_event_system()) → gamepad_axis_event_system">
<path fill="none" stroke="#aa3a55" stroke-width="2" d="M428.19,-203.52C453.29,-194.38 476.97,-181.37 496,-163 530.83,-129.37 489.79,-91.23 525,-58 526.22,-56.85 527.48,-55.75 528.77,-54.7"/>
<polygon fill="#aa3a55" stroke="#aa3a55" stroke-width="2" points="530.54,-57.73 536.86,-49.23 526.62,-51.93 530.54,-57.73"/>
</a>
</g>
</g>
<!-- UNKNOWN SystemTypeSet(fn bevy_input::gamepad::gamepad_connection_system()) -->
<g id="node25" class="node">
<title>UNKNOWN SystemTypeSet(fn bevy_input::gamepad::gamepad_connection_system())</title>
<polygon fill="lightgrey" stroke="black" points="496,-157 0,-157 0,-121 496,-121 496,-157"/>
<text text-anchor="middle" x="248" y="-133.95" font-family="Times,serif" font-size="14.00">UNKNOWN SystemTypeSet(fn bevy_input::gamepad::gamepad_connection_system())</text>
</g>
<!-- UNKNOWN SystemTypeSet(fn bevy_input::gamepad::gamepad_connection_system())&#45;&gt;node_System(4) -->
<g id="edge3" class="edge">
<title>UNKNOWN SystemTypeSet(fn bevy_input::gamepad::gamepad_connection_system())&#45;&gt;node_System(4)</title>
<g id="a_edge3"><a xlink:title="SystemTypeSet(gamepad_connection_system()) → gamepad_button_event_system">
<path fill="none" stroke="#00b0cc" stroke-width="2" d="M332.89,-157.49C387.57,-169.48 460.48,-185.35 525,-199 527.94,-199.62 530.93,-200.25 533.95,-200.89"/>
<polygon fill="#00b0cc" stroke="#00b0cc" stroke-width="2" points="533,-204.26 543.5,-202.89 534.43,-197.41 533,-204.26"/>
</a>
</g>
</g>
<!-- UNKNOWN SystemTypeSet(fn bevy_input::gamepad::gamepad_connection_system())&#45;&gt;node_System(5) -->
<g id="edge5" class="edge">
<title>UNKNOWN SystemTypeSet(fn bevy_input::gamepad::gamepad_connection_system())&#45;&gt;node_System(5)</title>
<g id="a_edge5"><a xlink:title="SystemTypeSet(gamepad_connection_system()) → gamepad_axis_event_system">
<path fill="none" stroke="#44d488" stroke-width="2" d="M307.34,-120.51C362.97,-103.21 449.25,-77.22 525,-58 528.36,-57.15 531.77,-56.3 535.23,-55.46"/>
<polygon fill="#44d488" stroke="#44d488" stroke-width="2" points="535.99,-58.88 544.91,-53.16 534.37,-52.07 535.99,-58.88"/>
</a>
</g>
</g>
</g>
</svg>
