<?xml version="1.0" encoding="UTF-8" standalone="no"?>
<!DOCTYPE svg PUBLIC "-//W3C//DTD SVG 1.1//EN"
 "http://www.w3.org/Graphics/SVG/1.1/DTD/svg11.dtd">
<!-- Generated by graphviz version 9.0.0 (0)
 -->
<!-- Pages: 1 -->
<svg width="583pt" height="242pt"
 viewBox="0.00 0.00 582.50 242.00" xmlns="http://www.w3.org/2000/svg" xmlns:xlink="http://www.w3.org/1999/xlink">
<g id="graph0" class="graph" transform="scale(1 1) rotate(0) translate(4 238)">
<polygon fill="#0d1117" stroke="none" points="-4,4 -4,-238 578.5,-238 578.5,4 -4,4"/>
<g id="clust1" class="cluster">
<title>clusternode_Set(1)</title>
<g id="a_clust1"><a xlink:title="LoadingScreenUpdateSet">
<path fill="#ffffff" fill-opacity="0.266667" stroke="#ffffff" stroke-width="2" stroke-opacity="0.313725" d="M20,-103C20,-103 450,-103 450,-103 456,-103 462,-109 462,-115 462,-115 462,-178 462,-178 462,-184 456,-190 450,-190 450,-190 20,-190 20,-190 14,-190 8,-184 8,-178 8,-178 8,-115 8,-115 8,-109 14,-103 20,-103"/>
<text text-anchor="middle" x="235" y="-172.7" font-family="Helvetica,sans-Serif" font-size="14.00" fill="#ffffff">LoadingScreenUpdateSet</text>
</a>
</g>
</g>
<g id="clust2" class="cluster">
<title>clusternode_Set(2)</title>
<g id="a_clust2"><a xlink:title="LoadingScreenFadeOutUpdateSet">
<path fill="#ffffff" fill-opacity="0.266667" stroke="#ffffff" stroke-width="2" stroke-opacity="0.313725" d="M301,-8C301,-8 554.5,-8 554.5,-8 560.5,-8 566.5,-14 566.5,-20 566.5,-20 566.5,-83 566.5,-83 566.5,-89 560.5,-95 554.5,-95 554.5,-95 301,-95 301,-95 295,-95 289,-89 289,-83 289,-83 289,-20 289,-20 289,-14 295,-8 301,-8"/>
<text text-anchor="middle" x="427.75" y="-77.7" font-family="Helvetica,sans-Serif" font-size="14.00" fill="#ffffff">LoadingScreenFadeOutUpdateSet</text>
</a>
</g>
</g>
<!-- set_marker_node_Set(1) -->
<!-- set_marker_node_Set(2) -->
<!-- set_marker_node_Set(1)&#45;&gt;set_marker_node_Set(2) -->
<g id="edge1" class="edge">
<title>set_marker_node_Set(1)&#45;&gt;set_marker_node_Set(2)</title>
<g id="a_edge1"><a xlink:title="LoadingScreenUpdateSet → LoadingScreenFadeOutUpdateSet">
<path fill="none" stroke="#eede00" stroke-width="2" d="M133.68,-103C172.4,-96.44 228.42,-86.94 276.16,-78.85"/>
<polygon fill="#eede00" stroke="#eede00" stroke-width="2" points="276.74,-82.3 286.02,-77.17 275.57,-75.4 276.74,-82.3"/>
</a>
</g>
</g>
<!-- node_System(1) -->
<g id="node2" class="node">
<title>node_System(1)</title>
<g id="a_node2"><a xlink:title="froglight_loading::layout::fade_animation::FadeTimer::insert_fade_in_timer">
<polygon fill="#eff1f3" stroke="#b4bec7" points="155,-158 16,-158 16,-122 155,-122 155,-158"/>
<text text-anchor="middle" x="85.5" y="-134.57" font-family="Helvetica,sans-Serif" font-size="14.00" fill="#15191d">insert_fade_in_timer</text>
</a>
</g>
</g>
<!-- node_System(2) -->
<g id="node3" class="node">
<title>node_System(2)</title>
<g id="a_node3"><a xlink:title="froglight_loading::layout::fade_animation::FadeAnimationMarker::fade_in">
<polygon fill="#eff1f3" stroke="#b4bec7" points="251.25,-155 191,-155 191,-119 251.25,-119 251.25,-155"/>
<text text-anchor="middle" x="221.12" y="-131.57" font-family="Helvetica,sans-Serif" font-size="14.00" fill="#15191d">fade_in</text>
</a>
</g>
</g>
<!-- node_System(1)&#45;&gt;node_System(2) -->
<g id="edge2" class="edge">
<title>node_System(1)&#45;&gt;node_System(2)</title>
<g id="a_edge2"><a xlink:title="insert_fade_in_timer → fade_in">
<path fill="none" stroke="#881877" stroke-width="2" d="M155.27,-138.46C162.93,-138.28 170.55,-138.11 177.73,-137.95"/>
<polygon fill="#881877" stroke="#881877" stroke-width="2" points="177.56,-141.46 187.48,-137.73 177.4,-134.46 177.56,-141.46"/>
</a>
</g>
</g>
<!-- node_System(5) -->
<g id="node4" class="node">
<title>node_System(5)</title>
<g id="a_node4"><a xlink:title="froglight_loading::layout::progress_bar::progress::ProgressBarProgress::update_current_progress">
<polygon fill="#eff1f3" stroke="#b4bec7" points="454,-152 287.25,-152 287.25,-116 454,-116 454,-152"/>
<text text-anchor="middle" x="370.62" y="-128.57" font-family="Helvetica,sans-Serif" font-size="14.00" fill="#15191d">update_current_progress</text>
</a>
</g>
</g>
<!-- node_System(2)&#45;&gt;node_System(5) -->
<g id="edge4" class="edge">
<title>node_System(2)&#45;&gt;node_System(5)</title>
<g id="a_edge4"><a xlink:title="SystemTypeSet(fade_in()) → update_current_progress">
<path fill="none" stroke="#aa3a55" stroke-width="2" d="M251.62,-136.4C258.46,-136.26 266.11,-136.11 274.13,-135.94"/>
<polygon fill="#aa3a55" stroke="#aa3a55" stroke-width="2" points="274.04,-139.44 283.97,-135.74 273.9,-132.45 274.04,-139.44"/>
</a>
</g>
</g>
<!-- node_System(4) -->
<g id="node7" class="node">
<title>node_System(4)</title>
<g id="a_node7"><a xlink:title="froglight_loading::layout::fade_animation::FadeAnimationMarker::fade_out">
<polygon fill="#eff1f3" stroke="#b4bec7" points="558.5,-57 490,-57 490,-21 558.5,-21 558.5,-57"/>
<text text-anchor="middle" x="524.25" y="-33.58" font-family="Helvetica,sans-Serif" font-size="14.00" fill="#15191d">fade_out</text>
</a>
</g>
</g>
<!-- node_System(5)&#45;&gt;node_System(4) -->
<g id="edge5" class="edge">
<title>node_System(5)&#45;&gt;node_System(4)</title>
<g id="a_edge5"><a xlink:title="update_current_progress → SystemTypeSet(fade_out())">
<path fill="none" stroke="#44d488" stroke-width="2" d="M425.83,-115.62C438.16,-110.41 450.89,-104.17 462,-97 475.09,-88.55 487.88,-77.1 498.36,-66.6"/>
<polygon fill="#44d488" stroke="#44d488" stroke-width="2" points="500.76,-69.16 505.18,-59.53 495.72,-64.3 500.76,-69.16"/>
</a>
</g>
</g>
<!-- node_System(3) -->
<g id="node6" class="node">
<title>node_System(3)</title>
<g id="a_node6"><a xlink:title="froglight_loading::layout::fade_animation::FadeTimer::insert_fade_out_timer">
<polygon fill="#eff1f3" stroke="#b4bec7" points="444.25,-52 297,-52 297,-16 444.25,-16 444.25,-52"/>
<text text-anchor="middle" x="370.62" y="-28.57" font-family="Helvetica,sans-Serif" font-size="14.00" fill="#15191d">insert_fade_out_timer</text>
</a>
</g>
</g>
<!-- node_System(3)&#45;&gt;node_System(4) -->
<g id="edge3" class="edge">
<title>node_System(3)&#45;&gt;node_System(4)</title>
<g id="a_edge3"><a xlink:title="insert_fade_out_timer → fade_out">
<path fill="none" stroke="#00b0cc" stroke-width="2" d="M444.33,-36.4C455.32,-36.76 466.4,-37.13 476.64,-37.46"/>
<polygon fill="#00b0cc" stroke="#00b0cc" stroke-width="2" points="476.41,-40.96 486.52,-37.79 476.64,-33.96 476.41,-40.96"/>
</a>
</g>
</g>
<!-- node_System(0) -->
<g id="node8" class="node">
<title>node_System(0)</title>
<g id="a_node8"><a xlink:title="bevy_window::system::close_when_requested">
<polygon fill="lightgrey" stroke="black" points="154.62,-234 16.38,-234 16.38,-198 154.62,-198 154.62,-234"/>
<text text-anchor="middle" x="85.5" y="-210.95" font-family="Times,serif" font-size="14.00">close_when_requested</text>
</a>
</g>
</g>
</g>
</svg>
