<?xml version="1.0" encoding="UTF-8" standalone="no"?>
<!DOCTYPE svg PUBLIC "-//W3C//DTD SVG 1.1//EN"
 "http://www.w3.org/Graphics/SVG/1.1/DTD/svg11.dtd">
<!-- Generated by graphviz version 10.0.1 (0)
 -->
<!-- Pages: 1 -->
<svg width="746pt" height="242pt"
 viewBox="0.00 0.00 745.75 242.00" xmlns="http://www.w3.org/2000/svg" xmlns:xlink="http://www.w3.org/1999/xlink">
<g id="graph0" class="graph" transform="scale(1 1) rotate(0) translate(4 238)">
<polygon fill="#0d1117" stroke="none" points="-4,4 -4,-238 741.75,-238 741.75,4 -4,4"/>
<g id="clust1" class="cluster">
<title>clusternode_Set(1)</title>
<g id="a_clust1"><a xlink:title="AssetPreStartupSet">
<path fill="#ffffff" fill-opacity="0.266667" stroke="#ffffff" stroke-width="2" stroke-opacity="0.313725" d="M20,-8C20,-8 321.25,-8 321.25,-8 327.25,-8 333.25,-14 333.25,-20 333.25,-20 333.25,-83 333.25,-83 333.25,-89 327.25,-95 321.25,-95 321.25,-95 20,-95 20,-95 14,-95 8,-89 8,-83 8,-83 8,-20 8,-20 8,-14 14,-8 20,-8"/>
<text text-anchor="middle" x="170.62" y="-77.7" font-family="Helvetica,sans-Serif" font-size="14.00" fill="#ffffff">AssetPreStartupSet</text>
</a>
</g>
</g>
<g id="clust2" class="cluster">
<title>clusternode_Set(4)</title>
<g id="a_clust2"><a xlink:title="InitContexts">
<path fill="#ffffff" fill-opacity="0.266667" stroke="#ffffff" stroke-width="2" stroke-opacity="0.313725" d="M78.88,-103C78.88,-103 717.75,-103 717.75,-103 723.75,-103 729.75,-109 729.75,-115 729.75,-115 729.75,-178 729.75,-178 729.75,-184 723.75,-190 717.75,-190 717.75,-190 78.88,-190 78.88,-190 72.88,-190 66.88,-184 66.88,-178 66.88,-178 66.88,-115 66.88,-115 66.88,-109 72.88,-103 78.88,-103"/>
<text text-anchor="middle" x="398.31" y="-172.7" font-family="Helvetica,sans-Serif" font-size="14.00" fill="#ffffff">InitContexts</text>
</a>
</g>
</g>
<!-- set_marker_node_Set(1) -->
<!-- node_System(1) -->
<g id="node2" class="node">
<title>node_System(1)</title>
<g id="a_node2"><a xlink:title="froglight_assets::settings::load_config_on_startup&lt;froglight_assets::settings::resourcepack_config::ResourcePackSettings&gt;">
<polygon fill="#eff1f3" stroke="#b4bec7" points="325.25,-63 16,-63 16,-27 325.25,-27 325.25,-63"/>
<text text-anchor="middle" x="170.62" y="-39.58" font-family="Helvetica,sans-Serif" font-size="14.00" fill="#15191d">load_config_on_startup&lt;ResourcePackSettings&gt;</text>
</a>
</g>
</g>
<!-- set_marker_node_Set(4) -->
<!-- node_System(2) -->
<g id="node4" class="node">
<title>node_System(2)</title>
<g id="a_node4"><a xlink:title="bevy_egui::setup_new_windows_system">
<polygon fill="#eff1f3" stroke="#b4bec7" points="266.38,-158 74.88,-158 74.88,-122 266.38,-122 266.38,-158"/>
<text text-anchor="middle" x="170.62" y="-134.57" font-family="Helvetica,sans-Serif" font-size="14.00" fill="#15191d">setup_new_windows_system</text>
</a>
</g>
</g>
<!-- node_System(3) -->
<g id="node5" class="node">
<title>node_System(3)</title>
<g id="a_node5"><a xlink:title="bevy_ecs::schedule::executor::apply_deferred">
<polygon fill="#b0d34a" stroke="#d3e69c" points="467.25,-158 361.25,-158 361.25,-122 467.25,-122 467.25,-158"/>
<text text-anchor="middle" x="414.25" y="-134.57" font-family="Helvetica,sans-Serif" font-size="14.00" fill="#edf5d5">apply_deferred</text>
</a>
</g>
</g>
<!-- node_System(2)&#45;&gt;node_System(3) -->
<g id="edge1" class="edge">
<title>node_System(2)&#45;&gt;node_System(3)</title>
<g id="a_edge1"><a xlink:title="setup_new_windows_system → apply_deferred">
<path fill="none" stroke="#eede00" stroke-width="2" d="M266.77,-140C294.1,-140 323.27,-140 348.32,-140"/>
<polygon fill="#eede00" stroke="#eede00" stroke-width="2" points="347.99,-143.5 357.99,-140 347.99,-136.5 347.99,-143.5"/>
</a>
</g>
</g>
<!-- node_System(4) -->
<g id="node6" class="node">
<title>node_System(4)</title>
<g id="a_node6"><a xlink:title="bevy_egui::systems::update_window_contexts_system">
<polygon fill="#eff1f3" stroke="#b4bec7" points="721.75,-158 503.25,-158 503.25,-122 721.75,-122 721.75,-158"/>
<text text-anchor="middle" x="612.5" y="-134.57" font-family="Helvetica,sans-Serif" font-size="14.00" fill="#15191d">update_window_contexts_system</text>
</a>
</g>
</g>
<!-- node_System(3)&#45;&gt;node_System(4) -->
<g id="edge2" class="edge">
<title>node_System(3)&#45;&gt;node_System(4)</title>
<g id="a_edge2"><a xlink:title="apply_deferred → update_window_contexts_system">
<path fill="none" stroke="#881877" stroke-width="2" d="M467.58,-140C474.73,-140 482.28,-140 490.05,-140"/>
<polygon fill="#881877" stroke="#881877" stroke-width="2" points="489.8,-143.5 499.8,-140 489.8,-136.5 489.8,-143.5"/>
</a>
</g>
</g>
<!-- node_System(0) -->
<g id="node7" class="node">
<title>node_System(0)</title>
<g id="a_node7"><a xlink:title="bevy_gilrs::gilrs_system::gilrs_event_startup_system">
<polygon fill="lightgrey" stroke="black" points="252.88,-234 88.38,-234 88.38,-198 252.88,-198 252.88,-234"/>
<text text-anchor="middle" x="170.62" y="-210.95" font-family="Times,serif" font-size="14.00">gilrs_event_startup_system</text>
</a>
</g>
</g>
</g>
</svg>
