<?xml version="1.0" encoding="UTF-8" standalone="no"?>
<!DOCTYPE svg PUBLIC "-//W3C//DTD SVG 1.1//EN"
 "http://www.w3.org/Graphics/SVG/1.1/DTD/svg11.dtd">
<!-- Generated by graphviz version 10.0.1 (0)
 -->
<!-- Pages: 1 -->
<svg width="707pt" height="985pt"
 viewBox="0.00 0.00 707.12 985.00" xmlns="http://www.w3.org/2000/svg" xmlns:xlink="http://www.w3.org/1999/xlink">
<g id="graph0" class="graph" transform="scale(1 1) rotate(0) translate(4 981)">
<polygon fill="#0d1117" stroke="none" points="-4,4 -4,-981 703.12,-981 703.12,4 -4,4"/>
<g id="clust1" class="cluster">
<title>clusternode_Set(2)</title>
<g id="a_clust1"><a xlink:title="AssetUpdateSet">
<path fill="#ffffff" fill-opacity="0.266667" stroke="#ffffff" stroke-width="2" stroke-opacity="0.313725" d="M51.75,-8C51.75,-8 687.12,-8 687.12,-8 693.12,-8 699.12,-14 699.12,-20 699.12,-20 699.12,-170 699.12,-170 699.12,-176 693.12,-182 687.12,-182 687.12,-182 51.75,-182 51.75,-182 45.75,-182 39.75,-176 39.75,-170 39.75,-170 39.75,-20 39.75,-20 39.75,-14 45.75,-8 51.75,-8"/>
<text text-anchor="middle" x="369.44" y="-164.7" font-family="Helvetica,sans-Serif" font-size="14.00" fill="#ffffff">AssetUpdateSet</text>
</a>
</g>
</g>
<g id="clust2" class="cluster">
<title>clusternode_Set(1)</title>
<g id="a_clust2"><a xlink:title="Waiting">
<path fill="#ffffff" fill-opacity="0.266667" stroke="#ffffff" stroke-width="2" stroke-opacity="0.313725" d="M59.75,-16C59.75,-16 186.25,-16 186.25,-16 192.25,-16 198.25,-22 198.25,-28 198.25,-28 198.25,-91 198.25,-91 198.25,-97 192.25,-103 186.25,-103 186.25,-103 59.75,-103 59.75,-103 53.75,-103 47.75,-97 47.75,-91 47.75,-91 47.75,-28 47.75,-28 47.75,-22 53.75,-16 59.75,-16"/>
<text text-anchor="middle" x="123" y="-85.7" font-family="Helvetica,sans-Serif" font-size="14.00" fill="#ffffff">Waiting</text>
</a>
</g>
</g>
<g id="clust3" class="cluster">
<title>clusternode_Set(3)</title>
<g id="a_clust3"><a xlink:title="Loading">
<path fill="#ffffff" fill-opacity="0.266667" stroke="#ffffff" stroke-width="2" stroke-opacity="0.313725" d="M265,-16C265,-16 430.5,-16 430.5,-16 436.5,-16 442.5,-22 442.5,-28 442.5,-28 442.5,-138 442.5,-138 442.5,-144 436.5,-150 430.5,-150 430.5,-150 265,-150 265,-150 259,-150 253,-144 253,-138 253,-138 253,-28 253,-28 253,-22 259,-16 265,-16"/>
<text text-anchor="middle" x="347.75" y="-132.7" font-family="Helvetica,sans-Serif" font-size="14.00" fill="#ffffff">Loading</text>
</a>
</g>
</g>
<g id="clust4" class="cluster">
<title>clusternode_Set(4)</title>
<g id="a_clust4"><a xlink:title="Processing">
<path fill="#ffffff" fill-opacity="0.266667" stroke="#ffffff" stroke-width="2" stroke-opacity="0.313725" d="M479.38,-16C479.38,-16 596.12,-16 596.12,-16 602.12,-16 608.12,-22 608.12,-28 608.12,-28 608.12,-91 608.12,-91 608.12,-97 602.12,-103 596.12,-103 596.12,-103 479.38,-103 479.38,-103 473.38,-103 467.38,-97 467.38,-91 467.38,-91 467.38,-28 467.38,-28 467.38,-22 473.38,-16 479.38,-16"/>
<text text-anchor="middle" x="537.75" y="-85.7" font-family="Helvetica,sans-Serif" font-size="14.00" fill="#ffffff">Processing</text>
</a>
</g>
</g>
<g id="clust5" class="cluster">
<title>clusternode_Set(5)</title>
<g id="a_clust5"><a xlink:title="Ready">
<path fill="#ffffff" fill-opacity="0.266667" stroke="#ffffff" stroke-width="2" stroke-opacity="0.313725" d="M648.12,-16C648.12,-16 679.12,-16 679.12,-16 685.12,-16 691.12,-22 691.12,-28 691.12,-28 691.12,-44 691.12,-44 691.12,-50 685.12,-56 679.12,-56 679.12,-56 648.12,-56 648.12,-56 642.12,-56 636.12,-50 636.12,-44 636.12,-44 636.12,-28 636.12,-28 636.12,-22 642.12,-16 648.12,-16"/>
<text text-anchor="middle" x="663.62" y="-38.7" font-family="Helvetica,sans-Serif" font-size="14.00" fill="#ffffff">Ready</text>
</a>
</g>
</g>
<g id="clust6" class="cluster">
<title>clusternode_Set(7)</title>
<g id="a_clust6"><a xlink:title="InterfaceUpdateSet">
<path fill="#ffffff" fill-opacity="0.266667" stroke="#ffffff" stroke-width="2" stroke-opacity="0.313725" d="M20,-190C20,-190 447.38,-190 447.38,-190 453.38,-190 459.38,-196 459.38,-202 459.38,-202 459.38,-874 459.38,-874 459.38,-880 453.38,-886 447.38,-886 447.38,-886 20,-886 20,-886 14,-886 8,-880 8,-874 8,-874 8,-202 8,-202 8,-196 14,-190 20,-190"/>
<text text-anchor="middle" x="233.69" y="-868.7" font-family="Helvetica,sans-Serif" font-size="14.00" fill="#ffffff">InterfaceUpdateSet</text>
</a>
</g>
</g>
<g id="clust7" class="cluster">
<title>clusternode_Set(10)</title>
<g id="a_clust7"><a xlink:title="DebugUpdateSet">
<path fill="#ffffff" fill-opacity="0.266667" stroke="#ffffff" stroke-width="2" stroke-opacity="0.313725" d="M76,-198C76,-198 171,-198 171,-198 177,-198 183,-204 183,-210 183,-210 183,-226 183,-226 183,-232 177,-238 171,-238 171,-238 76,-238 76,-238 70,-238 64,-232 64,-226 64,-226 64,-210 64,-210 64,-204 70,-198 76,-198"/>
<text text-anchor="middle" x="123.5" y="-220.7" font-family="Helvetica,sans-Serif" font-size="14.00" fill="#ffffff">DebugUpdateSet</text>
</a>
</g>
</g>
<g id="clust8" class="cluster">
<title>clusternode_Set(11)</title>
<g id="a_clust8"><a xlink:title="UiScaleUpdateSet">
<path fill="#ffffff" fill-opacity="0.266667" stroke="#ffffff" stroke-width="2" stroke-opacity="0.313725" d="M52.25,-246C52.25,-246 193.75,-246 193.75,-246 199.75,-246 205.75,-252 205.75,-258 205.75,-258 205.75,-368 205.75,-368 205.75,-374 199.75,-380 193.75,-380 193.75,-380 52.25,-380 52.25,-380 46.25,-380 40.25,-374 40.25,-368 40.25,-368 40.25,-258 40.25,-258 40.25,-252 46.25,-246 52.25,-246"/>
<text text-anchor="middle" x="123" y="-362.7" font-family="Helvetica,sans-Serif" font-size="14.00" fill="#ffffff">UiScaleUpdateSet</text>
</a>
</g>
</g>
<g id="clust9" class="cluster">
<title>clusternode_Set(14)</title>
<g id="a_clust9"><a xlink:title="InspectorUpdateSet">
<path fill="#ffffff" fill-opacity="0.266667" stroke="#ffffff" stroke-width="2" stroke-opacity="0.313725" d="M289.38,-198C289.38,-198 406.12,-198 406.12,-198 412.12,-198 418.12,-204 418.12,-210 418.12,-210 418.12,-273 418.12,-273 418.12,-279 412.12,-285 406.12,-285 406.12,-285 289.38,-285 289.38,-285 283.38,-285 277.38,-279 277.38,-273 277.38,-273 277.38,-210 277.38,-210 277.38,-204 283.38,-198 289.38,-198"/>
<text text-anchor="middle" x="347.75" y="-267.7" font-family="Helvetica,sans-Serif" font-size="14.00" fill="#ffffff">InspectorUpdateSet</text>
</a>
</g>
</g>
<g id="clust10" class="cluster">
<title>clusternode_Set(17)</title>
<g id="a_clust10"><a xlink:title="InterfaceMenuUpdateSet">
<path fill="#ffffff" fill-opacity="0.266667" stroke="#ffffff" stroke-width="2" stroke-opacity="0.313725" d="M28,-388C28,-388 439.38,-388 439.38,-388 445.38,-388 451.38,-394 451.38,-400 451.38,-400 451.38,-834 451.38,-834 451.38,-840 445.38,-846 439.38,-846 439.38,-846 28,-846 28,-846 22,-846 16,-840 16,-834 16,-834 16,-400 16,-400 16,-394 22,-388 28,-388"/>
<text text-anchor="middle" x="233.69" y="-828.7" font-family="Helvetica,sans-Serif" font-size="14.00" fill="#ffffff">InterfaceMenuUpdateSet</text>
</a>
</g>
</g>
<g id="clust11" class="cluster">
<title>clusternode_Set(18)</title>
<g id="a_clust11"><a xlink:title="LoadingScreenUpdateSet">
<path fill="#ffffff" fill-opacity="0.266667" stroke="#ffffff" stroke-width="2" stroke-opacity="0.313725" d="M36,-396C36,-396 431.38,-396 431.38,-396 437.38,-396 443.38,-402 443.38,-408 443.38,-408 443.38,-605 443.38,-605 443.38,-611 437.38,-617 431.38,-617 431.38,-617 36,-617 36,-617 30,-617 24,-611 24,-605 24,-605 24,-408 24,-408 24,-402 30,-396 36,-396"/>
<text text-anchor="middle" x="233.69" y="-599.7" font-family="Helvetica,sans-Serif" font-size="14.00" fill="#ffffff">LoadingScreenUpdateSet</text>
</a>
</g>
</g>
<g id="clust12" class="cluster">
<title>clusternode_Set(23)</title>
<g id="a_clust12"><a xlink:title="Hidden">
<path fill="#ffffff" fill-opacity="0.266667" stroke="#ffffff" stroke-width="2" stroke-opacity="0.313725" d="M44,-404C44,-404 202,-404 202,-404 208,-404 214,-410 214,-416 214,-416 214,-479 214,-479 214,-485 208,-491 202,-491 202,-491 44,-491 44,-491 38,-491 32,-485 32,-479 32,-479 32,-416 32,-416 32,-410 38,-404 44,-404"/>
<text text-anchor="middle" x="123" y="-473.7" font-family="Helvetica,sans-Serif" font-size="14.00" fill="#ffffff">Hidden</text>
</a>
</g>
</g>
<g id="clust13" class="cluster">
<title>clusternode_Set(24)</title>
<g id="a_clust13"><a xlink:title="Shown">
<path fill="#ffffff" fill-opacity="0.266667" stroke="#ffffff" stroke-width="2" stroke-opacity="0.313725" d="M272.12,-404C272.12,-404 423.38,-404 423.38,-404 429.38,-404 435.38,-410 435.38,-416 435.38,-416 435.38,-573 435.38,-573 435.38,-579 429.38,-585 423.38,-585 423.38,-585 272.12,-585 272.12,-585 266.12,-585 260.12,-579 260.12,-573 260.12,-573 260.12,-416 260.12,-416 260.12,-410 266.12,-404 272.12,-404"/>
<text text-anchor="middle" x="347.75" y="-567.7" font-family="Helvetica,sans-Serif" font-size="14.00" fill="#ffffff">Shown</text>
</a>
</g>
</g>
<g id="clust14" class="cluster">
<title>clusternode_Set(19)</title>
<g id="a_clust14"><a xlink:title="MainMenuUpdateSet">
<path fill="#ffffff" fill-opacity="0.266667" stroke="#ffffff" stroke-width="2" stroke-opacity="0.313725" d="M287.75,-625C287.75,-625 407.75,-625 407.75,-625 413.75,-625 419.75,-631 419.75,-637 419.75,-637 419.75,-653 419.75,-653 419.75,-659 413.75,-665 407.75,-665 407.75,-665 287.75,-665 287.75,-665 281.75,-665 275.75,-659 275.75,-653 275.75,-653 275.75,-637 275.75,-637 275.75,-631 281.75,-625 287.75,-625"/>
<text text-anchor="middle" x="347.75" y="-647.7" font-family="Helvetica,sans-Serif" font-size="14.00" fill="#ffffff">MainMenuUpdateSet</text>
</a>
</g>
</g>
<g id="clust15" class="cluster">
<title>clusternode_Set(20)</title>
<g id="a_clust15"><a xlink:title="MultiplayerMenuUpdateSet">
<path fill="#ffffff" fill-opacity="0.266667" stroke="#ffffff" stroke-width="2" stroke-opacity="0.313725" d="M269.75,-673C269.75,-673 425.75,-673 425.75,-673 431.75,-673 437.75,-679 437.75,-685 437.75,-685 437.75,-701 437.75,-701 437.75,-707 431.75,-713 425.75,-713 425.75,-713 269.75,-713 269.75,-713 263.75,-713 257.75,-707 257.75,-701 257.75,-701 257.75,-685 257.75,-685 257.75,-679 263.75,-673 269.75,-673"/>
<text text-anchor="middle" x="347.75" y="-695.7" font-family="Helvetica,sans-Serif" font-size="14.00" fill="#ffffff">MultiplayerMenuUpdateSet</text>
</a>
</g>
</g>
<g id="clust16" class="cluster">
<title>clusternode_Set(21)</title>
<g id="a_clust16"><a xlink:title="SettingsMenuUpdateSet">
<path fill="#ffffff" fill-opacity="0.266667" stroke="#ffffff" stroke-width="2" stroke-opacity="0.313725" d="M278.75,-721C278.75,-721 417.75,-721 417.75,-721 423.75,-721 429.75,-727 429.75,-733 429.75,-733 429.75,-749 429.75,-749 429.75,-755 423.75,-761 417.75,-761 417.75,-761 278.75,-761 278.75,-761 272.75,-761 266.75,-755 266.75,-749 266.75,-749 266.75,-733 266.75,-733 266.75,-727 272.75,-721 278.75,-721"/>
<text text-anchor="middle" x="348.25" y="-743.7" font-family="Helvetica,sans-Serif" font-size="14.00" fill="#ffffff">SettingsMenuUpdateSet</text>
</a>
</g>
</g>
<g id="clust17" class="cluster">
<title>clusternode_Set(22)</title>
<g id="a_clust17"><a xlink:title="MainMenuPanoramaSet">
<path fill="#ffffff" fill-opacity="0.266667" stroke="#ffffff" stroke-width="2" stroke-opacity="0.313725" d="M53.25,-625C53.25,-625 192.75,-625 192.75,-625 198.75,-625 204.75,-631 204.75,-637 204.75,-637 204.75,-794 204.75,-794 204.75,-800 198.75,-806 192.75,-806 192.75,-806 53.25,-806 53.25,-806 47.25,-806 41.25,-800 41.25,-794 41.25,-794 41.25,-637 41.25,-637 41.25,-631 47.25,-625 53.25,-625"/>
<text text-anchor="middle" x="123" y="-788.7" font-family="Helvetica,sans-Serif" font-size="14.00" fill="#ffffff">MainMenuPanoramaSet</text>
</a>
</g>
</g>
<!-- set_marker_node_Set(2) -->
<!-- set_marker_node_Set(1) -->
<!-- set_marker_node_Set(3) -->
<!-- set_marker_node_Set(1)&#45;&gt;set_marker_node_Set(3) -->
<g id="edge1" class="edge">
<title>set_marker_node_Set(1)&#45;&gt;set_marker_node_Set(3)</title>
<g id="a_edge1"><a xlink:title="Waiting → Loading">
<path fill="none" stroke="#eede00" stroke-width="2" d="M198.25,-24C211.69,-24 225.94,-24 240.09,-24"/>
<polygon fill="#eede00" stroke="#eede00" stroke-width="2" points="239.98,-27.5 249.98,-24 239.98,-20.5 239.98,-27.5"/>
</a>
</g>
</g>
<!-- node_System(1) -->
<g id="node3" class="node">
<title>node_System(1)</title>
<g id="a_node3"><a xlink:title="froglight_assets::systemset::resourcepack::ResourcePackState::enter_loading_state">
<polygon fill="#eff1f3" stroke="#b4bec7" points="190.25,-71 55.75,-71 55.75,-35 190.25,-35 190.25,-71"/>
<text text-anchor="middle" x="123" y="-47.58" font-family="Helvetica,sans-Serif" font-size="14.00" fill="#15191d">enter_loading_state</text>
</a>
</g>
</g>
<!-- set_marker_node_Set(4) -->
<!-- set_marker_node_Set(3)&#45;&gt;set_marker_node_Set(4) -->
<g id="edge2" class="edge">
<title>set_marker_node_Set(3)&#45;&gt;set_marker_node_Set(4)</title>
<g id="a_edge2"><a xlink:title="Loading → Processing">
<path fill="none" stroke="#881877" stroke-width="2" d="M442.5,-24C446.46,-24 450.43,-24 454.36,-24"/>
<polygon fill="#881877" stroke="#881877" stroke-width="2" points="454.35,-27.5 464.35,-24 454.35,-20.5 454.35,-27.5"/>
</a>
</g>
</g>
<!-- node_System(2) -->
<g id="node5" class="node">
<title>node_System(2)</title>
<g id="a_node5"><a xlink:title="froglight_assets::asset_manager::tracker::AssetTracker::load_next_pack_in_queue">
<polygon fill="#eff1f3" stroke="#b4bec7" points="434.5,-71 261,-71 261,-35 434.5,-35 434.5,-71"/>
<text text-anchor="middle" x="347.75" y="-47.58" font-family="Helvetica,sans-Serif" font-size="14.00" fill="#15191d">load_next_pack_in_queue</text>
</a>
</g>
</g>
<!-- node_System(3) -->
<g id="node6" class="node">
<title>node_System(3)</title>
<g id="a_node6"><a xlink:title="froglight_assets::asset_manager::textureatlas::inner::AtlasManagerInner::skip_building_atlases">
<polygon fill="#eff1f3" stroke="#b4bec7" points="419.88,-118 275.62,-118 275.62,-82 419.88,-82 419.88,-118"/>
<text text-anchor="middle" x="347.75" y="-94.58" font-family="Helvetica,sans-Serif" font-size="14.00" fill="#15191d">skip_building_atlases</text>
</a>
</g>
</g>
<!-- set_marker_node_Set(5) -->
<!-- set_marker_node_Set(4)&#45;&gt;set_marker_node_Set(5) -->
<g id="edge3" class="edge">
<title>set_marker_node_Set(4)&#45;&gt;set_marker_node_Set(5)</title>
<g id="a_edge3"><a xlink:title="Processing → Ready">
<path fill="none" stroke="#00b0cc" stroke-width="2" d="M608.12,-24C613.3,-24 618.41,-24 623.3,-24"/>
<polygon fill="#00b0cc" stroke="#00b0cc" stroke-width="2" points="623.1,-27.5 633.1,-24 623.1,-20.5 623.1,-27.5"/>
</a>
</g>
</g>
<!-- node_System(15) -->
<g id="node8" class="node">
<title>node_System(15)</title>
<g id="a_node8"><a xlink:title="froglight_assets::systemset::resourcepack::ResourcePackState::enter_ready_state">
<polygon fill="#eff1f3" stroke="#b4bec7" points="600.12,-71 475.38,-71 475.38,-35 600.12,-35 600.12,-71"/>
<text text-anchor="middle" x="537.75" y="-47.58" font-family="Helvetica,sans-Serif" font-size="14.00" fill="#15191d">enter_ready_state</text>
</a>
</g>
</g>
<!-- set_marker_node_Set(7) -->
<!-- set_marker_node_Set(10) -->
<!-- set_marker_node_Set(14) -->
<!-- set_marker_node_Set(10)&#45;&gt;set_marker_node_Set(14) -->
<g id="edge4" class="edge">
<title>set_marker_node_Set(10)&#45;&gt;set_marker_node_Set(14)</title>
<g id="a_edge4"><a xlink:title="DebugUpdateSet → InspectorUpdateSet">
<path fill="none" stroke="#aa3a55" stroke-width="2" d="M183,-206C207.93,-206 237.4,-206 264.42,-206"/>
<polygon fill="#aa3a55" stroke="#aa3a55" stroke-width="2" points="264.35,-209.5 274.35,-206 264.35,-202.5 264.35,-209.5"/>
</a>
</g>
</g>
<!-- set_marker_node_Set(11) -->
<!-- node_System(4) -->
<g id="node13" class="node">
<title>node_System(4)</title>
<g id="a_node13"><a xlink:title="froglight_interface::plugins::uiscale::UiScalePlugin::set_uiscale">
<polygon fill="#eff1f3" stroke="#b4bec7" points="164.75,-301 81.25,-301 81.25,-265 164.75,-265 164.75,-301"/>
<text text-anchor="middle" x="123" y="-277.57" font-family="Helvetica,sans-Serif" font-size="14.00" fill="#15191d">set_uiscale</text>
</a>
</g>
</g>
<!-- node_System(5) -->
<g id="node14" class="node">
<title>node_System(5)</title>
<g id="a_node14"><a xlink:title="froglight_interface::plugins::uiscale::UiScalePlugin::set_uiscale_on_resize">
<polygon fill="#eff1f3" stroke="#b4bec7" points="197.75,-348 48.25,-348 48.25,-312 197.75,-312 197.75,-348"/>
<text text-anchor="middle" x="123" y="-324.57" font-family="Helvetica,sans-Serif" font-size="14.00" fill="#15191d">set_uiscale_on_resize</text>
</a>
</g>
</g>
<!-- node_System(6) -->
<g id="node16" class="node">
<title>node_System(6)</title>
<g id="a_node16"><a xlink:title="froglight_interface::plugins::inspector::enable::InspectorEnable::inspector_keybind">
<polygon fill="#eff1f3" stroke="#b4bec7" points="410.12,-253 285.38,-253 285.38,-217 410.12,-217 410.12,-253"/>
<text text-anchor="middle" x="347.75" y="-229.57" font-family="Helvetica,sans-Serif" font-size="14.00" fill="#15191d">inspector_keybind</text>
</a>
</g>
</g>
<!-- set_marker_node_Set(17) -->
<!-- set_marker_node_Set(18) -->
<!-- set_marker_node_Set(19) -->
<!-- set_marker_node_Set(18)&#45;&gt;set_marker_node_Set(19) -->
<g id="edge5" class="edge">
<title>set_marker_node_Set(18)&#45;&gt;set_marker_node_Set(19)</title>
<g id="a_edge5"><a xlink:title="LoadingScreenUpdateSet → MainMenuUpdateSet">
<path fill="none" stroke="#44d488" stroke-width="2" d="M272.49,-617C281.07,-618.85 289.32,-620.62 297,-622.28"/>
<polygon fill="#44d488" stroke="#44d488" stroke-width="2" points="296.18,-625.68 306.69,-624.37 297.65,-618.84 296.18,-625.68"/>
</a>
</g>
</g>
<!-- set_marker_node_Set(20) -->
<!-- set_marker_node_Set(18)&#45;&gt;set_marker_node_Set(20) -->
<g id="edge6" class="edge">
<title>set_marker_node_Set(18)&#45;&gt;set_marker_node_Set(20)</title>
<g id="a_edge6"><a xlink:title="LoadingScreenUpdateSet → MultiplayerMenuUpdateSet">
<path fill="none" stroke="#0090cc" stroke-width="2" d="M204.92,-617C208.05,-618.91 211.09,-620.91 214,-623 235.23,-638.24 230.03,-654.54 253,-667 253.67,-667.37 254.35,-667.72 255.04,-668.07"/>
<polygon fill="#0090cc" stroke="#0090cc" stroke-width="2" points="253.27,-671.12 263.84,-671.82 256.01,-664.68 253.27,-671.12"/>
</a>
</g>
</g>
<!-- set_marker_node_Set(21) -->
<!-- set_marker_node_Set(18)&#45;&gt;set_marker_node_Set(21) -->
<g id="edge7" class="edge">
<title>set_marker_node_Set(18)&#45;&gt;set_marker_node_Set(21)</title>
<g id="a_edge7"><a xlink:title="LoadingScreenUpdateSet → SettingsMenuUpdateSet">
<path fill="none" stroke="#ee9e44" stroke-width="2" d="M207.29,-617C209.64,-618.89 211.89,-620.89 214,-623 245.43,-654.38 217.89,-687.8 253,-715 253.79,-715.61 254.59,-716.2 255.41,-716.77"/>
<polygon fill="#ee9e44" stroke="#ee9e44" stroke-width="2" points="253.67,-719.8 264.11,-721.61 257.07,-713.69 253.67,-719.8"/>
</a>
</g>
</g>
<!-- set_marker_node_Set(23) -->
<!-- set_marker_node_Set(24) -->
<!-- set_marker_node_Set(23)&#45;&gt;set_marker_node_Set(24) -->
<g id="edge8" class="edge">
<title>set_marker_node_Set(23)&#45;&gt;set_marker_node_Set(24)</title>
<g id="a_edge8"><a xlink:title="Hidden → Shown">
<path fill="none" stroke="#663699" stroke-width="2" d="M214,-412C224.91,-412 236.11,-412 247.16,-412"/>
<polygon fill="#663699" stroke="#663699" stroke-width="2" points="247.1,-415.5 257.1,-412 247.1,-408.5 247.1,-415.5"/>
</a>
</g>
</g>
<!-- node_System(8) -->
<g id="node20" class="node">
<title>node_System(8)</title>
<g id="a_node20"><a xlink:title="froglight_interface::menus::loadingscreen::LoadingScreenRootNode::listen_for_resourcepacks">
<polygon fill="#eff1f3" stroke="#b4bec7" points="206,-459 40,-459 40,-423 206,-423 206,-459"/>
<text text-anchor="middle" x="123" y="-435.57" font-family="Helvetica,sans-Serif" font-size="14.00" fill="#15191d">listen_for_resourcepacks</text>
</a>
</g>
</g>
<!-- node_System(9) -->
<g id="node22" class="node">
<title>node_System(9)</title>
<g id="a_node22"><a xlink:title="froglight_interface::menus::loadingscreen::bar::ProgressBar::listen_for_finish">
<polygon fill="#eff1f3" stroke="#b4bec7" points="402.62,-459 292.88,-459 292.88,-423 402.62,-423 402.62,-459"/>
<text text-anchor="middle" x="347.75" y="-435.57" font-family="Helvetica,sans-Serif" font-size="14.00" fill="#15191d">listen_for_finish</text>
</a>
</g>
</g>
<!-- node_System(10) -->
<g id="node23" class="node">
<title>node_System(10)</title>
<g id="a_node23"><a xlink:title="froglight_interface::menus::loadingscreen::bar::ProgressBar::update_visual_progress">
<polygon fill="#eff1f3" stroke="#b4bec7" points="427.38,-506 268.12,-506 268.12,-470 427.38,-470 427.38,-506"/>
<text text-anchor="middle" x="347.75" y="-482.57" font-family="Helvetica,sans-Serif" font-size="14.00" fill="#15191d">update_visual_progress</text>
</a>
</g>
</g>
<!-- node_System(11) -->
<g id="node24" class="node">
<title>node_System(11)</title>
<g id="a_node24"><a xlink:title="froglight_interface::menus::loadingscreen::bar::ProgressBar::hide_when_finished">
<polygon fill="#eff1f3" stroke="#b4bec7" points="415.38,-553 280.12,-553 280.12,-517 415.38,-517 415.38,-553"/>
<text text-anchor="middle" x="347.75" y="-529.58" font-family="Helvetica,sans-Serif" font-size="14.00" fill="#15191d">hide_when_finished</text>
</a>
</g>
</g>
<!-- set_marker_node_Set(22) -->
<!-- set_marker_node_Set(22)&#45;&gt;set_marker_node_Set(19) -->
<g id="edge9" class="edge">
<title>set_marker_node_Set(22)&#45;&gt;set_marker_node_Set(19)</title>
<g id="a_edge9"><a xlink:title="MainMenuPanoramaSet → MainMenuUpdateSet">
<path fill="none" stroke="#3363bb" stroke-width="2" d="M204.75,-633C223.64,-633 243.82,-633 262.85,-633"/>
<polygon fill="#3363bb" stroke="#3363bb" stroke-width="2" points="262.73,-636.5 272.73,-633 262.73,-629.5 262.73,-636.5"/>
</a>
</g>
</g>
<!-- set_marker_node_Set(22)&#45;&gt;set_marker_node_Set(20) -->
<g id="edge10" class="edge">
<title>set_marker_node_Set(22)&#45;&gt;set_marker_node_Set(20)</title>
<g id="a_edge10"><a xlink:title="MainMenuPanoramaSet → MultiplayerMenuUpdateSet">
<path fill="none" stroke="#22c2bb" stroke-width="2" d="M204.75,-636.15C207.9,-636.98 211,-637.92 214,-639 234.08,-646.21 233.23,-658.98 253,-667 255.01,-667.82 257.07,-668.59 259.16,-669.31"/>
<polygon fill="#22c2bb" stroke="#22c2bb" stroke-width="2" points="257.92,-672.59 268.5,-672.13 259.94,-665.89 257.92,-672.59"/>
</a>
</g>
</g>
<!-- set_marker_node_Set(22)&#45;&gt;set_marker_node_Set(21) -->
<g id="edge11" class="edge">
<title>set_marker_node_Set(22)&#45;&gt;set_marker_node_Set(21)</title>
<g id="a_edge11"><a xlink:title="MainMenuPanoramaSet → SettingsMenuUpdateSet">
<path fill="none" stroke="#99d955" stroke-width="2" d="M204.75,-634.06C207.97,-635.44 211.07,-637.08 214,-639 245.72,-659.86 222.15,-692.86 253,-715 253.8,-715.57 254.61,-716.12 255.43,-716.66"/>
<polygon fill="#99d955" stroke="#99d955" stroke-width="2" points="253.59,-719.65 264.07,-721.2 256.85,-713.45 253.59,-719.65"/>
</a>
</g>
</g>
<!-- node_System(12) -->
<g id="node29" class="node">
<title>node_System(12)</title>
<g id="a_node29"><a xlink:title="froglight_interface::menus::panorama::camera::MainMenuPanoramaCamera::panorama_camera">
<polygon fill="#eff1f3" stroke="#b4bec7" points="188.38,-680 57.62,-680 57.62,-644 188.38,-644 188.38,-680"/>
<text text-anchor="middle" x="123" y="-656.58" font-family="Helvetica,sans-Serif" font-size="14.00" fill="#15191d">panorama_camera</text>
</a>
</g>
</g>
<!-- node_System(13) -->
<g id="node30" class="node">
<title>node_System(13)</title>
<g id="a_node30"><a xlink:title="froglight_interface::menus::panorama::MainMenuBackground::panorama_rotation">
<polygon fill="#eff1f3" stroke="#b4bec7" points="188,-727 58,-727 58,-691 188,-691 188,-727"/>
<text text-anchor="middle" x="123" y="-703.58" font-family="Helvetica,sans-Serif" font-size="14.00" fill="#15191d">panorama_rotation</text>
</a>
</g>
</g>
<!-- node_System(14) -->
<g id="node31" class="node">
<title>node_System(14)</title>
<g id="a_node31"><a xlink:title="froglight_interface::menus::panorama::MainMenuBackground::panorama_visibility">
<polygon fill="#eff1f3" stroke="#b4bec7" points="188.75,-774 57.25,-774 57.25,-738 188.75,-738 188.75,-774"/>
<text text-anchor="middle" x="123" y="-750.58" font-family="Helvetica,sans-Serif" font-size="14.00" fill="#15191d">panorama_visibility</text>
</a>
</g>
</g>
<!-- node_System(0) -->
<g id="node32" class="node">
<title>node_System(0)</title>
<g id="a_node32"><a xlink:title="bevy_window::system::close_when_requested">
<polygon fill="lightgrey" stroke="black" points="192.12,-930 53.88,-930 53.88,-894 192.12,-894 192.12,-930"/>
<text text-anchor="middle" x="123" y="-906.95" font-family="Times,serif" font-size="14.00">close_when_requested</text>
</a>
</g>
</g>
<!-- node_System(7) -->
<g id="node33" class="node">
<title>node_System(7)</title>
<g id="a_node33"><a xlink:title="bevy_inspector_egui::quick::world_inspector_ui">
<polygon fill="lightgrey" stroke="black" points="183.5,-977 62.5,-977 62.5,-941 183.5,-941 183.5,-977"/>
<text text-anchor="middle" x="123" y="-953.95" font-family="Times,serif" font-size="14.00">world_inspector_ui</text>
</a>
</g>
</g>
</g>
</svg>
