<?xml version="1.0" encoding="UTF-8" standalone="no"?>
<!DOCTYPE svg PUBLIC "-//W3C//DTD SVG 1.1//EN"
 "http://www.w3.org/Graphics/SVG/1.1/DTD/svg11.dtd">
<!-- Generated by graphviz version 9.0.0 (0)
 -->
<!-- Pages: 1 -->
<svg width="435pt" height="242pt"
 viewBox="0.00 0.00 434.75 242.00" xmlns="http://www.w3.org/2000/svg" xmlns:xlink="http://www.w3.org/1999/xlink">
<g id="graph0" class="graph" transform="scale(1 1) rotate(0) translate(4 238)">
<polygon fill="#0d1117" stroke="none" points="-4,4 -4,-238 430.75,-238 430.75,4 -4,4"/>
<g id="clust1" class="cluster">
<title>clusternode_Set(1)</title>
<g id="a_clust1"><a xlink:title="ResourcePackLoaderStartupSet">
<path fill="#ffffff" fill-opacity="0.266667" stroke="#ffffff" stroke-width="2" stroke-opacity="0.313725" d="M12,-8C12,-8 197.25,-8 197.25,-8 203.25,-8 209.25,-14 209.25,-20 209.25,-20 209.25,-83 209.25,-83 209.25,-89 203.25,-95 197.25,-95 197.25,-95 12,-95 12,-95 6,-95 0,-89 0,-83 0,-83 0,-20 0,-20 0,-14 6,-8 12,-8"/>
<text text-anchor="middle" x="104.62" y="-77.7" font-family="Helvetica,sans-Serif" font-size="14.00" fill="#ffffff">ResourcePackLoaderStartupSet</text>
</a>
</g>
</g>
<g id="clust2" class="cluster">
<title>clusternode_Set(3)</title>
<g id="a_clust2"><a xlink:title="LoadingScreenStartupSet">
<path fill="#ffffff" fill-opacity="0.266667" stroke="#ffffff" stroke-width="2" stroke-opacity="0.313725" d="M36.38,-103C36.38,-103 406.75,-103 406.75,-103 412.75,-103 418.75,-109 418.75,-115 418.75,-115 418.75,-178 418.75,-178 418.75,-184 412.75,-190 406.75,-190 406.75,-190 36.38,-190 36.38,-190 30.38,-190 24.38,-184 24.38,-178 24.38,-178 24.38,-115 24.38,-115 24.38,-109 30.38,-103 36.38,-103"/>
<text text-anchor="middle" x="221.56" y="-172.7" font-family="Helvetica,sans-Serif" font-size="14.00" fill="#ffffff">LoadingScreenStartupSet</text>
</a>
</g>
</g>
<!-- set_marker_node_Set(1) -->
<!-- node_System(1) -->
<g id="node2" class="node">
<title>node_System(1)</title>
<g id="a_node2"><a xlink:title="froglight_client::plugins::pack_loader::ResourcePackLoaderPlugin::queue_resource_packs">
<polygon fill="#eff1f3" stroke="#b4bec7" points="182.25,-52 26,-52 26,-16 182.25,-16 182.25,-52"/>
<text text-anchor="middle" x="104.12" y="-28.57" font-family="Helvetica,sans-Serif" font-size="14.00" fill="#15191d">queue_resource_packs</text>
</a>
</g>
</g>
<!-- set_marker_node_Set(3) -->
<!-- node_System(2) -->
<g id="node4" class="node">
<title>node_System(2)</title>
<g id="a_node4"><a xlink:title="froglight_loading::layout::LoadingScreenRoot::build_loading_screen">
<polygon fill="#eff1f3" stroke="#b4bec7" points="175.88,-147 32.38,-147 32.38,-111 175.88,-111 175.88,-147"/>
<text text-anchor="middle" x="104.12" y="-123.58" font-family="Helvetica,sans-Serif" font-size="14.00" fill="#15191d">build_loading_screen</text>
</a>
</g>
</g>
<!-- node_System(3) -->
<g id="node5" class="node">
<title>node_System(3)</title>
<g id="a_node5"><a xlink:title="froglight_loading::layout::LoadingScreenRoot::create_camera2d_if_none">
<polygon fill="#eff1f3" stroke="#b4bec7" points="410.75,-147 237.25,-147 237.25,-111 410.75,-111 410.75,-147"/>
<text text-anchor="middle" x="324" y="-123.58" font-family="Helvetica,sans-Serif" font-size="14.00" fill="#15191d">create_camera2d_if_none</text>
</a>
</g>
</g>
<!-- node_System(2)&#45;&gt;node_System(3) -->
<g id="edge1" class="edge">
<title>node_System(2)&#45;&gt;node_System(3)</title>
<g id="a_edge1"><a xlink:title="build_loading_screen → create_camera2d_if_none">
<path fill="none" stroke="#eede00" stroke-width="2" d="M176.16,-129C191.45,-129 207.87,-129 224,-129"/>
<polygon fill="#eede00" stroke="#eede00" stroke-width="2" points="223.82,-132.5 233.82,-129 223.82,-125.5 223.82,-132.5"/>
</a>
</g>
</g>
<!-- node_System(0) -->
<g id="node6" class="node">
<title>node_System(0)</title>
<g id="a_node6"><a xlink:title="bevy_diagnostic::system_information_diagnostics_plugin::internal::log_system_info">
<polygon fill="lightgrey" stroke="black" points="157.5,-234 50.75,-234 50.75,-198 157.5,-198 157.5,-234"/>
<text text-anchor="middle" x="104.12" y="-210.95" font-family="Times,serif" font-size="14.00">log_system_info</text>
</a>
</g>
</g>
</g>
</svg>
