<?xml version="1.0" encoding="UTF-8" standalone="no"?>
<!DOCTYPE svg PUBLIC "-//W3C//DTD SVG 1.1//EN"
 "http://www.w3.org/Graphics/SVG/1.1/DTD/svg11.dtd">
<!-- Generated by graphviz version 9.0.0 (0)
 -->
<!-- Pages: 1 -->
<svg width="986pt" height="753pt"
 viewBox="0.00 0.00 985.75 753.00" xmlns="http://www.w3.org/2000/svg" xmlns:xlink="http://www.w3.org/1999/xlink">
<g id="graph0" class="graph" transform="scale(1 1) rotate(0) translate(4 749)">
<polygon fill="#0d1117" stroke="none" points="-4,4 -4,-749 981.75,-749 981.75,4 -4,4"/>
<g id="clust1" class="cluster">
<title>clusternode_Set(1)</title>
<g id="a_clust1"><a xlink:title="LoadingScreenUpdateSet">
<path fill="#ffffff" fill-opacity="0.266667" stroke="#ffffff" stroke-width="2" stroke-opacity="0.313725" d="M21.25,-8C21.25,-8 957.75,-8 957.75,-8 963.75,-8 969.75,-14 969.75,-20 969.75,-20 969.75,-215 969.75,-215 969.75,-221 963.75,-227 957.75,-227 957.75,-227 21.25,-227 21.25,-227 15.25,-227 9.25,-221 9.25,-215 9.25,-215 9.25,-20 9.25,-20 9.25,-14 15.25,-8 21.25,-8"/>
<text text-anchor="middle" x="489.5" y="-209.7" font-family="Helvetica,sans-Serif" font-size="14.00" fill="#ffffff">LoadingScreenUpdateSet</text>
</a>
</g>
</g>
<g id="clust2" class="cluster">
<title>clusternode_Set(13)</title>
<g id="a_clust2"><a xlink:title="LoadingScreenToggleSet">
<path fill="#ffffff" fill-opacity="0.266667" stroke="#ffffff" stroke-width="2" stroke-opacity="0.313725" d="M221.25,-16C221.25,-16 949.75,-16 949.75,-16 955.75,-16 961.75,-22 961.75,-28 961.75,-28 961.75,-183 961.75,-183 961.75,-189 955.75,-195 949.75,-195 949.75,-195 221.25,-195 221.25,-195 215.25,-195 209.25,-189 209.25,-183 209.25,-183 209.25,-28 209.25,-28 209.25,-22 215.25,-16 221.25,-16"/>
<text text-anchor="middle" x="585.5" y="-177.7" font-family="Helvetica,sans-Serif" font-size="14.00" fill="#ffffff">LoadingScreenToggleSet</text>
</a>
</g>
</g>
<g id="clust3" class="cluster">
<title>clusternode_Set(14)</title>
<g id="a_clust3"><a xlink:title="LoadingScreenFadeInSet">
<path fill="#ffffff" fill-opacity="0.266667" stroke="#ffffff" stroke-width="2" stroke-opacity="0.313725" d="M229.25,-32C229.25,-32 527,-32 527,-32 533,-32 539,-38 539,-44 539,-44 539,-107 539,-107 539,-113 533,-119 527,-119 527,-119 229.25,-119 229.25,-119 223.25,-119 217.25,-113 217.25,-107 217.25,-107 217.25,-44 217.25,-44 217.25,-38 223.25,-32 229.25,-32"/>
<text text-anchor="middle" x="378.12" y="-101.7" font-family="Helvetica,sans-Serif" font-size="14.00" fill="#ffffff">LoadingScreenFadeInSet</text>
</a>
</g>
</g>
<g id="clust4" class="cluster">
<title>clusternode_Set(15)</title>
<g id="a_clust4"><a xlink:title="LoadingScreenFadeOutSet">
<path fill="#ffffff" fill-opacity="0.266667" stroke="#ffffff" stroke-width="2" stroke-opacity="0.313725" d="M624.25,-32C624.25,-32 908.88,-32 908.88,-32 914.88,-32 920.88,-38 920.88,-44 920.88,-44 920.88,-107 920.88,-107 920.88,-113 914.88,-119 908.88,-119 908.88,-119 624.25,-119 624.25,-119 618.25,-119 612.25,-113 612.25,-107 612.25,-107 612.25,-44 612.25,-44 612.25,-38 618.25,-32 624.25,-32"/>
<text text-anchor="middle" x="766.56" y="-101.7" font-family="Helvetica,sans-Serif" font-size="14.00" fill="#ffffff">LoadingScreenFadeOutSet</text>
</a>
</g>
</g>
<g id="clust5" class="cluster">
<title>clusternode_Set(2)</title>
<g id="a_clust5"><a xlink:title="ResourcePackUpdateSet">
<path fill="#ffffff" fill-opacity="0.266667" stroke="#ffffff" stroke-width="2" stroke-opacity="0.313725" d="M20,-235C20,-235 717.88,-235 717.88,-235 723.88,-235 729.88,-241 729.88,-247 729.88,-247 729.88,-358 729.88,-358 729.88,-364 723.88,-370 717.88,-370 717.88,-370 20,-370 20,-370 14,-370 8,-364 8,-358 8,-358 8,-247 8,-247 8,-241 14,-235 20,-235"/>
<text text-anchor="middle" x="368.94" y="-352.7" font-family="Helvetica,sans-Serif" font-size="14.00" fill="#ffffff">ResourcePackUpdateSet</text>
</a>
</g>
</g>
<g id="clust6" class="cluster">
<title>clusternode_Set(7)</title>
<g id="a_clust6"><a xlink:title="Waiting">
<path fill="#ffffff" fill-opacity="0.266667" stroke="#ffffff" stroke-width="2" stroke-opacity="0.313725" d="M28,-251C28,-251 154.5,-251 154.5,-251 160.5,-251 166.5,-257 166.5,-263 166.5,-263 166.5,-326 166.5,-326 166.5,-332 160.5,-338 154.5,-338 154.5,-338 28,-338 28,-338 22,-338 16,-332 16,-326 16,-326 16,-263 16,-263 16,-257 22,-251 28,-251"/>
<text text-anchor="middle" x="91.25" y="-320.7" font-family="Helvetica,sans-Serif" font-size="14.00" fill="#ffffff">Waiting</text>
</a>
</g>
</g>
<g id="clust7" class="cluster">
<title>clusternode_Set(8)</title>
<g id="a_clust7"><a xlink:title="Loading">
<path fill="#ffffff" fill-opacity="0.266667" stroke="#ffffff" stroke-width="2" stroke-opacity="0.313725" d="M212,-251C212,-251 377.5,-251 377.5,-251 383.5,-251 389.5,-257 389.5,-263 389.5,-263 389.5,-326 389.5,-326 389.5,-332 383.5,-338 377.5,-338 377.5,-338 212,-338 212,-338 206,-338 200,-332 200,-326 200,-326 200,-263 200,-263 200,-257 206,-251 212,-251"/>
<text text-anchor="middle" x="294.75" y="-320.7" font-family="Helvetica,sans-Serif" font-size="14.00" fill="#ffffff">Loading</text>
</a>
</g>
</g>
<g id="clust8" class="cluster">
<title>clusternode_Set(9)</title>
<g id="a_clust8"><a xlink:title="Processing">
<path fill="#ffffff" fill-opacity="0.266667" stroke="#ffffff" stroke-width="2" stroke-opacity="0.313725" d="M442.5,-251C442.5,-251 559.25,-251 559.25,-251 565.25,-251 571.25,-257 571.25,-263 571.25,-263 571.25,-326 571.25,-326 571.25,-332 565.25,-338 559.25,-338 559.25,-338 442.5,-338 442.5,-338 436.5,-338 430.5,-332 430.5,-326 430.5,-326 430.5,-263 430.5,-263 430.5,-257 436.5,-251 442.5,-251"/>
<text text-anchor="middle" x="500.88" y="-320.7" font-family="Helvetica,sans-Serif" font-size="14.00" fill="#ffffff">Processing</text>
</a>
</g>
</g>
<g id="clust9" class="cluster">
<title>clusternode_Set(10)</title>
<g id="a_clust9"><a xlink:title="Ready">
<path fill="#ffffff" fill-opacity="0.266667" stroke="#ffffff" stroke-width="2" stroke-opacity="0.313725" d="M678.88,-298C678.88,-298 709.88,-298 709.88,-298 715.88,-298 721.88,-304 721.88,-310 721.88,-310 721.88,-326 721.88,-326 721.88,-332 715.88,-338 709.88,-338 709.88,-338 678.88,-338 678.88,-338 672.88,-338 666.88,-332 666.88,-326 666.88,-326 666.88,-310 666.88,-310 666.88,-304 672.88,-298 678.88,-298"/>
<text text-anchor="middle" x="694.38" y="-320.7" font-family="Helvetica,sans-Serif" font-size="14.00" fill="#ffffff">Ready</text>
</a>
</g>
</g>
<g id="clust10" class="cluster">
<title>clusternode_Set(5)</title>
<g id="a_clust10"><a xlink:title="InterfaceUpdateSet">
<path fill="#ffffff" fill-opacity="0.266667" stroke="#ffffff" stroke-width="2" stroke-opacity="0.313725" d="M25.75,-378C25.75,-378 156.75,-378 156.75,-378 162.75,-378 168.75,-384 168.75,-390 168.75,-390 168.75,-453 168.75,-453 168.75,-459 162.75,-465 156.75,-465 156.75,-465 25.75,-465 25.75,-465 19.75,-465 13.75,-459 13.75,-453 13.75,-453 13.75,-390 13.75,-390 13.75,-384 19.75,-378 25.75,-378"/>
<text text-anchor="middle" x="91.25" y="-447.7" font-family="Helvetica,sans-Serif" font-size="14.00" fill="#ffffff">InterfaceUpdateSet</text>
</a>
</g>
</g>
<g id="clust11" class="cluster">
<title>clusternode_Set(23)</title>
<g id="a_clust11"><a xlink:title="DebugUpdateSet">
<path fill="#ffffff" fill-opacity="0.266667" stroke="#ffffff" stroke-width="2" stroke-opacity="0.313725" d="M37.75,-473C37.75,-473 144.75,-473 144.75,-473 150.75,-473 156.75,-479 156.75,-485 156.75,-485 156.75,-548 156.75,-548 156.75,-554 150.75,-560 144.75,-560 144.75,-560 37.75,-560 37.75,-560 31.75,-560 25.75,-554 25.75,-548 25.75,-548 25.75,-485 25.75,-485 25.75,-479 31.75,-473 37.75,-473"/>
<text text-anchor="middle" x="91.25" y="-542.7" font-family="Helvetica,sans-Serif" font-size="14.00" fill="#ffffff">DebugUpdateSet</text>
</a>
</g>
</g>
<!-- set_marker_node_Set(1) -->
<!-- set_marker_node_Set(13) -->
<!-- set_marker_node_Set(14) -->
<!-- set_marker_node_Set(15) -->
<!-- set_marker_node_Set(14)&#45;&gt;set_marker_node_Set(15) -->
<g id="edge4" class="edge">
<title>set_marker_node_Set(14)&#45;&gt;set_marker_node_Set(15)</title>
<g id="a_edge4"><a xlink:title="LoadingScreenFadeInSet → LoadingScreenFadeOutSet">
<path fill="none" stroke="#aa3a55" stroke-width="2" d="M539,-87C560.23,-87 580.75,-87 599.5,-87"/>
<polygon fill="#aa3a55" stroke="#aa3a55" stroke-width="2" points="599.23,-90.5 609.23,-87 599.23,-83.5 599.23,-90.5"/>
</a>
</g>
</g>
<!-- node_System(12) -->
<g id="node10" class="node">
<title>node_System(12)</title>
<g id="a_node10"><a xlink:title="froglight_loading::layout::progress_bar::progress::ProgressBarProgress::update_current_progress">
<polygon fill="#eff1f3" stroke="#b4bec7" points="584.25,-163 417.5,-163 417.5,-127 584.25,-127 584.25,-163"/>
<text text-anchor="middle" x="500.88" y="-139.57" font-family="Helvetica,sans-Serif" font-size="14.00" fill="#15191d">update_current_progress</text>
</a>
</g>
</g>
<!-- set_marker_node_Set(14)&#45;&gt;node_System(12) -->
<g id="edge9" class="edge">
<title>set_marker_node_Set(14)&#45;&gt;node_System(12)</title>
<g id="a_edge9"><a xlink:title="LoadingScreenFadeInSet → update_current_progress">
<path fill="none" stroke="#3363bb" stroke-width="2" d="M408.36,-119C413.24,-120.38 418.09,-121.76 422.85,-123.12"/>
<polygon fill="#3363bb" stroke="#3363bb" stroke-width="2" points="421.55,-126.38 432.13,-125.75 423.46,-119.65 421.55,-126.38"/>
</a>
</g>
</g>
<!-- node_System(8) -->
<g id="node4" class="node">
<title>node_System(8)</title>
<g id="a_node4"><a xlink:title="froglight_loading::layout::fade_animation::FadeTimer::insert_fade_in_timer">
<polygon fill="#eff1f3" stroke="#b4bec7" points="364.25,-76 225.25,-76 225.25,-40 364.25,-40 364.25,-76"/>
<text text-anchor="middle" x="294.75" y="-52.58" font-family="Helvetica,sans-Serif" font-size="14.00" fill="#15191d">insert_fade_in_timer</text>
</a>
</g>
</g>
<!-- node_System(9) -->
<g id="node5" class="node">
<title>node_System(9)</title>
<g id="a_node5"><a xlink:title="froglight_loading::layout::fade_animation::FadeAnimationMarker::fade_in">
<polygon fill="#eff1f3" stroke="#b4bec7" points="531,-76 470.75,-76 470.75,-40 531,-40 531,-76"/>
<text text-anchor="middle" x="500.88" y="-52.58" font-family="Helvetica,sans-Serif" font-size="14.00" fill="#15191d">fade_in</text>
</a>
</g>
</g>
<!-- node_System(8)&#45;&gt;node_System(9) -->
<g id="edge7" class="edge">
<title>node_System(8)&#45;&gt;node_System(9)</title>
<g id="a_edge7"><a xlink:title="insert_fade_in_timer → fade_in">
<path fill="none" stroke="#ee9e44" stroke-width="2" d="M364.57,-58C395.37,-58 430.69,-58 457.52,-58"/>
<polygon fill="#ee9e44" stroke="#ee9e44" stroke-width="2" points="457.31,-61.5 467.31,-58 457.31,-54.5 457.31,-61.5"/>
</a>
</g>
</g>
<!-- node_System(7) -->
<g id="node9" class="node">
<title>node_System(7)</title>
<g id="a_node9"><a xlink:title="froglight_loading::systemsets::LoadingScreenEnableSystems::disable_fade_systems">
<polygon fill="#eff1f3" stroke="#b4bec7" points="953.75,-163 803.5,-163 803.5,-127 953.75,-127 953.75,-163"/>
<text text-anchor="middle" x="878.62" y="-139.57" font-family="Helvetica,sans-Serif" font-size="14.00" fill="#15191d">disable_fade_systems</text>
</a>
</g>
</g>
<!-- set_marker_node_Set(15)&#45;&gt;node_System(7) -->
<g id="edge6" class="edge">
<title>set_marker_node_Set(15)&#45;&gt;node_System(7)</title>
<g id="a_edge6"><a xlink:title="LoadingScreenFadeOutSet → disable_fade_systems">
<path fill="none" stroke="#0090cc" stroke-width="2" d="M795.69,-119C799.71,-120.27 803.7,-121.54 807.64,-122.79"/>
<polygon fill="#0090cc" stroke="#0090cc" stroke-width="2" points="806.35,-126.05 816.94,-125.74 808.47,-119.38 806.35,-126.05"/>
</a>
</g>
</g>
<!-- node_System(10) -->
<g id="node7" class="node">
<title>node_System(10)</title>
<g id="a_node7"><a xlink:title="froglight_loading::layout::fade_animation::FadeTimer::insert_fade_out_timer">
<polygon fill="#eff1f3" stroke="#b4bec7" points="767.5,-76 620.25,-76 620.25,-40 767.5,-40 767.5,-76"/>
<text text-anchor="middle" x="693.88" y="-52.58" font-family="Helvetica,sans-Serif" font-size="14.00" fill="#15191d">insert_fade_out_timer</text>
</a>
</g>
</g>
<!-- node_System(11) -->
<g id="node8" class="node">
<title>node_System(11)</title>
<g id="a_node8"><a xlink:title="froglight_loading::layout::fade_animation::FadeAnimationMarker::fade_out">
<polygon fill="#eff1f3" stroke="#b4bec7" points="912.88,-76 844.38,-76 844.38,-40 912.88,-40 912.88,-76"/>
<text text-anchor="middle" x="878.62" y="-52.58" font-family="Helvetica,sans-Serif" font-size="14.00" fill="#15191d">fade_out</text>
</a>
</g>
</g>
<!-- node_System(10)&#45;&gt;node_System(11) -->
<g id="edge8" class="edge">
<title>node_System(10)&#45;&gt;node_System(11)</title>
<g id="a_edge8"><a xlink:title="insert_fade_out_timer → fade_out">
<path fill="none" stroke="#663699" stroke-width="2" d="M767.89,-58C789.27,-58 812.06,-58 831.29,-58"/>
<polygon fill="#663699" stroke="#663699" stroke-width="2" points="831.26,-61.5 841.26,-58 831.26,-54.5 831.26,-61.5"/>
</a>
</g>
</g>
<!-- node_System(12)&#45;&gt;set_marker_node_Set(15) -->
<g id="edge10" class="edge">
<title>node_System(12)&#45;&gt;set_marker_node_Set(15)</title>
<g id="a_edge10"><a xlink:title="update_current_progress → LoadingScreenFadeOutSet">
<path fill="none" stroke="#22c2bb" stroke-width="2" d="M565.77,-126.52C572.02,-124.67 578.26,-122.81 584.25,-121 589.36,-119.46 594.59,-117.86 599.88,-116.24"/>
<polygon fill="#22c2bb" stroke="#22c2bb" stroke-width="2" points="600.83,-119.61 609.36,-113.32 598.77,-112.92 600.83,-119.61"/>
</a>
</g>
</g>
<!-- node_System(6) -->
<g id="node11" class="node">
<title>node_System(6)</title>
<g id="a_node11"><a xlink:title="froglight_loading::systemsets::LoadingScreenEnableSystems::enable_fade_systems">
<polygon fill="#eff1f3" stroke="#b4bec7" points="165.25,-52 17.25,-52 17.25,-16 165.25,-16 165.25,-52"/>
<text text-anchor="middle" x="91.25" y="-28.57" font-family="Helvetica,sans-Serif" font-size="14.00" fill="#15191d">enable_fade_systems</text>
</a>
</g>
</g>
<!-- node_System(6)&#45;&gt;set_marker_node_Set(13) -->
<g id="edge5" class="edge">
<title>node_System(6)&#45;&gt;set_marker_node_Set(13)</title>
<g id="a_edge5"><a xlink:title="enable_fade_systems → LoadingScreenToggleSet">
<path fill="none" stroke="#44d488" stroke-width="2" d="M165.57,-30.36C175.66,-29.86 186.14,-29.34 196.58,-28.82"/>
<polygon fill="#44d488" stroke="#44d488" stroke-width="2" points="196.41,-32.33 206.23,-28.34 196.07,-25.34 196.41,-32.33"/>
</a>
</g>
</g>
<!-- set_marker_node_Set(2) -->
<!-- set_marker_node_Set(7) -->
<!-- set_marker_node_Set(8) -->
<!-- set_marker_node_Set(7)&#45;&gt;set_marker_node_Set(8) -->
<g id="edge1" class="edge">
<title>set_marker_node_Set(7)&#45;&gt;set_marker_node_Set(8)</title>
<g id="a_edge1"><a xlink:title="Waiting → Loading">
<path fill="none" stroke="#eede00" stroke-width="2" d="M166.5,-306C173.25,-306 180.17,-306 187.13,-306"/>
<polygon fill="#eede00" stroke="#eede00" stroke-width="2" points="186.98,-309.5 196.98,-306 186.98,-302.5 186.98,-309.5"/>
</a>
</g>
</g>
<!-- node_System(4) -->
<g id="node14" class="node">
<title>node_System(4)</title>
<g id="a_node14"><a xlink:title="froglight_resourcepack::schedule::ResourcePackState::enter_loading_state">
<polygon fill="#eff1f3" stroke="#b4bec7" points="158.5,-295 24,-295 24,-259 158.5,-259 158.5,-295"/>
<text text-anchor="middle" x="91.25" y="-271.57" font-family="Helvetica,sans-Serif" font-size="14.00" fill="#15191d">enter_loading_state</text>
</a>
</g>
</g>
<!-- set_marker_node_Set(9) -->
<!-- set_marker_node_Set(8)&#45;&gt;set_marker_node_Set(9) -->
<g id="edge2" class="edge">
<title>set_marker_node_Set(8)&#45;&gt;set_marker_node_Set(9)</title>
<g id="a_edge2"><a xlink:title="Loading → Processing">
<path fill="none" stroke="#881877" stroke-width="2" d="M389.5,-306C398.94,-306 408.48,-306 417.79,-306"/>
<polygon fill="#881877" stroke="#881877" stroke-width="2" points="417.48,-309.5 427.48,-306 417.48,-302.5 417.48,-309.5"/>
</a>
</g>
</g>
<!-- node_System(5) -->
<g id="node16" class="node">
<title>node_System(5)</title>
<g id="a_node16"><a xlink:title="froglight_resourcepack::tracker::ResourcePackTracker::load_next_pack_in_queue">
<polygon fill="#eff1f3" stroke="#b4bec7" points="381.5,-295 208,-295 208,-259 381.5,-259 381.5,-295"/>
<text text-anchor="middle" x="294.75" y="-271.57" font-family="Helvetica,sans-Serif" font-size="14.00" fill="#15191d">load_next_pack_in_queue</text>
</a>
</g>
</g>
<!-- set_marker_node_Set(10) -->
<!-- set_marker_node_Set(9)&#45;&gt;set_marker_node_Set(10) -->
<g id="edge3" class="edge">
<title>set_marker_node_Set(9)&#45;&gt;set_marker_node_Set(10)</title>
<g id="a_edge3"><a xlink:title="Processing → Ready">
<path fill="none" stroke="#00b0cc" stroke-width="2" d="M571.25,-306C599.09,-306 630.14,-306 653.9,-306"/>
<polygon fill="#00b0cc" stroke="#00b0cc" stroke-width="2" points="653.85,-309.5 663.85,-306 653.85,-302.5 653.85,-309.5"/>
</a>
</g>
</g>
<!-- node_System(15) -->
<g id="node18" class="node">
<title>node_System(15)</title>
<g id="a_node18"><a xlink:title="froglight_resourcepack::schedule::ResourcePackState::enter_ready_state">
<polygon fill="#eff1f3" stroke="#b4bec7" points="563.25,-295 438.5,-295 438.5,-259 563.25,-259 563.25,-295"/>
<text text-anchor="middle" x="500.88" y="-271.57" font-family="Helvetica,sans-Serif" font-size="14.00" fill="#15191d">enter_ready_state</text>
</a>
</g>
</g>
<!-- set_marker_node_Set(5) -->
<!-- node_System(3) -->
<g id="node21" class="node">
<title>node_System(3)</title>
<g id="a_node21"><a xlink:title="froglight_interface::uiscale::UiScalePlugin::set_scale_on_resize">
<polygon fill="#eff1f3" stroke="#b4bec7" points="160.75,-422 21.75,-422 21.75,-386 160.75,-386 160.75,-422"/>
<text text-anchor="middle" x="91.25" y="-398.57" font-family="Helvetica,sans-Serif" font-size="14.00" fill="#15191d">set_scale_on_resize</text>
</a>
</g>
</g>
<!-- set_marker_node_Set(23) -->
<!-- node_System(13) -->
<g id="node23" class="node">
<title>node_System(13)</title>
<g id="a_node23"><a xlink:title="froglight_debug::inspector::InspectorEnable::toggle_inspector">
<polygon fill="#eff1f3" stroke="#b4bec7" points="148.75,-517 33.75,-517 33.75,-481 148.75,-481 148.75,-517"/>
<text text-anchor="middle" x="91.25" y="-493.57" font-family="Helvetica,sans-Serif" font-size="14.00" fill="#15191d">toggle_inspector</text>
</a>
</g>
</g>
<!-- node_System(0) -->
<g id="node24" class="node">
<title>node_System(0)</title>
<g id="a_node24"><a xlink:title="bevy_window::system::close_when_requested">
<polygon fill="lightgrey" stroke="black" points="160.38,-604 22.12,-604 22.12,-568 160.38,-568 160.38,-604"/>
<text text-anchor="middle" x="91.25" y="-580.95" font-family="Times,serif" font-size="14.00">close_when_requested</text>
</a>
</g>
</g>
<!-- node_System(1) -->
<g id="node25" class="node">
<title>node_System(1)</title>
<g id="a_node25"><a xlink:title="bevy_xpbd_3d::plugins::prepare::init_async_colliders">
<polygon fill="lightgrey" stroke="black" points="153.62,-651 28.88,-651 28.88,-615 153.62,-615 153.62,-651"/>
<text text-anchor="middle" x="91.25" y="-627.95" font-family="Times,serif" font-size="14.00">init_async_colliders</text>
</a>
</g>
</g>
<!-- node_System(2) -->
<g id="node26" class="node">
<title>node_System(2)</title>
<g id="a_node26"><a xlink:title="bevy_xpbd_3d::plugins::prepare::init_async_scene_colliders">
<polygon fill="lightgrey" stroke="black" points="172,-698 10.5,-698 10.5,-662 172,-662 172,-698"/>
<text text-anchor="middle" x="91.25" y="-674.95" font-family="Times,serif" font-size="14.00">init_async_scene_colliders</text>
</a>
</g>
</g>
<!-- node_System(14) -->
<g id="node27" class="node">
<title>node_System(14)</title>
<g id="a_node27"><a xlink:title="bevy_inspector_egui::quick::world_inspector_ui">
<polygon fill="lightgrey" stroke="black" points="151.75,-745 30.75,-745 30.75,-709 151.75,-709 151.75,-745"/>
<text text-anchor="middle" x="91.25" y="-721.95" font-family="Times,serif" font-size="14.00">world_inspector_ui</text>
</a>
</g>
</g>
</g>
</svg>
