<?xml version="1.0" encoding="UTF-8" standalone="no"?>
<!DOCTYPE svg PUBLIC "-//W3C//DTD SVG 1.1//EN"
 "http://www.w3.org/Graphics/SVG/1.1/DTD/svg11.dtd">
<!-- Generated by graphviz version 9.0.0 (0)
 -->
<!-- Pages: 1 -->
<svg width="435pt" height="337pt"
 viewBox="0.00 0.00 434.75 337.00" xmlns="http://www.w3.org/2000/svg" xmlns:xlink="http://www.w3.org/1999/xlink">
<g id="graph0" class="graph" transform="scale(1 1) rotate(0) translate(4 333)">
<polygon fill="#0d1117" stroke="none" points="-4,4 -4,-333 430.75,-333 430.75,4 -4,4"/>
<g id="clust1" class="cluster">
<title>clusternode_Set(1)</title>
<g id="a_clust1"><a xlink:title="InterfaceStartupSet">
<path fill="#ffffff" fill-opacity="0.266667" stroke="#ffffff" stroke-width="2" stroke-opacity="0.313725" d="M36,-8C36,-8 172.25,-8 172.25,-8 178.25,-8 184.25,-14 184.25,-20 184.25,-20 184.25,-83 184.25,-83 184.25,-89 178.25,-95 172.25,-95 172.25,-95 36,-95 36,-95 30,-95 24,-89 24,-83 24,-83 24,-20 24,-20 24,-14 30,-8 36,-8"/>
<text text-anchor="middle" x="104.12" y="-77.7" font-family="Helvetica,sans-Serif" font-size="14.00" fill="#ffffff">InterfaceStartupSet</text>
</a>
</g>
</g>
<g id="clust2" class="cluster">
<title>clusternode_Set(3)</title>
<g id="a_clust2"><a xlink:title="ResourcePackLoaderStartupSet">
<path fill="#ffffff" fill-opacity="0.266667" stroke="#ffffff" stroke-width="2" stroke-opacity="0.313725" d="M12,-103C12,-103 197.25,-103 197.25,-103 203.25,-103 209.25,-109 209.25,-115 209.25,-115 209.25,-178 209.25,-178 209.25,-184 203.25,-190 197.25,-190 197.25,-190 12,-190 12,-190 6,-190 0,-184 0,-178 0,-178 0,-115 0,-115 0,-109 6,-103 12,-103"/>
<text text-anchor="middle" x="104.62" y="-172.7" font-family="Helvetica,sans-Serif" font-size="14.00" fill="#ffffff">ResourcePackLoaderStartupSet</text>
</a>
</g>
</g>
<g id="clust3" class="cluster">
<title>clusternode_Set(5)</title>
<g id="a_clust3"><a xlink:title="LoadingScreenStartupSet">
<path fill="#ffffff" fill-opacity="0.266667" stroke="#ffffff" stroke-width="2" stroke-opacity="0.313725" d="M36.38,-198C36.38,-198 406.75,-198 406.75,-198 412.75,-198 418.75,-204 418.75,-210 418.75,-210 418.75,-273 418.75,-273 418.75,-279 412.75,-285 406.75,-285 406.75,-285 36.38,-285 36.38,-285 30.38,-285 24.38,-279 24.38,-273 24.38,-273 24.38,-210 24.38,-210 24.38,-204 30.38,-198 36.38,-198"/>
<text text-anchor="middle" x="221.56" y="-267.7" font-family="Helvetica,sans-Serif" font-size="14.00" fill="#ffffff">LoadingScreenStartupSet</text>
</a>
</g>
</g>
<!-- set_marker_node_Set(1) -->
<!-- node_System(1) -->
<g id="node2" class="node">
<title>node_System(1)</title>
<g id="a_node2"><a xlink:title="froglight_interface::uiscale::UiScalePlugin::set_scale_on_startup">
<polygon fill="#eff1f3" stroke="#b4bec7" points="176.25,-52 32,-52 32,-16 176.25,-16 176.25,-52"/>
<text text-anchor="middle" x="104.12" y="-28.57" font-family="Helvetica,sans-Serif" font-size="14.00" fill="#15191d">set_scale_on_startup</text>
</a>
</g>
</g>
<!-- set_marker_node_Set(3) -->
<!-- node_System(2) -->
<g id="node4" class="node">
<title>node_System(2)</title>
<g id="a_node4"><a xlink:title="froglight_client::plugins::pack_loader::ResourcePackLoaderPlugin::queue_resource_packs">
<polygon fill="#eff1f3" stroke="#b4bec7" points="182.25,-147 26,-147 26,-111 182.25,-111 182.25,-147"/>
<text text-anchor="middle" x="104.12" y="-123.58" font-family="Helvetica,sans-Serif" font-size="14.00" fill="#15191d">queue_resource_packs</text>
</a>
</g>
</g>
<!-- set_marker_node_Set(5) -->
<!-- node_System(3) -->
<g id="node6" class="node">
<title>node_System(3)</title>
<g id="a_node6"><a xlink:title="froglight_loading::layout::LoadingScreenRoot::build_loading_screen">
<polygon fill="#eff1f3" stroke="#b4bec7" points="175.88,-242 32.38,-242 32.38,-206 175.88,-206 175.88,-242"/>
<text text-anchor="middle" x="104.12" y="-218.57" font-family="Helvetica,sans-Serif" font-size="14.00" fill="#15191d">build_loading_screen</text>
</a>
</g>
</g>
<!-- node_System(4) -->
<g id="node7" class="node">
<title>node_System(4)</title>
<g id="a_node7"><a xlink:title="froglight_loading::layout::LoadingScreenRoot::create_camera2d_if_none">
<polygon fill="#eff1f3" stroke="#b4bec7" points="410.75,-242 237.25,-242 237.25,-206 410.75,-206 410.75,-242"/>
<text text-anchor="middle" x="324" y="-218.57" font-family="Helvetica,sans-Serif" font-size="14.00" fill="#15191d">create_camera2d_if_none</text>
</a>
</g>
</g>
<!-- node_System(3)&#45;&gt;node_System(4) -->
<g id="edge1" class="edge">
<title>node_System(3)&#45;&gt;node_System(4)</title>
<g id="a_edge1"><a xlink:title="build_loading_screen → create_camera2d_if_none">
<path fill="none" stroke="#eede00" stroke-width="2" d="M176.16,-224C191.45,-224 207.87,-224 224,-224"/>
<polygon fill="#eede00" stroke="#eede00" stroke-width="2" points="223.82,-227.5 233.82,-224 223.82,-220.5 223.82,-227.5"/>
</a>
</g>
</g>
<!-- node_System(0) -->
<g id="node8" class="node">
<title>node_System(0)</title>
<g id="a_node8"><a xlink:title="bevy_diagnostic::system_information_diagnostics_plugin::internal::log_system_info">
<polygon fill="lightgrey" stroke="black" points="157.5,-329 50.75,-329 50.75,-293 157.5,-293 157.5,-329"/>
<text text-anchor="middle" x="104.12" y="-305.95" font-family="Times,serif" font-size="14.00">log_system_info</text>
</a>
</g>
</g>
</g>
</svg>
