<?xml version="1.0" encoding="UTF-8" standalone="no"?>
<!DOCTYPE svg PUBLIC "-//W3C//DTD SVG 1.1//EN"
 "http://www.w3.org/Graphics/SVG/1.1/DTD/svg11.dtd">
<!-- Generated by graphviz version 9.0.0 (0)
 -->
<!-- Pages: 1 -->
<svg width="935pt" height="231pt"
 viewBox="0.00 0.00 935.25 231.00" xmlns="http://www.w3.org/2000/svg" xmlns:xlink="http://www.w3.org/1999/xlink">
<g id="graph0" class="graph" transform="scale(1 1) rotate(0) translate(4 227)">
<polygon fill="#0d1117" stroke="none" points="-4,4 -4,-227 931.25,-227 931.25,4 -4,4"/>
<g id="clust1" class="cluster">
<title>clusternode_Set(1)</title>
<g id="a_clust1"><a xlink:title="LoadingScreenUpdateSet">
<path fill="#ffffff" fill-opacity="0.266667" stroke="#ffffff" stroke-width="2" stroke-opacity="0.313725" d="M20,-8C20,-8 907.25,-8 907.25,-8 913.25,-8 919.25,-14 919.25,-20 919.25,-20 919.25,-167 919.25,-167 919.25,-173 913.25,-179 907.25,-179 907.25,-179 20,-179 20,-179 14,-179 8,-173 8,-167 8,-167 8,-20 8,-20 8,-14 14,-8 20,-8"/>
<text text-anchor="middle" x="463.62" y="-161.7" font-family="Helvetica,sans-Serif" font-size="14.00" fill="#ffffff">LoadingScreenUpdateSet</text>
</a>
</g>
</g>
<g id="clust2" class="cluster">
<title>clusternode_Set(2)</title>
<g id="a_clust2"><a xlink:title="LoadingScreenFadeInUpdateSet">
<path fill="#ffffff" fill-opacity="0.266667" stroke="#ffffff" stroke-width="2" stroke-opacity="0.313725" d="M204,-16C204,-16 484.5,-16 484.5,-16 490.5,-16 496.5,-22 496.5,-28 496.5,-28 496.5,-91 496.5,-91 496.5,-97 490.5,-103 484.5,-103 484.5,-103 204,-103 204,-103 198,-103 192,-97 192,-91 192,-91 192,-28 192,-28 192,-22 198,-16 204,-16"/>
<text text-anchor="middle" x="344.25" y="-85.7" font-family="Helvetica,sans-Serif" font-size="14.00" fill="#ffffff">LoadingScreenFadeInUpdateSet</text>
</a>
</g>
</g>
<g id="clust3" class="cluster">
<title>clusternode_Set(3)</title>
<g id="a_clust3"><a xlink:title="LoadingScreenFadeOutUpdateSet">
<path fill="#ffffff" fill-opacity="0.266667" stroke="#ffffff" stroke-width="2" stroke-opacity="0.313725" d="M581.75,-16C581.75,-16 866.38,-16 866.38,-16 872.38,-16 878.38,-22 878.38,-28 878.38,-28 878.38,-91 878.38,-91 878.38,-97 872.38,-103 866.38,-103 866.38,-103 581.75,-103 581.75,-103 575.75,-103 569.75,-97 569.75,-91 569.75,-91 569.75,-28 569.75,-28 569.75,-22 575.75,-16 581.75,-16"/>
<text text-anchor="middle" x="724.06" y="-85.7" font-family="Helvetica,sans-Serif" font-size="14.00" fill="#ffffff">LoadingScreenFadeOutUpdateSet</text>
</a>
</g>
</g>
<!-- set_marker_node_Set(1) -->
<!-- set_marker_node_Set(2) -->
<!-- set_marker_node_Set(3) -->
<!-- set_marker_node_Set(2)&#45;&gt;set_marker_node_Set(3) -->
<g id="edge1" class="edge">
<title>set_marker_node_Set(2)&#45;&gt;set_marker_node_Set(3)</title>
<g id="a_edge1"><a xlink:title="LoadingScreenFadeInUpdateSet → LoadingScreenFadeOutUpdateSet">
<path fill="none" stroke="#eede00" stroke-width="2" d="M496.5,-71C517.59,-71 538.07,-71 556.84,-71"/>
<polygon fill="#eede00" stroke="#eede00" stroke-width="2" points="556.73,-74.5 566.73,-71 556.73,-67.5 556.73,-74.5"/>
</a>
</g>
</g>
<!-- node_System(7) -->
<g id="node10" class="node">
<title>node_System(7)</title>
<g id="a_node10"><a xlink:title="froglight_loading::layout::progress_bar::progress::ProgressBarProgress::update_current_progress">
<polygon fill="#eff1f3" stroke="#b4bec7" points="541.75,-147 375,-147 375,-111 541.75,-111 541.75,-147"/>
<text text-anchor="middle" x="458.38" y="-123.58" font-family="Helvetica,sans-Serif" font-size="14.00" fill="#15191d">update_current_progress</text>
</a>
</g>
</g>
<!-- set_marker_node_Set(2)&#45;&gt;node_System(7) -->
<g id="edge6" class="edge">
<title>set_marker_node_Set(2)&#45;&gt;node_System(7)</title>
<g id="a_edge6"><a xlink:title="LoadingScreenFadeInUpdateSet → update_current_progress">
<path fill="none" stroke="#0090cc" stroke-width="2" d="M368.55,-103C370.72,-103.68 372.87,-104.34 375,-105 377.06,-105.63 379.14,-106.27 381.25,-106.91"/>
<polygon fill="#0090cc" stroke="#0090cc" stroke-width="2" points="379.97,-110.19 390.56,-109.72 381.99,-103.48 379.97,-110.19"/>
</a>
</g>
</g>
<!-- node_System(3) -->
<g id="node3" class="node">
<title>node_System(3)</title>
<g id="a_node3"><a xlink:title="froglight_loading::layout::fade_animation::FadeTimer::insert_fade_in_timer">
<polygon fill="#eff1f3" stroke="#b4bec7" points="339,-60 200,-60 200,-24 339,-24 339,-60"/>
<text text-anchor="middle" x="269.5" y="-36.58" font-family="Helvetica,sans-Serif" font-size="14.00" fill="#15191d">insert_fade_in_timer</text>
</a>
</g>
</g>
<!-- node_System(4) -->
<g id="node4" class="node">
<title>node_System(4)</title>
<g id="a_node4"><a xlink:title="froglight_loading::layout::fade_animation::FadeAnimationMarker::fade_in">
<polygon fill="#eff1f3" stroke="#b4bec7" points="488.5,-60 428.25,-60 428.25,-24 488.5,-24 488.5,-60"/>
<text text-anchor="middle" x="458.38" y="-36.58" font-family="Helvetica,sans-Serif" font-size="14.00" fill="#15191d">fade_in</text>
</a>
</g>
</g>
<!-- node_System(3)&#45;&gt;node_System(4) -->
<g id="edge4" class="edge">
<title>node_System(3)&#45;&gt;node_System(4)</title>
<g id="a_edge4"><a xlink:title="insert_fade_in_timer → fade_in">
<path fill="none" stroke="#aa3a55" stroke-width="2" d="M339.29,-42C364.75,-42 392.83,-42 415.23,-42"/>
<polygon fill="#aa3a55" stroke="#aa3a55" stroke-width="2" points="415,-45.5 425,-42 415,-38.5 415,-45.5"/>
</a>
</g>
</g>
<!-- node_System(2) -->
<g id="node9" class="node">
<title>node_System(2)</title>
<g id="a_node9"><a xlink:title="froglight_loading::systemsets::LoadingScreenEnableSystems::disable_fade_systems">
<polygon fill="#eff1f3" stroke="#b4bec7" points="911.25,-147 761,-147 761,-111 911.25,-111 911.25,-147"/>
<text text-anchor="middle" x="836.12" y="-123.58" font-family="Helvetica,sans-Serif" font-size="14.00" fill="#15191d">disable_fade_systems</text>
</a>
</g>
</g>
<!-- set_marker_node_Set(3)&#45;&gt;node_System(2) -->
<g id="edge3" class="edge">
<title>set_marker_node_Set(3)&#45;&gt;node_System(2)</title>
<g id="a_edge3"><a xlink:title="LoadingScreenFadeOutUpdateSet → disable_fade_systems">
<path fill="none" stroke="#00b0cc" stroke-width="2" d="M753.19,-103C757.21,-104.27 761.2,-105.54 765.14,-106.79"/>
<polygon fill="#00b0cc" stroke="#00b0cc" stroke-width="2" points="763.85,-110.05 774.44,-109.74 765.97,-103.38 763.85,-110.05"/>
</a>
</g>
</g>
<!-- node_System(5) -->
<g id="node6" class="node">
<title>node_System(5)</title>
<g id="a_node6"><a xlink:title="froglight_loading::layout::fade_animation::FadeTimer::insert_fade_out_timer">
<polygon fill="#eff1f3" stroke="#b4bec7" points="725,-60 577.75,-60 577.75,-24 725,-24 725,-60"/>
<text text-anchor="middle" x="651.38" y="-36.58" font-family="Helvetica,sans-Serif" font-size="14.00" fill="#15191d">insert_fade_out_timer</text>
</a>
</g>
</g>
<!-- node_System(6) -->
<g id="node7" class="node">
<title>node_System(6)</title>
<g id="a_node7"><a xlink:title="froglight_loading::layout::fade_animation::FadeAnimationMarker::fade_out">
<polygon fill="#eff1f3" stroke="#b4bec7" points="870.38,-60 801.88,-60 801.88,-24 870.38,-24 870.38,-60"/>
<text text-anchor="middle" x="836.12" y="-36.58" font-family="Helvetica,sans-Serif" font-size="14.00" fill="#15191d">fade_out</text>
</a>
</g>
</g>
<!-- node_System(5)&#45;&gt;node_System(6) -->
<g id="edge5" class="edge">
<title>node_System(5)&#45;&gt;node_System(6)</title>
<g id="a_edge5"><a xlink:title="insert_fade_out_timer → fade_out">
<path fill="none" stroke="#44d488" stroke-width="2" d="M725.39,-42C746.77,-42 769.56,-42 788.79,-42"/>
<polygon fill="#44d488" stroke="#44d488" stroke-width="2" points="788.76,-45.5 798.76,-42 788.76,-38.5 788.76,-45.5"/>
</a>
</g>
</g>
<!-- node_System(1) -->
<g id="node8" class="node">
<title>node_System(1)</title>
<g id="a_node8"><a xlink:title="froglight_loading::systemsets::LoadingScreenEnableSystems::enable_fade_systems">
<polygon fill="#eff1f3" stroke="#b4bec7" points="164,-89 16,-89 16,-53 164,-53 164,-89"/>
<text text-anchor="middle" x="90" y="-65.58" font-family="Helvetica,sans-Serif" font-size="14.00" fill="#15191d">enable_fade_systems</text>
</a>
</g>
</g>
<!-- node_System(1)&#45;&gt;set_marker_node_Set(2) -->
<g id="edge2" class="edge">
<title>node_System(1)&#45;&gt;set_marker_node_Set(2)</title>
<g id="a_edge2"><a xlink:title="enable_fade_systems → LoadingScreenFadeInUpdateSet">
<path fill="none" stroke="#881877" stroke-width="2" d="M164.48,-71C169.31,-71 174.2,-71 179.09,-71"/>
<polygon fill="#881877" stroke="#881877" stroke-width="2" points="178.98,-74.5 188.98,-71 178.98,-67.5 178.98,-74.5"/>
</a>
</g>
</g>
<!-- node_System(7)&#45;&gt;set_marker_node_Set(3) -->
<g id="edge7" class="edge">
<title>node_System(7)&#45;&gt;set_marker_node_Set(3)</title>
<g id="a_edge7"><a xlink:title="update_current_progress → LoadingScreenFadeOutUpdateSet">
<path fill="none" stroke="#ee9e44" stroke-width="2" d="M523.27,-110.52C529.52,-108.67 535.76,-106.81 541.75,-105 546.86,-103.46 552.09,-101.86 557.38,-100.24"/>
<polygon fill="#ee9e44" stroke="#ee9e44" stroke-width="2" points="558.33,-103.61 566.86,-97.32 556.27,-96.92 558.33,-103.61"/>
</a>
</g>
</g>
<!-- node_System(0) -->
<g id="node11" class="node">
<title>node_System(0)</title>
<g id="a_node11"><a xlink:title="bevy_window::system::close_when_requested">
<polygon fill="lightgrey" stroke="black" points="159.12,-223 20.88,-223 20.88,-187 159.12,-187 159.12,-223"/>
<text text-anchor="middle" x="90" y="-199.95" font-family="Times,serif" font-size="14.00">close_when_requested</text>
</a>
</g>
</g>
</g>
</svg>
