<?xml version="1.0" encoding="UTF-8" standalone="no"?>
<!DOCTYPE svg PUBLIC "-//W3C//DTD SVG 1.1//EN"
 "http://www.w3.org/Graphics/SVG/1.1/DTD/svg11.dtd">
<!-- Generated by graphviz version 10.0.1 (0)
 -->
<!-- Pages: 1 -->
<svg width="308pt" height="537pt"
 viewBox="0.00 0.00 308.00 537.00" xmlns="http://www.w3.org/2000/svg" xmlns:xlink="http://www.w3.org/1999/xlink">
<g id="graph0" class="graph" transform="scale(1 1) rotate(0) translate(4 533)">
<polygon fill="#0d1117" stroke="none" points="-4,4 -4,-533 304,-533 304,4 -4,4"/>
<g id="clust1" class="cluster">
<title>clusternode_Set(1)</title>
<g id="a_clust1"><a xlink:title="TransformPropagate">
<path fill="#ffffff" fill-opacity="0.266667" stroke="#ffffff" stroke-width="2" stroke-opacity="0.313725" d="M70.62,-8C70.62,-8 229.38,-8 229.38,-8 235.38,-8 241.38,-14 241.38,-20 241.38,-20 241.38,-178 241.38,-178 241.38,-184 235.38,-190 229.38,-190 229.38,-190 70.62,-190 70.62,-190 64.62,-190 58.62,-184 58.62,-178 58.62,-178 58.62,-20 58.62,-20 58.62,-14 64.62,-8 70.62,-8"/>
<text text-anchor="middle" x="150" y="-172.7" font-family="Helvetica,sans-Serif" font-size="14.00" fill="#ffffff">TransformPropagate</text>
</a>
</g>
</g>
<g id="clust2" class="cluster">
<title>clusternode_Set(0)</title>
<g id="a_clust2"><a xlink:title="PropagateTransformsSet">
<path fill="#ffffff" fill-opacity="0.266667" stroke="#ffffff" stroke-width="2" stroke-opacity="0.313725" d="M78.62,-16C78.62,-16 221.38,-16 221.38,-16 227.38,-16 233.38,-22 233.38,-28 233.38,-28 233.38,-91 233.38,-91 233.38,-97 227.38,-103 221.38,-103 221.38,-103 78.62,-103 78.62,-103 72.62,-103 66.62,-97 66.62,-91 66.62,-91 66.62,-28 66.62,-28 66.62,-22 72.62,-16 78.62,-16"/>
<text text-anchor="middle" x="150" y="-85.7" font-family="Helvetica,sans-Serif" font-size="14.00" fill="#ffffff">PropagateTransformsSet</text>
</a>
</g>
</g>
<g id="clust3" class="cluster">
<title>clusternode_Set(5)</title>
<g id="a_clust3"><a xlink:title="CameraUpdateSystem">
<path fill="#ffffff" fill-opacity="0.266667" stroke="#ffffff" stroke-width="2" stroke-opacity="0.313725" d="M20,-198C20,-198 280,-198 280,-198 286,-198 292,-204 292,-210 292,-210 292,-367 292,-367 292,-373 286,-379 280,-379 280,-379 20,-379 20,-379 14,-379 8,-373 8,-367 8,-367 8,-210 8,-210 8,-204 14,-198 20,-198"/>
<text text-anchor="middle" x="150" y="-361.7" font-family="Helvetica,sans-Serif" font-size="14.00" fill="#ffffff">CameraUpdateSystem</text>
</a>
</g>
</g>
<g id="clust4" class="cluster">
<title>clusternode_Set(8)</title>
<g id="a_clust4"><a xlink:title="LoadingScreenPostStartupSet">
<path fill="#ffffff" fill-opacity="0.266667" stroke="#ffffff" stroke-width="2" stroke-opacity="0.313725" d="M64,-387C64,-387 237,-387 237,-387 243,-387 249,-393 249,-399 249,-399 249,-509 249,-509 249,-515 243,-521 237,-521 237,-521 64,-521 64,-521 58,-521 52,-515 52,-509 52,-509 52,-399 52,-399 52,-393 58,-387 64,-387"/>
<text text-anchor="middle" x="150.5" y="-503.7" font-family="Helvetica,sans-Serif" font-size="14.00" fill="#ffffff">LoadingScreenPostStartupSet</text>
</a>
</g>
</g>
<!-- set_marker_node_Set(1) -->
<!-- set_marker_node_Set(0) -->
<!-- node_System(1) -->
<g id="node3" class="node">
<title>node_System(1)</title>
<g id="a_node3"><a xlink:title="bevy_transform::systems::propagate_transforms">
<polygon fill="#ffe7b9" stroke="#ffc453" points="224.38,-71 75.62,-71 75.62,-35 224.38,-35 224.38,-71"/>
<text text-anchor="middle" x="150" y="-47.58" font-family="Helvetica,sans-Serif" font-size="14.00" fill="#322100">propagate_transforms</text>
</a>
</g>
</g>
<!-- node_System(0) -->
<g id="node4" class="node">
<title>node_System(0)</title>
<g id="a_node4"><a xlink:title="bevy_transform::systems::sync_simple_transforms">
<polygon fill="#ffe7b9" stroke="#ffc453" points="231.5,-158 68.5,-158 68.5,-122 231.5,-122 231.5,-158"/>
<text text-anchor="middle" x="150" y="-134.57" font-family="Helvetica,sans-Serif" font-size="14.00" fill="#322100">sync_simple_transforms</text>
</a>
</g>
</g>
<!-- set_marker_node_Set(5) -->
<!-- node_System(2) -->
<g id="node6" class="node">
<title>node_System(2)</title>
<g id="a_node6"><a xlink:title="bevy_render::camera::camera::camera_system&lt;bevy_render::camera::projection::Projection&gt;">
<polygon fill="#70b9fc" stroke="#0c88f9" points="244.62,-253 55.38,-253 55.38,-217 244.62,-217 244.62,-253"/>
<text text-anchor="middle" x="150" y="-229.57" font-family="Helvetica,sans-Serif" font-size="14.00" fill="#011a31">camera_system&lt;Projection&gt;</text>
</a>
</g>
</g>
<!-- node_System(3) -->
<g id="node7" class="node">
<title>node_System(3)</title>
<g id="a_node7"><a xlink:title="bevy_render::camera::camera::camera_system&lt;bevy_render::camera::projection::OrthographicProjection&gt;">
<polygon fill="#70b9fc" stroke="#0c88f9" points="284,-300 16,-300 16,-264 284,-264 284,-300"/>
<text text-anchor="middle" x="150" y="-276.57" font-family="Helvetica,sans-Serif" font-size="14.00" fill="#011a31">camera_system&lt;OrthographicProjection&gt;</text>
</a>
</g>
</g>
<!-- node_System(4) -->
<g id="node8" class="node">
<title>node_System(4)</title>
<g id="a_node8"><a xlink:title="bevy_render::camera::camera::camera_system&lt;bevy_render::camera::projection::PerspectiveProjection&gt;">
<polygon fill="#70b9fc" stroke="#0c88f9" points="279.88,-347 20.12,-347 20.12,-311 279.88,-311 279.88,-347"/>
<text text-anchor="middle" x="150" y="-323.57" font-family="Helvetica,sans-Serif" font-size="14.00" fill="#011a31">camera_system&lt;PerspectiveProjection&gt;</text>
</a>
</g>
</g>
<!-- set_marker_node_Set(8) -->
<!-- node_System(5) -->
<g id="node10" class="node">
<title>node_System(5)</title>
<g id="a_node10"><a xlink:title="froglight_interface::menus::loadingscreen::LoadingScreenRootNode::build_loadingscreen">
<polygon fill="#eff1f3" stroke="#b4bec7" points="218,-442 82,-442 82,-406 218,-406 218,-442"/>
<text text-anchor="middle" x="150" y="-418.57" font-family="Helvetica,sans-Serif" font-size="14.00" fill="#15191d">build_loadingscreen</text>
</a>
</g>
</g>
<!-- node_System(6) -->
<g id="node11" class="node">
<title>node_System(6)</title>
<g id="a_node11"><a xlink:title="froglight_interface::menus::loadingscreen::plugin::InterfaceLoadingScreenPlugin::create_camera2d">
<polygon fill="#eff1f3" stroke="#b4bec7" points="210.88,-489 89.12,-489 89.12,-453 210.88,-453 210.88,-489"/>
<text text-anchor="middle" x="150" y="-465.57" font-family="Helvetica,sans-Serif" font-size="14.00" fill="#15191d">create_camera2d</text>
</a>
</g>
</g>
</g>
</svg>
