<?xml version="1.0" encoding="UTF-8" standalone="no"?>
<!DOCTYPE svg PUBLIC "-//W3C//DTD SVG 1.1//EN"
 "http://www.w3.org/Graphics/SVG/1.1/DTD/svg11.dtd">
<!-- Generated by graphviz version 9.0.0 (0)
 -->
<!-- Pages: 1 -->
<svg width="178pt" height="100pt"
 viewBox="0.00 0.00 178.00 100.00" xmlns="http://www.w3.org/2000/svg" xmlns:xlink="http://www.w3.org/1999/xlink">
<g id="graph0" class="graph" transform="scale(1 1) rotate(0) translate(4 96)">
<polygon fill="#0d1117" stroke="none" points="-4,4 -4,-96 174,-96 174,4 -4,4"/>
<g id="clust1" class="cluster">
<title>clusternode_Set(1)</title>
<g id="a_clust1"><a xlink:title="LoadingScreenUpdateSet">
<path fill="#ffffff" fill-opacity="0.266667" stroke="#ffffff" stroke-width="2" stroke-opacity="0.313725" d="M12,-8C12,-8 158,-8 158,-8 164,-8 170,-14 170,-20 170,-20 170,-36 170,-36 170,-42 164,-48 158,-48 158,-48 12,-48 12,-48 6,-48 0,-42 0,-36 0,-36 0,-20 0,-20 0,-14 6,-8 12,-8"/>
<text text-anchor="middle" x="85" y="-30.7" font-family="Helvetica,sans-Serif" font-size="14.00" fill="#ffffff">LoadingScreenUpdateSet</text>
</a>
</g>
</g>
<!-- set_marker_node_Set(1) -->
<!-- node_System(0) -->
<g id="node2" class="node">
<title>node_System(0)</title>
<g id="a_node2"><a xlink:title="bevy_window::system::close_when_requested">
<polygon fill="lightgrey" stroke="black" points="154.12,-92 15.88,-92 15.88,-56 154.12,-56 154.12,-92"/>
<text text-anchor="middle" x="85" y="-68.95" font-family="Times,serif" font-size="14.00">close_when_requested</text>
</a>
</g>
</g>
</g>
</svg>
