<?xml version="1.0" encoding="UTF-8" standalone="no"?>
<!DOCTYPE svg PUBLIC "-//W3C//DTD SVG 1.1//EN"
 "http://www.w3.org/Graphics/SVG/1.1/DTD/svg11.dtd">
<!-- Generated by graphviz version 9.0.0 (0)
 -->
<!-- Pages: 1 -->
<svg width="1096pt" height="551pt"
 viewBox="0.00 0.00 1095.75 551.00" xmlns="http://www.w3.org/2000/svg" xmlns:xlink="http://www.w3.org/1999/xlink">
<g id="graph0" class="graph" transform="scale(1 1) rotate(0) translate(4 547)">
<polygon fill="#0d1117" stroke="none" points="-4,4 -4,-547 1091.75,-547 1091.75,4 -4,4"/>
<g id="clust1" class="cluster">
<title>clusternode_Set(1)</title>
<g id="a_clust1"><a xlink:title="InputSystem">
<path fill="#ffffff" fill-opacity="0.266667" stroke="#ffffff" stroke-width="2" stroke-opacity="0.313725" d="M288.75,-103C288.75,-103 1063.25,-103 1063.25,-103 1069.25,-103 1075.25,-109 1075.25,-115 1075.25,-115 1075.25,-319 1075.25,-319 1075.25,-325 1069.25,-331 1063.25,-331 1063.25,-331 288.75,-331 288.75,-331 282.75,-331 276.75,-325 276.75,-319 276.75,-319 276.75,-115 276.75,-115 276.75,-109 282.75,-103 288.75,-103"/>
<text text-anchor="middle" x="676" y="-313.7" font-family="Helvetica,sans-Serif" font-size="14.00" fill="#ffffff">InputSystem</text>
</a>
</g>
</g>
<g id="clust2" class="cluster">
<title>clusternode_Set(9)</title>
<g id="a_clust2"><a xlink:title="Focus">
<path fill="#ffffff" fill-opacity="0.266667" stroke="#ffffff" stroke-width="2" stroke-opacity="0.313725" d="M609.75,-8C609.75,-8 719,-8 719,-8 725,-8 731,-14 731,-20 731,-20 731,-83 731,-83 731,-89 725,-95 719,-95 719,-95 609.75,-95 609.75,-95 603.75,-95 597.75,-89 597.75,-83 597.75,-83 597.75,-20 597.75,-20 597.75,-14 603.75,-8 609.75,-8"/>
<text text-anchor="middle" x="664.38" y="-77.7" font-family="Helvetica,sans-Serif" font-size="14.00" fill="#ffffff">Focus</text>
</a>
</g>
</g>
<g id="clust3" class="cluster">
<title>clusternode_Set(14)</title>
<g id="a_clust3"><a xlink:title="InitContexts">
<path fill="#ffffff" fill-opacity="0.266667" stroke="#ffffff" stroke-width="2" stroke-opacity="0.313725" d="M288,-448C288,-448 1067.75,-448 1067.75,-448 1073.75,-448 1079.75,-454 1079.75,-460 1079.75,-460 1079.75,-523 1079.75,-523 1079.75,-529 1073.75,-535 1067.75,-535 1067.75,-535 288,-535 288,-535 282,-535 276,-529 276,-523 276,-523 276,-460 276,-460 276,-454 282,-448 288,-448"/>
<text text-anchor="middle" x="677.88" y="-517.7" font-family="Helvetica,sans-Serif" font-size="14.00" fill="#ffffff">InitContexts</text>
</a>
</g>
</g>
<g id="clust4" class="cluster">
<title>clusternode_Set(18)</title>
<g id="a_clust4"><a xlink:title="ProcessInput">
<path fill="#ffffff" fill-opacity="0.266667" stroke="#ffffff" stroke-width="2" stroke-opacity="0.313725" d="M592.88,-339C592.88,-339 735.88,-339 735.88,-339 741.88,-339 747.88,-345 747.88,-351 747.88,-351 747.88,-414 747.88,-414 747.88,-420 741.88,-426 735.88,-426 735.88,-426 592.88,-426 592.88,-426 586.88,-426 580.88,-420 580.88,-414 580.88,-414 580.88,-351 580.88,-351 580.88,-345 586.88,-339 592.88,-339"/>
<text text-anchor="middle" x="664.38" y="-408.7" font-family="Helvetica,sans-Serif" font-size="14.00" fill="#ffffff">ProcessInput</text>
</a>
</g>
</g>
<g id="clust5" class="cluster">
<title>clusternode_Set(20)</title>
<g id="a_clust5"><a xlink:title="BeginFrame">
<path fill="#ffffff" fill-opacity="0.266667" stroke="#ffffff" stroke-width="2" stroke-opacity="0.313725" d="M895.12,-353C895.12,-353 1029.88,-353 1029.88,-353 1035.88,-353 1041.88,-359 1041.88,-365 1041.88,-365 1041.88,-428 1041.88,-428 1041.88,-434 1035.88,-440 1029.88,-440 1029.88,-440 895.12,-440 895.12,-440 889.12,-440 883.12,-434 883.12,-428 883.12,-428 883.12,-365 883.12,-365 883.12,-359 889.12,-353 895.12,-353"/>
<text text-anchor="middle" x="962.5" y="-422.7" font-family="Helvetica,sans-Serif" font-size="14.00" fill="#ffffff">BeginFrame</text>
</a>
</g>
</g>
<!-- set_marker_node_Set(1) -->
<!-- node_System(7) -->
<g id="node10" class="node">
<title>node_System(7)</title>
<g id="a_node10"><a xlink:title="bevy_ui::focus::ui_focus_system">
<polygon fill="#ffb1e5" stroke="#ff4bc2" points="723,-52 605.75,-52 605.75,-16 723,-16 723,-52"/>
<text text-anchor="middle" x="664.38" y="-28.57" font-family="Helvetica,sans-Serif" font-size="14.00" fill="#320021">ui_focus_system</text>
</a>
</g>
</g>
<!-- set_marker_node_Set(1)&#45;&gt;node_System(7) -->
<g id="edge6" class="edge">
<title>set_marker_node_Set(1)&#45;&gt;node_System(7)</title>
<g id="a_edge6"><a xlink:title="InputSystem → ui_focus_system">
<path fill="none" stroke="#0090cc" stroke-width="2" d="M380.91,-158.03C384.26,-158.71 438.45,-169.28 523.38,-103 532.51,-86.96 542.26,-70.62 566,-57"/>
<polygon fill="#0090cc" stroke="#0090cc" stroke-width="2" points="594.5,-49.85 602.59,-43.01 592,-43.31 594.5,-49.85"/>
</a>
</g>
</g>
<!-- node_System(14) -->
<g id="node16" class="node">
<title>node_System(14)</title>
<g id="a_node16"><a xlink:title="bevy_egui::systems::process_input_system">
<polygon fill="#eff1f3" stroke="#b4bec7" points="739.88,-383 588.88,-383 588.88,-347 739.88,-347 739.88,-383"/>
<text text-anchor="middle" x="664.38" y="-359.57" font-family="Helvetica,sans-Serif" font-size="14.00" fill="#15191d">process_input_system</text>
</a>
</g>
</g>
<!-- set_marker_node_Set(1)&#45;&gt;node_System(14) -->
<g id="edge10" class="edge">
<title>set_marker_node_Set(1)&#45;&gt;node_System(14)</title>
<g id="a_edge10"><a xlink:title="InputSystem → process_input_system">
<path fill="none" stroke="#22c2bb" stroke-width="2" d="M380.81,-157.99C383.2,-157.72 460,-149.2 475.5,-163 511.18,-194.78 470.26,-227.25 562.49,-331"/>
<polygon fill="#22c2bb" stroke="#22c2bb" stroke-width="2" points="582.05,-344.16 592.58,-345.29 585.05,-337.84 582.05,-344.16"/>
</a>
</g>
</g>
<!-- node_System(0) -->
<g id="node2" class="node">
<title>node_System(0)</title>
<g id="a_node2"><a xlink:title="bevy_input::keyboard::keyboard_input_system">
<polygon fill="#d36aaf" stroke="#a5317d" points="459.38,-252 300.12,-252 300.12,-216 459.38,-216 459.38,-252"/>
<text text-anchor="middle" x="379.75" y="-228.57" font-family="Helvetica,sans-Serif" font-size="14.00" fill="#270b1d">keyboard_input_system</text>
</a>
</g>
</g>
<!-- node_System(1) -->
<g id="node3" class="node">
<title>node_System(1)</title>
<g id="a_node3"><a xlink:title="bevy_input::mouse::mouse_button_input_system">
<polygon fill="#d36aaf" stroke="#a5317d" points="474.75,-205 284.75,-205 284.75,-169 474.75,-169 474.75,-205"/>
<text text-anchor="middle" x="379.75" y="-181.57" font-family="Helvetica,sans-Serif" font-size="14.00" fill="#270b1d">mouse_button_input_system</text>
</a>
</g>
</g>
<!-- node_System(2) -->
<g id="node4" class="node">
<title>node_System(2)</title>
<g id="a_node4"><a xlink:title="bevy_input::gamepad::gamepad_event_system">
<polygon fill="#d36aaf" stroke="#a5317d" points="462,-299 297.5,-299 297.5,-263 462,-263 462,-299"/>
<text text-anchor="middle" x="379.75" y="-275.57" font-family="Helvetica,sans-Serif" font-size="14.00" fill="#270b1d">gamepad_event_system</text>
</a>
</g>
</g>
<!-- node_System(3) -->
<g id="node5" class="node">
<title>node_System(3)</title>
<g id="a_node5"><a xlink:title="bevy_input::gamepad::gamepad_connection_system">
<polygon fill="#d36aaf" stroke="#a5317d" points="762.75,-282 566,-282 566,-246 762.75,-246 762.75,-282"/>
<text text-anchor="middle" x="664.38" y="-258.57" font-family="Helvetica,sans-Serif" font-size="14.00" fill="#270b1d">gamepad_connection_system</text>
</a>
</g>
</g>
<!-- node_System(2)&#45;&gt;node_System(3) -->
<g id="edge1" class="edge">
<title>node_System(2)&#45;&gt;node_System(3)</title>
<g id="a_edge1"><a xlink:title="SystemTypeSet(gamepad_event_system()) → gamepad_connection_system">
<path fill="none" stroke="#eede00" stroke-width="2" d="M462.5,-276.08C490.67,-274.39 522.71,-272.46 552.8,-270.65"/>
<polygon fill="#eede00" stroke="#eede00" stroke-width="2" points="552.76,-274.16 562.53,-270.07 552.34,-267.17 552.76,-274.16"/>
</a>
</g>
</g>
<!-- node_System(4) -->
<g id="node6" class="node">
<title>node_System(4)</title>
<g id="a_node6"><a xlink:title="bevy_input::gamepad::gamepad_button_event_system">
<polygon fill="#d36aaf" stroke="#a5317d" points="1067.25,-252 857.75,-252 857.75,-216 1067.25,-216 1067.25,-252"/>
<text text-anchor="middle" x="962.5" y="-228.57" font-family="Helvetica,sans-Serif" font-size="14.00" fill="#270b1d">gamepad_button_event_system</text>
</a>
</g>
</g>
<!-- node_System(2)&#45;&gt;node_System(4) -->
<g id="edge2" class="edge">
<title>node_System(2)&#45;&gt;node_System(4)</title>
<g id="a_edge2"><a xlink:title="SystemTypeSet(gamepad_event_system()) → gamepad_button_event_system">
<path fill="none" stroke="#881877" stroke-width="2" d="M462.44,-264.15C466.95,-262.3 471.33,-260.26 475.5,-258 485.17,-252.75 483.31,-245.14 493.5,-241 525.09,-228.16 716.47,-229.15 844.51,-231.35"/>
<polygon fill="#881877" stroke="#881877" stroke-width="2" points="844.38,-234.85 854.44,-231.53 844.5,-227.85 844.38,-234.85"/>
</a>
</g>
</g>
<!-- node_System(5) -->
<g id="node7" class="node">
<title>node_System(5)</title>
<g id="a_node7"><a xlink:title="bevy_input::gamepad::gamepad_axis_event_system">
<polygon fill="#d36aaf" stroke="#a5317d" points="1060.5,-299 864.5,-299 864.5,-263 1060.5,-263 1060.5,-299"/>
<text text-anchor="middle" x="962.5" y="-275.57" font-family="Helvetica,sans-Serif" font-size="14.00" fill="#270b1d">gamepad_axis_event_system</text>
</a>
</g>
</g>
<!-- node_System(2)&#45;&gt;node_System(5) -->
<g id="edge4" class="edge">
<title>node_System(2)&#45;&gt;node_System(5)</title>
<g id="a_edge4"><a xlink:title="SystemTypeSet(gamepad_event_system()) → gamepad_axis_event_system">
<path fill="none" stroke="#aa3a55" stroke-width="2" d="M462.35,-284.75C494.62,-286.06 532.05,-287.36 566,-288 653.43,-289.65 675.32,-289.54 762.75,-288 791.54,-287.49 822.67,-286.57 851.56,-285.56"/>
<polygon fill="#aa3a55" stroke="#aa3a55" stroke-width="2" points="851.33,-289.07 861.19,-285.22 851.08,-282.08 851.33,-289.07"/>
</a>
</g>
</g>
<!-- node_System(3)&#45;&gt;node_System(4) -->
<g id="edge3" class="edge">
<title>node_System(3)&#45;&gt;node_System(4)</title>
<g id="a_edge3"><a xlink:title="SystemTypeSet(gamepad_connection_system()) → gamepad_button_event_system">
<path fill="none" stroke="#00b0cc" stroke-width="2" d="M763.16,-254.09C789.26,-251.45 817.74,-248.56 844.75,-245.83"/>
<polygon fill="#00b0cc" stroke="#00b0cc" stroke-width="2" points="844.85,-249.34 854.45,-244.85 844.15,-242.37 844.85,-249.34"/>
</a>
</g>
</g>
<!-- node_System(3)&#45;&gt;node_System(5) -->
<g id="edge5" class="edge">
<title>node_System(3)&#45;&gt;node_System(5)</title>
<g id="a_edge5"><a xlink:title="SystemTypeSet(gamepad_connection_system()) → gamepad_axis_event_system">
<path fill="none" stroke="#44d488" stroke-width="2" d="M763.16,-269.61C791.41,-271.24 822.43,-273.02 851.37,-274.68"/>
<polygon fill="#44d488" stroke="#44d488" stroke-width="2" points="850.87,-278.15 861.05,-275.23 851.27,-271.17 850.87,-278.15"/>
</a>
</g>
</g>
<!-- node_System(6) -->
<g id="node8" class="node">
<title>node_System(6)</title>
<g id="a_node8"><a xlink:title="bevy_input::touch::touch_screen_input_system">
<polygon fill="#d36aaf" stroke="#a5317d" points="472.12,-147 287.38,-147 287.38,-111 472.12,-111 472.12,-147"/>
<text text-anchor="middle" x="379.75" y="-123.58" font-family="Helvetica,sans-Serif" font-size="14.00" fill="#270b1d">touch_screen_input_system</text>
</a>
</g>
</g>
<!-- set_marker_node_Set(9) -->
<!-- set_marker_node_Set(14) -->
<!-- set_marker_node_Set(14)&#45;&gt;node_System(14) -->
<g id="edge11" class="edge">
<title>set_marker_node_Set(14)&#45;&gt;node_System(14)</title>
<g id="a_edge11"><a xlink:title="InitContexts → process_input_system">
<path fill="none" stroke="#99d955" stroke-width="2" d="M400.69,-448C434.38,-434.67 504.89,-407.53 566,-389 569.28,-388 572.64,-387.02 576.04,-386.05"/>
<polygon fill="#99d955" stroke="#99d955" stroke-width="2" points="576.84,-389.46 585.54,-383.42 574.97,-382.71 576.84,-389.46"/>
</a>
</g>
</g>
<!-- node_System(11) -->
<g id="node12" class="node">
<title>node_System(11)</title>
<g id="a_node12"><a xlink:title="bevy_egui::setup_new_windows_system">
<polygon fill="#eff1f3" stroke="#b4bec7" points="475.5,-503 284,-503 284,-467 475.5,-467 475.5,-503"/>
<text text-anchor="middle" x="379.75" y="-479.57" font-family="Helvetica,sans-Serif" font-size="14.00" fill="#15191d">setup_new_windows_system</text>
</a>
</g>
</g>
<!-- node_System(12) -->
<g id="node13" class="node">
<title>node_System(12)</title>
<g id="a_node13"><a xlink:title="bevy_ecs::schedule::executor::apply_deferred">
<polygon fill="#b0d34a" stroke="#d3e69c" points="717.38,-503 611.38,-503 611.38,-467 717.38,-467 717.38,-503"/>
<text text-anchor="middle" x="664.38" y="-479.57" font-family="Helvetica,sans-Serif" font-size="14.00" fill="#edf5d5">apply_deferred</text>
</a>
</g>
</g>
<!-- node_System(11)&#45;&gt;node_System(12) -->
<g id="edge8" class="edge">
<title>node_System(11)&#45;&gt;node_System(12)</title>
<g id="a_edge8"><a xlink:title="setup_new_windows_system → apply_deferred">
<path fill="none" stroke="#663699" stroke-width="2" d="M475.65,-485C515.92,-485 561.86,-485 598.21,-485"/>
<polygon fill="#663699" stroke="#663699" stroke-width="2" points="598.11,-488.5 608.11,-485 598.11,-481.5 598.11,-488.5"/>
</a>
</g>
</g>
<!-- node_System(13) -->
<g id="node14" class="node">
<title>node_System(13)</title>
<g id="a_node14"><a xlink:title="bevy_egui::systems::update_window_contexts_system">
<polygon fill="#eff1f3" stroke="#b4bec7" points="1071.75,-503 853.25,-503 853.25,-467 1071.75,-467 1071.75,-503"/>
<text text-anchor="middle" x="962.5" y="-479.57" font-family="Helvetica,sans-Serif" font-size="14.00" fill="#15191d">update_window_contexts_system</text>
</a>
</g>
</g>
<!-- node_System(12)&#45;&gt;node_System(13) -->
<g id="edge9" class="edge">
<title>node_System(12)&#45;&gt;node_System(13)</title>
<g id="a_edge9"><a xlink:title="apply_deferred → update_window_contexts_system">
<path fill="none" stroke="#3363bb" stroke-width="2" d="M717.63,-485C751.64,-485 797.46,-485 840.2,-485"/>
<polygon fill="#3363bb" stroke="#3363bb" stroke-width="2" points="840.02,-488.5 850.02,-485 840.02,-481.5 840.02,-488.5"/>
</a>
</g>
</g>
<!-- node_System(13)&#45;&gt;node_System(7) -->
<g id="edge13" class="edge">
<title>node_System(13)&#45;&gt;node_System(7)</title>
<path fill="none" stroke="#c93526" stroke-width="2" d="M887.19,-466.6C874.43,-460.56 862.36,-452.57 853.25,-442 738.44,-308.9 886.97,-181.36 762.75,-57 752.25,-46.49 737.91,-40.44 723.45,-37.03"/>
<g id="a_edge13&#45;label"><a xlink:title="update_window_contexts_system — ui_focus_system">
<polygon fill="#c6e6ff" stroke="none" points="782.75,-412 782.75,-432.5 833.25,-432.5 833.25,-412 782.75,-412"/>
<text text-anchor="start" x="784.75" y="-417.2" font-family="Times,serif" font-size="14.00" fill="#c93526">Window</text>
</a>
</g>
</g>
<!-- set_marker_node_Set(18) -->
<!-- node_System(15) -->
<g id="node18" class="node">
<title>node_System(15)</title>
<g id="a_node18"><a xlink:title="bevy_egui::systems::begin_frame_system">
<polygon fill="#eff1f3" stroke="#b4bec7" points="1033.88,-397 891.12,-397 891.12,-361 1033.88,-361 1033.88,-397"/>
<text text-anchor="middle" x="962.5" y="-373.57" font-family="Helvetica,sans-Serif" font-size="14.00" fill="#15191d">begin_frame_system</text>
</a>
</g>
</g>
<!-- set_marker_node_Set(18)&#45;&gt;node_System(15) -->
<g id="edge12" class="edge">
<title>set_marker_node_Set(18)&#45;&gt;node_System(15)</title>
<g id="a_edge12"><a xlink:title="ProcessInput → begin_frame_system">
<path fill="none" stroke="#eede00" stroke-width="2" d="M747.87,-389.82C788.47,-387.76 837.31,-385.29 878.03,-383.23"/>
<polygon fill="#eede00" stroke="#eede00" stroke-width="2" points="877.95,-386.74 887.76,-382.74 877.59,-379.75 877.95,-386.74"/>
</a>
</g>
</g>
<!-- node_System(14)&#45;&gt;node_System(7) -->
<g id="edge14" class="edge">
<title>node_System(14)&#45;&gt;node_System(7)</title>
<path fill="none" stroke="#c93526" stroke-width="2" d="M590.45,-346.61C581.8,-342.85 573.43,-338.36 566,-333 536.53,-311.76 528.8,-301.76 517.44,-267.25 487.44,-176.16 497.31,-123.93 566,-57 576.62,-46.66 590.94,-40.64 605.37,-37.21"/>
<g id="a_edge14&#45;label"><a xlink:title="process_input_system — ui_focus_system">
<polygon fill="#c6e6ff" stroke="none" points="495.5,-244.75 495.5,-265.25 546,-265.25 546,-244.75 495.5,-244.75"/>
<text text-anchor="start" x="497.5" y="-249.95" font-family="Times,serif" font-size="14.00" fill="#c93526">Window</text>
</a>
</g>
</g>
<!-- set_marker_node_Set(20) -->
<!-- node_System(8) -->
<g id="node19" class="node">
<title>node_System(8)</title>
<g id="a_node19"><a xlink:title="bevy_pbr::prepass::update_mesh_previous_global_transforms">
<polygon fill="lightgrey" stroke="black" points="247,-223 0,-223 0,-187 247,-187 247,-223"/>
<text text-anchor="middle" x="123.5" y="-199.95" font-family="Times,serif" font-size="14.00">update_mesh_previous_global_transforms</text>
</a>
</g>
</g>
<!-- node_System(9) -->
<g id="node20" class="node">
<title>node_System(9)</title>
<g id="a_node20"><a xlink:title="bevy_pbr::prepass::update_previous_view_projections">
<polygon fill="lightgrey" stroke="black" points="226,-270 21,-270 21,-234 226,-234 226,-270"/>
<text text-anchor="middle" x="123.5" y="-246.95" font-family="Times,serif" font-size="14.00">update_previous_view_projections</text>
</a>
</g>
</g>
<!-- node_System(10) -->
<g id="node21" class="node">
<title>node_System(10)</title>
<g id="a_node21"><a xlink:title="bevy_gilrs::gilrs_system::gilrs_event_system">
<polygon fill="lightgrey" stroke="black" points="184,-176 63,-176 63,-140 184,-140 184,-176"/>
<text text-anchor="middle" x="123.5" y="-152.95" font-family="Times,serif" font-size="14.00">gilrs_event_system</text>
</a>
</g>
</g>
<!-- node_System(10)&#45;&gt;set_marker_node_Set(1) -->
<g id="edge7" class="edge">
<title>node_System(10)&#45;&gt;set_marker_node_Set(1)</title>
<g id="a_edge7"><a xlink:title="gilrs_event_system → InputSystem">
<path fill="none" stroke="#ee9e44" stroke-width="2" d="M184.43,-158C208.21,-158 236.39,-158 263.8,-158"/>
<polygon fill="#ee9e44" stroke="#ee9e44" stroke-width="2" points="263.73,-161.5 273.73,-158 263.73,-154.5 263.73,-161.5"/>
</a>
</g>
</g>
</g>
</svg>
