<?xml version="1.0" encoding="UTF-8" standalone="no"?>
<!DOCTYPE svg PUBLIC "-//W3C//DTD SVG 1.1//EN"
 "http://www.w3.org/Graphics/SVG/1.1/DTD/svg11.dtd">
<!-- Generated by graphviz version 10.0.1 (0)
 -->
<!-- Pages: 1 -->
<svg width="703pt" height="1135pt"
 viewBox="0.00 0.00 703.25 1135.00" xmlns="http://www.w3.org/2000/svg" xmlns:xlink="http://www.w3.org/1999/xlink">
<g id="graph0" class="graph" transform="scale(1 1) rotate(0) translate(4 1131)">
<polygon fill="#0d1117" stroke="none" points="-4,4 -4,-1131 699.25,-1131 699.25,4 -4,4"/>
<g id="clust1" class="cluster">
<title>clusternode_Set(2)</title>
<g id="a_clust1"><a xlink:title="AssetUpdateSet">
<path fill="#ffffff" fill-opacity="0.266667" stroke="#ffffff" stroke-width="2" stroke-opacity="0.313725" d="M51.75,-8C51.75,-8 683.25,-8 683.25,-8 689.25,-8 695.25,-14 695.25,-20 695.25,-20 695.25,-170 695.25,-170 695.25,-176 689.25,-182 683.25,-182 683.25,-182 51.75,-182 51.75,-182 45.75,-182 39.75,-176 39.75,-170 39.75,-170 39.75,-20 39.75,-20 39.75,-14 45.75,-8 51.75,-8"/>
<text text-anchor="middle" x="367.5" y="-164.7" font-family="Helvetica,sans-Serif" font-size="14.00" fill="#ffffff">AssetUpdateSet</text>
</a>
</g>
</g>
<g id="clust2" class="cluster">
<title>clusternode_Set(1)</title>
<g id="a_clust2"><a xlink:title="Waiting">
<path fill="#ffffff" fill-opacity="0.266667" stroke="#ffffff" stroke-width="2" stroke-opacity="0.313725" d="M59.75,-16C59.75,-16 186.25,-16 186.25,-16 192.25,-16 198.25,-22 198.25,-28 198.25,-28 198.25,-91 198.25,-91 198.25,-97 192.25,-103 186.25,-103 186.25,-103 59.75,-103 59.75,-103 53.75,-103 47.75,-97 47.75,-91 47.75,-91 47.75,-28 47.75,-28 47.75,-22 53.75,-16 59.75,-16"/>
<text text-anchor="middle" x="123" y="-85.7" font-family="Helvetica,sans-Serif" font-size="14.00" fill="#ffffff">Waiting</text>
</a>
</g>
</g>
<g id="clust3" class="cluster">
<title>clusternode_Set(3)</title>
<g id="a_clust3"><a xlink:title="Loading">
<path fill="#ffffff" fill-opacity="0.266667" stroke="#ffffff" stroke-width="2" stroke-opacity="0.313725" d="M259,-16C259,-16 424.5,-16 424.5,-16 430.5,-16 436.5,-22 436.5,-28 436.5,-28 436.5,-138 436.5,-138 436.5,-144 430.5,-150 424.5,-150 424.5,-150 259,-150 259,-150 253,-150 247,-144 247,-138 247,-138 247,-28 247,-28 247,-22 253,-16 259,-16"/>
<text text-anchor="middle" x="341.75" y="-132.7" font-family="Helvetica,sans-Serif" font-size="14.00" fill="#ffffff">Loading</text>
</a>
</g>
</g>
<g id="clust4" class="cluster">
<title>clusternode_Set(4)</title>
<g id="a_clust4"><a xlink:title="Processing">
<path fill="#ffffff" fill-opacity="0.266667" stroke="#ffffff" stroke-width="2" stroke-opacity="0.313725" d="M475.5,-16C475.5,-16 592.25,-16 592.25,-16 598.25,-16 604.25,-22 604.25,-28 604.25,-28 604.25,-91 604.25,-91 604.25,-97 598.25,-103 592.25,-103 592.25,-103 475.5,-103 475.5,-103 469.5,-103 463.5,-97 463.5,-91 463.5,-91 463.5,-28 463.5,-28 463.5,-22 469.5,-16 475.5,-16"/>
<text text-anchor="middle" x="533.88" y="-85.7" font-family="Helvetica,sans-Serif" font-size="14.00" fill="#ffffff">Processing</text>
</a>
</g>
</g>
<g id="clust5" class="cluster">
<title>clusternode_Set(5)</title>
<g id="a_clust5"><a xlink:title="Ready">
<path fill="#ffffff" fill-opacity="0.266667" stroke="#ffffff" stroke-width="2" stroke-opacity="0.313725" d="M644.25,-16C644.25,-16 675.25,-16 675.25,-16 681.25,-16 687.25,-22 687.25,-28 687.25,-28 687.25,-44 687.25,-44 687.25,-50 681.25,-56 675.25,-56 675.25,-56 644.25,-56 644.25,-56 638.25,-56 632.25,-50 632.25,-44 632.25,-44 632.25,-28 632.25,-28 632.25,-22 638.25,-16 644.25,-16"/>
<text text-anchor="middle" x="659.75" y="-38.7" font-family="Helvetica,sans-Serif" font-size="14.00" fill="#ffffff">Ready</text>
</a>
</g>
</g>
<g id="clust6" class="cluster">
<title>clusternode_Set(7)</title>
<g id="a_clust6"><a xlink:title="InterfaceUpdateSet">
<path fill="#ffffff" fill-opacity="0.266667" stroke="#ffffff" stroke-width="2" stroke-opacity="0.313725" d="M20,-190C20,-190 435.75,-190 435.75,-190 441.75,-190 447.75,-196 447.75,-202 447.75,-202 447.75,-977 447.75,-977 447.75,-983 441.75,-989 435.75,-989 435.75,-989 20,-989 20,-989 14,-989 8,-983 8,-977 8,-977 8,-202 8,-202 8,-196 14,-190 20,-190"/>
<text text-anchor="middle" x="227.88" y="-971.7" font-family="Helvetica,sans-Serif" font-size="14.00" fill="#ffffff">InterfaceUpdateSet</text>
</a>
</g>
</g>
<g id="clust7" class="cluster">
<title>clusternode_Set(10)</title>
<g id="a_clust7"><a xlink:title="DebugUpdateSet">
<path fill="#ffffff" fill-opacity="0.266667" stroke="#ffffff" stroke-width="2" stroke-opacity="0.313725" d="M76,-198C76,-198 171,-198 171,-198 177,-198 183,-204 183,-210 183,-210 183,-226 183,-226 183,-232 177,-238 171,-238 171,-238 76,-238 76,-238 70,-238 64,-232 64,-226 64,-226 64,-210 64,-210 64,-204 70,-198 76,-198"/>
<text text-anchor="middle" x="123.5" y="-220.7" font-family="Helvetica,sans-Serif" font-size="14.00" fill="#ffffff">DebugUpdateSet</text>
</a>
</g>
</g>
<g id="clust8" class="cluster">
<title>clusternode_Set(11)</title>
<g id="a_clust8"><a xlink:title="UiScaleUpdateSet">
<path fill="#ffffff" fill-opacity="0.266667" stroke="#ffffff" stroke-width="2" stroke-opacity="0.313725" d="M52.25,-246C52.25,-246 193.75,-246 193.75,-246 199.75,-246 205.75,-252 205.75,-258 205.75,-258 205.75,-368 205.75,-368 205.75,-374 199.75,-380 193.75,-380 193.75,-380 52.25,-380 52.25,-380 46.25,-380 40.25,-374 40.25,-368 40.25,-368 40.25,-258 40.25,-258 40.25,-252 46.25,-246 52.25,-246"/>
<text text-anchor="middle" x="123" y="-362.7" font-family="Helvetica,sans-Serif" font-size="14.00" fill="#ffffff">UiScaleUpdateSet</text>
</a>
</g>
</g>
<g id="clust9" class="cluster">
<title>clusternode_Set(14)</title>
<g id="a_clust9"><a xlink:title="InspectorUpdateSet">
<path fill="#ffffff" fill-opacity="0.266667" stroke="#ffffff" stroke-width="2" stroke-opacity="0.313725" d="M283.38,-198C283.38,-198 400.12,-198 400.12,-198 406.12,-198 412.12,-204 412.12,-210 412.12,-210 412.12,-273 412.12,-273 412.12,-279 406.12,-285 400.12,-285 400.12,-285 283.38,-285 283.38,-285 277.38,-285 271.38,-279 271.38,-273 271.38,-273 271.38,-210 271.38,-210 271.38,-204 277.38,-198 283.38,-198"/>
<text text-anchor="middle" x="341.75" y="-267.7" font-family="Helvetica,sans-Serif" font-size="14.00" fill="#ffffff">InspectorUpdateSet</text>
</a>
</g>
</g>
<g id="clust10" class="cluster">
<title>clusternode_Set(17)</title>
<g id="a_clust10"><a xlink:title="InterfaceMenuUpdateSet">
<path fill="#ffffff" fill-opacity="0.266667" stroke="#ffffff" stroke-width="2" stroke-opacity="0.313725" d="M28,-388C28,-388 427.75,-388 427.75,-388 433.75,-388 439.75,-394 439.75,-400 439.75,-400 439.75,-937 439.75,-937 439.75,-943 433.75,-949 427.75,-949 427.75,-949 28,-949 28,-949 22,-949 16,-943 16,-937 16,-937 16,-400 16,-400 16,-394 22,-388 28,-388"/>
<text text-anchor="middle" x="227.88" y="-931.7" font-family="Helvetica,sans-Serif" font-size="14.00" fill="#ffffff">InterfaceMenuUpdateSet</text>
</a>
</g>
</g>
<g id="clust11" class="cluster">
<title>clusternode_Set(18)</title>
<g id="a_clust11"><a xlink:title="LoadingScreenUpdateSet">
<path fill="#ffffff" fill-opacity="0.266667" stroke="#ffffff" stroke-width="2" stroke-opacity="0.313725" d="M36,-396C36,-396 210,-396 210,-396 216,-396 222,-402 222,-408 222,-408 222,-708 222,-708 222,-714 216,-720 210,-720 210,-720 36,-720 36,-720 30,-720 24,-714 24,-708 24,-708 24,-408 24,-408 24,-402 30,-396 36,-396"/>
<text text-anchor="middle" x="123" y="-702.7" font-family="Helvetica,sans-Serif" font-size="14.00" fill="#ffffff">LoadingScreenUpdateSet</text>
</a>
</g>
</g>
<g id="clust12" class="cluster">
<title>clusternode_Set(23)</title>
<g id="a_clust12"><a xlink:title="Hidden">
<path fill="#ffffff" fill-opacity="0.266667" stroke="#ffffff" stroke-width="2" stroke-opacity="0.313725" d="M44,-404C44,-404 202,-404 202,-404 208,-404 214,-410 214,-416 214,-416 214,-479 214,-479 214,-485 208,-491 202,-491 202,-491 44,-491 44,-491 38,-491 32,-485 32,-479 32,-479 32,-416 32,-416 32,-410 38,-404 44,-404"/>
<text text-anchor="middle" x="123" y="-473.7" font-family="Helvetica,sans-Serif" font-size="14.00" fill="#ffffff">Hidden</text>
</a>
</g>
</g>
<g id="clust13" class="cluster">
<title>clusternode_Set(24)</title>
<g id="a_clust13"><a xlink:title="Shown">
<path fill="#ffffff" fill-opacity="0.266667" stroke="#ffffff" stroke-width="2" stroke-opacity="0.313725" d="M47.38,-499C47.38,-499 198.62,-499 198.62,-499 204.62,-499 210.62,-505 210.62,-511 210.62,-511 210.62,-668 210.62,-668 210.62,-674 204.62,-680 198.62,-680 198.62,-680 47.38,-680 47.38,-680 41.38,-680 35.38,-674 35.38,-668 35.38,-668 35.38,-511 35.38,-511 35.38,-505 41.38,-499 47.38,-499"/>
<text text-anchor="middle" x="123" y="-662.7" font-family="Helvetica,sans-Serif" font-size="14.00" fill="#ffffff">Shown</text>
</a>
</g>
</g>
<g id="clust14" class="cluster">
<title>clusternode_Set(19)</title>
<g id="a_clust14"><a xlink:title="MainMenuUpdateSet">
<path fill="#ffffff" fill-opacity="0.266667" stroke="#ffffff" stroke-width="2" stroke-opacity="0.313725" d="M271,-732C271,-732 412.5,-732 412.5,-732 418.5,-732 424.5,-738 424.5,-744 424.5,-744 424.5,-901 424.5,-901 424.5,-907 418.5,-913 412.5,-913 412.5,-913 271,-913 271,-913 265,-913 259,-907 259,-901 259,-901 259,-744 259,-744 259,-738 265,-732 271,-732"/>
<text text-anchor="middle" x="341.75" y="-895.7" font-family="Helvetica,sans-Serif" font-size="14.00" fill="#ffffff">MainMenuUpdateSet</text>
</a>
</g>
</g>
<g id="clust15" class="cluster">
<title>clusternode_Set(20)</title>
<g id="a_clust15"><a xlink:title="MultiplayerMenuUpdateSet">
<path fill="#ffffff" fill-opacity="0.266667" stroke="#ffffff" stroke-width="2" stroke-opacity="0.313725" d="M263.75,-636C263.75,-636 419.75,-636 419.75,-636 425.75,-636 431.75,-642 431.75,-648 431.75,-648 431.75,-664 431.75,-664 431.75,-670 425.75,-676 419.75,-676 419.75,-676 263.75,-676 263.75,-676 257.75,-676 251.75,-670 251.75,-664 251.75,-664 251.75,-648 251.75,-648 251.75,-642 257.75,-636 263.75,-636"/>
<text text-anchor="middle" x="341.75" y="-658.7" font-family="Helvetica,sans-Serif" font-size="14.00" fill="#ffffff">MultiplayerMenuUpdateSet</text>
</a>
</g>
</g>
<g id="clust16" class="cluster">
<title>clusternode_Set(21)</title>
<g id="a_clust16"><a xlink:title="SettingsMenuUpdateSet">
<path fill="#ffffff" fill-opacity="0.266667" stroke="#ffffff" stroke-width="2" stroke-opacity="0.313725" d="M272.75,-684C272.75,-684 411.75,-684 411.75,-684 417.75,-684 423.75,-690 423.75,-696 423.75,-696 423.75,-712 423.75,-712 423.75,-718 417.75,-724 411.75,-724 411.75,-724 272.75,-724 272.75,-724 266.75,-724 260.75,-718 260.75,-712 260.75,-712 260.75,-696 260.75,-696 260.75,-690 266.75,-684 272.75,-684"/>
<text text-anchor="middle" x="342.25" y="-706.7" font-family="Helvetica,sans-Serif" font-size="14.00" fill="#ffffff">SettingsMenuUpdateSet</text>
</a>
</g>
</g>
<g id="clust17" class="cluster">
<title>clusternode_Set(22)</title>
<g id="a_clust17"><a xlink:title="MainMenuPanoramaSet">
<path fill="#ffffff" fill-opacity="0.266667" stroke="#ffffff" stroke-width="2" stroke-opacity="0.313725" d="M53.25,-728C53.25,-728 192.75,-728 192.75,-728 198.75,-728 204.75,-734 204.75,-740 204.75,-740 204.75,-897 204.75,-897 204.75,-903 198.75,-909 192.75,-909 192.75,-909 53.25,-909 53.25,-909 47.25,-909 41.25,-903 41.25,-897 41.25,-897 41.25,-740 41.25,-740 41.25,-734 47.25,-728 53.25,-728"/>
<text text-anchor="middle" x="123" y="-891.7" font-family="Helvetica,sans-Serif" font-size="14.00" fill="#ffffff">MainMenuPanoramaSet</text>
</a>
</g>
</g>
<!-- set_marker_node_Set(2) -->
<!-- set_marker_node_Set(1) -->
<!-- set_marker_node_Set(3) -->
<!-- set_marker_node_Set(1)&#45;&gt;set_marker_node_Set(3) -->
<g id="edge1" class="edge">
<title>set_marker_node_Set(1)&#45;&gt;set_marker_node_Set(3)</title>
<g id="a_edge1"><a xlink:title="Waiting → Loading">
<path fill="none" stroke="#eede00" stroke-width="2" d="M198.25,-24C209.88,-24 222.09,-24 234.26,-24"/>
<polygon fill="#eede00" stroke="#eede00" stroke-width="2" points="233.97,-27.5 243.97,-24 233.97,-20.5 233.97,-27.5"/>
</a>
</g>
</g>
<!-- node_System(1) -->
<g id="node3" class="node">
<title>node_System(1)</title>
<g id="a_node3"><a xlink:title="froglight_assets::systemset::resourcepack::ResourcePackState::enter_loading_state">
<polygon fill="#eff1f3" stroke="#b4bec7" points="190.25,-71 55.75,-71 55.75,-35 190.25,-35 190.25,-71"/>
<text text-anchor="middle" x="123" y="-47.58" font-family="Helvetica,sans-Serif" font-size="14.00" fill="#15191d">enter_loading_state</text>
</a>
</g>
</g>
<!-- set_marker_node_Set(4) -->
<!-- set_marker_node_Set(3)&#45;&gt;set_marker_node_Set(4) -->
<g id="edge2" class="edge">
<title>set_marker_node_Set(3)&#45;&gt;set_marker_node_Set(4)</title>
<g id="a_edge2"><a xlink:title="Loading → Processing">
<path fill="none" stroke="#881877" stroke-width="2" d="M436.5,-24C441.21,-24 445.93,-24 450.61,-24"/>
<polygon fill="#881877" stroke="#881877" stroke-width="2" points="450.47,-27.5 460.47,-24 450.47,-20.5 450.47,-27.5"/>
</a>
</g>
</g>
<!-- node_System(2) -->
<g id="node5" class="node">
<title>node_System(2)</title>
<g id="a_node5"><a xlink:title="froglight_assets::asset_manager::tracker::AssetTracker::load_next_pack_in_queue">
<polygon fill="#eff1f3" stroke="#b4bec7" points="428.5,-71 255,-71 255,-35 428.5,-35 428.5,-71"/>
<text text-anchor="middle" x="341.75" y="-47.58" font-family="Helvetica,sans-Serif" font-size="14.00" fill="#15191d">load_next_pack_in_queue</text>
</a>
</g>
</g>
<!-- node_System(3) -->
<g id="node6" class="node">
<title>node_System(3)</title>
<g id="a_node6"><a xlink:title="froglight_assets::asset_manager::textureatlas::inner::AtlasManagerInner::skip_building_atlases">
<polygon fill="#eff1f3" stroke="#b4bec7" points="413.88,-118 269.62,-118 269.62,-82 413.88,-82 413.88,-118"/>
<text text-anchor="middle" x="341.75" y="-94.58" font-family="Helvetica,sans-Serif" font-size="14.00" fill="#15191d">skip_building_atlases</text>
</a>
</g>
</g>
<!-- set_marker_node_Set(5) -->
<!-- set_marker_node_Set(4)&#45;&gt;set_marker_node_Set(5) -->
<g id="edge3" class="edge">
<title>set_marker_node_Set(4)&#45;&gt;set_marker_node_Set(5)</title>
<g id="a_edge3"><a xlink:title="Processing → Ready">
<path fill="none" stroke="#00b0cc" stroke-width="2" d="M604.25,-24C609.43,-24 614.54,-24 619.42,-24"/>
<polygon fill="#00b0cc" stroke="#00b0cc" stroke-width="2" points="619.23,-27.5 629.23,-24 619.23,-20.5 619.23,-27.5"/>
</a>
</g>
</g>
<!-- node_System(18) -->
<g id="node8" class="node">
<title>node_System(18)</title>
<g id="a_node8"><a xlink:title="froglight_assets::systemset::resourcepack::ResourcePackState::enter_ready_state">
<polygon fill="#eff1f3" stroke="#b4bec7" points="596.25,-71 471.5,-71 471.5,-35 596.25,-35 596.25,-71"/>
<text text-anchor="middle" x="533.88" y="-47.58" font-family="Helvetica,sans-Serif" font-size="14.00" fill="#15191d">enter_ready_state</text>
</a>
</g>
</g>
<!-- set_marker_node_Set(7) -->
<!-- set_marker_node_Set(10) -->
<!-- set_marker_node_Set(14) -->
<!-- set_marker_node_Set(10)&#45;&gt;set_marker_node_Set(14) -->
<g id="edge4" class="edge">
<title>set_marker_node_Set(10)&#45;&gt;set_marker_node_Set(14)</title>
<g id="a_edge4"><a xlink:title="DebugUpdateSet → InspectorUpdateSet">
<path fill="none" stroke="#aa3a55" stroke-width="2" d="M183,-206C206.24,-206 233.34,-206 258.46,-206"/>
<polygon fill="#aa3a55" stroke="#aa3a55" stroke-width="2" points="258.35,-209.5 268.35,-206 258.35,-202.5 258.35,-209.5"/>
</a>
</g>
</g>
<!-- set_marker_node_Set(11) -->
<!-- node_System(4) -->
<g id="node13" class="node">
<title>node_System(4)</title>
<g id="a_node13"><a xlink:title="froglight_interface::plugins::uiscale::UiScalePlugin::set_uiscale">
<polygon fill="#eff1f3" stroke="#b4bec7" points="164.75,-301 81.25,-301 81.25,-265 164.75,-265 164.75,-301"/>
<text text-anchor="middle" x="123" y="-277.57" font-family="Helvetica,sans-Serif" font-size="14.00" fill="#15191d">set_uiscale</text>
</a>
</g>
</g>
<!-- node_System(5) -->
<g id="node14" class="node">
<title>node_System(5)</title>
<g id="a_node14"><a xlink:title="froglight_interface::plugins::uiscale::UiScalePlugin::set_uiscale_on_resize">
<polygon fill="#eff1f3" stroke="#b4bec7" points="197.75,-348 48.25,-348 48.25,-312 197.75,-312 197.75,-348"/>
<text text-anchor="middle" x="123" y="-324.57" font-family="Helvetica,sans-Serif" font-size="14.00" fill="#15191d">set_uiscale_on_resize</text>
</a>
</g>
</g>
<!-- node_System(6) -->
<g id="node16" class="node">
<title>node_System(6)</title>
<g id="a_node16"><a xlink:title="froglight_interface::plugins::inspector::enable::InspectorEnable::inspector_keybind">
<polygon fill="#eff1f3" stroke="#b4bec7" points="404.12,-253 279.38,-253 279.38,-217 404.12,-217 404.12,-253"/>
<text text-anchor="middle" x="341.75" y="-229.57" font-family="Helvetica,sans-Serif" font-size="14.00" fill="#15191d">inspector_keybind</text>
</a>
</g>
</g>
<!-- set_marker_node_Set(17) -->
<!-- set_marker_node_Set(18) -->
<!-- set_marker_node_Set(19) -->
<!-- set_marker_node_Set(18)&#45;&gt;set_marker_node_Set(19) -->
<g id="edge5" class="edge">
<title>set_marker_node_Set(18)&#45;&gt;set_marker_node_Set(19)</title>
<g id="a_edge5"><a xlink:title="LoadingScreenUpdateSet → MainMenuUpdateSet">
<path fill="none" stroke="#44d488" stroke-width="2" d="M222,-719.73C230.41,-722.01 238.83,-724.14 247,-726 252.95,-727.35 259.14,-728.61 265.37,-729.77"/>
<polygon fill="#44d488" stroke="#44d488" stroke-width="2" points="264.74,-733.21 275.2,-731.48 265.95,-726.31 264.74,-733.21"/>
</a>
</g>
</g>
<!-- set_marker_node_Set(20) -->
<!-- set_marker_node_Set(18)&#45;&gt;set_marker_node_Set(20) -->
<g id="edge6" class="edge">
<title>set_marker_node_Set(18)&#45;&gt;set_marker_node_Set(20)</title>
<g id="a_edge6"><a xlink:title="LoadingScreenUpdateSet → MultiplayerMenuUpdateSet">
<path fill="none" stroke="#0090cc" stroke-width="2" d="M222,-682C227.63,-680.94 233.37,-679.7 239.13,-678.32"/>
<polygon fill="#0090cc" stroke="#0090cc" stroke-width="2" points="240,-681.71 248.82,-675.84 238.26,-674.93 240,-681.71"/>
</a>
</g>
</g>
<!-- set_marker_node_Set(21) -->
<!-- set_marker_node_Set(18)&#45;&gt;set_marker_node_Set(21) -->
<g id="edge7" class="edge">
<title>set_marker_node_Set(18)&#45;&gt;set_marker_node_Set(21)</title>
<g id="a_edge7"><a xlink:title="LoadingScreenUpdateSet → SettingsMenuUpdateSet">
<path fill="none" stroke="#ee9e44" stroke-width="2" d="M222,-689.81C230.62,-689.97 239.33,-690.13 247.91,-690.29"/>
<polygon fill="#ee9e44" stroke="#ee9e44" stroke-width="2" points="247.66,-693.78 257.72,-690.47 247.79,-686.78 247.66,-693.78"/>
</a>
</g>
</g>
<!-- set_marker_node_Set(23) -->
<!-- node_System(8) -->
<g id="node20" class="node">
<title>node_System(8)</title>
<g id="a_node20"><a xlink:title="froglight_interface::menus::loadingscreen::LoadingScreenRootNode::listen_for_resourcepacks">
<polygon fill="#eff1f3" stroke="#b4bec7" points="206,-459 40,-459 40,-423 206,-423 206,-459"/>
<text text-anchor="middle" x="123" y="-435.57" font-family="Helvetica,sans-Serif" font-size="14.00" fill="#15191d">listen_for_resourcepacks</text>
</a>
</g>
</g>
<!-- set_marker_node_Set(24) -->
<!-- node_System(9) -->
<g id="node22" class="node">
<title>node_System(9)</title>
<g id="a_node22"><a xlink:title="froglight_interface::menus::loadingscreen::bar::ProgressBar::listen_for_finish">
<polygon fill="#eff1f3" stroke="#b4bec7" points="177.88,-554 68.12,-554 68.12,-518 177.88,-518 177.88,-554"/>
<text text-anchor="middle" x="123" y="-530.58" font-family="Helvetica,sans-Serif" font-size="14.00" fill="#15191d">listen_for_finish</text>
</a>
</g>
</g>
<!-- node_System(10) -->
<g id="node23" class="node">
<title>node_System(10)</title>
<g id="a_node23"><a xlink:title="froglight_interface::menus::loadingscreen::bar::ProgressBar::update_visual_progress">
<polygon fill="#eff1f3" stroke="#b4bec7" points="202.62,-601 43.38,-601 43.38,-565 202.62,-565 202.62,-601"/>
<text text-anchor="middle" x="123" y="-577.58" font-family="Helvetica,sans-Serif" font-size="14.00" fill="#15191d">update_visual_progress</text>
</a>
</g>
</g>
<!-- node_System(11) -->
<g id="node24" class="node">
<title>node_System(11)</title>
<g id="a_node24"><a xlink:title="froglight_interface::menus::loadingscreen::bar::ProgressBar::hide_when_finished">
<polygon fill="#eff1f3" stroke="#b4bec7" points="190.62,-648 55.38,-648 55.38,-612 190.62,-612 190.62,-648"/>
<text text-anchor="middle" x="123" y="-624.58" font-family="Helvetica,sans-Serif" font-size="14.00" fill="#15191d">hide_when_finished</text>
</a>
</g>
</g>
<!-- node_System(15) -->
<g id="node26" class="node">
<title>node_System(15)</title>
<g id="a_node26"><a xlink:title="froglight_interface::menus::mainmenu::buttons::multiplayer::MainMenuMultiplayerButton::on_multiplayer_button">
<polygon fill="#eff1f3" stroke="#b4bec7" points="416.5,-787 267,-787 267,-751 416.5,-751 416.5,-787"/>
<text text-anchor="middle" x="341.75" y="-763.58" font-family="Helvetica,sans-Serif" font-size="14.00" fill="#15191d">on_multiplayer_button</text>
</a>
</g>
</g>
<!-- node_System(16) -->
<g id="node27" class="node">
<title>node_System(16)</title>
<g id="a_node27"><a xlink:title="froglight_interface::menus::mainmenu::buttons::quit::MainMenuQuitButton::on_quit_button">
<polygon fill="#eff1f3" stroke="#b4bec7" points="394.38,-834 289.12,-834 289.12,-798 394.38,-798 394.38,-834"/>
<text text-anchor="middle" x="341.75" y="-810.58" font-family="Helvetica,sans-Serif" font-size="14.00" fill="#15191d">on_quit_button</text>
</a>
</g>
</g>
<!-- node_System(17) -->
<g id="node28" class="node">
<title>node_System(17)</title>
<g id="a_node28"><a xlink:title="froglight_interface::menus::mainmenu::buttons::settings::MainMenuSettingsButton::on_settings_button">
<polygon fill="#eff1f3" stroke="#b4bec7" points="406.75,-881 276.75,-881 276.75,-845 406.75,-845 406.75,-881"/>
<text text-anchor="middle" x="341.75" y="-857.58" font-family="Helvetica,sans-Serif" font-size="14.00" fill="#15191d">on_settings_button</text>
</a>
</g>
</g>
<!-- set_marker_node_Set(22) -->
<!-- set_marker_node_Set(22)&#45;&gt;set_marker_node_Set(19) -->
<g id="edge8" class="edge">
<title>set_marker_node_Set(22)&#45;&gt;set_marker_node_Set(19)</title>
<g id="a_edge8"><a xlink:title="MainMenuPanoramaSet → MainMenuUpdateSet">
<path fill="none" stroke="#663699" stroke-width="2" d="M204.75,-737.49C218.27,-737.74 232.42,-738 246.25,-738.26"/>
<polygon fill="#663699" stroke="#663699" stroke-width="2" points="245.91,-741.75 255.98,-738.44 246.04,-734.75 245.91,-741.75"/>
</a>
</g>
</g>
<!-- set_marker_node_Set(22)&#45;&gt;set_marker_node_Set(20) -->
<g id="edge9" class="edge">
<title>set_marker_node_Set(22)&#45;&gt;set_marker_node_Set(20)</title>
<g id="a_edge9"><a xlink:title="MainMenuPanoramaSet → MultiplayerMenuUpdateSet">
<path fill="none" stroke="#3363bb" stroke-width="2" d="M204.75,-730.41C210.83,-728.23 216.67,-725.47 222,-722 236.82,-712.35 233,-700.11 245.82,-684.81"/>
<polygon fill="#3363bb" stroke="#3363bb" stroke-width="2" points="247.98,-687.59 252.71,-678.11 243.1,-682.58 247.98,-687.59"/>
</a>
</g>
</g>
<!-- set_marker_node_Set(22)&#45;&gt;set_marker_node_Set(21) -->
<g id="edge10" class="edge">
<title>set_marker_node_Set(22)&#45;&gt;set_marker_node_Set(21)</title>
<g id="a_edge10"><a xlink:title="MainMenuPanoramaSet → SettingsMenuUpdateSet">
<path fill="none" stroke="#22c2bb" stroke-width="2" d="M186.98,-728C198.66,-726.24 210.73,-724.22 222,-722 230.56,-720.31 239.42,-718.4 248.28,-716.37"/>
<polygon fill="#22c2bb" stroke="#22c2bb" stroke-width="2" points="248.87,-719.82 257.81,-714.13 247.27,-713.01 248.87,-719.82"/>
</a>
</g>
</g>
<!-- node_System(12) -->
<g id="node32" class="node">
<title>node_System(12)</title>
<g id="a_node32"><a xlink:title="froglight_interface::menus::panorama::camera::MainMenuPanoramaCamera::panorama_camera">
<polygon fill="#eff1f3" stroke="#b4bec7" points="188.38,-783 57.62,-783 57.62,-747 188.38,-747 188.38,-783"/>
<text text-anchor="middle" x="123" y="-759.58" font-family="Helvetica,sans-Serif" font-size="14.00" fill="#15191d">panorama_camera</text>
</a>
</g>
</g>
<!-- node_System(13) -->
<g id="node33" class="node">
<title>node_System(13)</title>
<g id="a_node33"><a xlink:title="froglight_interface::menus::panorama::MainMenuBackground::panorama_rotation">
<polygon fill="#eff1f3" stroke="#b4bec7" points="188,-830 58,-830 58,-794 188,-794 188,-830"/>
<text text-anchor="middle" x="123" y="-806.58" font-family="Helvetica,sans-Serif" font-size="14.00" fill="#15191d">panorama_rotation</text>
</a>
</g>
</g>
<!-- node_System(14) -->
<g id="node34" class="node">
<title>node_System(14)</title>
<g id="a_node34"><a xlink:title="froglight_interface::menus::panorama::MainMenuBackground::panorama_visibility">
<polygon fill="#eff1f3" stroke="#b4bec7" points="188.75,-877 57.25,-877 57.25,-841 188.75,-841 188.75,-877"/>
<text text-anchor="middle" x="123" y="-853.58" font-family="Helvetica,sans-Serif" font-size="14.00" fill="#15191d">panorama_visibility</text>
</a>
</g>
</g>
<!-- node_System(0) -->
<g id="node35" class="node">
<title>node_System(0)</title>
<g id="a_node35"><a xlink:title="bevy_window::system::close_when_requested">
<polygon fill="lightgrey" stroke="black" points="192.12,-1033 53.88,-1033 53.88,-997 192.12,-997 192.12,-1033"/>
<text text-anchor="middle" x="123" y="-1009.95" font-family="Times,serif" font-size="14.00">close_when_requested</text>
</a>
</g>
</g>
<!-- node_System(7) -->
<g id="node36" class="node">
<title>node_System(7)</title>
<g id="a_node36"><a xlink:title="bevy_inspector_egui::quick::world_inspector_ui">
<polygon fill="lightgrey" stroke="black" points="183.5,-1080 62.5,-1080 62.5,-1044 183.5,-1044 183.5,-1080"/>
<text text-anchor="middle" x="123" y="-1056.95" font-family="Times,serif" font-size="14.00">world_inspector_ui</text>
</a>
</g>
</g>
<!-- node_System(19) -->
<g id="node37" class="node">
<title>node_System(19)</title>
<g id="a_node37"><a xlink:title="bevy_ecs::schedule::executor::apply_deferred">
<polygon fill="lightgrey" stroke="black" points="171.88,-1127 74.12,-1127 74.12,-1091 171.88,-1091 171.88,-1127"/>
<text text-anchor="middle" x="123" y="-1103.95" font-family="Times,serif" font-size="14.00">apply_deferred</text>
</a>
</g>
</g>
</g>
</svg>
